# OBJ written from /Users/denis.stritar/Dropbox/Personal Projects/Projects/2018/Find A Seat/Modo/Exported/wall.obj
# Units	meters

o Mesh
v 0.6 0 -9.35
v 0.6 0 9.7
v 1.2 0 9.7
v 1.2 0 -9.35
v 1.2 0 9.7
v 1.2 0 -9.35
v 4.47035e-09 1.2 9.7
v 4.47035e-09 1.2 -9.35
v 4.47035e-09 1.2 -9.35
v 4.47035e-09 1.2 9.7
v 1.2 0.566 9.7
v 0.566 1.2 9.7
v 0.566 1.2 -9.35
v 1.2 0.566 -9.35
v 1.18782 0.689687 9.7
v 1.18782 0.689687 -9.35
v 1.15174 0.808621 9.7
v 1.15174 0.808621 -9.35
v 1.09315 0.918232 9.7
v 1.09315 0.918232 -9.35
v 1.01431 1.01431 9.7
v 1.01431 1.01431 -9.35
v 0.918232 1.09315 9.7
v 0.918232 1.09315 -9.35
v 0.808621 1.15174 9.7
v 0.808621 1.15174 -9.35
v 0.689687 1.18782 9.7
v 0.689687 1.18782 -9.35
v -0.6 0 -9.35
v -0.6 0 9.7
v -1.2 0 9.7
v -1.2 0 -9.35
v -1.2 0 9.7
v -1.2 0 -9.35
v 4.47035e-09 1.2 9.7
v 4.47035e-09 1.2 -9.35
v 4.47035e-09 1.2 -9.35
v 4.47035e-09 1.2 9.7
v -1.2 0.566 9.7
v -0.566 1.2 9.7
v -0.566 1.2 -9.35
v -1.2 0.566 -9.35
v -1.18782 0.689687 9.7
v -1.18782 0.689687 -9.35
v -1.15174 0.808621 9.7
v -1.15174 0.808621 -9.35
v -1.09315 0.918232 9.7
v -1.09315 0.918232 -9.35
v -1.01431 1.01431 9.7
v -1.01431 1.01431 -9.35
v -0.918232 1.09315 9.7
v -0.918232 1.09315 -9.35
v -0.808621 1.15174 9.7
v -0.808621 1.15174 -9.35
v -0.689687 1.18782 9.7
v -0.689687 1.18782 -9.35
v 0.6 0.145437 9.28467
v -0.6 0.145437 9.28467
v -0.6 1.205 9.28467
v 0.6 1.205 9.28467
v 0.555 0.145437 9.28467
v -0.555 0.145437 9.28467
v -0.555 1.16412 9.28467
v 0.555 1.16412 9.28467
v 0.555 1.22544 10.9347
v -0.555 1.22544 10.9347
v -0.555 1.78412 10.9347
v 0.555 1.78412 10.9347
v 0.555 1.22544 11.4847
v -0.555 1.22544 11.4847
v -0.555 1.78412 11.4847
v 0.555 1.78412 11.4847
v 1.4208 1.22544 10.9347
v -1.4208 1.22544 10.9347
v -1.4208 1.78412 10.9347
v 1.4208 1.78412 10.9347
v 1.4208 1.22544 11.4847
v -1.4208 1.22544 11.4847
v -1.4208 1.78412 11.4847
v 1.4208 1.78412 11.4847
v -0.555 1.16653 9.79673
v 0.555 1.16653 9.79673
v 0.6 0.145437 -8.98467
v -0.6 0.145437 -8.98467
v -0.6 1.205 -8.98467
v 0.6 1.205 -8.98467
v 0.555 0.145437 -8.98467
v -0.555 0.145437 -8.98467
v -0.555 1.16412 -8.98467
v 0.555 1.16412 -8.98467
vn 0 1 0
vn -0.986659 -0.162803 0
vn -0.999465 -0.0327074 0
vn -0.997858 -0.0654147 0
vn -0.973856 -0.227167 0
vn 0.352162 -0.935939 0
vn 0.412793 -0.910825 0
vn 0.227167 -0.973856 0
vn 0.162803 -0.986659 0
vn 0 0.958306 -0.285743
vn 0 0.99365 -0.112511
vn 0 0 1
vn -0.849252 -0.527988 0
vn -0.935939 -0.352162 0
vn -0.910825 -0.412793 0
vn -0.812792 -0.582554 0
vn 0.997858 -0.0654147 0
vn 0.999465 -0.0327074 0
vn 0.986659 -0.162803 0
vn 0.973856 -0.227167 0
vn 0 0 -1
vn 0 -0.968671 0.248347
vn 0 -0.98655 0.163461
vn 0 -1 0
vn -0.0327074 -0.999465 0
vn -0.0654147 -0.997858 0
vn -0.729928 -0.683524 0
vn -0.683524 -0.729928 0
vn 0.0327074 -0.999465 0
vn 0.0654147 -0.997858 0
vn 0.935939 -0.352162 0
vn 0.910825 -0.412793 0
vn 0 -0.999989 0.00470539
vn -1 0 0
vn -0.227167 -0.973856 0
vn -0.162803 -0.986659 0
vn 1 0 0
vn 0.527988 -0.849252 0
vn 0.582554 -0.812792 0
vn -0.582554 -0.812792 0
vn -0.527988 -0.849252 0
vn 0.849252 -0.527988 0
vn 0.812792 -0.582554 0
vn -0.412793 -0.910825 0
vn -0.352162 -0.935939 0
vn 0.729928 -0.683524 0
vn 0.683524 -0.729928 0
vn 0 0.836702 -0.547659
vt 0.528333 1
vt 1 0
vt 1 1
vt 0 0
vt 0.471667 1
vt 0 1
vt -0.39625 1.75
vt -0.528333 2
vt -0.528333 0
vt -0.39625 0
vt -0.39625 1
vt -0.528333 1
vt 0.264167 0
vt 0.264167 0.5
vt 0.39625 0.25
vt 0.39625 0
vt 0.264167 1
vt 0.39625 1
vt -0.132083 1.25
vt -0.264167 1.5
vt -0.264167 0
vt -0.132083 0
vt -0.132083 1
vt -0.264167 1
vt 0.528333 0
vt 0.471667 0
vt 0.132083 0
vt 0.132083 0.75
vt 0.132083 1
mtllib wall.mtl
usemtl Walls
g Default
f 12/1/1 7/2/1 10/3/1
f 13/1/1 9/2/1 8/3/1
f 3/4/1 11/5/1 5/6/1
f 6/4/1 14/5/1 4/6/1
f 40/1/1 38/3/1 35/2/1
f 41/1/1 36/3/1 37/2/1
f 31/4/1 33/6/1 39/5/1
f 34/4/1 32/6/1 42/5/1
f 16/7/2 14/8/3 11/9/4
f 11/9/4 15/10/5 16/7/2
f 16/11/2 14/12/3 11/9/4
f 11/9/4 15/10/5 16/11/2
f 30/4/1 29/6/1 31/2/1
f 32/3/1 31/2/1 29/6/1
f 53/13/6 54/14/7 56/15/8
f 56/15/8 55/16/9 53/13/6
f 53/13/6 54/17/7 56/18/8
f 56/18/8 55/16/9 53/13/6
f 65/6/10 66/4/11 69/6/1
f 70/4/1 69/6/1 66/4/11
f 65/6/10 69/6/1 73/6/1
f 77/6/1 73/6/1 69/6/1
f 88/4/12 87/6/12 89/2/12
f 90/3/12 89/2/12 87/6/12
f 20/19/13 18/20/14 17/21/15
f 17/21/15 19/22/16 20/19/13
f 20/23/13 18/24/14 17/21/15
f 17/21/15 19/22/16 20/23/13
f 39/9/17 42/8/18 44/7/19
f 44/7/19 43/10/20 39/9/17
f 39/9/17 42/12/18 44/11/19
f 44/11/19 43/10/20 39/9/17
f 70/4/21 71/2/21 69/6/21
f 72/3/21 69/6/21 71/2/21
f 70/4/1 66/4/11 78/4/1
f 74/4/1 78/4/1 66/4/11
f 82/3/22 68/3/23 81/2/22
f 67/2/23 81/2/22 68/3/23
f 7/2/24 8/3/24 12/25/25
f 13/25/26 12/25/25 8/3/24
f 22/6/27 20/19/13 19/22/16
f 19/22/16 21/4/28 22/6/27
f 22/6/27 20/23/13 19/22/16
f 19/22/16 21/4/28 22/6/27
f 38/2/24 40/25/29 37/3/24
f 41/1/30 37/3/24 40/25/29
f 43/10/20 44/7/19 46/20/31
f 46/20/31 45/21/32 43/10/20
f 43/10/20 44/11/19 46/24/31
f 46/24/31 45/21/32 43/10/20
f 62/4/21 58/4/21 63/2/21
f 59/2/21 63/2/21 58/4/21
f 66/4/12 67/2/12 74/4/12
f 75/2/12 74/4/12 67/2/12
f 82/3/22 81/2/22 64/3/33
f 63/2/33 64/3/33 81/2/22
f 4/6/1 3/4/1 5/2/1
f 5/2/1 6/3/1 4/6/1
f 11/26/4 14/26/3 3/4/34
f 4/6/34 3/4/34 14/26/3
f 13/25/26 28/15/35 27/16/36
f 27/16/36 12/25/25 13/25/26
f 13/1/26 28/18/35 27/16/36
f 27/16/36 12/25/25 13/1/26
f 39/26/17 33/4/37 42/5/18
f 34/6/37 42/5/18 33/4/37
f 51/27/38 52/28/39 54/14/7
f 54/14/7 53/13/6 51/27/38
f 51/27/38 52/29/39 54/17/7
f 54/17/7 53/13/6 51/27/38
f 67/2/23 68/3/23 71/2/24
f 72/3/24 71/2/24 68/3/23
f 68/3/12 65/6/12 76/3/12
f 73/6/12 76/3/12 65/6/12
f 87/6/12 83/6/12 90/3/12
f 86/3/12 90/3/12 83/6/12
f 24/28/40 22/6/27 21/4/28
f 21/4/28 23/27/41 24/28/40
f 24/29/40 22/6/27 21/4/28
f 21/4/28 23/27/41 24/29/40
f 45/21/32 46/20/31 48/19/42
f 48/19/42 47/22/43 45/21/32
f 45/21/32 46/24/31 48/23/42
f 48/23/42 47/22/43 45/21/32
f 59/2/21 60/3/21 63/2/21
f 64/3/21 63/2/21 60/3/21
f 67/2/23 71/2/24 75/2/24
f 79/2/24 75/2/24 71/2/24
f 82/3/34 64/3/34 61/6/34
f 65/6/34 68/3/34 82/3/34
f 61/6/34 65/6/34 82/3/34
f 10/2/24 9/3/24 12/25/25
f 13/1/26 12/25/25 9/3/24
f 18/20/14 16/7/2 15/10/5
f 15/10/5 17/21/15 18/20/14
f 18/24/14 16/11/2 15/10/5
f 15/10/5 17/21/15 18/24/14
f 33/2/1 31/4/1 32/6/1
f 32/6/1 34/3/1 33/2/1
f 39/26/17 31/4/37 42/26/18
f 32/6/37 42/26/18 31/4/37
f 55/16/9 56/15/8 41/25/30
f 41/25/30 40/25/29 55/16/9
f 55/16/9 56/18/8 41/1/30
f 41/1/30 40/25/29 55/16/9
f 71/2/21 70/4/21 79/2/21
f 78/4/21 79/2/21 70/4/21
f 62/4/37 63/2/37 81/2/37
f 81/2/37 67/2/37 66/4/37
f 62/4/37 81/2/37 66/4/37
f 11/26/4 14/5/3 5/4/34
f 6/6/34 5/4/34 14/5/3
f 26/14/44 24/28/40 23/27/41
f 23/27/41 25/13/45 26/14/44
f 26/17/44 24/29/40 23/27/41
f 23/27/41 25/13/45 26/17/44
f 35/2/24 40/25/29 36/3/24
f 41/25/30 36/3/24 40/25/29
f 47/22/43 48/19/42 50/6/46
f 50/6/46 49/4/47 47/22/43
f 47/22/43 48/23/42 50/6/46
f 50/6/46 49/4/47 47/22/43
f 61/6/21 64/3/21 57/6/21
f 60/3/21 57/6/21 64/3/21
f 69/6/21 72/3/21 77/6/21
f 80/3/21 77/6/21 72/3/21
f 88/4/12 89/2/12 84/4/12
f 85/2/12 84/4/12 89/2/12
f 2/4/1 3/2/1 1/6/1
f 4/3/1 1/6/1 3/2/1
f 28/15/35 26/14/44 25/13/45
f 25/13/45 27/16/36 28/15/35
f 28/18/35 26/17/44 25/13/45
f 25/13/45 27/16/36 28/18/35
f 49/4/47 50/6/46 52/28/39
f 52/28/39 51/27/38 49/4/47
f 49/4/47 50/6/46 52/29/39
f 52/29/39 51/27/38 49/4/47
f 61/6/48 62/4/48 65/6/10
f 66/4/11 65/6/10 62/4/48
f 72/3/24 68/3/23 80/3/24
f 76/3/24 80/3/24 68/3/23
f 85/2/12 89/2/12 86/3/12
f 90/3/12 86/3/12 89/2/12
