<?xml version="1.0" standalone="no"?>
<!DOCTYPE svg PUBLIC "-//W3C//DTD SVG 1.1//EN" "http://www.w3.org/Graphics/SVG/1.1/DTD/svg11.dtd" >
<svg xmlns="http://www.w3.org/2000/svg">
<metadata>
Created by FontPrep 20130207 at Sun May  3 15:11:42 2015
 By Denis Stritar
2012 Svend Smital published by FSI FontShop International GmbH
</metadata>
<defs>
<font id="e5cd9316638bba389e720d2dd5ef62fa" horiz-adv-x='1024' >
  <font-face 
    font-family="SuperGroteskPro"
    font-weight="400"
    font-stretch="normal"
    units-per-em="2048"
    panose-1="2 11 5 4 2 1 1 2 1 2"
    ascent="1597"
    descent="-451"
    x-height="819"
    cap-height="1475"
    bbox="-1841 -461 2402 1884"
    underline-thickness="143"
    underline-position="-62"
    unicode-range="U+000D-FEFF"
  />
<missing-glyph 
d="M287 143h409v1188h-409v-1188zM143 0v1475h697v-1475h-697z" />
    <glyph glyph-name=".notdef" 
d="M287 143h409v1188h-409v-1188zM143 0v1475h697v-1475h-697z" />
    <glyph glyph-name=".null" horiz-adv-x="0" 
 />
    <glyph glyph-name=".null" horiz-adv-x="0" 
 />
    <glyph glyph-name="nonmarkingreturn" horiz-adv-x="681" 
 />
    <glyph glyph-name="CR" unicode="&#xd;" horiz-adv-x="512" 
 />
    <glyph glyph-name="space" unicode=" " horiz-adv-x="512" 
 />
    <glyph glyph-name="exclam" unicode="!" horiz-adv-x="522" 
d="M184 0v174h154v-174h-154zM184 328v1147h154v-1147h-154z" />
    <glyph glyph-name="quotedbl" unicode="&#x22;" horiz-adv-x="532" 
d="M92 1024l-10 451h143l-10 -451h-123zM317 1024l-10 451h144l-11 -451h-123z" />
    <glyph glyph-name="numbersign" unicode="#" horiz-adv-x="1433" 
d="M553 502h328v430h-328v-430zM410 0v369h-226v133h226v430h-226v133h226v328h143v-328h328v328h143v-328h225v-133h-225v-430h225v-133h-225v-369h-143v369h-328v-369h-143z" />
    <glyph glyph-name="dollar" unicode="$" horiz-adv-x="1015" 
d="M756 350q0 96 -56 161t-157 124v-539q213 31 213 254zM240 1106q0 -156 174 -258v452q-78 -14 -126 -65t-48 -129zM414 -184v151q-213 31 -342 254l110 74q52 -88 104 -136t128 -61v604q-145 76 -226 164q-80 88 -80 234t88 231q87 84 218 103v151h129v-153
q162 -27 266 -160l-90 -92q-76 98 -176 120v-520q82 -44 127 -72t102 -79q111 -99 111 -273t-87 -273t-253 -116v-151h-129z" />
    <glyph glyph-name="percent" unicode="%" horiz-adv-x="1638" 
d="M1208 82q63 0 104 60q40 60 40 164t-40 166q-40 60 -104 60t-103 -60q-40 -60 -40 -164t40 -166q40 -60 103 -60zM1208 -41q-110 0 -188 98t-78 250t78 250t188 98t189 -98q78 -98 78 -250t-78 -250t-189 -98zM328 0l839 1393h144l-840 -1393h-143zM430 860q64 0 104 60
t39 165q0 104 -39 165q-40 60 -104 60t-103 -60q-40 -60 -40 -164t40 -166q40 -60 103 -60zM430 737q-110 1 -188 99t-78 250t78 249q78 99 188 99t188 -98t78 -251q0 -152 -78 -250t-188 -98z" />
    <glyph glyph-name="ampersand" unicode="&#x26;" horiz-adv-x="1392" 
d="M250 446q0 -162 112 -257t265 -95q206 0 329 156l-428 508q-212 -97 -258 -202q-20 -48 -20 -110zM768 1133q0 71 -44 115t-120 44t-120 -44t-44 -108t111 -196q4 -2 10 -10t8 -10q100 45 150 91q49 46 49 118zM623 -37q-194 0 -339 115q-73 57 -117 152t-44 216
q0 170 84 264t229 158q-84 104 -108 152t-25 117q0 129 84 205t216 77q132 0 216 -78q84 -77 84 -199q-1 -122 -65 -194t-183 -131l365 -440q31 78 31 166t-41 223h145q39 -108 39 -238t-74 -274l211 -254h-168l-123 143q-163 -180 -417 -180z" />
    <glyph glyph-name="quotesingle" unicode="'" horiz-adv-x="307" 
d="M92 1024l-10 451h143l-10 -451h-123z" />
    <glyph glyph-name="parenleft" unicode="(" horiz-adv-x="696" 
d="M123 686q0 272 105 513t284 419l102 -102q-162 -162 -255 -394t-93 -436q0 -203 93 -435t255 -394l-102 -103q-178 178 -284 419q-105 241 -105 513z" />
    <glyph glyph-name="parenright" unicode=")" horiz-adv-x="696" 
d="M430 686q0 203 -93 435t-255 395l102 102q178 -178 284 -419t105 -513q1 -272 -105 -513t-284 -419l-102 103q162 162 255 394t93 435z" />
    <glyph glyph-name="asterisk" unicode="*" horiz-adv-x="917" 
d="M397 819l2 225l-194 -114l-62 106l199 111l-199 110l62 107l194 -115l-2 226h123l-2 -226l195 115l61 -107l-199 -110l199 -111l-61 -106l-195 114l2 -225h-123z" />
    <glyph glyph-name="plus" unicode="+" horiz-adv-x="1155" 
d="M506 184v369h-369v143h369v369h143v-369h369v-143h-369v-369h-143z" />
    <glyph glyph-name="comma" unicode="," horiz-adv-x="522" 
d="M184 20v154h154v-154q0 -92 -40 -166t-93 -120l-82 41q61 98 61 245z" />
    <glyph glyph-name="hyphen" unicode="-" horiz-adv-x="604" 
d="M82 369v143h440v-143h-440z" />
    <glyph glyph-name="period" unicode="." horiz-adv-x="522" 
d="M184 0v174h154v-174h-154z" />
    <glyph glyph-name="slash" unicode="/" horiz-adv-x="778" 
d="M0 -205l635 1802h143l-635 -1802h-143z" />
    <glyph glyph-name="zero" unicode="0" horiz-adv-x="1064" 
d="M532 102q127 0 218 86q90 86 90 222t-90 221q-90 86 -218 86t-217 -86q-90 -86 -90 -221q0 -136 90 -222t217 -86zM532 -31q-202 0 -326 121t-124 320q0 200 125 320t325 120t326 -121q125 -121 125 -319t-125 -320q-125 -121 -326 -121z" />
    <glyph glyph-name="one" unicode="1" horiz-adv-x="614" 
d="M307 0v635l-246 -225v204l246 205h144v-819h-144z" />
    <glyph glyph-name="two" unicode="2" horiz-adv-x="921" 
d="M102 0v102q0 109 60 181q60 71 143 103q84 32 168 56t143 61q60 36 60 89t-51 89t-141 36t-173 -40q-84 -40 -147 -104l-82 123q94 76 179 115t227 39t236 -68q95 -68 95 -188q0 -82 -41 -140t-102 -86t-133 -53t-133 -42q-60 -17 -102 -50t-42 -80h553l-20 -143h-697z
" />
    <glyph glyph-name="three" unicode="3" horiz-adv-x="880" 
d="M410 -440q-283 0 -430 256l102 88q131 -211 328 -211q118 1 202 65t84 187t-93 191t-214 69h-61v143h61q102 0 174 52t72 140t-65 133q-65 44 -160 44q-160 0 -267 -144l-102 82q129 195 369 195q176 0 272 -84t96 -204t-55 -188t-129 -98q82 -14 164 -101t82 -241
t-118 -264t-312 -110z" />
    <glyph glyph-name="four" unicode="4" horiz-adv-x="1003" 
d="M635 133v481l-389 -481h389zM635 -410v410h-655l655 819h143v-686h205v-133h-205v-410h-143z" />
    <glyph glyph-name="five" unicode="5" horiz-adv-x="962" 
d="M451 -440q-281 0 -431 225l103 102q49 -82 137 -138t206 -56t205 99t87 236q0 138 -86 224t-201 86q-174 0 -328 -92l41 573h607l-13 -133h-471l-20 -256q77 41 221 41t268 -113t125 -331q0 -219 -130 -343t-320 -124z" />
    <glyph glyph-name="six" unicode="6" horiz-adv-x="1064" 
d="M532 102q127 0 218 86q90 86 90 222t-90 221q-90 86 -218 86t-217 -87q-90 -87 -90 -221q0 -135 90 -221t217 -86zM532 -31q-202 0 -326 121t-124 320q0 114 41 204t123 205l409 574h185l-430 -574q74 31 153 31q168 0 294 -121t126 -319t-125 -320q-125 -121 -326 -121z
" />
    <glyph glyph-name="seven" unicode="7" horiz-adv-x="911" 
d="M891 819v-133l-502 -1137h-164l523 1137h-768l30 133h881z" />
    <glyph glyph-name="eight" unicode="8" horiz-adv-x="1064" 
d="M532 102q136 0 222 96t86 216t-83 212t-225 91q-142 0 -225 -94q-82 -94 -82 -216q0 -121 85 -213t222 -92zM529 854q112 0 181 61q68 61 68 157t-66 163q-67 65 -183 65t-179 -62t-63 -163t65 -161t177 -60zM533 -31q-203 0 -327 121t-124 320q0 139 64 235
q65 96 151 143q-154 104 -154 297q-1 145 105 247t283 102t283 -102t108 -247q0 -96 -45 -174t-115 -123q221 -115 221 -358q0 -213 -124 -337t-326 -124z" />
    <glyph glyph-name="nine" unicode="9" horiz-adv-x="1064" 
d="M532 102q127 0 218 87q90 87 90 221t-90 221q-90 86 -218 86t-217 -86q-90 -86 -90 -221q0 -136 90 -222t217 -86zM502 -31q-168 0 -294 121t-126 320q0 200 125 320t325 120t326 -121q125 -121 125 -319q0 -113 -41 -205t-123 -205l-323 -451h-179l338 451
q-74 -31 -153 -31z" />
    <glyph glyph-name="colon" unicode=":" horiz-adv-x="522" 
d="M184 0v174h154v-174h-154zM184 645v174h154v-174h-154z" />
    <glyph glyph-name="semicolon" unicode=";" horiz-adv-x="522" 
d="M184 20v154h154v-154q0 -92 -40 -166t-93 -120l-82 41q61 98 61 245zM184 645v174h154v-174h-154z" />
    <glyph glyph-name="less" unicode="&#x3c;" horiz-adv-x="1155" 
d="M1018 92l-881 471v123l881 471v-164l-717 -368l717 -369v-164z" />
    <glyph glyph-name="equal" unicode="=" horiz-adv-x="1155" 
d="M137 389v143h881v-143h-881zM137 717v143h881v-143h-881z" />
    <glyph glyph-name="greater" unicode="&#x3e;" horiz-adv-x="1155" 
d="M137 92v164l717 369l-717 368v164l881 -471v-123z" />
    <glyph glyph-name="question" unicode="?" horiz-adv-x="1003" 
d="M389 0v174h154v-174h-154zM377 463q0 69 29 144t72 124q88 98 189 190t101 200q0 109 -78 181t-194 70q-116 0 -199 -81q-82 -81 -82 -204l-154 29q15 184 133 292t302 108t305 -100t121 -290q0 -98 -40 -176t-96 -129t-114 -103q-139 -127 -137 -298q0 -49 8 -92h-154
q-12 66 -12 135z" />
    <glyph glyph-name="at" unicode="@" horiz-adv-x="1753" 
d="M808 129q110 0 182 67t71 210q0 144 -72 210t-182 66t-182 -77t-72 -199t72 -200q73 -77 183 -77zM891 -369q-336 1 -562 227t-227 548q0 322 226 548t552 226t548 -194t223 -507q0 -221 -81 -341t-233 -120q-113 0 -225 119q-74 -81 -144 -109t-165 -28q-168 0 -278 113
t-109 293q0 180 110 292t269 113q160 0 258 -111v93h137v-480q0 -88 51 -127t117 -39q66 -1 110 93t43 221q0 264 -181 427t-451 163q-269 1 -453 -187t-184 -458t183 -458t452 -188q123 0 247 50t195 122l166 -43q-258 -258 -594 -258z" />
    <glyph glyph-name="A" unicode="A" horiz-adv-x="1187" 
d="M373 594h442l-221 696zM20 0l502 1475h144l501 -1475h-163l-144 451h-532l-144 -451h-164z" />
    <glyph glyph-name="B" unicode="B" horiz-adv-x="1105" 
d="M338 143h215q137 0 222 76t85 201t-86 201t-221 75h-215v-553zM338 840h184q123 0 195 72q71 72 71 192q0 119 -76 173q-77 54 -190 54h-184v-491zM184 0v1475h353q181 1 293 -101t112 -268q0 -111 -51 -201t-139 -131q104 -33 178 -123t74 -241q0 -188 -126 -299
t-321 -111h-373z" />
    <glyph glyph-name="C" unicode="C" horiz-adv-x="1409" 
d="M840 -41q-330 0 -534 216t-204 562t204 562t534 217q287 0 479 -226l-111 -98q-47 68 -150 124t-218 56q-264 0 -424 -179t-160 -451t172 -456q172 -183 412 -184q123 0 213 48t184 145l100 -111q-225 -225 -497 -225z" />
    <glyph glyph-name="D" unicode="D" horiz-adv-x="1361" 
d="M338 143h184q194 0 381 143q91 70 147 188t56 264t-56 264q-99 209 -335 293q-98 36 -193 36h-184v-1188zM184 0v1475h342q268 0 490 -173q108 -86 176 -232t68 -332t-68 -331q-122 -262 -411 -363q-126 -44 -255 -44h-342z" />
    <glyph glyph-name="E" unicode="E" horiz-adv-x="1011" 
d="M184 0v1475h670l18 -144h-534v-502h461v-143h-461v-543h571l-18 -143h-707z" />
    <glyph glyph-name="F" unicode="F" horiz-adv-x="970" 
d="M184 0v1475h707l18 -144h-571v-502h479l2 -143h-481v-686h-154z" />
    <glyph glyph-name="G" unicode="G" horiz-adv-x="1617" 
d="M840 -41q-307 0 -523 227q-215 227 -215 551t215 551t523 228q440 0 645 -318l-111 -92q-203 266 -534 266q-238 0 -411 -190t-173 -444t174 -445q174 -190 410 -191q301 0 477 230v346h-399l36 141h510v-563q-94 -129 -252 -213t-372 -84z" />
    <glyph glyph-name="H" unicode="H" horiz-adv-x="1443" 
d="M184 0v1475h154v-656h768v656h154v-1475h-154v676h-768v-676h-154z" />
    <glyph glyph-name="I" unicode="I" horiz-adv-x="522" 
d="M184 0v1475h154v-1475h-154z" />
    <glyph glyph-name="J" unicode="J" horiz-adv-x="665" 
d="M246 -41q-154 0 -246 123l102 102q55 -82 144 -82q34 0 58 33t24 90v1250h153v-1250q0 -123 -63 -195t-172 -71z" />
    <glyph glyph-name="K" unicode="K" horiz-adv-x="1116" 
d="M184 0v1475h154v-646h4l539 646h184l-635 -756l645 -719h-194l-539 604h-4v-604h-154z" />
    <glyph glyph-name="L" unicode="L" horiz-adv-x="870" 
d="M184 0v1475h154v-1332h502l-23 -143h-633z" />
    <glyph glyph-name="M" unicode="M" horiz-adv-x="1699" 
d="M184 0v1475h154l512 -973l512 973h154v-1475h-154v1167h-4l-508 -962l-508 962h-4v-1167h-154z" />
    <glyph glyph-name="N" unicode="N" horiz-adv-x="1536" 
d="M184 0v1475h154l860 -1219v1219h154v-1475h-154l-860 1219v-1219h-154z" />
    <glyph glyph-name="O" unicode="O" horiz-adv-x="1638" 
d="M819 102q242 0 403 186t160 449q0 264 -160 450q-161 185 -403 185q-243 0 -403 -185t-160 -449t160 -450t403 -186zM819 -41q-319 0 -518 219t-199 559t199 559q199 220 518 220t518 -220t199 -559q0 -340 -199 -559t-518 -219z" />
    <glyph glyph-name="P" unicode="P" horiz-adv-x="1024" 
d="M338 799h164q131 0 214 62q83 61 83 203t-83 204t-214 63h-164v-532zM184 0v1475h318q194 1 322 -103t128 -307t-129 -306t-321 -104h-164v-655h-154z" />
    <glyph glyph-name="Q" unicode="Q" horiz-adv-x="1638" 
d="M819 102q190 0 340 123l-217 287h184l136 -176q121 176 120 401q0 264 -160 450q-161 185 -403 185q-243 0 -403 -185t-160 -449t160 -450t403 -186zM819 -41q-319 0 -518 219t-199 559t199 559q199 220 518 220t518 -220t199 -548q0 -330 -176 -545l156 -203h-185
l-76 100q-180 -141 -436 -141z" />
    <glyph glyph-name="R" unicode="R" horiz-adv-x="1085" 
d="M338 799h164q131 0 214 62q83 61 83 203t-83 204t-214 63h-164v-532zM184 0v1475h318q194 1 322 -103t128 -307q0 -102 -36 -181t-96 -125q-114 -88 -267 -104l461 -655h-195l-440 655h-41v-655h-154z" />
    <glyph glyph-name="S" unicode="S" horiz-adv-x="1095" 
d="M588 -41q-305 0 -516 246l123 102q86 -109 176 -157t214 -48q123 0 199 73t76 194q0 150 -134 244q-60 42 -189 110t-204 130q-149 123 -149 305q0 181 116 269t284 89q238 0 368 -164l-92 -113q-41 57 -115 95t-174 38t-167 -51q-66 -51 -66 -145t50 -160t125 -104
t163 -87t163 -99t125 -142t50 -215q0 -176 -112 -293t-314 -117z" />
    <glyph glyph-name="T" unicode="T" horiz-adv-x="890" 
d="M369 0v1321h-328l20 154h768l21 -154h-328v-1321h-153z" />
    <glyph glyph-name="U" unicode="U" horiz-adv-x="1404" 
d="M702 -41q-233 0 -386 145t-152 412v959h153v-959q0 -188 111 -301q110 -113 274 -113t275 113t110 301v959h154v-959q0 -266 -152 -412q-154 -145 -387 -145z" />
    <glyph glyph-name="V" unicode="V" horiz-adv-x="1105" 
d="M479 0l-479 1475h164l389 -1229l389 1229h164l-479 -1475h-148z" />
    <glyph glyph-name="W" unicode="W" horiz-adv-x="1781" 
d="M430 0l-410 1475h164l326 -1219h4l305 1219h144l294 -1219h5l335 1219h164l-409 -1475h-154l-305 1188h-4l-305 -1188h-154z" />
    <glyph glyph-name="X" unicode="X" horiz-adv-x="1146" 
d="M41 0l442 760l-411 715h174l327 -562l328 562h174l-411 -715l442 -760h-184l-349 604l-348 -604h-184z" />
    <glyph glyph-name="Y" unicode="Y" horiz-adv-x="1085" 
d="M465 0v516l-465 959h174l369 -779l368 779h174l-469 -959v-516h-151z" />
    <glyph glyph-name="Z" unicode="Z" horiz-adv-x="1056" 
d="M82 0v92l666 1239h-666l37 144h833v-93l-665 -1239h698l-37 -143h-866z" />
    <glyph glyph-name="bracketleft" unicode="[" horiz-adv-x="696" 
d="M348 1454v-1515h184l-20 -144l-307 10v1782l307 10l20 -143h-184z" />
    <glyph glyph-name="backslash" unicode="\" horiz-adv-x="778" 
d="M635 -205l-635 1802h143l635 -1802h-143z" />
    <glyph glyph-name="bracketright" unicode="]" horiz-adv-x="696" 
d="M348 -61v1515h-184l20 143l308 -10v-1782l-308 -10l-20 144h184z" />
    <glyph glyph-name="asciicircum" unicode="^" horiz-adv-x="942" 
d="M0 655l414 820h110l418 -820h-154l-317 656l-317 -656h-154z" />
    <glyph glyph-name="underscore" unicode="_" horiz-adv-x="880" 
d="M0 -307v143h881v-143h-881z" />
    <glyph glyph-name="grave" unicode="`" horiz-adv-x="471" 
d="M266 1024l-184 246h184l123 -246h-123z" />
    <glyph glyph-name="a" unicode="a" horiz-adv-x="1064" 
d="M506 717q-120 0 -200 -87t-81 -217q-1 -131 81 -221t202 -90t194 83q76 83 76 225t-76 224q-76 83 -196 83zM486 -31q-176 0 -290 124t-114 317q0 192 115 316t289 124t288 -133h4v102h144v-819h-144v102h-4q-113 -133 -288 -133z" />
    <glyph glyph-name="b" unicode="b" horiz-adv-x="1064" 
d="M558 102q120 0 200 90q82 90 82 221q0 130 -80 217t-201 87t-197 -83t-76 -224t76 -225q76 -83 196 -83zM579 850q175 0 289 -124t115 -316q-1 -192 -115 -317q-114 -124 -289 -124t-288 133h-4v-102h-144v1495h144v-778h4q113 133 288 133z" />
    <glyph glyph-name="c" unicode="c" horiz-adv-x="888" 
d="M492 -31q-170 0 -290 124t-120 317q0 192 120 316t290 124q209 0 325 -162l-90 -84q-84 113 -220 113t-209 -88t-73 -219q0 -132 73 -220t194 -88q74 0 126 32t109 97l100 -81q-78 -94 -149 -138t-186 -43z" />
    <glyph glyph-name="d" unicode="d" horiz-adv-x="1064" 
d="M506 717q-120 0 -200 -87t-81 -217q-1 -131 81 -221t202 -90t194 83q76 83 76 225t-76 224q-76 83 -196 83zM486 -31q-176 0 -290 124t-114 317q0 192 115 316t289 124t288 -133h4v778h144v-1495h-144v102h-4q-113 -133 -288 -133z" />
    <glyph glyph-name="e" unicode="e" 
d="M236 502h514q-20 88 -87 151t-170 63t-172 -66t-85 -148zM492 -31q-170 0 -290 124t-120 318q0 195 119 317t291 122t290 -124t119 -316v-37h-678q6 -113 83 -192t186 -79q156 0 251 121l121 -73q-151 -181 -372 -181z" />
    <glyph glyph-name="f" unicode="f" horiz-adv-x="563" 
d="M174 0v686h-123l21 133h102v369q0 143 67 225t199 82h82v-133h-41q-80 0 -122 -37t-42 -137v-369h205v-133h-205v-686h-143z" />
    <glyph glyph-name="g" unicode="g" horiz-adv-x="1064" 
d="M506 717q-120 0 -200 -87t-81 -217q-1 -131 81 -221t202 -90t194 83q76 83 76 225t-76 224q-76 83 -196 83zM532 -410q-254 0 -389 127l82 119q123 -113 307 -112q246 0 246 276v102h-4q-115 -135 -289 -135q-175 0 -289 125t-114 318q0 192 115 316t289 124t288 -133h4
v102h144v-819q-1 -410 -390 -410z" />
    <glyph glyph-name="h" unicode="h" 
d="M143 0v1495h144v-778h4q86 133 266 133q139 0 216 -87t77 -241v-522h-143v508q0 209 -172 209q-113 0 -181 -68t-67 -203v-446h-144z" />
    <glyph glyph-name="i" unicode="i" horiz-adv-x="430" 
d="M143 0v819h144v-819h-144zM143 1024v164h144v-164h-144z" />
    <glyph glyph-name="j" unicode="j" horiz-adv-x="430" 
d="M72 -258q38 0 55 28q16 28 16 107v942h144v-962q0 -133 -49 -191t-156 -59q-13 0 -62 4v133q14 -2 52 -2zM143 1024v164h144v-164h-144z" />
    <glyph glyph-name="k" unicode="k" horiz-adv-x="839" 
d="M143 0v1495h144v-983l299 307h176l-373 -391l410 -428h-187l-325 344v-344h-144z" />
    <glyph glyph-name="l" unicode="l" horiz-adv-x="430" 
d="M143 0v1495h144v-1495h-144z" />
    <glyph glyph-name="m" unicode="m" horiz-adv-x="1402" 
d="M143 0v819h144v-102h4q41 63 103 98t118 35q168 0 225 -143q61 71 121 107t146 36q126 0 196 -83t70 -208v-559h-144v522q0 84 -43 134t-113 50t-131 -60q-60 -62 -61 -144v-502h-143v522q0 84 -42 134t-115 50t-132 -65q-59 -66 -59 -149v-492h-144z" />
    <glyph glyph-name="n" unicode="n" 
d="M143 0v819h144v-102h4q86 133 268 133q139 0 215 -87t76 -241v-522h-143v508q0 209 -172 209q-113 0 -181 -68t-67 -203v-446h-144z" />
    <glyph glyph-name="o" unicode="o" horiz-adv-x="1003" 
d="M502 102q120 0 198 87t78 219t-79 221q-79 88 -197 88t-198 -88q-79 -88 -79 -220q0 -131 79 -219t198 -88zM502 -31q-176 0 -298 120t-122 322q0 203 119 321t298 118t301 -120t122 -320t-122 -321q-122 -120 -298 -120z" />
    <glyph glyph-name="p" unicode="p" horiz-adv-x="1064" 
d="M558 102q120 0 202 87q80 87 80 217t-81 221q-81 90 -201 90t-196 -83t-76 -224t76 -225q76 -83 196 -83zM143 -389v1208h144v-102h4q113 133 288 133t289 -124t115 -316q0 -192 -115 -317q-116 -124 -290 -124t-287 133h-4v-491h-144z" />
    <glyph glyph-name="q" unicode="q" horiz-adv-x="1064" 
d="M506 102q120 0 196 83t76 225t-76 224q-76 83 -195 83t-201 -90t-81 -220q0 -130 80 -218q81 -87 201 -87zM778 -389v491h-4q-113 -133 -288 -133q-176 0 -290 124t-114 317q0 192 115 316t289 124t288 -133h4v102h144v-1208h-144z" />
    <glyph glyph-name="r" unicode="r" horiz-adv-x="573" 
d="M143 0v819h144v-102h4q39 69 87 101t134 32v-154q-12 2 -35 2q-80 0 -135 -54t-55 -132v-512h-144z" />
    <glyph glyph-name="s" unicode="s" horiz-adv-x="788" 
d="M399 -31q-213 0 -327 154l92 113q36 -50 100 -92t135 -42q143 0 144 123q0 78 -205 149q-76 26 -140 88t-65 166q0 104 76 162q76 60 190 60q182 0 267 -113l-82 -102q-82 82 -185 82q-123 0 -123 -103q0 -77 205 -140q76 -24 141 -88q64 -64 64 -170t-71 -176t-216 -71z
" />
    <glyph glyph-name="t" unicode="t" horiz-adv-x="563" 
d="M340 -31q-166 0 -166 195v522h-123l21 133h102v297l143 41v-338h144v-133h-144v-512q0 -68 56 -68q39 0 88 37v-143q-62 -31 -121 -31z" />
    <glyph glyph-name="u" unicode="u" 
d="M424 -31q-139 0 -215 87t-76 241v522h143v-508q0 -209 173 -209q113 0 181 68t66 203v446h144v-819h-144v102q-92 -133 -272 -133z" />
    <glyph glyph-name="v" unicode="v" horiz-adv-x="829" 
d="M342 0l-322 819h154l244 -635h4l233 635h154l-317 -819h-150z" />
    <glyph glyph-name="w" unicode="w" horiz-adv-x="1241" 
d="M283 0l-263 819h150l176 -598h4l211 598h113l211 -598h4l174 598h158l-263 -819h-137l-203 580h-4l-202 -580h-129z" />
    <glyph glyph-name="x" unicode="x" horiz-adv-x="768" 
d="M20 0l279 430l-248 389h164l170 -260l168 260h164l-248 -389l279 -430h-175l-188 297l-190 -297h-175z" />
    <glyph glyph-name="y" unicode="y" horiz-adv-x="792" 
d="M131 -389l209 500l-340 708h156l256 -540l223 540h147l-501 -1208h-150z" />
    <glyph glyph-name="z" unicode="z" horiz-adv-x="772" 
d="M31 0l440 686h-379l41 133h588l-438 -686h403l-41 -133h-614z" />
    <glyph glyph-name="braceleft" unicode="{" horiz-adv-x="675" 
d="M471 -205q-139 -1 -203 63t-63 203v451q0 72 -39 96t-125 23v131q86 0 125 24t39 95v450q0 139 63 203t203 63h102l21 -133h-123q-71 0 -97 -28t-26 -105v-450q0 -78 -20 -116t-82 -69q61 -31 82 -68q20 -38 20 -116v-451q0 -77 27 -105t96 -28h123l-21 -133h-102z" />
    <glyph glyph-name="bar" unicode="|" horiz-adv-x="778" 
d="M322 -205v1802h133v-1802h-133z" />
    <glyph glyph-name="braceright" unicode="}" horiz-adv-x="675" 
d="M205 -72q71 0 97 29t26 104v451q0 78 20 116t82 68q-61 31 -82 69q-20 38 -20 116v450q0 76 -27 105t-96 28h-123l20 133h103q139 0 203 -63t63 -203v-450q0 -72 39 -96t125 -23v-131q-86 0 -125 -24t-39 -95v-451q0 -139 -63 -202t-203 -64h-103l-20 133h123z" />
    <glyph glyph-name="asciitilde" unicode="~" horiz-adv-x="1085" 
d="M758 471q-78 0 -232 77t-198 77q-82 0 -82 -113h-123q0 246 205 246q78 0 232 -77t198 -77q82 0 82 113h123q0 -246 -205 -246z" />
    <glyph glyph-name="uni00A0" unicode="&#xa0;" horiz-adv-x="512" 
 />
    <glyph glyph-name="exclamdown" unicode="&#xa1;" horiz-adv-x="522" 
d="M184 -389v1147h154v-1147h-154zM184 911v174h154v-174h-154z" />
    <glyph glyph-name="cent" unicode="&#xa2;" horiz-adv-x="901" 
d="M215 410q0 -110 59 -195q60 -83 156 -106v602q-96 -23 -156 -107t-59 -194zM430 -184v168q-152 24 -250 138t-98 287t98 289t250 138v168h123v-168q166 -16 266 -140l-82 -92q-61 84 -184 107v-602q104 16 184 116l103 -75q-68 -86 -131 -123t-156 -45v-166h-123z" />
    <glyph glyph-name="sterling" unicode="&#xa3;" 
d="M123 0v129q90 86 127 242t37 417h-144l21 134h123v221q0 141 85 216q84 75 198 75t183 -32t148 -118l-82 -96q-100 113 -219 112q-72 0 -121 -43t-49 -114v-221h266l-20 -134h-246q0 -254 -33 -404t-110 -241h594l-41 -143h-717z" />
    <glyph glyph-name="currency" unicode="&#xa4;" horiz-adv-x="1126" 
d="M563 326q125 0 212 87t87 212t-87 212t-212 87t-212 -87t-87 -212t87 -212t212 -87zM123 625q0 141 82 256l-127 129l100 100l129 -127q115 82 256 82t256 -82l129 127l101 -100l-127 -129q82 -115 82 -256t-82 -256l127 -129l-101 -101l-129 127q-115 -82 -256 -82
t-256 82l-129 -127l-100 101l127 129q-82 115 -82 256z" />
    <glyph glyph-name="yen" unicode="&#xa5;" horiz-adv-x="1187" 
d="M522 0v358h-399v134h399l-59 122h-340v134h274l-315 645h164l348 -738l348 738h164l-315 -645h274v-134h-340l-59 -122h399v-134h-399v-358h-144z" />
    <glyph glyph-name="brokenbar" unicode="&#xa6;" horiz-adv-x="634" 
d="M246 0v614h143v-614h-143zM246 799v594h143v-594h-143z" />
    <glyph glyph-name="section" unicode="&#xa7;" horiz-adv-x="1044" 
d="M809 614q0 56 -44 110t-98 87q-55 33 -147 84t-143 88q-141 -96 -141 -230q1 -122 144 -207q54 -32 150 -83t150 -86q129 88 129 237zM534 -307q-145 0 -246 63t-186 183l123 102q39 -78 118 -141q79 -64 175 -64t163 58t67 142q0 83 -69 146q-69 64 -167 112t-196 102
t-166 142t-68 206t47 192t145 141q-90 86 -90 239q0 154 106 238t242 84q221 0 369 -184l-102 -102q-41 52 -69 76q-79 69 -198 67q-76 0 -135 -49t-59 -131q0 -142 221 -257q92 -48 183 -102t156 -142q65 -87 65 -202q0 -114 -42 -188t-128 -133q109 -104 109 -257
t-112 -247q-111 -94 -256 -94z" />
    <glyph glyph-name="dieresis" unicode="&#xa8;" horiz-adv-x="614" 
d="M82 1024v164h143v-164h-143zM389 1024v164h143v-164h-143z" />
    <glyph glyph-name="copyright" unicode="&#xa9;" horiz-adv-x="1761" 
d="M881 256q-195 0 -323 136t-128 345t128 345t331 136t340 -153l-82 -102q-57 71 -119 97t-147 25q-137 0 -223 -97t-85 -254q0 -157 84 -251t231 -94t238 123l103 -90q-81 -90 -155 -128t-193 -38zM881 102q264 0 449 186t186 449q0 263 -186 449t-449 186t-449 -185
t-186 -449t186 -450t449 -186zM881 -41q-324 0 -551 227t-228 551q0 324 228 551q228 228 551 228q324 0 551 -228t227 -551q0 -324 -227 -551t-551 -227z" />
    <glyph glyph-name="ordfeminine" unicode="&#xaa;" horiz-adv-x="716" 
d="M82 614v123h553v-123h-553zM343 932q71 0 120 49t49 135t-49 135t-120 49t-115 -52t-44 -132t44 -132t115 -52zM307 819q-88 0 -167 81t-79 216t79 216t167 81q125 0 205 -92v72h123v-553h-123v82q-78 -103 -205 -103z" />
    <glyph glyph-name="guillemotleft" unicode="&#xab;" horiz-adv-x="798" 
d="M328 225l-226 226l226 225l82 -82l-144 -143l144 -144zM573 225l-225 226l225 225l82 -82l-143 -143l143 -144z" />
    <glyph glyph-name="logicalnot" unicode="&#xac;" horiz-adv-x="1155" 
d="M895 328v225h-758v143h881v-368h-123z" />
    <glyph glyph-name="uni00AD" unicode="&#xad;" horiz-adv-x="604" 
d="M82 369v143h440v-143h-440z" />
    <glyph glyph-name="registered" unicode="&#xae;" horiz-adv-x="1085" 
d="M473 1085h82q49 -1 75 13t26 58t-25 56t-76 13h-82v-140zM362 797v516h211q81 0 133 -43t52 -113q0 -69 -40 -109t-89 -49l106 -202h-125l-92 198h-45v-198h-111zM543 696q150 0 254 104t104 255q0 150 -104 254t-254 104t-254 -104q-105 -104 -105 -254q0 -151 104 -255
t255 -104zM543 594q-190 0 -326 135q-135 135 -135 325t135 326t325 136t326 -136t136 -325t-136 -325t-325 -136z" />
    <glyph glyph-name="macron" unicode="&#xaf;" horiz-adv-x="860" 
d="M154 1038v125h553v-125h-553z" />
    <glyph glyph-name="degree" unicode="&#xb0;" horiz-adv-x="593" 
d="M297 1147q47 0 80 33t33 80q0 48 -33 80t-80 32t-80 -33t-33 -79t33 -80q33 -33 80 -33zM297 1044q-87 0 -151 64t-64 152t63 151t151 63t152 -62q64 -64 64 -152t-64 -152t-151 -64z" />
    <glyph glyph-name="plusminus" unicode="&#xb1;" horiz-adv-x="1155" 
d="M137 0v143h881v-143h-881zM506 287v368h-369v144h369v368h143v-368h369v-144h-369v-368h-143z" />
    <glyph glyph-name="twosuperior" unicode="&#xb2;" horiz-adv-x="880" 
d="M127 637v80q0 100 49 174t119 115q71 40 139 74q166 81 166 182q0 66 -46 106t-120 41q-145 0 -188 -172l-111 33q20 102 98 174t205 72t207 -71t80 -185q0 -78 -49 -138t-120 -97q-72 -38 -142 -73t-119 -86t-49 -116h485l-29 -113h-575z" />
    <glyph glyph-name="threesuperior" unicode="&#xb3;" horiz-adv-x="860" 
d="M428 594q-250 0 -338 203l103 53q78 -147 217 -148q86 0 137 46t51 126t-54 127t-143 48h-55v106h49q158 0 158 133q0 51 -44 85q-45 34 -105 34t-100 -30t-75 -89l-90 55q86 172 271 173q124 0 196 -60t72 -146q0 -84 -37 -134t-88 -70q72 -20 121 -84t49 -143
q0 -127 -86 -206q-87 -79 -209 -79z" />
    <glyph glyph-name="acute" unicode="&#xb4;" horiz-adv-x="471" 
d="M82 1024l123 246h184l-184 -246h-123z" />
    <glyph glyph-name="mu" unicode="&#xb5;" horiz-adv-x="993" 
d="M143 -389v1208h144v-508q0 -209 172 -209q113 0 181 68t67 203v446h143v-819h-143v102q-92 -133 -236 -133q-53 1 -107 21t-77 51v-430h-144z" />
    <glyph glyph-name="paragraph" unicode="&#xb6;" horiz-adv-x="1167" 
d="M532 0v819h-102q-158 0 -263 89t-106 239q-1 151 105 239t264 89h604v-1475h-153v1341h-195v-1341h-154z" />
    <glyph glyph-name="periodcentered" unicode="&#xb7;" horiz-adv-x="532" 
d="M184 369v163h164v-163h-164z" />
    <glyph glyph-name="cedilla" unicode="&#xb8;" horiz-adv-x="307" 
d="M252 -232q0 -62 -52 -128t-118 -91l-62 41q35 23 61 78q25 56 25 112t-24 97h143q27 -47 27 -109z" />
    <glyph glyph-name="onesuperior" unicode="&#xb9;" horiz-adv-x="634" 
d="M301 637v694l-170 -168v144l168 168h123v-838h-121z" />
    <glyph glyph-name="ordmasculine" unicode="&#xba;" horiz-adv-x="716" 
d="M82 614v123h553v-123h-553zM358 932q76 0 125 53t49 131t-49 131t-125 53t-125 -53t-49 -131t49 -131t125 -53zM358 819q-127 0 -212 81t-85 216t85 216t212 81t212 -81t85 -216t-85 -216t-212 -81z" />
    <glyph glyph-name="guillemotright" unicode="&#xbb;" horiz-adv-x="798" 
d="M225 225l-82 82l144 144l-144 143l82 82l226 -225zM471 225l-82 82l143 144l-143 143l82 82l225 -225z" />
    <glyph glyph-name="onequarter" unicode="&#xbc;" horiz-adv-x="1771" 
d="M1370 297v358l-250 -358h250zM1370 0v195h-434l448 645h109v-543h135v-102h-135v-195h-123zM330 0l839 1393h144l-840 -1393h-143zM301 553v694l-170 -168v144l168 168h123v-838h-121z" />
    <glyph glyph-name="onehalf" unicode="&#xbd;" horiz-adv-x="1914" 
d="M1161 0v80q0 100 49 174t118 115q68 41 138 75q168 81 168 181q0 67 -46 107t-120 40q-145 0 -188 -172l-111 33q21 102 99 174t204 72t207 -71q80 -71 80 -185q0 -77 -49 -137t-120 -98q-72 -38 -142 -73t-119 -86t-49 -116h485l-28 -113h-576zM330 0l839 1393h144
l-840 -1393h-143zM301 553v694l-170 -168v144l168 168h123v-838h-121z" />
    <glyph glyph-name="threequarters" unicode="&#xbe;" horiz-adv-x="1996" 
d="M1595 297v358l-249 -358h249zM1595 0v195h-434l449 645h108v-543h135v-102h-135v-195h-123zM555 0l840 1393h143l-840 -1393h-143zM428 510q-250 0 -338 203l103 53q78 -147 217 -148q86 0 137 46t51 126t-54 128t-143 47h-55v106h49q158 0 158 133q0 51 -44 85
q-45 34 -105 34t-100 -30t-75 -89l-90 56q86 172 271 172q124 0 196 -60t72 -145q0 -84 -37 -135t-88 -70q72 -20 121 -84t49 -143q0 -127 -86 -206q-87 -79 -209 -79z" />
    <glyph glyph-name="questiondown" unicode="&#xbf;" horiz-adv-x="1003" 
d="M508 -410q-184 0 -305 100t-121 290q0 98 40 176t96 129t114 103q137 125 137 298q0 49 -8 92h153q31 -160 -16 -279q-29 -75 -73 -124q-93 -104 -192 -194t-98 -197q1 -108 78 -180q78 -70 195 -70t199 81t81 203l154 -28q-14 -184 -132 -292t-302 -108zM461 932v174
h153v-174h-153z" />
    <glyph glyph-name="Agrave" unicode="&#xc0;" horiz-adv-x="1187" 
d="M532 1597l-184 246h184l123 -246h-123zM373 594h442l-221 696zM20 0l502 1475h144l501 -1475h-163l-144 451h-532l-144 -451h-164z" />
    <glyph glyph-name="Aacute" unicode="&#xc1;" horiz-adv-x="1187" 
d="M532 1597l123 246h185l-185 -246h-123zM373 594h442l-221 696zM20 0l502 1475h144l501 -1475h-163l-144 451h-532l-144 -451h-164z" />
    <glyph glyph-name="Acircumflex" unicode="&#xc2;" horiz-adv-x="1187" 
d="M369 1597l163 246h123l164 -246h-143l-82 164l-82 -164h-143zM373 594h442l-221 696zM20 0l502 1475h144l501 -1475h-163l-144 451h-532l-144 -451h-164z" />
    <glyph glyph-name="Atilde" unicode="&#xc3;" horiz-adv-x="1187" 
d="M740 1577q-60 0 -152 46t-117 46t-33 -13t-8 -59h-102v41q0 90 29 127q31 37 91 37t152 -46t117 -46t33 13t8 59h102v-41q0 -90 -30 -127t-90 -37zM373 594h442l-221 696zM20 0l502 1475h144l501 -1475h-163l-144 451h-532l-144 -451h-164z" />
    <glyph glyph-name="Adieresis" unicode="&#xc4;" horiz-adv-x="1187" 
d="M369 1597v164h143v-164h-143zM676 1597v164h143v-164h-143zM373 594h442l-221 696zM20 0l502 1475h144l501 -1475h-163l-144 451h-532l-144 -451h-164z" />
    <glyph glyph-name="Aring" unicode="&#xc5;" horiz-adv-x="1187" 
d="M594 1649q28 -1 50 21t22 50t-22 50t-50 22t-50 -22t-22 -50t22 -50q22 -21 50 -21zM594 1556q-68 0 -116 48t-48 116t48 116t116 48t116 -48t48 -116t-48 -116t-116 -48zM373 594h442l-221 696zM20 0l502 1475h144l501 -1475h-163l-144 451h-532l-144 -451h-164z" />
    <glyph glyph-name="AE" unicode="&#xc6;" horiz-adv-x="1607" 
d="M778 594v717h-4l-325 -717h329zM932 1331v-502h461v-143h-461v-543h573l-20 -143h-707v451h-397l-207 -451h-174l696 1475h752l16 -144h-532z" />
    <glyph glyph-name="Ccedilla" unicode="&#xc7;" horiz-adv-x="1409" 
d="M762 -220q0 56 -25 97h144q27 -47 27 -109t-53 -128q-52 -66 -118 -91l-61 41q33 23 59 78q27 56 27 112zM840 -41q-330 0 -534 216t-204 562t204 562t534 217q287 0 479 -226l-111 -98q-47 68 -150 124t-218 56q-264 0 -424 -179t-160 -451t172 -456q172 -183 412 -184
q123 0 213 48t184 145l100 -111q-225 -225 -497 -225z" />
    <glyph glyph-name="Egrave" unicode="&#xc8;" horiz-adv-x="1011" 
d="M471 1597l-184 246h184l123 -246h-123zM184 0v1475h670l18 -144h-534v-502h461v-143h-461v-543h571l-18 -143h-707z" />
    <glyph glyph-name="Eacute" unicode="&#xc9;" horiz-adv-x="1011" 
d="M410 1597l122 246h185l-185 -246h-122zM184 0v1475h670l18 -144h-534v-502h461v-143h-461v-543h571l-18 -143h-707z" />
    <glyph glyph-name="Ecircumflex" unicode="&#xca;" horiz-adv-x="1011" 
d="M287 1597l164 246h122l164 -246h-143l-82 164l-82 -164h-143zM184 0v1475h670l18 -144h-534v-502h461v-143h-461v-543h571l-18 -143h-707z" />
    <glyph glyph-name="Edieresis" unicode="&#xcb;" horiz-adv-x="1011" 
d="M287 1597v164h143v-164h-143zM594 1597v164h143v-164h-143zM184 0v1475h670l18 -144h-534v-502h461v-143h-461v-543h571l-18 -143h-707z" />
    <glyph glyph-name="Igrave" unicode="&#xcc;" horiz-adv-x="522" 
d="M205 1597l-185 246h185l123 -246h-123zM184 0v1475h154v-1475h-154z" />
    <glyph glyph-name="Iacute" unicode="&#xcd;" horiz-adv-x="522" 
d="M195 1597l122 246h185l-185 -246h-122zM184 0v1475h154v-1475h-154z" />
    <glyph glyph-name="Icircumflex" unicode="&#xce;" horiz-adv-x="522" 
d="M35 1597l164 246h123l163 -246h-143l-82 164l-82 -164h-143zM184 0v1475h154v-1475h-154z" />
    <glyph glyph-name="Idieresis" unicode="&#xcf;" horiz-adv-x="522" 
d="M35 1597v164h143v-164h-143zM342 1597v164h143v-164h-143zM184 0v1475h154v-1475h-154z" />
    <glyph glyph-name="Eth" unicode="&#xd0;" horiz-adv-x="1361" 
d="M338 143h184q194 0 381 143q91 70 147 188t56 264t-56 264q-99 209 -335 293q-98 36 -193 36h-184v-512h379l-21 -143h-358v-533zM184 0v676h-143l20 143h123v656h342q268 0 490 -173q108 -86 176 -232t68 -332t-68 -331q-122 -262 -411 -363q-126 -44 -255 -44h-342z
" />
    <glyph glyph-name="Ntilde" unicode="&#xd1;" horiz-adv-x="1536" 
d="M904 1577q-60 0 -152 46t-117 46t-33 -13t-8 -59h-102v41q0 90 29 127q30 37 90 37q61 0 153 -46t117 -46t33 13t8 59h102v-41q0 -90 -30 -127t-90 -37zM184 0v1475h154l860 -1219v1219h154v-1475h-154l-860 1219v-1219h-154z" />
    <glyph glyph-name="Ograve" unicode="&#xd2;" horiz-adv-x="1638" 
d="M778 1597l-184 246h184l123 -246h-123zM819 102q242 0 403 186t160 449q0 264 -160 450q-161 185 -403 185q-243 0 -403 -185t-160 -449t160 -450t403 -186zM819 -41q-319 0 -518 219t-199 559t199 559q199 220 518 220t518 -220t199 -559q0 -340 -199 -559t-518 -219z
" />
    <glyph glyph-name="Oacute" unicode="&#xd3;" horiz-adv-x="1638" 
d="M737 1597l123 246h184l-184 -246h-123zM819 102q242 0 403 186t160 449q0 264 -160 450q-161 185 -403 185q-243 0 -403 -185t-160 -449t160 -450t403 -186zM819 -41q-319 0 -518 219t-199 559t199 559q199 220 518 220t518 -220t199 -559q0 -340 -199 -559t-518 -219z
" />
    <glyph glyph-name="Ocircumflex" unicode="&#xd4;" horiz-adv-x="1638" 
d="M594 1597l164 246h123l163 -246h-143l-82 164l-82 -164h-143zM819 102q242 0 403 186t160 449q0 264 -160 450q-161 185 -403 185q-243 0 -403 -185t-160 -449t160 -450t403 -186zM819 -41q-319 0 -518 219t-199 559t199 559q199 220 518 220t518 -220t199 -559
q0 -340 -199 -559t-518 -219z" />
    <glyph glyph-name="Otilde" unicode="&#xd5;" horiz-adv-x="1638" 
d="M1085 1741q1 -90 -29 -127t-90 -37t-152 46t-118 46q-24 0 -32 -13t-9 -59h-102v41q0 90 30 127t90 37t152 -46t117 -46t33 13t8 59h102v-41zM819 102q242 0 403 186t160 449q0 264 -160 450q-161 185 -403 185q-243 0 -403 -185t-160 -449t160 -450t403 -186zM819 -41
q-319 0 -518 219t-199 559t199 559q199 220 518 220t518 -220t199 -559q0 -340 -199 -559t-518 -219z" />
    <glyph glyph-name="Odieresis" unicode="&#xd6;" horiz-adv-x="1638" 
d="M594 1597v164h143v-164h-143zM901 1597v164h143v-164h-143zM819 102q242 0 403 186t160 449q0 264 -160 450q-161 185 -403 185q-243 0 -403 -185t-160 -449t160 -450t403 -186zM819 -41q-319 0 -518 219t-199 559t199 559q199 220 518 220t518 -220t199 -559
q0 -340 -199 -559t-518 -219z" />
    <glyph glyph-name="multiply" unicode="&#xd7;" horiz-adv-x="1155" 
d="M229 176l-100 100l348 349l-348 348l100 100l349 -348l348 348l100 -100l-348 -348l348 -349l-100 -100l-346 346z" />
    <glyph glyph-name="Oslash" unicode="&#xd8;" horiz-adv-x="1638" 
d="M834 102q222 0 385 188q164 188 163 447q0 217 -122 396l-805 -877q157 -154 379 -154zM256 737q0 -219 123 -393l805 877q-158 151 -378 151t-385 -188t-165 -447zM102 756q0 316 204 537q204 222 513 223q270 0 471 -181l164 181l82 -82l-168 -183q168 -211 168 -529
t-203 -541q-203 -222 -514 -222q-276 0 -469 180l-166 -180l-82 82l168 184q-168 215 -168 531z" />
    <glyph glyph-name="Ugrave" unicode="&#xd9;" horiz-adv-x="1404" 
d="M666 1597l-185 246h185l122 -246h-122zM702 -41q-233 0 -386 145t-152 412v959h153v-959q0 -188 111 -301q110 -113 274 -113t275 113t110 301v959h154v-959q0 -266 -152 -412q-154 -145 -387 -145z" />
    <glyph glyph-name="Uacute" unicode="&#xda;" horiz-adv-x="1404" 
d="M625 1597l123 246h184l-184 -246h-123zM702 -41q-233 0 -386 145t-152 412v959h153v-959q0 -188 111 -301q110 -113 274 -113t275 113t110 301v959h154v-959q0 -266 -152 -412q-154 -145 -387 -145z" />
    <glyph glyph-name="Ucircumflex" unicode="&#xdb;" horiz-adv-x="1404" 
d="M477 1597l164 246h123l164 -246h-144l-82 164l-81 -164h-144zM702 -41q-233 0 -386 145t-152 412v959h153v-959q0 -188 111 -301q110 -113 274 -113t275 113t110 301v959h154v-959q0 -266 -152 -412q-154 -145 -387 -145z" />
    <glyph glyph-name="Udieresis" unicode="&#xdc;" horiz-adv-x="1404" 
d="M477 1597v164h144v-164h-144zM784 1597v164h144v-164h-144zM702 -41q-233 0 -386 145t-152 412v959h153v-959q0 -188 111 -301q110 -113 274 -113t275 113t110 301v959h154v-959q0 -266 -152 -412q-154 -145 -387 -145z" />
    <glyph glyph-name="Yacute" unicode="&#xdd;" horiz-adv-x="1085" 
d="M451 1597l122 246h185l-185 -246h-122zM465 0v516l-465 959h174l369 -779l368 779h174l-469 -959v-516h-151z" />
    <glyph glyph-name="Thorn" unicode="&#xde;" horiz-adv-x="1024" 
d="M338 471h164q131 1 214 63t83 203t-83 203t-214 64h-164v-533zM184 0v1475h154v-328h164q194 1 322 -103t128 -307t-129 -306t-321 -103h-164v-328h-154z" />
    <glyph glyph-name="germandbls" unicode="&#xdf;" horiz-adv-x="993" 
d="M143 0v1143q1 166 93 259t237 93t245 -81t101 -211q0 -129 -40 -195t-124 -117q115 -57 181 -149t65 -271q0 -227 -103 -349t-286 -122h-123v133h123q100 0 173 89q73 88 73 242t-89 254t-198 101h-82v133h82q98 0 152 67q53 67 53 159t-54 138t-144 46t-140 -62
q-51 -62 -51 -157v-1143h-144z" />
    <glyph glyph-name="agrave" unicode="&#xe0;" horiz-adv-x="1064" 
d="M451 1024l-185 246h185l122 -246h-122zM506 717q-120 0 -200 -87t-81 -217q-1 -131 81 -221t202 -90t194 83q76 83 76 225t-76 224q-76 83 -196 83zM486 -31q-176 0 -290 124t-114 317q0 192 115 316t289 124t288 -133h4v102h144v-819h-144v102h-4q-113 -133 -288 -133z
" />
    <glyph glyph-name="aacute" unicode="&#xe1;" horiz-adv-x="1064" 
d="M410 1024l122 246h185l-185 -246h-122zM506 717q-120 0 -200 -87t-81 -217q-1 -131 81 -221t202 -90t194 83q76 83 76 225t-76 224q-76 83 -196 83zM486 -31q-176 0 -290 124t-114 317q0 192 115 316t289 124t288 -133h4v102h144v-819h-144v102h-4q-113 -133 -288 -133z
" />
    <glyph glyph-name="acircumflex" unicode="&#xe2;" horiz-adv-x="1064" 
d="M281 1024l163 246h123l164 -246h-143l-82 164l-82 -164h-143zM506 717q-120 0 -200 -87t-81 -217q-1 -131 81 -221t202 -90t194 83q76 83 76 225t-76 224q-76 83 -196 83zM486 -31q-176 0 -290 124t-114 317q0 192 115 316t289 124t288 -133h4v102h144v-819h-144v102h-4
q-113 -133 -288 -133z" />
    <glyph glyph-name="atilde" unicode="&#xe3;" horiz-adv-x="1064" 
d="M658 1004q-60 0 -152 46t-117 46t-33 -14t-8 -58h-102v41q0 90 29 127q31 37 91 37t152 -46t117 -46t33 13t8 58h102v-41q0 -90 -29 -127q-31 -36 -91 -36zM506 717q-120 0 -200 -87t-81 -217q-1 -131 81 -221t202 -90t194 83q76 83 76 225t-76 224q-76 83 -196 83z
M486 -31q-176 0 -290 124t-114 317q0 192 115 316t289 124t288 -133h4v102h144v-819h-144v102h-4q-113 -133 -288 -133z" />
    <glyph glyph-name="adieresis" unicode="&#xe4;" horiz-adv-x="1064" 
d="M287 1024v164h143v-164h-143zM594 1024v164h143v-164h-143zM506 717q-120 0 -200 -87t-81 -217q-1 -131 81 -221t202 -90t194 83q76 83 76 225t-76 224q-76 83 -196 83zM486 -31q-176 0 -290 124t-114 317q0 192 115 316t289 124t288 -133h4v102h144v-819h-144v102h-4
q-113 -133 -288 -133z" />
    <glyph glyph-name="aring" unicode="&#xe5;" horiz-adv-x="1064" 
d="M512 1075q28 0 50 22q22 23 22 51t-22 50t-50 21q-28 0 -50 -22q-22 -23 -22 -51t22 -50t50 -21zM512 983q-68 0 -116 48t-48 116t48 116t116 48t116 -48t48 -116t-48 -116t-116 -48zM506 717q-120 0 -200 -87t-81 -217q-1 -131 81 -221t202 -90t194 83q76 83 76 225
t-76 224q-76 83 -196 83zM486 -31q-176 0 -290 124t-114 317q0 192 115 316t289 124t288 -133h4v102h144v-819h-144v102h-4q-113 -133 -288 -133z" />
    <glyph glyph-name="ae" unicode="&#xe6;" horiz-adv-x="1679" 
d="M492 102q139 0 218 83q78 83 78 225t-78 224q-80 83 -202 83t-202 -87t-81 -217q-1 -131 81 -221t186 -90zM932 502h514q-20 88 -87 151t-170 63t-172 -66t-85 -148zM486 -31q-176 0 -290 124t-114 317q0 192 115 316t289 124t288 -133h4v102h144v-67h4q110 98 272 98
t281 -124t118 -316v-37h-677q6 -113 82 -192t186 -79q156 0 252 121l121 -73q-152 -180 -373 -181q-156 0 -262 101h-4v-70h-144v102h-4q-113 -133 -288 -133z" />
    <glyph glyph-name="ccedilla" unicode="&#xe7;" horiz-adv-x="888" 
d="M580 -232q0 -62 -52 -128t-118 -91l-62 41q33 23 60 78q26 56 26 112t-24 97h143q27 -47 27 -109zM492 -31q-170 0 -290 124t-120 317q0 192 120 316t290 124q209 0 325 -162l-90 -84q-84 113 -220 113t-209 -88t-73 -219q0 -132 73 -220t194 -88q74 0 126 32t109 97
l100 -81q-78 -94 -149 -138t-186 -43z" />
    <glyph glyph-name="egrave" unicode="&#xe8;" 
d="M451 1024l-185 246h185l122 -246h-122zM236 502h514q-20 88 -87 151t-170 63t-172 -66t-85 -148zM492 -31q-170 0 -290 124t-120 318q0 195 119 317t291 122t290 -124t119 -316v-37h-678q6 -113 83 -192t186 -79q156 0 251 121l121 -73q-151 -181 -372 -181z" />
    <glyph glyph-name="eacute" unicode="&#xe9;" 
d="M410 1024l122 246h185l-185 -246h-122zM236 502h514q-20 88 -87 151t-170 63t-172 -66t-85 -148zM492 -31q-170 0 -290 124t-120 318q0 195 119 317t291 122t290 -124t119 -316v-37h-678q6 -113 83 -192t186 -79q156 0 251 121l121 -73q-151 -181 -372 -181z" />
    <glyph glyph-name="ecircumflex" unicode="&#xea;" 
d="M266 1024l164 246h123l164 -246h-144l-81 164l-82 -164h-144zM236 502h514q-20 88 -87 151t-170 63t-172 -66t-85 -148zM492 -31q-170 0 -290 124t-120 318q0 195 119 317t291 122t290 -124t119 -316v-37h-678q6 -113 83 -192t186 -79q156 0 251 121l121 -73
q-151 -181 -372 -181z" />
    <glyph glyph-name="edieresis" unicode="&#xeb;" 
d="M266 1024v164h144v-164h-144zM573 1024v164h144v-164h-144zM236 502h514q-20 88 -87 151t-170 63t-172 -66t-85 -148zM492 -31q-170 0 -290 124t-120 318q0 195 119 317t291 122t290 -124t119 -316v-37h-678q6 -113 83 -192t186 -79q156 0 251 121l121 -73
q-151 -181 -372 -181z" />
    <glyph glyph-name="igrave" unicode="&#xec;" horiz-adv-x="430" 
d="M164 1024l-184 246h184l123 -246h-123zM143 0v819h144v-819h-144z" />
    <glyph glyph-name="iacute" unicode="&#xed;" horiz-adv-x="430" 
d="M143 1024l123 246h185l-185 -246h-123zM143 0v819h144v-819h-144z" />
    <glyph glyph-name="icircumflex" unicode="&#xee;" horiz-adv-x="430" 
d="M-10 1024l164 246h122l164 -246h-143l-82 164l-82 -164h-143zM143 0v819h144v-819h-144z" />
    <glyph glyph-name="idieresis" unicode="&#xef;" horiz-adv-x="430" 
d="M-10 1024v164h143v-164h-143zM297 1024v164h143v-164h-143zM143 0v819h144v-819h-144z" />
    <glyph glyph-name="eth" unicode="&#xf0;" horiz-adv-x="1003" 
d="M502 102q120 0 198 87t78 219t-79 221q-79 88 -197 88t-198 -88q-79 -88 -79 -220q0 -131 79 -219t198 -88zM922 410q0 -201 -122 -321t-298 -120t-298 120t-122 320q0 201 116 321t273 120q72 0 139 -23l-137 222l-170 -97l-61 109l166 94l-207 340h157l164 -274l164 94
l62 -109l-162 -92l264 -438q72 -123 72 -266z" />
    <glyph glyph-name="ntilde" unicode="&#xf1;" 
d="M758 1167q0 -91 -30 -127t-90 -36t-152 46t-118 46q-24 0 -32 -14t-8 -58h-103v41q0 90 30 127t90 37q61 0 153 -46t116 -46t33 13q8 13 8 58h103v-41zM143 0v819h144v-102h4q86 133 268 133q139 0 215 -87t76 -241v-522h-143v508q0 209 -172 209q-113 0 -181 -68
t-67 -203v-446h-144z" />
    <glyph glyph-name="ograve" unicode="&#xf2;" horiz-adv-x="1003" 
d="M451 1024l-185 246h185l122 -246h-122zM502 102q120 0 198 87t78 219t-79 221q-79 88 -197 88t-198 -88q-79 -88 -79 -220q0 -131 79 -219t198 -88zM502 -31q-176 0 -298 120t-122 322q0 203 119 321t298 118t301 -120t122 -320t-122 -321q-122 -120 -298 -120z" />
    <glyph glyph-name="oacute" unicode="&#xf3;" horiz-adv-x="1003" 
d="M430 1024l123 246h184l-184 -246h-123zM502 102q120 0 198 87t78 219t-79 221q-79 88 -197 88t-198 -88q-79 -88 -79 -220q0 -131 79 -219t198 -88zM502 -31q-176 0 -298 120t-122 322q0 203 119 321t298 118t301 -120t122 -320t-122 -321q-122 -120 -298 -120z" />
    <glyph glyph-name="ocircumflex" unicode="&#xf4;" horiz-adv-x="1003" 
d="M272 1024l164 246h123l164 -246h-143l-82 164l-82 -164h-144zM502 102q120 0 198 87t78 219t-79 221q-79 88 -197 88t-198 -88q-79 -88 -79 -220q0 -131 79 -219t198 -88zM502 -31q-176 0 -298 120t-122 322q0 203 119 321t298 118t301 -120t122 -320t-122 -321
q-122 -120 -298 -120z" />
    <glyph glyph-name="otilde" unicode="&#xf5;" horiz-adv-x="1003" 
d="M764 1167q0 -91 -30 -127t-89 -36t-151 46t-118 46t-34 -14t-8 -58h-103v41q0 90 30 127t89 37q60 0 152 -46t118 -46t34 13t8 58h102v-41zM502 102q120 0 198 87t78 219t-79 221q-79 88 -197 88t-198 -88q-79 -88 -79 -220q0 -131 79 -219t198 -88zM502 -31
q-176 0 -298 120t-122 322q0 203 119 321t298 118t301 -120t122 -320t-122 -321q-122 -120 -298 -120z" />
    <glyph glyph-name="odieresis" unicode="&#xf6;" horiz-adv-x="1003" 
d="M272 1024v164h144v-164h-144zM580 1024v164h143v-164h-143zM502 102q120 0 198 87t78 219t-79 221q-79 88 -197 88t-198 -88q-79 -88 -79 -220q0 -131 79 -219t198 -88zM502 -31q-176 0 -298 120t-122 322q0 203 119 321t298 118t301 -120t122 -320t-122 -321
q-122 -120 -298 -120z" />
    <glyph glyph-name="divide" unicode="&#xf7;" horiz-adv-x="1155" 
d="M506 922v163h143v-163h-143zM506 164v164h143v-164h-143zM137 553v143h881v-143h-881z" />
    <glyph glyph-name="oslash" unicode="&#xf8;" horiz-adv-x="1003" 
d="M506 102q116 0 194 87t78 207t-37 192l-413 -434q63 -52 178 -52zM496 717q-114 0 -192 -88q-79 -88 -79 -207t37 -191l414 435q-66 51 -180 51zM82 410q0 204 119 322t286 118t279 -90l84 90l72 -72l-86 -90q86 -117 86 -278q0 -201 -122 -321t-286 -120t-276 90
l-84 -90l-72 72l86 90q-86 117 -86 279z" />
    <glyph glyph-name="ugrave" unicode="&#xf9;" 
d="M451 1024l-185 246h185l122 -246h-122zM424 -31q-139 0 -215 87t-76 241v522h143v-508q0 -209 173 -209q113 0 181 68t66 203v446h144v-819h-144v102q-92 -133 -272 -133z" />
    <glyph glyph-name="uacute" unicode="&#xfa;" 
d="M389 1024l123 246h184l-184 -246h-123zM424 -31q-139 0 -215 87t-76 241v522h143v-508q0 -209 173 -209q113 0 181 68t66 203v446h144v-819h-144v102q-92 -133 -272 -133z" />
    <glyph glyph-name="ucircumflex" unicode="&#xfb;" 
d="M256 1024l164 246h123l164 -246h-144l-82 164l-82 -164h-143zM424 -31q-139 0 -215 87t-76 241v522h143v-508q0 -209 173 -209q113 0 181 68t66 203v446h144v-819h-144v102q-92 -133 -272 -133z" />
    <glyph glyph-name="udieresis" unicode="&#xfc;" 
d="M256 1024v164h143v-164h-143zM563 1024v164h144v-164h-144zM424 -31q-139 0 -215 87t-76 241v522h143v-508q0 -209 173 -209q113 0 181 68t66 203v446h144v-819h-144v102q-92 -133 -272 -133z" />
    <glyph glyph-name="yacute" unicode="&#xfd;" horiz-adv-x="792" 
d="M307 1024l123 246h184l-184 -246h-123zM131 -389l209 500l-340 708h156l256 -540l223 540h147l-501 -1208h-150z" />
    <glyph glyph-name="thorn" unicode="&#xfe;" horiz-adv-x="1064" 
d="M573 102q103 0 185 90t82 221q0 130 -80 217t-203 87t-202 -83t-79 -224q0 -140 79 -224t218 -84zM143 -389v1884h144v-778q119 133 293 133t288 -124t115 -316q0 -192 -115 -317q-114 -124 -288 -124t-293 133v-491h-144z" />
    <glyph glyph-name="ydieresis" unicode="&#xff;" horiz-adv-x="792" 
d="M184 1024v164h144v-164h-144zM492 1024v164h143v-164h-143zM131 -389l209 500l-340 708h156l256 -540l223 540h147l-501 -1208h-150z" />
    <glyph glyph-name="Amacron" unicode="&#x100;" horiz-adv-x="1187" 
d="M276 1618v125h635v-125h-635zM373 594h442l-221 696zM20 0l502 1475h144l501 -1475h-163l-144 451h-532l-144 -451h-164z" />
    <glyph glyph-name="amacron" unicode="&#x101;" horiz-adv-x="1064" 
d="M244 1038v125h553v-125h-553zM506 717q-120 0 -200 -87t-81 -217q-1 -131 81 -221t202 -90t194 83q76 83 76 225t-76 224q-76 83 -196 83zM486 -31q-176 0 -290 124t-114 317q0 192 115 316t289 124t288 -133h4v102h144v-819h-144v102h-4q-113 -133 -288 -133z" />
    <glyph glyph-name="Abreve" unicode="&#x102;" horiz-adv-x="1187" 
d="M594 1577q-129 0 -187 67t-59 199h133q0 -143 113 -143t113 143h133q0 -133 -58 -199t-188 -67zM373 594h442l-221 696zM20 0l502 1475h144l501 -1475h-163l-144 451h-532l-144 -451h-164z" />
    <glyph glyph-name="abreve" unicode="&#x103;" horiz-adv-x="1064" 
d="M522 971q-129 1 -187 67t-59 199h134q0 -143 112 -143t113 143h133q0 -133 -58 -200q-59 -66 -188 -66zM506 717q-120 0 -200 -87t-81 -217q-1 -131 81 -221t202 -90t194 83q76 83 76 225t-76 224q-76 83 -196 83zM486 -31q-176 0 -290 124t-114 317q0 192 115 316
t289 124t288 -133h4v102h144v-819h-144v102h-4q-113 -133 -288 -133z" />
    <glyph glyph-name="Aogonek" unicode="&#x104;" horiz-adv-x="1187" 
d="M373 594h442l-221 696zM1024 -446q-186 0 -186 170q0 133 166 276l-144 451h-532l-144 -451h-164l502 1475h144l501 -1475h-51q-150 -150 -149 -231q0 -94 94 -95q29 0 86 9v-113q-49 -16 -123 -16z" />
    <glyph glyph-name="aogonek" unicode="&#x105;" horiz-adv-x="1064" 
d="M506 717q-120 0 -200 -87t-81 -217q-1 -131 81 -221t202 -90t194 83q76 83 76 225t-76 224q-76 83 -196 83zM799 -446q-185 0 -187 170q0 133 166 276v102h-4q-113 -133 -288 -133q-176 0 -290 124t-114 317q0 192 115 316t289 124t288 -133h4v102h144v-819h-31
q-150 -150 -150 -231q0 -94 95 -95q29 0 86 9v-113q-49 -16 -123 -16z" />
    <glyph glyph-name="Cacute" unicode="&#x106;" horiz-adv-x="1409" 
d="M696 1597l123 246h185l-185 -246h-123zM840 -41q-330 0 -534 216t-204 562t204 562t534 217q287 0 479 -226l-111 -98q-47 68 -150 124t-218 56q-264 0 -424 -179t-160 -451t172 -456q172 -183 412 -184q123 0 213 48t184 145l100 -111q-225 -225 -497 -225z" />
    <glyph glyph-name="cacute" unicode="&#x107;" horiz-adv-x="888" 
d="M379 1024l123 246h184l-184 -246h-123zM492 -31q-170 0 -290 124t-120 317q0 192 120 316t290 124q209 0 325 -162l-90 -84q-84 113 -220 113t-209 -88t-73 -219q0 -132 73 -220t194 -88q74 0 126 32t109 97l100 -81q-78 -94 -149 -138t-186 -43z" />
    <glyph glyph-name="Ccircumflex" unicode="&#x108;" horiz-adv-x="1409" 
d="M594 1597l164 246h123l163 -246h-143l-82 164l-82 -164h-143zM840 -41q-330 0 -534 216t-204 562t204 562t534 217q287 0 479 -226l-111 -98q-47 68 -150 124t-218 56q-264 0 -424 -179t-160 -451t172 -456q172 -183 412 -184q123 0 213 48t184 145l100 -111
q-225 -225 -497 -225z" />
    <glyph glyph-name="ccircumflex" unicode="&#x109;" horiz-adv-x="888" 
d="M242 1024l164 246h122l164 -246h-143l-82 164l-82 -164h-143zM492 -31q-170 0 -290 124t-120 317q0 192 120 316t290 124q209 0 325 -162l-90 -84q-84 113 -220 113t-209 -88t-73 -219q0 -132 73 -220t194 -88q74 0 126 32t109 97l100 -81q-78 -94 -149 -138t-186 -43z
" />
    <glyph glyph-name="Cdotaccent" unicode="&#x10a;" horiz-adv-x="1409" 
d="M748 1597v164h143v-164h-143zM840 -41q-330 0 -534 216t-204 562t204 562t534 217q287 0 479 -226l-111 -98q-47 68 -150 124t-218 56q-264 0 -424 -179t-160 -451t172 -456q172 -183 412 -184q123 0 213 48t184 145l100 -111q-225 -225 -497 -225z" />
    <glyph glyph-name="cdotaccent" unicode="&#x10b;" horiz-adv-x="888" 
d="M420 1024v164h143v-164h-143zM492 -31q-170 0 -290 124t-120 317q0 192 120 316t290 124q209 0 325 -162l-90 -84q-84 113 -220 113t-209 -88t-73 -219q0 -132 73 -220t194 -88q74 0 126 32t109 97l100 -81q-78 -94 -149 -138t-186 -43z" />
    <glyph glyph-name="Ccaron" unicode="&#x10c;" horiz-adv-x="1409" 
d="M745 1597l-163 246h143l82 -164l82 164h143l-164 -246h-123zM840 -41q-330 0 -534 216t-204 562t204 562t534 217q287 0 479 -226l-111 -98q-47 68 -150 124t-218 56q-264 0 -424 -179t-160 -451t172 -456q172 -183 412 -184q123 0 213 48t184 145l100 -111
q-225 -225 -497 -225z" />
    <glyph glyph-name="ccaron" unicode="&#x10d;" horiz-adv-x="888" 
d="M414 1024l-164 246h143l82 -164l82 164h143l-163 -246h-123zM492 -31q-170 0 -290 124t-120 317q0 192 120 316t290 124q209 0 325 -162l-90 -84q-84 113 -220 113t-209 -88t-73 -219q0 -132 73 -220t194 -88q74 0 126 32t109 97l100 -81q-78 -94 -149 -138t-186 -43z
" />
    <glyph glyph-name="Dcaron" unicode="&#x10e;" horiz-adv-x="1361" 
d="M561 1597l-164 246h144l82 -164l82 164h143l-164 -246h-123zM338 143h184q194 0 381 143q91 70 147 188t56 264t-56 264q-99 209 -335 293q-98 36 -193 36h-184v-1188zM184 0v1475h342q268 0 490 -173q108 -86 176 -232t68 -332t-68 -331q-122 -262 -411 -363
q-126 -44 -255 -44h-342z" />
    <glyph glyph-name="dcaron" unicode="&#x10f;" horiz-adv-x="1064" 
d="M1034 1157v338h154l-41 -338h-113zM506 717q-120 0 -200 -87t-81 -217q-1 -131 81 -221t202 -90t194 83q76 83 76 225t-76 224q-76 83 -196 83zM486 -31q-176 0 -290 124t-114 317q0 192 115 316t289 124t288 -133h4v778h144v-1495h-144v102h-4q-113 -133 -288 -133z" />
    <glyph glyph-name="Dcroat" unicode="&#x110;" horiz-adv-x="1361" 
d="M338 143h184q194 0 381 143q91 70 147 188t56 264t-56 264q-99 209 -335 293q-98 36 -193 36h-184v-512h379l-21 -143h-358v-533zM184 0v676h-143l20 143h123v656h342q268 0 490 -173q108 -86 176 -232t68 -332t-68 -331q-122 -262 -411 -363q-126 -44 -255 -44h-342z
" />
    <glyph glyph-name="dcroat" unicode="&#x111;" horiz-adv-x="1064" 
d="M506 717q-120 0 -200 -87t-81 -217q-1 -131 81 -221t202 -90t194 83q76 83 76 225t-76 224q-76 83 -196 83zM485 -31q-175 0 -289 124t-114 317q0 192 115 316t289 124t292 -133v409h-286l20 144h266v225h144v-225h102l-20 -144h-82v-1126h-144v102q-119 -133 -293 -133z
" />
    <glyph glyph-name="Emacron" unicode="&#x112;" horiz-adv-x="1011" 
d="M201 1618v125h635v-125h-635zM184 0v1475h670l18 -144h-534v-502h461v-143h-461v-543h571l-18 -143h-707z" />
    <glyph glyph-name="emacron" unicode="&#x113;" 
d="M219 1038v125h553v-125h-553zM236 502h514q-20 88 -87 151t-170 63t-172 -66t-85 -148zM492 -31q-170 0 -290 124t-120 318q0 195 119 317t291 122t290 -124t119 -316v-37h-678q6 -113 83 -192t186 -79q156 0 251 121l121 -73q-151 -181 -372 -181z" />
    <glyph glyph-name="Edotaccent" unicode="&#x116;" horiz-adv-x="1011" 
d="M446 1597v164h144v-164h-144zM184 0v1475h670l18 -144h-534v-502h461v-143h-461v-543h571l-18 -143h-707z" />
    <glyph glyph-name="edotaccent" unicode="&#x117;" 
d="M420 1024v164h143v-164h-143zM236 502h514q-20 88 -87 151t-170 63t-172 -66t-85 -148zM492 -31q-170 0 -290 124t-120 318q0 195 119 317t291 122t290 -124t119 -316v-37h-678q6 -113 83 -192t186 -79q156 0 251 121l121 -73q-151 -181 -372 -181z" />
    <glyph glyph-name="Eogonek" unicode="&#x118;" horiz-adv-x="1011" 
d="M717 -446q-185 0 -187 170q0 133 166 276h-512v1475h670l18 -144h-534v-502h461v-143h-461v-543h571l-18 -143h-82q-150 -150 -150 -231q0 -94 95 -95q29 0 86 9v-113q-49 -16 -123 -16z" />
    <glyph glyph-name="eogonek" unicode="&#x119;" 
d="M627 -446q-185 0 -187 170q0 121 138 251q-41 -6 -86 -6q-170 0 -290 124t-120 318q0 195 119 317t291 122t290 -124t119 -316v-37h-678q6 -113 83 -192t186 -79q156 0 251 121l121 -73l-18 -21q-25 -29 -112 -114t-126 -140t-39 -106q0 -94 95 -95q29 0 86 9v-113
q-49 -16 -123 -16zM236 502h514q-20 88 -87 151t-170 63t-172 -66t-85 -148z" />
    <glyph glyph-name="Ecaron" unicode="&#x11a;" horiz-adv-x="1011" 
d="M479 1597l-164 246h144l82 -164l82 164h143l-164 -246h-123zM184 0v1475h670l18 -144h-534v-502h461v-143h-461v-543h571l-18 -143h-707z" />
    <glyph glyph-name="ecaron" unicode="&#x11b;" 
d="M424 1024l-164 246h143l82 -164l82 164h144l-164 -246h-123zM236 502h514q-20 88 -87 151t-170 63t-172 -66t-85 -148zM492 -31q-170 0 -290 124t-120 318q0 195 119 317t291 122t290 -124t119 -316v-37h-678q6 -113 83 -192t186 -79q156 0 251 121l121 -73
q-151 -181 -372 -181z" />
    <glyph glyph-name="Gcircumflex" unicode="&#x11c;" horiz-adv-x="1617" 
d="M614 1597l164 246h123l164 -246h-143l-82 164l-82 -164h-144zM840 -41q-307 0 -523 227q-215 227 -215 551t215 551t523 228q440 0 645 -318l-111 -92q-203 266 -534 266q-238 0 -411 -190t-173 -444t174 -445q174 -190 410 -191q301 0 477 230v346h-399l36 141h510v-563
q-94 -129 -252 -213t-372 -84z" />
    <glyph glyph-name="gcircumflex" unicode="&#x11d;" horiz-adv-x="1064" 
d="M293 1024l164 246h123l163 -246h-143l-82 164l-82 -164h-143zM506 717q-120 0 -200 -87t-81 -217q-1 -131 81 -221t202 -90t194 83q76 83 76 225t-76 224q-76 83 -196 83zM532 -410q-254 0 -389 127l82 119q123 -113 307 -112q246 0 246 276v102h-4q-115 -135 -289 -135
q-175 0 -289 125t-114 318q0 192 115 316t289 124t288 -133h4v102h144v-819q-1 -410 -390 -410z" />
    <glyph glyph-name="Gbreve" unicode="&#x11e;" horiz-adv-x="1617" 
d="M840 1577q-129 0 -188 67q-58 67 -58 199h133q0 -143 113 -143t112 143h133q0 -133 -58 -199t-187 -67zM840 -41q-307 0 -523 227q-215 227 -215 551t215 551t523 228q440 0 645 -318l-111 -92q-203 266 -534 266q-238 0 -411 -190t-173 -444t174 -445q174 -190 410 -191
q301 0 477 230v346h-399l36 141h510v-563q-94 -129 -252 -213t-372 -84z" />
    <glyph glyph-name="gbreve" unicode="&#x11f;" horiz-adv-x="1064" 
d="M522 971q-129 1 -187 67t-59 199h134q0 -143 112 -143t113 143h133q0 -133 -58 -200q-59 -66 -188 -66zM506 717q-120 0 -200 -87t-81 -217q-1 -131 81 -221t202 -90t194 83q76 83 76 225t-76 224q-76 83 -196 83zM532 -410q-254 0 -389 127l82 119q123 -113 307 -112
q246 0 246 276v102h-4q-115 -135 -289 -135q-175 0 -289 125t-114 318q0 192 115 316t289 124t288 -133h4v102h144v-819q-1 -410 -390 -410z" />
    <glyph glyph-name="Gdotaccent" unicode="&#x120;" horiz-adv-x="1617" 
d="M768 1597v164h143v-164h-143zM840 -41q-307 0 -523 227q-215 227 -215 551t215 551t523 228q440 0 645 -318l-111 -92q-203 266 -534 266q-238 0 -411 -190t-173 -444t174 -445q174 -190 410 -191q301 0 477 230v346h-399l36 141h510v-563q-94 -129 -252 -213t-372 -84z
" />
    <glyph glyph-name="gdotaccent" unicode="&#x121;" horiz-adv-x="1064" 
d="M451 1024v164h143v-164h-143zM506 717q-120 0 -200 -87t-81 -217q-1 -131 81 -221t202 -90t194 83q76 83 76 225t-76 224q-76 83 -196 83zM532 -410q-254 0 -389 127l82 119q123 -113 307 -112q246 0 246 276v102h-4q-115 -135 -289 -135q-175 0 -289 125t-114 318
q0 192 115 316t289 124t288 -133h4v102h144v-819q-1 -410 -390 -410z" />
    <glyph glyph-name="Gcommaaccent" unicode="&#x122;" horiz-adv-x="1617" 
d="M930 -232q0 -62 -52 -128t-118 -91l-62 41q33 23 60 78q26 56 26 112t-24 97h143q27 -47 27 -109zM840 -41q-307 0 -523 227q-215 227 -215 551t215 551t523 228q440 0 645 -318l-111 -92q-203 266 -534 266q-238 0 -411 -190t-173 -444t174 -445q174 -190 410 -191
q301 0 477 230v346h-399l36 141h510v-563q-94 -129 -252 -213t-372 -84z" />
    <glyph glyph-name="gcommaaccent" unicode="&#x123;" horiz-adv-x="1064" 
d="M434 1134q0 62 52 128t118 90l62 -41q-35 -23 -61 -78q-25 -55 -25 -111t24 -98h-143q-27 48 -27 110zM506 717q-120 0 -200 -87t-81 -217q-1 -131 81 -221t202 -90t194 83q76 83 76 225t-76 224q-76 83 -196 83zM532 -410q-254 0 -389 127l82 119q123 -113 307 -112
q246 0 246 276v102h-4q-115 -135 -289 -135q-175 0 -289 125t-114 318q0 192 115 316t289 124t288 -133h4v102h144v-819q-1 -410 -390 -410z" />
    <glyph glyph-name="Hcircumflex" unicode="&#x124;" horiz-adv-x="1443" 
d="M496 1597l163 246h123l164 -246h-143l-82 164l-82 -164h-143zM184 0v1475h154v-656h768v656h154v-1475h-154v676h-768v-676h-154z" />
    <glyph glyph-name="hcircumflex" unicode="&#x125;" 
d="M276 1597l164 246h123l164 -246h-143l-82 164l-82 -164h-144zM143 0v1495h144v-778h4q86 133 266 133q139 0 216 -87t77 -241v-522h-143v508q0 209 -172 209q-113 0 -181 -68t-67 -203v-446h-144z" />
    <glyph glyph-name="Hbar" unicode="&#x126;" horiz-adv-x="1443" 
d="M338 819h768v250h-768v-250zM184 1212v263h154v-263h768v263h154v-263h102l-21 -143h-81v-1069h-154v676h-768v-676h-154v1069h-102l20 143h82z" />
    <glyph glyph-name="hbar" unicode="&#x127;" 
d="M145 1270v225h144v-225h286l-20 -144h-266v-409h4q86 133 266 133q139 0 216 -87t77 -241v-522h-143v508q0 209 -172 209q-113 0 -181 -68t-67 -203v-446h-144v1126h-102l20 144h82z" />
    <glyph glyph-name="Imacron" unicode="&#x12a;" horiz-adv-x="522" 
d="M-57 1618v125h635v-125h-635zM184 0v1475h154v-1475h-154z" />
    <glyph glyph-name="imacron" unicode="&#x12b;" horiz-adv-x="430" 
d="M-61 1038v125h553v-125h-553zM143 0v819h144v-819h-144z" />
    <glyph glyph-name="Iogonek" unicode="&#x12e;" horiz-adv-x="522" 
d="M246 -446q-185 0 -187 170q0 133 166 276h-41v1475h154v-1475q-150 -150 -150 -231q0 -94 95 -95q29 0 86 9v-113q-49 -16 -123 -16z" />
    <glyph glyph-name="iogonek" unicode="&#x12f;" horiz-adv-x="430" 
d="M143 1024v164h144v-164h-144zM195 -446q-187 0 -187 170q0 133 166 276h-31v819h144v-819q-150 -150 -150 -231q0 -94 94 -95q29 0 86 9v-113q-49 -16 -122 -16z" />
    <glyph glyph-name="Idotaccent" unicode="&#x130;" horiz-adv-x="522" 
d="M188 1597v164h144v-164h-144zM184 0v1475h154v-1475h-154z" />
    <glyph glyph-name="dotlessi" unicode="&#x131;" horiz-adv-x="430" 
d="M143 0v819h144v-819h-144z" />
    <glyph glyph-name="Jcircumflex" unicode="&#x134;" horiz-adv-x="665" 
d="M178 1597l164 246h123l164 -246h-144l-82 164l-81 -164h-144zM246 -41q-154 0 -246 123l102 102q55 -82 144 -82q34 0 58 33t24 90v1250h153v-1250q0 -123 -63 -195t-172 -71z" />
    <glyph glyph-name="jcircumflex" unicode="&#x135;" horiz-adv-x="430" 
d="M-14 1024l164 246h122l164 -246h-143l-82 164l-82 -164h-143zM72 -258q38 0 55 28q16 28 16 107v942h144v-962q0 -133 -49 -191t-156 -59q-13 0 -62 4v133q14 -2 52 -2z" />
    <glyph glyph-name="Kcommaaccent" unicode="&#x136;" horiz-adv-x="1116" 
d="M547 -220q0 56 -25 97h144q26 -47 26 -109t-52 -128t-118 -91l-61 41q35 23 60 78q26 56 26 112zM184 0v1475h154v-646h4l539 646h184l-635 -756l645 -719h-194l-539 604h-4v-604h-154z" />
    <glyph glyph-name="kcommaaccent" unicode="&#x137;" horiz-adv-x="839" 
d="M547 -232q0 -62 -52 -128t-118 -91l-62 41q33 23 60 78q27 56 27 112t-25 97h143q27 -47 27 -109zM143 0v1495h144v-983l299 307h176l-373 -391l410 -428h-187l-325 344v-344h-144z" />
    <glyph glyph-name="Lacute" unicode="&#x139;" horiz-adv-x="870" 
d="M205 1597l123 246h184l-184 -246h-123zM184 0v1475h154v-1332h502l-23 -143h-633z" />
    <glyph glyph-name="lacute" unicode="&#x13a;" horiz-adv-x="430" 
d="M164 1597l123 246h184l-184 -246h-123zM143 0v1495h144v-1495h-144z" />
    <glyph glyph-name="Lcommaaccent" unicode="&#x13b;" horiz-adv-x="870" 
d="M465 -220q0 56 -25 97h144q26 -47 26 -109t-52 -128t-118 -91l-61 41q35 23 60 78q26 56 26 112zM184 0v1475h154v-1332h502l-23 -143h-633z" />
    <glyph glyph-name="lcommaaccent" unicode="&#x13c;" horiz-adv-x="430" 
d="M172 -220q0 56 -25 97h144q27 -47 27 -109t-53 -128q-52 -66 -118 -91l-61 41q33 23 59 78q27 56 27 112zM143 0v1495h144v-1495h-144z" />
    <glyph glyph-name="Lcaron" unicode="&#x13d;" horiz-adv-x="870" 
d="M467 1137v338h154l-41 -338h-113zM184 0v1475h154v-1332h502l-23 -143h-633z" />
    <glyph glyph-name="lcaron" unicode="&#x13e;" horiz-adv-x="430" 
d="M416 1157v338h153l-41 -338h-112zM143 0v1495h144v-1495h-144z" />
    <glyph glyph-name="Lslash" unicode="&#x141;" horiz-adv-x="870" 
d="M184 0v553l-102 -102v184l102 102v738h154v-584l215 215v-184l-215 -215v-564h502l-21 -143h-635z" />
    <glyph glyph-name="lslash" unicode="&#x142;" horiz-adv-x="430" 
d="M143 0v543l-112 -113v184l112 113v768h144v-625l112 113v-184l-112 -113v-686h-144z" />
    <glyph glyph-name="Nacute" unicode="&#x143;" horiz-adv-x="1536" 
d="M727 1597l123 246h184l-184 -246h-123zM184 0v1475h154l860 -1219v1219h154v-1475h-154l-860 1219v-1219h-154z" />
    <glyph glyph-name="nacute" unicode="&#x144;" 
d="M446 1024l123 246h185l-185 -246h-123zM143 0v819h144v-102h4q86 133 268 133q139 0 215 -87t76 -241v-522h-143v508q0 209 -172 209q-113 0 -181 -68t-67 -203v-446h-144z" />
    <glyph glyph-name="Ncommaaccent" unicode="&#x145;" horiz-adv-x="1536" 
d="M887 -232q0 -62 -52 -128t-118 -91l-62 41q33 23 60 78q27 56 27 112t-25 97h143q27 -47 27 -109zM184 0v1475h154l860 -1219v1219h154v-1475h-154l-860 1219v-1219h-154z" />
    <glyph glyph-name="ncommaaccent" unicode="&#x146;" 
d="M453 -220q0 56 -25 97h143q27 -47 27 -109t-52 -128t-118 -91l-61 41q35 23 60 78q26 56 26 112zM143 0v819h144v-102h4q86 133 268 133q139 0 215 -87t76 -241v-522h-143v508q0 209 -172 209q-113 0 -181 -68t-67 -203v-446h-144z" />
    <glyph glyph-name="Ncaron" unicode="&#x147;" horiz-adv-x="1536" 
d="M725 1597l-164 246h144l81 -164l82 164h144l-164 -246h-123zM184 0v1475h154l860 -1219v1219h154v-1475h-154l-860 1219v-1219h-154z" />
    <glyph glyph-name="ncaron" unicode="&#x148;" 
d="M451 1024l-164 246h143l82 -164l82 164h143l-164 -246h-122zM143 0v819h144v-102h4q86 133 268 133q139 0 215 -87t76 -241v-522h-143v508q0 209 -172 209q-113 0 -181 -68t-67 -203v-446h-144z" />
    <glyph glyph-name="Omacron" unicode="&#x14c;" horiz-adv-x="1638" 
d="M502 1618v125h635v-125h-635zM819 102q242 0 403 186t160 449q0 264 -160 450q-161 185 -403 185q-243 0 -403 -185t-160 -449t160 -450t403 -186zM819 -41q-319 0 -518 219t-199 559t199 559q199 220 518 220t518 -220t199 -559q0 -340 -199 -559t-518 -219z" />
    <glyph glyph-name="omacron" unicode="&#x14d;" horiz-adv-x="1003" 
d="M227 1038v125h553v-125h-553zM502 102q120 0 198 87t78 219t-79 221q-79 88 -197 88t-198 -88q-79 -88 -79 -220q0 -131 79 -219t198 -88zM502 -31q-176 0 -298 120t-122 322q0 203 119 321t298 118t301 -120t122 -320t-122 -321q-122 -120 -298 -120z" />
    <glyph glyph-name="Ohungarumlaut" unicode="&#x150;" horiz-adv-x="1638" 
d="M612 1597l123 246h185l-185 -246h-123zM899 1597l123 246h184l-184 -246h-123zM819 102q242 0 403 186t160 449q0 264 -160 450q-161 185 -403 185q-243 0 -403 -185t-160 -449t160 -450t403 -186zM819 -41q-319 0 -518 219t-199 559t199 559q199 220 518 220t518 -220
t199 -559q0 -340 -199 -559t-518 -219z" />
    <glyph glyph-name="ohungarumlaut" unicode="&#x151;" horiz-adv-x="1003" 
d="M287 1024l123 246h184l-184 -246h-123zM573 1024l123 246h185l-185 -246h-123zM502 102q120 0 198 87t78 219t-79 221q-79 88 -197 88t-198 -88q-79 -88 -79 -220q0 -131 79 -219t198 -88zM502 -31q-176 0 -298 120t-122 322q0 203 119 321t298 118t301 -120t122 -320
t-122 -321q-122 -120 -298 -120z" />
    <glyph glyph-name="OE" unicode="&#x152;" horiz-adv-x="2199" 
d="M256 738q0 -258 165 -448q165 -188 399 -188t399 188q164 188 163 447q0 260 -163 448q-165 187 -399 187t-399 -188t-165 -446zM834 -41q-324 0 -528 222t-204 556t204 556t513 223q342 0 549 -271h4v230h670l18 -144h-534v-502h461v-143h-461v-543h571l-18 -143h-707
v229h-4q-210 -270 -534 -270z" />
    <glyph glyph-name="oe" unicode="&#x153;" horiz-adv-x="1679" 
d="M502 102q120 0 198 87t78 219t-79 221q-79 88 -197 88t-198 -88q-79 -88 -79 -220q0 -131 79 -219t198 -88zM932 502h514q-20 88 -87 151t-170 63t-172 -66t-85 -148zM502 -31q-176 0 -298 120t-122 322q0 203 119 321t301 118q106 0 199 -48t149 -136q55 88 144 136
t194 48q172 0 291 -124t118 -316v-37h-677q6 -113 82 -192t186 -79q156 0 252 121l121 -73q-152 -180 -373 -181q-102 0 -192 49t-146 136q-55 -88 -147 -136t-201 -49z" />
    <glyph glyph-name="Racute" unicode="&#x154;" horiz-adv-x="1085" 
d="M451 1597l122 246h185l-185 -246h-122zM338 799h164q131 0 214 62q83 61 83 203t-83 204t-214 63h-164v-532zM184 0v1475h318q194 1 322 -103t128 -307q0 -102 -36 -181t-96 -125q-114 -88 -267 -104l461 -655h-195l-440 655h-41v-655h-154z" />
    <glyph glyph-name="racute" unicode="&#x155;" horiz-adv-x="573" 
d="M256 1024l123 246h184l-184 -246h-123zM143 0v819h144v-102h4q39 69 87 101t134 32v-154q-12 2 -35 2q-80 0 -135 -54t-55 -132v-512h-144z" />
    <glyph glyph-name="Rcommaaccent" unicode="&#x156;" horiz-adv-x="1085" 
d="M666 -232q0 -62 -52 -128t-118 -91l-62 41q33 23 60 78q26 56 26 112t-24 97h143q27 -47 27 -109zM338 799h164q131 0 214 62q83 61 83 203t-83 204t-214 63h-164v-532zM184 0v1475h318q194 1 322 -103t128 -307q0 -102 -36 -181t-96 -125q-114 -88 -267 -104l461 -655
h-195l-440 655h-41v-655h-154z" />
    <glyph glyph-name="rcommaaccent" unicode="&#x157;" horiz-adv-x="573" 
d="M174 -220q0 56 -24 97h143q27 -47 27 -109t-52 -128t-118 -91l-62 41q35 23 60 78q26 56 26 112zM143 0v819h144v-102h4q39 69 87 101t134 32v-154q-12 2 -35 2q-80 0 -135 -54t-55 -132v-512h-144z" />
    <glyph glyph-name="Rcaron" unicode="&#x158;" horiz-adv-x="1085" 
d="M449 1597l-164 246h143l82 -164l82 164h143l-164 -246h-122zM338 799h164q131 0 214 62q83 61 83 203t-83 204t-214 63h-164v-532zM184 0v1475h318q194 1 322 -103t128 -307q0 -102 -36 -181t-96 -125q-114 -88 -267 -104l461 -655h-195l-440 655h-41v-655h-154z" />
    <glyph glyph-name="rcaron" unicode="&#x159;" horiz-adv-x="573" 
d="M260 1024l-164 246h144l82 -164l81 164h144l-164 -246h-123zM143 0v819h144v-102h4q39 69 87 101t134 32v-154q-12 2 -35 2q-80 0 -135 -54t-55 -132v-512h-144z" />
    <glyph glyph-name="Sacute" unicode="&#x15a;" horiz-adv-x="1095" 
d="M502 1597l123 246h184l-184 -246h-123zM588 -41q-305 0 -516 246l123 102q86 -109 176 -157t214 -48q123 0 199 73t76 194q0 150 -134 244q-60 42 -189 110t-204 130q-149 123 -149 305q0 181 116 269t284 89q238 0 368 -164l-92 -113q-41 57 -115 95t-174 38t-167 -51
q-66 -51 -66 -145t50 -160t125 -104t163 -87t163 -99t125 -142t50 -215q0 -176 -112 -293t-314 -117z" />
    <glyph glyph-name="sacute" unicode="&#x15b;" horiz-adv-x="788" 
d="M338 1024l123 246h184l-184 -246h-123zM399 -31q-213 0 -327 154l92 113q36 -50 100 -92t135 -42q143 0 144 123q0 78 -205 149q-76 26 -140 88t-65 166q0 104 76 162q76 60 190 60q182 0 267 -113l-82 -102q-82 82 -185 82q-123 0 -123 -103q0 -77 205 -140
q76 -24 141 -88q64 -64 64 -170t-71 -176t-216 -71z" />
    <glyph glyph-name="Scircumflex" unicode="&#x15c;" horiz-adv-x="1095" 
d="M358 1597l164 246h123l164 -246h-143l-82 164l-82 -164h-144zM588 -41q-305 0 -516 246l123 102q86 -109 176 -157t214 -48q123 0 199 73t76 194q0 150 -134 244q-60 42 -189 110t-204 130q-149 123 -149 305q0 181 116 269t284 89q238 0 368 -164l-92 -113
q-41 57 -115 95t-174 38t-167 -51q-66 -51 -66 -145t50 -160t125 -104t163 -87t163 -99t125 -142t50 -215q0 -176 -112 -293t-314 -117z" />
    <glyph glyph-name="scircumflex" unicode="&#x15d;" horiz-adv-x="788" 
d="M180 1024l164 246h123l164 -246h-144l-81 164l-82 -164h-144zM399 -31q-213 0 -327 154l92 113q36 -50 100 -92t135 -42q143 0 144 123q0 78 -205 149q-76 26 -140 88t-65 166q0 104 76 162q76 60 190 60q182 0 267 -113l-82 -102q-82 82 -185 82q-123 0 -123 -103
q0 -77 205 -140q76 -24 141 -88q64 -64 64 -170t-71 -176t-216 -71z" />
    <glyph glyph-name="Scedilla" unicode="&#x15e;" horiz-adv-x="1095" 
d="M676 -232q0 -62 -52 -128t-118 -91l-62 41q35 23 61 78q25 56 25 112t-24 97h143q27 -47 27 -109zM588 -41q-305 0 -516 246l123 102q86 -109 176 -157t214 -48q123 0 199 73t76 194q0 150 -134 244q-60 42 -189 110t-204 130q-149 123 -149 305q0 181 116 269t284 89
q238 0 368 -164l-92 -113q-41 57 -115 95t-174 38t-167 -51q-66 -51 -66 -145t50 -160t125 -104t163 -87t163 -99t125 -142t50 -215q0 -176 -112 -293t-314 -117z" />
    <glyph glyph-name="scedilla" unicode="&#x15f;" horiz-adv-x="788" 
d="M500 -222q0 -62 -52 -128q-52 -65 -118 -90l-62 41q35 23 61 77q25 54 25 112q0 56 -24 97h143q27 -47 27 -109zM399 -31q-213 0 -327 154l92 113q36 -50 100 -92t135 -42q143 0 144 123q0 78 -205 149q-76 26 -140 88t-65 166q0 104 76 162q76 60 190 60q182 0 267 -113
l-82 -102q-82 82 -185 82q-123 0 -123 -103q0 -77 205 -140q76 -24 141 -88q64 -64 64 -170t-71 -176t-216 -71z" />
    <glyph glyph-name="Scaron" unicode="&#x160;" horiz-adv-x="1095" 
d="M522 1597l-164 246h144l82 -164l82 164h143l-164 -246h-123zM588 -41q-305 0 -516 246l123 102q86 -109 176 -157t214 -48q123 0 199 73t76 194q0 150 -134 244q-60 42 -189 110t-204 130q-149 123 -149 305q0 181 116 269t284 89q238 0 368 -164l-92 -113
q-41 57 -115 95t-174 38t-167 -51q-66 -51 -66 -145t50 -160t125 -104t163 -87t163 -99t125 -142t50 -215q0 -176 -112 -293t-314 -117z" />
    <glyph glyph-name="scaron" unicode="&#x161;" horiz-adv-x="788" 
d="M328 1024l-164 246h143l82 -164l82 164h143l-163 -246h-123zM399 -31q-213 0 -327 154l92 113q36 -50 100 -92t135 -42q143 0 144 123q0 78 -205 149q-76 26 -140 88t-65 166q0 104 76 162q76 60 190 60q182 0 267 -113l-82 -102q-82 82 -185 82q-123 0 -123 -103
q0 -77 205 -140q76 -24 141 -88q64 -64 64 -170t-71 -176t-216 -71z" />
    <glyph glyph-name="Tcommaaccent" unicode="&#x162;" horiz-adv-x="890" 
d="M543 -232q0 -62 -52 -128t-118 -91l-62 41q33 23 60 78q27 56 27 112t-25 97h143q27 -47 27 -109zM369 0v1321h-328l20 154h768l21 -154h-328v-1321h-153z" />
    <glyph glyph-name="tcommaaccent" unicode="&#x163;" horiz-adv-x="563" 
d="M254 -210q0 56 -25 97h144q27 -47 27 -109t-53 -128q-52 -65 -118 -90l-61 41q34 23 60 77q26 56 26 112zM340 -31q-166 0 -166 195v522h-123l21 133h102v297l143 41v-338h144v-133h-144v-512q0 -68 56 -68q39 0 88 37v-143q-62 -31 -121 -31z" />
    <glyph glyph-name="Tcaron" unicode="&#x164;" horiz-adv-x="890" 
d="M387 1597l-164 246h144l82 -164l81 164h144l-164 -246h-123zM369 0v1321h-328l20 154h768l21 -154h-328v-1321h-153z" />
    <glyph glyph-name="tcaron" unicode="&#x165;" horiz-adv-x="563" 
d="M436 971v338h154l-41 -338h-113zM340 -31q-166 0 -166 195v522h-123l21 133h102v297l143 41v-338h144v-133h-144v-512q0 -68 56 -68q39 0 88 37v-143q-62 -31 -121 -31z" />
    <glyph glyph-name="Umacron" unicode="&#x16a;" horiz-adv-x="1404" 
d="M385 1618v125h635v-125h-635zM702 -41q-233 0 -386 145t-152 412v959h153v-959q0 -188 111 -301q110 -113 274 -113t275 113t110 301v959h154v-959q0 -266 -152 -412q-154 -145 -387 -145z" />
    <glyph glyph-name="umacron" unicode="&#x16b;" 
d="M215 1038v125h553v-125h-553zM424 -31q-139 0 -215 87t-76 241v522h143v-508q0 -209 173 -209q113 0 181 68t66 203v446h144v-819h-144v102q-92 -133 -272 -133z" />
    <glyph glyph-name="Ubreve" unicode="&#x16c;" horiz-adv-x="1404" 
d="M702 1577q-129 0 -187 67t-58 199h133q0 -143 112 -143t113 143h133q0 -133 -58 -199t-188 -67zM702 -41q-233 0 -386 145t-152 412v959h153v-959q0 -188 111 -301q110 -113 274 -113t275 113t110 301v959h154v-959q0 -266 -152 -412q-154 -145 -387 -145z" />
    <glyph glyph-name="ubreve" unicode="&#x16d;" 
d="M492 971q-129 0 -188 66q-58 67 -58 200h133q0 -143 113 -143t112 143h133q0 -133 -58 -199t-187 -67zM424 -31q-139 0 -215 87t-76 241v522h143v-508q0 -209 173 -209q113 0 181 68t66 203v446h144v-819h-144v102q-92 -133 -272 -133z" />
    <glyph glyph-name="Uring" unicode="&#x16e;" horiz-adv-x="1404" 
d="M702 1649q29 -1 51 21q21 22 21 50t-22 50t-50 22t-50 -22t-22 -50t22 -50q21 -21 50 -21zM702 1556q-68 0 -116 48t-47 116q0 68 48 116q47 48 115 48t116 -48t48 -116t-48 -116t-116 -48zM702 -41q-233 0 -386 145t-152 412v959h153v-959q0 -188 111 -301
q110 -113 274 -113t275 113t110 301v959h154v-959q0 -266 -152 -412q-154 -145 -387 -145z" />
    <glyph glyph-name="uring" unicode="&#x16f;" 
d="M489 1075q29 0 51 22q22 23 22 51t-22 50t-51 21q-29 0 -51 -22q-22 -23 -20 -51q0 -28 21 -50t50 -21zM489 983q-67 0 -115 48t-48 116t48 116t116 48t115 -48q48 -48 48 -116t-48 -116t-116 -48zM424 -31q-139 0 -215 87t-76 241v522h143v-508q0 -209 173 -209
q113 0 181 68t66 203v446h144v-819h-144v102q-92 -133 -272 -133z" />
    <glyph glyph-name="Uhungarumlaut" unicode="&#x170;" horiz-adv-x="1404" 
d="M492 1597l122 246h185l-185 -246h-122zM778 1597l123 246h184l-184 -246h-123zM702 -41q-233 0 -386 145t-152 412v959h153v-959q0 -188 111 -301q110 -113 274 -113t275 113t110 301v959h154v-959q0 -266 -152 -412q-154 -145 -387 -145z" />
    <glyph glyph-name="uhungarumlaut" unicode="&#x171;" 
d="M276 1024l123 246h185l-185 -246h-123zM563 1024l123 246h184l-184 -246h-123zM424 -31q-139 0 -215 87t-76 241v522h143v-508q0 -209 173 -209q113 0 181 68t66 203v446h144v-819h-144v102q-92 -133 -272 -133z" />
    <glyph glyph-name="Uogonek" unicode="&#x172;" horiz-adv-x="1404" 
d="M893 -446q-186 0 -186 170q0 121 137 251q-72 -16 -142 -16q-233 0 -386 145t-152 412v959h153v-959q0 -188 111 -301q110 -113 274 -113t275 113t110 301v959h154v-959q0 -213 -117 -373q-18 -27 -98 -101q-190 -177 -190 -272t94 -96q29 0 86 9v-113q-49 -16 -123 -16z
" />
    <glyph glyph-name="uogonek" unicode="&#x173;" 
d="M717 -446q-185 0 -187 170q0 133 166 276v102q-92 -133 -272 -133q-139 0 -215 87t-76 241v522h143v-508q0 -209 173 -209q113 0 181 68t66 203v446h144v-819h-31q-150 -150 -150 -231q0 -94 95 -95q29 0 86 9v-113q-49 -16 -123 -16z" />
    <glyph glyph-name="Ydieresis" unicode="&#x178;" horiz-adv-x="1085" 
d="M317 1597v164h144v-164h-144zM625 1597v164h143v-164h-143zM465 0v516l-465 959h174l369 -779l368 779h174l-469 -959v-516h-151z" />
    <glyph glyph-name="Zacute" unicode="&#x179;" horiz-adv-x="1056" 
d="M453 1597l122 246h185l-185 -246h-122zM82 0v92l666 1239h-666l37 144h833v-93l-665 -1239h698l-37 -143h-866z" />
    <glyph glyph-name="zacute" unicode="&#x17a;" horiz-adv-x="772" 
d="M354 1024l123 246h185l-185 -246h-123zM31 0l440 686h-379l41 133h588l-438 -686h403l-41 -133h-614z" />
    <glyph glyph-name="Zdotaccent" unicode="&#x17b;" horiz-adv-x="1056" 
d="M463 1597v164h143v-164h-143zM82 0v92l666 1239h-666l37 144h833v-93l-665 -1239h698l-37 -143h-866z" />
    <glyph glyph-name="zdotaccent" unicode="&#x17c;" horiz-adv-x="772" 
d="M354 1024v164h144v-164h-144zM31 0l440 686h-379l41 133h588l-438 -686h403l-41 -133h-614z" />
    <glyph glyph-name="Zcaron" unicode="&#x17d;" horiz-adv-x="1056" 
d="M451 1597l-164 246h143l82 -164l82 164h143l-164 -246h-122zM82 0v92l666 1239h-666l37 144h833v-93l-665 -1239h698l-37 -143h-866z" />
    <glyph glyph-name="zcaron" unicode="&#x17e;" horiz-adv-x="772" 
d="M317 1024l-163 246h143l82 -164l82 164h143l-164 -246h-123zM31 0l440 686h-379l41 133h588l-438 -686h403l-41 -133h-614z" />
    <glyph glyph-name="florin" unicode="&#x192;" horiz-adv-x="935" 
d="M66 -256q110 0 150 31t56 123l140 788h-201l25 133h200l58 328q25 145 94 216q70 71 203 71h124l-22 -134h-41q-111 0 -151 -30t-56 -123l-57 -328h221l-25 -133h-221l-139 -788q-26 -143 -96 -215t-203 -72h-125l25 133h41z" />
    <glyph glyph-name="Scommaaccent" unicode="&#x218;" horiz-adv-x="1095" 
d="M666 -232q0 -62 -52 -128t-118 -91l-62 41q33 23 60 78q26 56 26 112t-24 97h143q27 -47 27 -109zM588 -41q-305 0 -516 246l123 102q86 -109 176 -157t214 -48q123 0 199 73t76 194q0 150 -134 244q-60 42 -189 110t-204 130q-149 123 -149 305q0 181 116 269t284 89
q238 0 368 -164l-92 -113q-41 57 -115 95t-174 38t-167 -51q-66 -51 -66 -145t50 -160t125 -104t163 -87t163 -99t125 -142t50 -215q0 -176 -112 -293t-314 -117z" />
    <glyph glyph-name="scommaaccent" unicode="&#x219;" horiz-adv-x="788" 
d="M498 -232q0 -62 -52 -128t-118 -91l-62 41q33 23 60 78q26 56 26 112t-24 97h143q27 -47 27 -109zM399 -31q-213 0 -327 154l92 113q36 -50 100 -92t135 -42q143 0 144 123q0 78 -205 149q-76 26 -140 88t-65 166q0 104 76 162q76 60 190 60q182 0 267 -113l-82 -102
q-82 82 -185 82q-123 0 -123 -103q0 -77 205 -140q76 -24 141 -88q64 -64 64 -170t-71 -176t-216 -71z" />
    <glyph glyph-name="uni021A" unicode="&#x21a;" horiz-adv-x="890" 
d="M549 -232q0 -62 -52 -128t-118 -91l-62 41q33 23 60 78q27 56 27 112t-25 97h143q27 -47 27 -109zM369 0v1321h-328l20 154h768l21 -154h-328v-1321h-153z" />
    <glyph glyph-name="uni021B" unicode="&#x21b;" horiz-adv-x="563" 
d="M240 -220q0 56 -25 97h143q27 -47 27 -109t-52 -128t-118 -91l-61 41q35 23 60 78q26 56 26 112zM340 -31q-166 0 -166 195v522h-123l21 133h102v297l143 41v-338h144v-133h-144v-512q0 -68 56 -68q39 0 88 37v-143q-62 -31 -121 -31z" />
    <glyph glyph-name="uni0237" unicode="&#x237;" horiz-adv-x="430" 
d="M72 -258q38 0 55 28q16 28 16 107v942h144v-962q0 -133 -49 -191t-156 -59q-13 0 -62 4v133q14 -2 52 -2z" />
    <glyph glyph-name="uni02BB" unicode="&#x2bb;" horiz-adv-x="522" 
d="M184 1075v154q0 92 40 167t93 120l82 -41q-61 -98 -61 -246v-154h-154z" />
    <glyph glyph-name="afii57929" unicode="&#x2bc;" horiz-adv-x="522" 
d="M184 1321v154h154v-154q0 -92 -40 -167t-93 -120l-82 41q61 98 61 246z" />
    <glyph glyph-name="circumflex" unicode="&#x2c6;" horiz-adv-x="614" 
d="M82 1024l164 246h123l163 -246h-143l-82 164l-82 -164h-143z" />
    <glyph glyph-name="caron" unicode="&#x2c7;" horiz-adv-x="614" 
d="M246 1024l-164 246h143l82 -164l82 164h143l-163 -246h-123z" />
    <glyph glyph-name="breve" unicode="&#x2d8;" horiz-adv-x="614" 
d="M307 971q-129 1 -187 67t-59 199h134q1 -143 113 -143t112 143h133q0 -133 -58 -200q-59 -66 -188 -66z" />
    <glyph glyph-name="dotaccent" unicode="&#x2d9;" horiz-adv-x="307" 
d="M82 1024v164h143v-164h-143z" />
    <glyph glyph-name="ring" unicode="&#x2da;" horiz-adv-x="491" 
d="M246 1075q28 0 50 22q22 23 22 51t-22 50t-50 21q-28 0 -50 -22q-22 -23 -22 -51t22 -50t50 -21zM246 983q-68 0 -116 48t-48 116t48 116t116 48t116 -48t48 -116t-48 -116t-116 -48z" />
    <glyph glyph-name="ogonek" unicode="&#x2db;" horiz-adv-x="348" 
d="M209 -446q-186 0 -186 170q0 133 165 276h113q-150 -150 -149 -231q0 -94 94 -95q29 0 86 9v-113q-49 -16 -123 -16z" />
    <glyph glyph-name="tilde" unicode="&#x2dc;" horiz-adv-x="696" 
d="M495 1004q-61 0 -153 46t-117 46t-33 -14t-8 -58h-102v41q0 90 30 127t90 37t152 -46t117 -46t33 13t8 58h102v-41q0 -90 -29 -127q-30 -36 -90 -36z" />
    <glyph glyph-name="hungarumlaut" unicode="&#x2dd;" horiz-adv-x="757" 
d="M82 1024l123 246h184l-184 -246h-123zM369 1024l123 246h184l-184 -246h-123z" />
    <glyph glyph-name="gravecomb" unicode="&#x300;" horiz-adv-x="2" 
d="M-551 1024l-184 246h184l123 -246h-123z" />
    <glyph glyph-name="acutecomb" unicode="&#x301;" horiz-adv-x="2" 
d="M-571 1024l122 246h185l-185 -246h-122z" />
    <glyph glyph-name="uni0302" unicode="&#x302;" horiz-adv-x="2" 
d="M-729 1024l164 246h123l163 -246h-143l-82 164l-82 -164h-143z" />
    <glyph glyph-name="tildecomb" unicode="&#x303;" horiz-adv-x="2" 
d="M-357 1004q-61 0 -153 46t-117 46t-33 -14t-8 -58h-102v41q0 90 30 127t90 37t152 -46t117 -46t33 13t8 58h102v-41q0 -90 -29 -127q-30 -36 -90 -36z" />
    <glyph glyph-name="uni0304" unicode="&#x304;" horiz-adv-x="2" 
d="M-707 1038v125h553v-125h-553z" />
    <glyph glyph-name="uni0306" unicode="&#x306;" horiz-adv-x="2" 
d="M-307 971q-129 0 -188 66q-58 67 -58 200h133q0 -143 113 -143t112 143h134q-1 -133 -59 -199t-187 -67z" />
    <glyph glyph-name="uni0307" unicode="&#x307;" horiz-adv-x="2" 
d="M-225 1024v164h143v-164h-143z" />
    <glyph glyph-name="uni0308" unicode="&#x308;" horiz-adv-x="2" 
d="M-530 1024v164h143v-164h-143zM-223 1024v164h143v-164h-143z" />
    <glyph glyph-name="uni030A" unicode="&#x30a;" horiz-adv-x="2" 
d="M-244 1075q28 0 50 22q22 23 22 51t-22 50t-50 21q-28 0 -50 -22q-22 -23 -22 -51t22 -50q21 -22 50 -21zM-244 983q-68 0 -116 48t-48 116t48 116t116 48t116 -48t48 -116t-48 -116t-116 -48z" />
    <glyph glyph-name="uni030B" unicode="&#x30b;" horiz-adv-x="2" 
d="M-676 1024l123 246h184l-184 -246h-123zM-389 1024l123 246h184l-184 -246h-123z" />
    <glyph glyph-name="uni030C" unicode="&#x30c;" horiz-adv-x="2" 
d="M-453 1024l-163 246h143l82 -164l82 164h143l-164 -246h-123z" />
    <glyph glyph-name="uni0312" unicode="&#x312;" horiz-adv-x="2" 
d="M-512 1122q0 -56 25 -98h-144q-27 48 -27 110t53 128q52 66 118 90l61 -41q-34 -23 -60 -78t-26 -111z" />
    <glyph glyph-name="uni0313" unicode="&#x313;" horiz-adv-x="2" 
d="M-297 1137v338h154l-41 -338h-113z" />
    <glyph glyph-name="uni0326" unicode="&#x326;" horiz-adv-x="2" 
d="M-55 -232q0 -62 -52 -128t-118 -91l-62 41q33 23 60 78q27 56 27 112t-25 97h143q27 -47 27 -109z" />
    <glyph glyph-name="uni0327" unicode="&#x327;" horiz-adv-x="2" 
d="M-53 -222q0 -62 -52 -128q-52 -65 -118 -90l-62 41q35 23 61 77t26 112q0 56 -25 97h143q27 -47 27 -109z" />
    <glyph glyph-name="uni0328" unicode="&#x328;" horiz-adv-x="2" 
d="M-111 -446q-186 0 -186 170q0 133 166 276h113q-150 -150 -150 -231q0 -94 94 -95q29 0 86 9v-113q-49 -16 -123 -16z" />
    <glyph glyph-name="uni0335" unicode="&#x335;" horiz-adv-x="2" 
d="M-776 348v123h696v-123h-696z" />
    <glyph glyph-name="uni0336" unicode="&#x336;" horiz-adv-x="2" 
d="M-1841 338v143h1761v-143h-1761z" />
    <glyph glyph-name="uni0394" unicode="&#x394;" horiz-adv-x="1433" 
d="M266 143h901l-450 955zM41 0l676 1434l676 -1434h-1352z" />
    <glyph glyph-name="uni03A9" unicode="&#x3a9;" horiz-adv-x="1609" 
d="M121 737q0 311 193 504q194 193 492 193t490 -193t193 -504q0 -184 -79 -339t-193 -253h311l-23 -145h-561l-20 104q166 70 293 260t126 373q0 242 -154 403q-155 160 -382 160t-384 -162t-157 -401q0 -182 126 -372t294 -261l-20 -104h-562l-22 145h311
q-117 96 -194 252q-78 156 -78 340z" />
    <glyph glyph-name="uni03BC" unicode="&#x3bc;" horiz-adv-x="993" 
d="M143 -389v1208h144v-508q0 -209 172 -209q113 0 181 68t67 203v446h143v-819h-143v102q-92 -133 -236 -133q-53 1 -107 21t-77 51v-430h-144z" />
    <glyph glyph-name="pi" unicode="&#x3c0;" horiz-adv-x="1024" 
d="M225 0v686h-164l11 133h880l11 -133h-164v-686h-144v686h-286v-686h-144z" />
    <glyph glyph-name="uni2007" unicode="&#x2007;" horiz-adv-x="1064" 
 />
    <glyph glyph-name="uni2008" unicode="&#x2008;" horiz-adv-x="522" 
 />
    <glyph glyph-name="uni200B" unicode="&#x200b;" horiz-adv-x="0" 
 />
    <glyph glyph-name="endash" unicode="&#x2013;" horiz-adv-x="1249" 
d="M184 369v143h881v-143h-881z" />
    <glyph glyph-name="emdash" unicode="&#x2014;" horiz-adv-x="1925" 
d="M82 369v143h1761v-143h-1761z" />
    <glyph glyph-name="quoteleft" unicode="&#x2018;" horiz-adv-x="522" 
d="M184 1075v154q0 92 40 167t93 120l82 -41q-61 -98 -61 -246v-154h-154z" />
    <glyph glyph-name="quoteright" unicode="&#x2019;" horiz-adv-x="522" 
d="M184 1321v154h154v-154q0 -92 -40 -167t-93 -120l-82 41q61 98 61 246z" />
    <glyph glyph-name="quotesinglbase" unicode="&#x201a;" horiz-adv-x="522" 
d="M184 20v154h154v-154q0 -92 -40 -166t-93 -120l-82 41q61 98 61 245z" />
    <glyph glyph-name="quotedblleft" unicode="&#x201c;" horiz-adv-x="808" 
d="M184 1075v154q0 92 40 167t93 120l82 -41q-61 -98 -61 -246v-154h-154zM471 1075v154q0 92 40 167t93 120l82 -41q-61 -98 -61 -246v-154h-154z" />
    <glyph glyph-name="quotedblright" unicode="&#x201d;" horiz-adv-x="808" 
d="M184 1321v154h154v-154q0 -92 -40 -167t-93 -120l-82 41q61 98 61 246zM471 1321v154h154v-154q0 -92 -40 -167t-93 -120l-82 41q61 98 61 246z" />
    <glyph glyph-name="quotedblbase" unicode="&#x201e;" horiz-adv-x="808" 
d="M184 20v154h154v-154q0 -92 -40 -166t-93 -120l-82 41q61 98 61 245zM471 20v154h154v-154q0 -92 -40 -166t-93 -120l-82 41q61 98 61 245z" />
    <glyph glyph-name="dagger" unicode="&#x2020;" horiz-adv-x="1075" 
d="M461 -389v1188h-441v143h441v451h153v-451h441v-143h-441v-1188h-153z" />
    <glyph glyph-name="daggerdbl" unicode="&#x2021;" horiz-adv-x="1075" 
d="M461 -389v450h-441v144h441v594h-441v143h441v451h153v-451h441v-143h-441v-594h441v-144h-441v-450h-153z" />
    <glyph glyph-name="bullet" unicode="&#x2022;" horiz-adv-x="778" 
d="M389 236q-127 0 -217 90t-90 217t90 217t217 90t217 -90t90 -217t-90 -217t-217 -90z" />
    <glyph glyph-name="ellipsis" unicode="&#x2026;" horiz-adv-x="1423" 
d="M184 0v174h154v-174h-154zM635 0v174h153v-174h-153zM1085 0v174h154v-174h-154z" />
    <glyph glyph-name="perthousand" unicode="&#x2030;" horiz-adv-x="2314" 
d="M1884 82q63 0 104 60q40 60 40 164t-40 166q-40 60 -104 60t-103 -60q-40 -60 -40 -164t40 -166q40 -60 103 -60zM1884 -41q-110 0 -188 98t-78 250t78 250t188 98t189 -98q77 -98 77 -250t-78 -250t-188 -98zM1208 82q63 0 104 60q40 60 40 164t-40 166q-40 60 -104 60
t-103 -60q-40 -60 -40 -164t40 -166q40 -60 103 -60zM1208 -41q-110 0 -188 98t-78 250t78 250t188 98t189 -98q78 -98 78 -250t-78 -250t-189 -98zM328 0l839 1393h144l-840 -1393h-143zM430 860q64 0 104 60t39 165q0 104 -39 165q-40 60 -104 60t-103 -60
q-40 -60 -40 -164t40 -166q40 -60 103 -60zM430 737q-110 1 -188 99t-78 250t78 249q78 99 188 99t188 -98t78 -251q0 -152 -78 -250t-188 -98z" />
    <glyph glyph-name="guilsinglleft" unicode="&#x2039;" horiz-adv-x="552" 
d="M328 225l-226 226l226 225l82 -82l-144 -143l144 -144z" />
    <glyph glyph-name="guilsinglright" unicode="&#x203a;" horiz-adv-x="552" 
d="M225 225l-82 82l144 144l-144 143l82 82l226 -225z" />
    <glyph glyph-name="fraction" unicode="&#x2044;" horiz-adv-x="399" 
d="M-305 0l840 1393h143l-840 -1393h-143z" />
    <glyph glyph-name="uni2070" unicode="&#x2070;" horiz-adv-x="880" 
d="M440 594q-158 0 -256 126t-98 335t98 335t256 126t256 -126t98 -335t-98 -335t-256 -126zM440 705q106 0 170 91q63 91 64 259q0 168 -64 259t-170 91t-170 -91t-63 -259q-1 -168 63 -259t170 -91z" />
    <glyph glyph-name="uni2074" unicode="&#x2074;" horiz-adv-x="880" 
d="M479 934v358l-250 -358h250zM479 637v194h-434l449 646h108v-543h135v-103h-135v-194h-123z" />
    <glyph glyph-name="uni2075" unicode="&#x2075;" horiz-adv-x="880" 
d="M410 594q-203 0 -320 188l88 72q102 -152 230 -152q92 0 149 58t57 145q0 85 -55 143t-157 58t-201 -72l20 441h434l-14 -109h-315l-11 -190q47 27 127 26q115 0 202 -73t87 -225t-97 -230q-97 -80 -224 -80z" />
    <glyph glyph-name="uni2076" unicode="&#x2076;" horiz-adv-x="880" 
d="M238 898q0 -84 56 -140t141 -56t140 56t55 141q0 84 -51 138q-51 55 -139 55t-145 -56t-57 -138zM430 594q-127 0 -218 87t-91 221t125 280l258 293h141l-264 -299q27 10 72 10q129 0 211 -77t82 -212t-95 -219q-94 -84 -221 -84z" />
    <glyph glyph-name="uni2077" unicode="&#x2077;" horiz-adv-x="757" 
d="M674 1475v-109l-334 -729h-127l340 729h-512l25 109h608z" />
    <glyph glyph-name="uni2078" unicode="&#x2078;" horiz-adv-x="880" 
d="M440 594q-143 0 -232 77t-89 199q0 76 43 136t114 94q-121 70 -120 188q0 94 75 161q76 67 209 67t209 -67t76 -161q0 -119 -121 -188q72 -33 115 -93t43 -137q0 -124 -90 -200t-232 -76zM440 702q94 0 148 52t55 122q0 70 -53 120q-54 50 -150 50t-149 -50t-53 -120
t54 -122t148 -52zM440 1151q72 0 121 40t49 94t-42 90t-128 36t-128 -36t-42 -90t49 -94t121 -40z" />
    <glyph glyph-name="uni2079" unicode="&#x2079;" horiz-adv-x="880" 
d="M439 1018q87 0 145 55q57 55 57 138t-56 139q-55 56 -141 55q-86 0 -141 -55q-55 -56 -55 -140t52 -138t139 -54zM426 924q-129 0 -211 76t-82 212t94 220q93 84 221 84t219 -88t91 -221q0 -134 -125 -279l-258 -291h-142l265 297q-27 -10 -72 -10z" />
    <glyph glyph-name="uni2080" unicode="&#x2080;" horiz-adv-x="880" 
d="M440 -461q-158 0 -256 126t-98 335t98 335t256 126t256 -126t98 -335t-98 -335t-256 -126zM440 -350q106 0 170 91q63 91 64 259q0 168 -64 259t-170 91t-170 -91t-63 -259q-1 -168 63 -259t170 -91z" />
    <glyph glyph-name="uni2081" unicode="&#x2081;" horiz-adv-x="634" 
d="M301 -418v694l-170 -167v143l168 168h123v-838h-121z" />
    <glyph glyph-name="uni2082" unicode="&#x2082;" horiz-adv-x="880" 
d="M127 -418v80q0 100 49 174t119 115q71 41 139 75t117 78t49 106q0 64 -46 104t-120 40q-145 0 -188 -172l-111 33q20 102 98 174t205 72t207 -71t80 -185q0 -78 -49 -137q-49 -60 -120 -98q-72 -38 -142 -72t-119 -86q-49 -51 -49 -117h485l-29 -113h-575z" />
    <glyph glyph-name="uni2083" unicode="&#x2083;" horiz-adv-x="860" 
d="M428 -461q-250 0 -338 203l103 53q78 -147 217 -147q86 0 137 46t51 126t-54 127t-143 47h-55v106h49q158 0 158 133q0 51 -44 85q-45 34 -105 34t-100 -30t-75 -89l-90 56q86 172 271 172q124 -1 196 -61t72 -144t-37 -135t-88 -70q72 -19 121 -83t49 -144
q0 -127 -86 -206q-87 -79 -209 -79z" />
    <glyph glyph-name="uni2084" unicode="&#x2084;" horiz-adv-x="880" 
d="M479 -121v359l-250 -359h250zM479 -418v195h-434l449 645h108v-543h135v-102h-135v-195h-123z" />
    <glyph glyph-name="uni2085" unicode="&#x2085;" horiz-adv-x="880" 
d="M410 -461q-203 0 -320 189l88 71q102 -152 230 -151q92 0 149 58t57 144t-55 144q-55 57 -157 57t-201 -71l20 440h434l-14 -109h-315l-11 -190q47 27 127 26q115 -1 202 -73t87 -224t-97 -231q-97 -80 -224 -80z" />
    <glyph glyph-name="uni2086" unicode="&#x2086;" horiz-adv-x="880" 
d="M435 -352q85 0 140 56t55 140t-51 138t-139 55q-88 0 -145 -55q-57 -54 -57 -138t56 -140t141 -56zM430 -461q-127 0 -218 87t-91 221t125 280l258 293h141l-264 -299q27 10 72 10q129 0 211 -77t82 -212t-95 -219q-94 -84 -221 -84z" />
    <glyph glyph-name="uni2087" unicode="&#x2087;" horiz-adv-x="757" 
d="M674 420v-109l-334 -729h-127l340 729h-512l25 109h608z" />
    <glyph glyph-name="uni2088" unicode="&#x2088;" horiz-adv-x="880" 
d="M440 -461q-143 0 -232 77t-89 200q0 76 43 136t114 93q-121 70 -120 188q0 94 75 161q76 67 209 67t209 -67t76 -161q0 -119 -121 -188q72 -33 115 -93t43 -136q0 -123 -90 -200t-232 -77zM440 -352q94 0 149 51q54 51 54 122t-53 121q-54 50 -150 50t-149 -50t-53 -121
t54 -122t148 -51zM440 96q72 0 121 40t49 94t-42 90t-128 36t-128 -36t-42 -90t49 -94t121 -40z" />
    <glyph glyph-name="uni2089" unicode="&#x2089;" horiz-adv-x="880" 
d="M248 156q0 -84 52 -138t139 -55q87 0 145 55q57 54 57 138t-56 139q-55 55 -141 55t-141 -55t-55 -139zM426 -131q-129 0 -211 77t-82 212t94 219q93 84 221 84t219 -87t91 -221t-125 -280l-258 -291h-142l265 297q-27 -10 -72 -10z" />
    <glyph glyph-name="Euro" unicode="&#x20ac;" horiz-adv-x="1337" 
d="M799 -41q-209 0 -367 143t-207 390h-184l20 122h148q-4 37 -4 86t2 78h-166l20 123h164q49 244 206 388t368 145q283 0 430 -246l-123 -82q-37 76 -117 135t-190 59q-150 0 -267 -108t-161 -291h612l-20 -123h-611q-4 -53 -4 -82t4 -82h631l-20 -122h-590
q43 -184 159 -292t267 -108q113 0 183 52t124 143l123 -82q-78 -117 -171 -181t-259 -65z" />
    <glyph glyph-name="uni2117" unicode="&#x2117;" horiz-adv-x="1761" 
d="M797 788h104q100 0 153 34q52 34 52 120q0 133 -205 133h-104v-287zM653 266v942h248q346 0 346 -266q0 -145 -98 -216t-248 -71h-104v-389h-144zM881 102q264 0 449 186t186 449q0 263 -186 449t-449 186t-449 -185t-186 -449t186 -450t449 -186zM881 -41
q-324 0 -551 227t-228 551q0 324 228 551q228 228 551 228q324 0 551 -228t227 -551q0 -324 -227 -551t-551 -227z" />
    <glyph glyph-name="trademark" unicode="&#x2122;" horiz-adv-x="1433" 
d="M205 737v615h-185v123h492v-123h-184v-615h-123zM594 737v738h129l240 -410l239 410h129v-738h-123v512l-245 -409l-246 409v-512h-123z" />
    <glyph glyph-name="Omega" unicode="&#x2126;" horiz-adv-x="1609" 
d="M121 737q0 311 193 504q194 193 492 193t490 -193t193 -504q0 -184 -79 -339t-193 -253h311l-23 -145h-561l-20 104q166 70 293 260t126 373q0 242 -154 403q-155 160 -382 160t-384 -162t-157 -401q0 -182 126 -372t294 -261l-20 -104h-562l-22 145h311
q-117 96 -194 252q-78 156 -78 340z" />
    <glyph glyph-name="uni2150" unicode="&#x2150;" horiz-adv-x="1832" 
d="M1749 838v-109l-334 -729h-127l340 729h-512l25 109h608zM330 0l839 1393h144l-840 -1393h-143zM301 553v694l-170 -168v144l168 168h123v-838h-121z" />
    <glyph glyph-name="uni2151" unicode="&#x2151;" horiz-adv-x="1914" 
d="M1675 574q0 82 -56 138t-141 56q-84 0 -140 -55t-56 -139t52 -139q52 -54 140 -54q87 0 144 55t57 138zM1460 287q-129 0 -211 77q-82 78 -82 212q1 134 95 218t221 85q127 0 218 -87q91 -88 91 -222t-125 -279l-258 -291h-141l264 297q-27 -10 -72 -10zM330 0l839 1393
h144l-840 -1393h-143zM301 553v694l-170 -168v144l168 168h123v-838h-121z" />
    <glyph glyph-name="uni2152" unicode="&#x2152;" horiz-adv-x="2488" 
d="M2048 -43q-158 0 -256 126t-98 335t98 335t256 126t256 -126t98 -335t-98 -335t-256 -126zM2048 68q106 0 170 91q63 91 63 259t-63 259q-64 91 -170 91t-170 -91t-63 -259q-1 -168 63 -259t170 -91zM1335 0v694l-170 -168v144l168 168h123v-838h-121zM330 0l839 1393
h144l-840 -1393h-143zM301 553v694l-170 -168v144l168 168h123v-838h-121z" />
    <glyph glyph-name="onethird" unicode="&#x2153;" horiz-adv-x="1894" 
d="M1462 -43q-250 0 -338 203l103 53q78 -147 217 -147q86 0 137 46t51 126t-54 126q-54 48 -142 48h-56v106h50q158 0 157 133q0 51 -44 85q-45 34 -105 34t-100 -30t-74 -89l-90 56q86 172 270 172q124 -1 196 -61t72 -144t-37 -135t-88 -70q72 -19 121 -83t49 -144
q0 -127 -86 -206q-87 -79 -209 -79zM330 0l839 1393h144l-840 -1393h-143zM301 553v694l-170 -168v144l168 168h123v-838h-121z" />
    <glyph glyph-name="twothirds" unicode="&#x2154;" horiz-adv-x="2140" 
d="M1708 -43q-250 0 -338 203l103 53q78 -147 217 -147q86 0 137 46t51 126t-54 126q-54 48 -143 48h-55v106h49q158 0 158 133q0 51 -44 85q-45 34 -105 34t-100 -30t-75 -89l-90 56q86 172 271 172q124 -1 196 -61t72 -144t-37 -135t-88 -70q72 -19 121 -83t49 -144
q0 -127 -86 -206q-87 -79 -209 -79zM575 0l840 1393h144l-840 -1393h-144zM127 553v80q0 100 49 174t119 115q71 40 139 74q166 81 166 182q0 66 -46 106t-120 41q-145 0 -188 -172l-111 33q20 102 98 174t205 72t207 -71t80 -185q0 -78 -49 -138t-120 -97q-72 -38 -142 -73
t-119 -86t-49 -116h485l-29 -113h-575z" />
    <glyph glyph-name="uni2155" unicode="&#x2155;" horiz-adv-x="1914" 
d="M1444 -43q-203 0 -320 188l88 72q102 -152 230 -151q92 0 149 58t57 144t-54 144q-56 58 -158 57q-102 0 -201 -72l20 441h435l-15 -109h-315l-10 -190q47 27 127 26q115 -1 201 -73t87 -224q0 -152 -97 -231q-97 -80 -224 -80zM330 0l839 1393h144l-840 -1393h-143z
M301 553v694l-170 -168v144l168 168h123v-838h-121z" />
    <glyph glyph-name="uni2156" unicode="&#x2156;" horiz-adv-x="2160" 
d="M1690 -43q-203 0 -320 188l88 72q102 -152 230 -151q92 0 149 58t57 144t-55 144t-157 57q-102 0 -201 -72l20 441h434l-14 -109h-315l-11 -190q47 27 127 26q115 -1 202 -73t87 -224t-97 -231q-97 -80 -224 -80zM575 0l840 1393h144l-840 -1393h-144zM127 553v80
q0 100 49 174t119 115q71 40 139 74q166 81 166 182q0 66 -46 106t-120 41q-145 0 -188 -172l-111 33q20 102 98 174t205 72t207 -71t80 -185q0 -78 -49 -138t-120 -97q-72 -38 -142 -73t-119 -86t-49 -116h485l-29 -113h-575z" />
    <glyph glyph-name="uni2157" unicode="&#x2157;" horiz-adv-x="2140" 
d="M1669 -43q-203 0 -319 188l88 72q102 -152 229 -151q92 0 150 58q57 58 57 144t-55 144t-157 57q-102 0 -202 -72l21 441h434l-14 -109h-316l-10 -190q47 27 127 26q115 -1 202 -73t87 -224q1 -152 -97 -231q-98 -80 -225 -80zM555 0l840 1393h143l-840 -1393h-143z
M428 510q-250 0 -338 203l103 53q78 -147 217 -148q86 0 137 46t51 126t-54 128t-143 47h-55v106h49q158 0 158 133q0 51 -44 85q-45 34 -105 34t-100 -30t-75 -89l-90 56q86 172 271 172q124 0 196 -60t72 -145q0 -84 -37 -135t-88 -70q72 -20 121 -84t49 -143
q0 -127 -86 -206q-87 -79 -209 -79z" />
    <glyph glyph-name="uni2158" unicode="&#x2158;" horiz-adv-x="2160" 
d="M1690 -43q-203 0 -320 188l88 72q102 -152 230 -151q92 0 149 58t57 144t-55 144t-157 57q-102 0 -201 -72l20 441h434l-14 -109h-315l-11 -190q47 27 127 26q115 -1 202 -73t87 -224t-97 -231q-97 -80 -224 -80zM575 0l840 1393h144l-840 -1393h-144zM479 850v358
l-250 -358h250zM479 553v195h-434l449 645h108v-543h135v-102h-135v-195h-123z" />
    <glyph glyph-name="uni2159" unicode="&#x2159;" horiz-adv-x="1751" 
d="M1108 261q0 -83 56 -139t142 -56q85 0 140 56t55 140t-52 138t-139 54q-86 0 -144 -54q-58 -56 -58 -139zM1616 260q0 -135 -94 -219t-222 -84q-127 0 -218 87t-91 221t125 280l258 293h142l-265 -299q27 10 72 10q129 0 211 -77t82 -212zM330 0l839 1393h144l-840 -1393
h-143zM301 553v694l-170 -168v144l168 168h123v-838h-121z" />
    <glyph glyph-name="uni215A" unicode="&#x215a;" horiz-adv-x="1996" 
d="M1551 66q85 0 141 56q55 56 55 140t-52 138q-51 54 -139 54t-145 -54q-57 -56 -57 -139t56 -139t141 -56zM1862 260q0 -135 -94 -219t-222 -84q-127 0 -218 87t-91 221t125 280l258 293h141l-264 -299q27 10 72 10q129 0 211 -77t82 -212zM575 0l840 1393h144l-840 -1393
h-144zM410 510q-203 0 -320 188l88 72q102 -152 230 -152q92 0 149 58t57 145q0 85 -55 143t-157 58t-201 -72l20 441h434l-14 -109h-315l-11 -190q47 27 127 26q115 0 202 -72t87 -225q0 -151 -97 -231t-224 -80z" />
    <glyph glyph-name="oneeighth" unicode="&#x215b;" horiz-adv-x="1914" 
d="M1475 -43q-143 0 -233 77q-89 77 -89 199q0 77 43 137t115 93q-121 70 -121 188q0 94 76 161t209 67t209 -67t75 -161q0 -119 -121 -188q72 -33 115 -93t43 -137q0 -123 -89 -199t-232 -77zM1475 66q94 0 148 51t54 122t-53 121t-149 50q-95 0 -149 -50t-54 -122
q0 -70 54 -121t149 -51zM1475 514q73 0 121 40t48 94t-41 90q-42 36 -128 36t-128 -36t-42 -90t49 -94t121 -40zM330 0l839 1393h144l-840 -1393h-143zM301 553v694l-170 -168v144l168 168h123v-838h-121z" />
    <glyph glyph-name="threeeighths" unicode="&#x215c;" horiz-adv-x="2140" 
d="M1700 -43q-143 0 -233 77q-89 77 -89 199q0 77 43 137t115 93q-121 70 -121 188q0 94 76 161t209 67t209 -67t76 -161q0 -119 -121 -188q72 -33 114 -93t43 -137q0 -123 -89 -199t-232 -77zM1700 66q94 0 148 51t54 122t-52 121q-54 50 -150 50t-150 -50t-53 -122
q1 -70 55 -121t148 -51zM1700 514q72 0 121 40t49 94t-42 90t-128 36t-128 -36t-42 -90t49 -94t121 -40zM555 0l840 1393h143l-840 -1393h-143zM428 510q-250 0 -338 203l103 53q78 -147 217 -148q86 0 137 46t51 126t-54 128t-143 47h-55v106h49q158 0 158 133q0 51 -44 85
q-45 34 -105 34t-100 -30t-75 -89l-90 56q86 172 271 172q124 0 196 -60t72 -145q0 -84 -37 -135t-88 -70q72 -20 121 -84t49 -143q0 -127 -86 -206q-87 -79 -209 -79z" />
    <glyph glyph-name="fiveeighths" unicode="&#x215d;" horiz-adv-x="2160" 
d="M1720 -43q-143 0 -232 77t-89 199q0 77 43 137t114 93q-121 70 -120 188q0 94 75 161q76 67 209 67t209 -67t76 -161q0 -119 -121 -188q72 -33 115 -93t43 -137q0 -123 -90 -199t-232 -77zM1720 66q94 0 149 51q54 51 54 122t-53 121q-54 50 -150 50t-149 -50t-53 -122
q0 -70 54 -121t148 -51zM1720 514q72 0 121 40t49 94t-42 90t-128 36t-128 -36t-42 -90t49 -94t121 -40zM575 0l840 1393h144l-840 -1393h-144zM410 510q-203 0 -320 188l88 72q102 -152 230 -152q92 0 149 58t57 145q0 85 -55 143t-157 58t-201 -72l20 441h434l-14 -109
h-315l-11 -190q47 27 127 26q115 0 202 -72t87 -225q0 -151 -97 -231t-224 -80z" />
    <glyph glyph-name="seveneighths" unicode="&#x215e;" horiz-adv-x="1894" 
d="M1454 -43q-143 0 -232 77t-89 199q0 77 43 137t114 93q-121 70 -121 188q0 94 76 161t209 67t209 -67t76 -161q0 -119 -121 -188q72 -33 115 -93t43 -137q0 -123 -90 -199t-232 -77zM1454 66q94 0 149 51q54 51 54 122t-53 121q-54 50 -150 50t-149 -50t-53 -122
q0 -70 54 -121t148 -51zM1454 514q72 0 121 40t49 94t-42 90t-128 36t-128 -36t-42 -90t49 -94t121 -40zM309 0l840 1393h143l-839 -1393h-144zM674 1391v-109l-334 -729h-127l340 729h-512l25 109h608z" />
    <glyph glyph-name="uni215F" unicode="&#x215f;" horiz-adv-x="1034" 
d="M330 0l839 1393h144l-840 -1393h-143zM301 553v694l-170 -168v144l168 168h123v-838h-121z" />
    <glyph glyph-name="uni2189" unicode="&#x2189;" horiz-adv-x="2140" 
d="M1708 -43q-250 0 -338 203l103 53q78 -147 217 -147q86 0 137 46t51 126t-54 126q-54 48 -143 48h-55v106h49q158 0 158 133q0 51 -44 85q-45 34 -105 34t-100 -30t-75 -89l-90 56q86 172 271 172q124 -1 196 -61t72 -144t-37 -135t-88 -70q72 -19 121 -83t49 -144
q0 -127 -86 -206q-87 -79 -209 -79zM575 0l840 1393h144l-840 -1393h-144zM440 510q-158 0 -256 126t-98 335t98 335t256 126t256 -126t98 -335t-98 -335t-256 -126zM440 621q106 0 170 91q63 91 64 259q0 168 -64 259t-170 91t-170 -91t-63 -259q-1 -168 63 -259t170 -91z
" />
    <glyph glyph-name="partialdiff" unicode="&#x2202;" horiz-adv-x="1146" 
d="M579 92q136 0 239 102q104 102 104 258q0 154 -92 245t-240 91t-246 -95t-98 -245t98 -252q98 -104 235 -104zM1065 522q0 -274 -133 -418t-344 -145q-211 0 -348 132q-138 132 -138 344t130 349q130 138 340 138t335 -134q-23 110 -91 216t-167 184q-143 113 -391 112
l23 134h16q270 0 471 -179q143 -127 220 -293t77 -440z" />
    <glyph glyph-name="Delta" unicode="&#x2206;" horiz-adv-x="1433" 
d="M266 143h901l-450 955zM41 0l676 1434l676 -1434h-1352z" />
    <glyph glyph-name="product" unicode="&#x220f;" horiz-adv-x="1208" 
d="M266 -211v1471h-246l11 133h1147l10 -133h-246v-1471h-143v1471h-389v-1471h-144z" />
    <glyph glyph-name="summation" unicode="&#x2211;" horiz-adv-x="1095" 
d="M123 -211v133l434 680l-434 655v136h860l31 -133h-723l434 -656l-444 -682h733l-31 -133h-860z" />
    <glyph glyph-name="minus" unicode="&#x2212;" horiz-adv-x="1155" 
d="M137 553v143h881v-143h-881z" />
    <glyph glyph-name="uni2219" unicode="&#x2219;" horiz-adv-x="1155" 
d="M578 236q-127 0 -218 90q-90 90 -90 217t90 217t218 90t217 -90q90 -90 90 -217t-90 -217t-217 -90z" />
    <glyph glyph-name="radical" unicode="&#x221a;" horiz-adv-x="1228" 
d="M512 0l-272 768h-240l20 133h328l225 -655l547 1515h150l-635 -1761h-123z" />
    <glyph glyph-name="infinity" unicode="&#x221e;" horiz-adv-x="1925" 
d="M186 552q0 -114 74 -188t182 -73t200 67q93 66 218 195q-125 129 -218 196q-92 67 -200 67t-182 -75t-74 -189zM1484 291q108 0 182 74q74 75 73 189q0 114 -74 188t-181 73q-106 -1 -200 -67t-219 -195q125 -129 219 -195q92 -66 200 -67zM436 147q-156 0 -275 118
q-120 118 -120 288t120 288t292 117q137 0 257 -78t253 -214q131 137 251 215t259 77q171 0 291 -118t120 -287q0 -170 -120 -288t-274 -118t-274 78t-253 215q-133 -139 -252 -216t-275 -77z" />
    <glyph glyph-name="integral" unicode="&#x222b;" horiz-adv-x="757" 
d="M109 -92q113 0 155 57t43 178v1106q0 189 77 283t247 94q29 0 106 -8l21 -143q-68 10 -109 10q-113 1 -155 -57t-43 -179v-1106q0 -193 -77 -285t-247 -91q-56 0 -107 8l-20 143q68 -10 109 -10z" />
    <glyph glyph-name="approxequal" unicode="&#x2248;" horiz-adv-x="1155" 
d="M383 451q-123 0 -246 -164v174q37 43 66 67q75 64 200 66q78 0 200 -72t169 -71q123 0 246 163v-174q-37 -44 -66 -68q-75 -64 -200 -65q-76 0 -199 72t-170 72zM408 942q72 0 195 -72q122 -72 169 -71q123 0 246 164v-175q-37 -44 -66 -68q-75 -64 -200 -65
q-76 0 -199 72t-170 72q-123 0 -246 -164v174q37 43 66 68t81 45t124 20z" />
    <glyph glyph-name="notequal" unicode="&#x2260;" horiz-adv-x="1155" 
d="M137 389v143h320l88 185h-408v143h477l127 266h154l-127 -266h250v-143h-320l-88 -185h408v-143h-477l-127 -266h-154l127 266h-250z" />
    <glyph glyph-name="lessequal" unicode="&#x2264;" horiz-adv-x="1155" 
d="M137 0v143h881v-143h-881zM1018 225l-881 471v123l881 471v-164l-717 -368l717 -369v-164z" />
    <glyph glyph-name="greaterequal" unicode="&#x2265;" horiz-adv-x="1155" 
d="M137 0v143h881v-143h-881zM137 225v164l717 369l-717 368v164l881 -471v-123z" />
    <glyph glyph-name="dotmath" unicode="&#x22c5;" horiz-adv-x="1155" 
d="M496 369v163h163v-163h-163z" />
    <glyph glyph-name="lozenge" unicode="&#x25ca;" horiz-adv-x="1269" 
d="M635 190l412 527l-412 526l-412 -526zM635 -41l-594 758l594 758l594 -758z" />
    <glyph glyph-name="uniFB00" unicode="&#xfb00;" horiz-adv-x="1054" 
d="M174 0v686h-123l21 133h102v369q0 143 67 225t199 82h82v-133h-41q-80 0 -122 -37t-42 -137v-369h349v369q0 143 66 225q67 82 200 82h82v-133h-41q-80 0 -122 -37t-42 -137v-369h205v-133h-205v-686h-143v686h-349v-686h-143z" />
    <glyph glyph-name="fi" unicode="&#xfb01;" horiz-adv-x="952" 
d="M174 0v686h-123l21 133h102v369q0 143 67 225t199 82h82v-133h-41q-80 0 -122 -37t-42 -137v-369h492v-819h-143v686h-349v-686h-143zM666 1024v164h143v-164h-143z" />
    <glyph glyph-name="fl" unicode="&#xfb02;" horiz-adv-x="952" 
d="M174 0v686h-123l21 133h102v369q0 143 67 225t199 82h369v-1495h-143v1362h-185q-80 0 -122 -37t-42 -137v-369h205v-133h-205v-686h-143z" />
    <glyph glyph-name="uniFB03" unicode="&#xfb03;" horiz-adv-x="1443" 
d="M174 0v686h-123l21 133h102v369q0 143 67 225t199 82h82v-133h-41q-80 0 -122 -37t-42 -137v-369h349v369q0 143 66 225q67 82 200 82h82v-133h-41q-80 0 -122 -37t-42 -137v-369h491v-819h-143v686h-348v-686h-143v686h-349v-686h-143zM1157 1024v164h143v-164h-143z
" />
    <glyph glyph-name="uniFB04" unicode="&#xfb04;" horiz-adv-x="1443" 
d="M174 0v686h-123l21 133h102v369q0 143 67 225t199 82h82v-133h-41q-80 0 -122 -37t-42 -137v-369h349v369q0 143 66 225q67 82 200 82h368v-1495h-143v1362h-184q-80 0 -122 -37t-42 -137v-369h205v-133h-205v-686h-143v686h-349v-686h-143z" />
    <glyph glyph-name="uniFEFF" unicode="&#xfeff;" horiz-adv-x="0" 
 />
    <glyph glyph-name="Agrave.alt001" horiz-adv-x="1187" 
d="M373 594h442l-221 696zM20 0l476 1397l71 -94h158l442 -1303h-163l-144 451h-532l-144 -451h-164zM584 1331l-185 246h185l123 -246h-123z" />
    <glyph glyph-name="Aacute.alt001" horiz-adv-x="1187" 
d="M373 594h442l-221 696zM20 0l443 1303h158l71 94l475 -1397h-163l-144 451h-532l-144 -451h-164zM481 1331l123 246h184l-184 -246h-123z" />
    <glyph glyph-name="Acircumflex.alt001" horiz-adv-x="1187" 
d="M373 594h442l-221 696zM20 0l443 1300h67l64 127l63 -127h68l442 -1300h-163l-144 451h-532l-144 -451h-164zM369 1331l163 246h123l164 -246h-143l-82 164l-82 -164h-143z" />
    <glyph glyph-name="Atilde.alt001" horiz-adv-x="1187" 
d="M373 594h442l-221 696zM20 0l474 1391q16 -4 89 -44t142 -47l442 -1300h-163l-144 451h-532l-144 -451h-164zM740 1331q-60 0 -152 46t-117 46t-33 -13t-8 -58h-102v41q0 90 29 127q64 79 243 -10q92 -46 117 -46t33 14t8 58h102v-41q0 -90 -30 -127t-90 -37z" />
    <glyph glyph-name="Adieresis.alt001" horiz-adv-x="1187" 
d="M373 594h442l-221 696zM20 0l502 1475h144l501 -1475h-163l-144 451h-532l-144 -451h-164zM164 1311v164h143v-164h-143zM881 1311v164h143v-164h-143z" />
    <glyph glyph-name="Aring.alt001" horiz-adv-x="1187" 
d="M594 1382q28 0 50 22t22 50t-22 50t-50 22t-50 -22t-22 -50t22 -50t50 -22zM20 0l445 1309q49 -47 119 -49l-211 -666h442l-211 666q66 4 119 47l444 -1307h-163l-144 451h-532l-144 -451h-164zM594 1290q-68 0 -116 48t-48 116t48 116t116 48t116 -48t48 -116t-48 -116
t-116 -48z" />
    <glyph glyph-name="Ccedilla.alt001" horiz-adv-x="1409" 
d="M762 26q0 56 -25 97h144q27 -47 27 -109t-53 -128q-52 -66 -118 -91l-61 41q33 23 59 78q27 56 27 112zM938 34q0 34 -18 77q156 18 317 184l100 -111q-186 -186 -409 -219q10 35 10 69zM102 754q0 328 204 545q204 216 534 217q287 0 479 -226l-111 -98q-47 68 -150 124
t-218 56q-264 0 -424 -179t-160 -456q0 -223 125 -393t317 -223q35 -39 35 -79t-10 -75q-289 39 -455 249t-166 538z" />
    <glyph glyph-name="Egrave.alt001" horiz-adv-x="1011" 
d="M184 0v1475h162l109 -144h-117v-502h461v-143h-461v-543h571l-18 -143h-707zM492 1331l-185 246h185l122 -246h-122zM647 1331l-72 144h279l18 -144h-225z" />
    <glyph glyph-name="Eacute.alt001" horiz-adv-x="1011" 
d="M184 0v1475h262l-69 -144h-39v-502h461v-143h-461v-543h571l-18 -143h-707zM410 1331l122 246h185l-185 -246h-122zM569 1331l109 144h176l18 -144h-303z" />
    <glyph glyph-name="Ecircumflex.alt001" horiz-adv-x="1011" 
d="M184 0v1475h164l-115 -172h105v-474h461v-143h-461v-543h571l-18 -143h-707zM463 1331l49 96l49 -96h-98zM287 1331l164 246h122l164 -246h-143l-82 164l-82 -164h-143zM772 1331l-96 144h178l18 -144h-100z" />
    <glyph glyph-name="Edieresis.alt001" horiz-adv-x="1011" 
d="M184 0v1475h72v-175h82v-471h461v-143h-461v-543h571l-18 -143h-707zM287 1331v164h143v-164h-143zM461 1331v144h102v-144h-102zM594 1331v164h143v-164h-143zM768 1331v144h86l18 -144h-104z" />
    <glyph glyph-name="Igrave.alt001" horiz-adv-x="522" 
d="M184 0v1376l58 -76h96v-1300h-154zM256 1331l-184 246h184l123 -246h-123z" />
    <glyph glyph-name="Iacute.alt001" horiz-adv-x="522" 
d="M184 0v1300h97l57 76v-1376h-154zM143 1331l123 246h185l-185 -246h-123z" />
    <glyph glyph-name="Icircumflex.alt001" horiz-adv-x="522" 
d="M184 0v1300h13l63 127l64 -127h14v-1300h-154zM35 1331l164 246h123l163 -246h-143l-82 164l-82 -164h-143z" />
    <glyph glyph-name="Idieresis.alt001" horiz-adv-x="522" 
d="M184 0v1300h31v175h92v-175h31v-1300h-154zM41 1331v164h143v-164h-143zM338 1331v164h143v-164h-143z" />
    <glyph glyph-name="Ntilde.alt001" horiz-adv-x="1536" 
d="M184 0v1475h154l860 -1219v1219h154v-1475h-154l-860 1219v-1219h-154zM1085 1505q1 -90 -29 -127t-90 -37q-60 1 -152 47t-118 46q-24 0 -32 -14t-9 -58h-102v41q0 90 30 127t90 37t152 -46t117 -46t33 13t8 58h102v-41z" />
    <glyph glyph-name="Ograve.alt001" horiz-adv-x="1638" 
d="M819 -41q-319 0 -518 219t-199 559q0 285 140 488t379 266l96 -129q-203 -39 -332 -215t-129 -425t161 -434q161 -186 403 -186t402 186t160 435q0 250 -129 426t-333 215l-78 152q310 -8 502 -226t192 -556q0 -337 -199 -556t-518 -219zM778 1331l-184 246h184l123 -246
h-123z" />
    <glyph glyph-name="Oacute.alt001" horiz-adv-x="1638" 
d="M819 -41q-319 0 -518 219t-199 556t192 555t503 227l-78 -152q-205 -39 -334 -215t-129 -426t161 -435q161 -186 403 -186t402 186t160 434t-129 424t-331 216l96 129q238 -63 378 -266t140 -488q0 -340 -199 -559t-518 -219zM737 1331l123 246h184l-184 -246h-123z" />
    <glyph glyph-name="Ocircumflex.alt001" horiz-adv-x="1638" 
d="M819 -41q-319 0 -518 219t-199 559q0 297 156 506t414 258l-133 -201h14q-137 -80 -217 -230t-80 -333q0 -264 161 -449q161 -186 403 -186t402 186q161 186 160 449q0 180 -78 331q-79 151 -219 232h15l-133 201q261 -49 415 -257t154 -507q0 -340 -199 -559t-518 -219z
M791 1372l28 55l29 -55h-57zM594 1331l164 246h123l163 -246h-143l-82 164l-82 -164h-143z" />
    <glyph glyph-name="Otilde.alt001" horiz-adv-x="1638" 
d="M819 -41q-319 0 -518 219t-199 559q0 251 113 443t309 276q-2 -14 -2 -43v-72h117q-171 -61 -277 -227t-106 -377q0 -264 161 -449q161 -186 403 -186t402 186q161 186 160 449q0 201 -96 362t-260 232q72 25 86 127q196 -84 310 -275t114 -446q0 -340 -199 -559
t-518 -219zM696 1413q26 1 58 -17t47 -24q-54 -2 -115 -16q0 57 10 57zM1085 1516q1 -90 -29 -127t-90 -37t-152 46t-118 46q-24 0 -32 -13t-9 -59h-102v41q0 90 30 127t90 37t152 -46t117 -46t33 13t8 58h102v-40z" />
    <glyph glyph-name="Odieresis.alt001" horiz-adv-x="1638" 
d="M819 102q242 0 403 186t160 449q0 264 -160 450q-161 185 -403 185q-243 0 -403 -185t-160 -449t160 -450t403 -186zM819 -41q-319 0 -518 219t-199 559t199 559q199 220 518 220t518 -220t199 -559q0 -340 -199 -559t-518 -219zM102 1311v164h144v-164h-144zM1393 1311
v164h143v-164h-143z" />
    <glyph glyph-name="Ugrave.alt001" horiz-adv-x="1404" 
d="M702 -41q-233 0 -386 145t-152 412v959h153v-959q0 -188 111 -301q110 -113 274 -113t275 113t110 301v959h154v-959q0 -266 -152 -412q-154 -145 -387 -145zM698 1331l-184 246h184l123 -246h-123z" />
    <glyph glyph-name="Uacute.alt001" horiz-adv-x="1404" 
d="M702 -41q-233 0 -386 145t-152 412v959h153v-959q0 -188 111 -301q110 -113 274 -113t275 113t110 301v959h154v-959q0 -266 -152 -412q-154 -145 -387 -145zM584 1331l123 246h184l-184 -246h-123z" />
    <glyph glyph-name="Ucircumflex.alt001" horiz-adv-x="1404" 
d="M702 -41q-233 0 -386 145t-152 412v959h153v-959q0 -188 111 -301q110 -113 274 -113t275 113t110 301v959h154v-959q0 -266 -152 -412q-154 -145 -387 -145zM477 1331l164 246h123l164 -246h-144l-82 164l-81 -164h-144z" />
    <glyph glyph-name="Udieresis.alt001" horiz-adv-x="1404" 
d="M702 -41q-233 0 -386 145t-152 412v959h153v-959q0 -188 111 -301q110 -113 274 -113t275 113t110 301v959h154v-959q0 -266 -152 -412q-154 -145 -387 -145zM471 1311v164h143v-164h-143zM780 1311v164h144v-164h-144z" />
    <glyph glyph-name="Yacute.alt001" horiz-adv-x="1085" 
d="M465 0v516l-465 959h174l369 -779l368 779h174l-469 -959v-516h-151zM471 1331l102 246h185l-164 -246h-123z" />
    <glyph glyph-name="Scaron.alt001" horiz-adv-x="1081" 
d="M582 -41q-305 0 -516 246l122 102q86 -109 176 -157t215 -48q123 0 199 73t76 194q0 152 -134 246q-60 42 -132 81q-195 106 -276 173q-134 112 -134 296q0 223 197 312l80 -123q-123 -47 -123 -187q0 -100 70 -173t168 -122t198 -105q100 -57 170 -157t70 -258
t-112 -276q-112 -117 -314 -117zM506 1331l-164 246h143l82 -143l82 143h144l-164 -246h-123zM567 1495l-12 21h25zM854 1239q-61 86 -172 119l84 125q106 -39 180 -131z" />
    <glyph glyph-name="Ydieresis.alt001" horiz-adv-x="1085" 
d="M465 0v516l-465 959h174l369 -779l368 779h174l-469 -959v-516h-151zM328 1331v164h143v-164h-143zM635 1331v164h143v-164h-143z" />
    <glyph glyph-name="Zcaron.alt001" horiz-adv-x="1056" 
d="M82 0v92l666 1239h-140l97 144h247v-93l-665 -1239h698l-37 -143h-866zM82 1331l37 144h200l97 -144h-334zM451 1331l-164 246h143l82 -143l82 143h143l-164 -246h-122z" />
    <glyph glyph-name="i.latn_TRK" horiz-adv-x="430" 
d="M143 0v819h144v-819h-144zM143 1024v164h144v-164h-144z" />
    <glyph glyph-name="zero.numr" horiz-adv-x="880" 
d="M440 510q-158 0 -256 126t-98 335t98 335t256 126t256 -126t98 -335t-98 -335t-256 -126zM440 621q106 0 170 91q63 91 64 259q0 168 -64 259t-170 91t-170 -91t-63 -259q-1 -168 63 -259t170 -91z" />
    <glyph glyph-name="one.numr" horiz-adv-x="634" 
d="M301 553v694l-170 -168v144l168 168h123v-838h-121z" />
    <glyph glyph-name="two.numr" horiz-adv-x="880" 
d="M127 553v80q0 100 49 174t119 115q71 40 139 74q166 81 166 182q0 66 -46 106t-120 41q-145 0 -188 -172l-111 33q20 102 98 174t205 72t207 -71t80 -185q0 -78 -49 -138t-120 -97q-72 -38 -142 -73t-119 -86t-49 -116h485l-29 -113h-575z" />
    <glyph glyph-name="three.numr" horiz-adv-x="860" 
d="M428 510q-250 0 -338 203l103 53q78 -147 217 -148q86 0 137 46t51 126t-54 128t-143 47h-55v106h49q158 0 158 133q0 51 -44 85q-45 34 -105 34t-100 -30t-75 -89l-90 56q86 172 271 172q124 0 196 -60t72 -145q0 -84 -37 -135t-88 -70q72 -20 121 -84t49 -143
q0 -127 -86 -206q-87 -79 -209 -79z" />
    <glyph glyph-name="four.numr" horiz-adv-x="880" 
d="M479 850v358l-250 -358h250zM479 553v195h-434l449 645h108v-543h135v-102h-135v-195h-123z" />
    <glyph glyph-name="five.numr" horiz-adv-x="880" 
d="M410 510q-203 0 -320 188l88 72q102 -152 230 -152q92 0 149 58t57 145q0 85 -55 143t-157 58t-201 -72l20 441h434l-14 -109h-315l-11 -190q47 27 127 26q115 0 202 -72t87 -225q0 -151 -97 -231t-224 -80z" />
    <glyph glyph-name="six.numr" horiz-adv-x="880" 
d="M238 814q0 -84 56 -140t141 -56t140 56t55 141q0 84 -51 138q-51 55 -139 55t-145 -56t-57 -138zM430 510q-127 0 -218 87t-91 221t125 280l258 293h141l-264 -299q27 10 72 10q129 0 211 -77t82 -212t-95 -219q-94 -84 -221 -84z" />
    <glyph glyph-name="seven.numr" horiz-adv-x="757" 
d="M674 1391v-109l-334 -729h-127l340 729h-512l25 109h608z" />
    <glyph glyph-name="eight.numr" horiz-adv-x="880" 
d="M440 510q-143 0 -232 77t-89 199q0 76 43 136t114 94q-121 70 -120 188q0 94 75 161q76 67 209 67t209 -67t76 -161q0 -119 -121 -188q72 -33 115 -93t43 -137q0 -124 -90 -200t-232 -76zM440 618q94 0 148 52t55 122q0 70 -53 120q-54 50 -150 50t-149 -50t-53 -120
t54 -122t148 -52zM440 1067q72 0 121 40t49 94t-42 90t-128 36t-128 -36t-42 -90t49 -94t121 -40z" />
    <glyph glyph-name="nine.numr" horiz-adv-x="880" 
d="M439 934q87 0 145 55q57 55 57 138t-56 139q-55 56 -141 55q-86 0 -141 -55q-55 -56 -55 -140t52 -138t139 -54zM426 840q-129 0 -211 76t-82 212t94 220q93 84 221 84t219 -87t91 -221t-125 -280l-258 -291h-142l265 297q-27 -10 -72 -10z" />
    <glyph glyph-name="zero.dnom" horiz-adv-x="880" 
d="M440 -43q-158 0 -256 126t-98 335t98 335t256 126t256 -126t98 -335t-98 -335t-256 -126zM440 68q106 0 170 91q63 91 64 259q0 168 -64 259t-170 91t-170 -91t-63 -259q-1 -168 63 -259t170 -91z" />
    <glyph glyph-name="one.dnom" horiz-adv-x="634" 
d="M301 0v694l-170 -168v144l168 168h123v-838h-121z" />
    <glyph glyph-name="two.dnom" horiz-adv-x="880" 
d="M127 0v80q0 100 49 174t119 115q71 41 139 75q166 81 166 181q0 67 -46 107t-120 40q-145 0 -188 -172l-111 33q20 102 98 174t205 72t207 -71t80 -185q0 -77 -49 -137t-120 -98q-72 -38 -142 -73t-119 -86t-49 -116h485l-29 -113h-575z" />
    <glyph glyph-name="three.dnom" horiz-adv-x="860" 
d="M428 -43q-250 0 -338 203l103 53q78 -147 217 -147q86 0 137 46t51 126t-54 126q-54 48 -143 48h-55v106h49q158 0 158 133q0 51 -44 85q-45 34 -105 34t-100 -30t-75 -89l-90 56q86 172 271 172q124 -1 196 -61t72 -144t-37 -135t-88 -70q72 -19 121 -83t49 -144
q0 -127 -86 -206q-87 -79 -209 -79z" />
    <glyph glyph-name="four.dnom" horiz-adv-x="880" 
d="M479 297v358l-250 -358h250zM479 0v195h-434l449 645h108v-543h135v-102h-135v-195h-123z" />
    <glyph glyph-name="five.dnom" horiz-adv-x="880" 
d="M410 -43q-203 0 -320 188l88 72q102 -152 230 -151q92 0 149 58t57 144t-55 144t-157 57q-102 0 -201 -72l20 441h434l-14 -109h-315l-11 -190q47 27 127 26q115 -1 202 -73t87 -224t-97 -231q-97 -80 -224 -80z" />
    <glyph glyph-name="six.dnom" horiz-adv-x="880" 
d="M435 66q85 0 140 56t55 140t-51 138t-139 54t-145 -54q-57 -56 -57 -139t56 -139t141 -56zM430 -43q-127 0 -218 87t-91 221t125 280l258 293h141l-264 -299q27 10 72 10q129 0 211 -77t82 -212t-95 -219q-94 -84 -221 -84z" />
    <glyph glyph-name="seven.dnom" horiz-adv-x="757" 
d="M674 838v-109l-334 -729h-127l340 729h-512l25 109h608z" />
    <glyph glyph-name="eight.dnom" horiz-adv-x="880" 
d="M440 -43q-143 0 -232 77t-89 199q0 77 43 137t114 93q-121 70 -120 188q0 94 75 161q76 67 209 67t209 -67t76 -161q0 -119 -121 -188q72 -33 115 -93t43 -137q0 -123 -90 -199t-232 -77zM440 66q94 0 149 51q54 51 54 122t-53 121q-54 50 -150 50t-149 -50t-53 -122
q0 -70 54 -121t148 -51zM440 514q72 0 121 40t49 94t-42 90t-128 36t-128 -36t-42 -90t49 -94t121 -40z" />
    <glyph glyph-name="nine.dnom" horiz-adv-x="880" 
d="M439 381q87 0 145 55q57 55 57 138q0 82 -56 138q-55 56 -141 56t-141 -55t-55 -139t52 -139q52 -54 139 -54zM426 287q-129 0 -211 77q-82 78 -82 212t94 218q93 84 221 85q128 0 219 -87q91 -88 91 -222t-125 -279l-258 -291h-142l265 297q-27 -10 -72 -10z" />
    <glyph glyph-name="space.frac" horiz-adv-x="102" 
 />
    <glyph glyph-name="zero.tf" horiz-adv-x="1155" 
d="M578 -41q-236 0 -373 202q-137 201 -137 535t137 536t373 202t372 -202t137 -536q-1 -334 -137 -536t-372 -201zM578 92q156 0 261 158t105 446t-105 447q-105 157 -261 157t-262 -157q-105 -158 -105 -447q-1 -288 105 -446t262 -158z" />
    <glyph glyph-name="one.tf" horiz-adv-x="1155" 
d="M205 0v143h332v1067l-349 -221v164l349 221h143v-1231h307v-143h-782z" />
    <glyph glyph-name="two.tf" horiz-adv-x="1155" 
d="M141 0v102q0 210 151 352q95 88 242 178q148 91 215 141t108 117q42 67 42 144q0 113 -91 190q-91 76 -224 76t-222 -78q-88 -79 -122 -208l-129 37q29 159 157 271t318 112q192 0 324 -112t132 -288q0 -96 -42 -179t-123 -155t-228 -161q-147 -91 -214 -141
q-150 -113 -150 -255h737l-37 -143h-844z" />
    <glyph glyph-name="three.tf" horiz-adv-x="1155" 
d="M563 -41q-176 0 -310 86t-202 231l125 64q58 -108 162 -178t234 -70t235 83q104 83 104 245q0 131 -111 214q-112 83 -216 83h-92v143h81q95 0 181 58t86 163q0 107 -82 165t-195 59q-203 0 -295 -185l-114 72q59 114 165 178t244 64q199 0 309 -100t111 -249
q0 -115 -60 -193t-145 -101v-5q106 -23 192 -128t85 -238q-1 -213 -135 -337t-357 -124z" />
    <glyph glyph-name="four.tf" horiz-adv-x="1155" 
d="M752 481v707h-4l-467 -707h471zM752 0v348h-697l697 1045h143v-912h184v-133h-184v-348h-143z" />
    <glyph glyph-name="five.tf" horiz-adv-x="1155" 
d="M551 -41q-315 0 -500 277l111 92q147 -236 387 -236q166 0 264 112t98 268t-97 261q-97 104 -247 105q-219 0 -350 -105l37 660h682l-18 -129h-535l-23 -338q86 47 232 47t297 -110q74 -54 120 -155t46 -233q-1 -250 -143 -383t-361 -133z" />
    <glyph glyph-name="six.tf" horiz-adv-x="1155" 
d="M578 86q150 0 254 104t104 254t-104 254t-254 104t-254 -104t-104 -254t104 -254t254 -104zM1079 443q0 -213 -149 -349t-361 -135q-212 0 -353 136q-140 136 -140 345q0 128 40 226t128 196l469 531h184l-414 -475q55 14 117 14q193 0 336 -138t143 -351z" />
    <glyph glyph-name="seven.tf" horiz-adv-x="1155" 
d="M1044 1393v-133l-552 -1260h-154l563 1260h-819l31 133h931z" />
    <glyph glyph-name="eight.tf" horiz-adv-x="1155" 
d="M577 723q-163 0 -259 -97q-96 -96 -95 -222t101 -219t255 -93t254 96t99 222t-96 219q-96 94 -259 94zM576 854q126 0 204 60t78 156t-76 164q-76 66 -206 66t-204 -64q-75 -64 -75 -164q0 -98 77 -158t202 -60zM579 -41q-220 0 -360 125q-139 125 -139 322q0 139 76 239
t163 143q-166 100 -165 295q0 143 118 247t306 104t306 -104t117 -247q0 -195 -165 -295q88 -43 164 -139t75 -225q0 -209 -138 -337t-358 -128z" />
    <glyph glyph-name="nine.tf" horiz-adv-x="1155" 
d="M578 590q150 0 254 104t104 254t-104 254t-254 104t-254 -104t-104 -254t104 -254t254 -104zM555 461q-193 0 -336 138t-143 351t149 348q150 136 362 136t352 -136t140 -346q0 -127 -40 -225t-128 -197l-467 -530h-184l412 475q-55 -14 -117 -14z" />
    <glyph glyph-name="uni2007.tf" horiz-adv-x="1155" 
 />
    <glyph glyph-name="zero.lf" horiz-adv-x="1249" 
d="M629 92q162 0 268 157q107 157 107 447t-109 448q-109 156 -271 156t-270 -156t-108 -447q0 -289 110 -447t273 -158zM625 -41q-246 0 -384 202q-139 203 -139 537t138 535t385 201q246 0 384 -202t138 -536t-138 -536t-384 -201z" />
    <glyph glyph-name="one.lf" horiz-adv-x="788" 
d="M379 0v1188l-246 -246v205l246 246h143v-1393h-143z" />
    <glyph glyph-name="two.lf" horiz-adv-x="1187" 
d="M154 0v102q0 209 150 352q89 83 240 176q150 93 217 143t108 117q42 67 42 144q0 113 -91 190q-91 76 -224 76t-221 -78t-123 -208l-129 37q29 159 157 271t318 112t324 -112q133 -112 133 -288q0 -96 -42 -179t-109 -142q-68 -59 -148 -113t-161 -102q-81 -50 -148 -100
q-150 -113 -150 -255h737l-37 -143h-843z" />
    <glyph glyph-name="three.lf" horiz-adv-x="1187" 
d="M563 -41q-176 0 -310 86t-202 231l125 64q58 -108 162 -178t234 -70t235 83q104 83 104 245q0 131 -111 214q-112 83 -216 83h-92v143h81q95 0 181 58t86 163q0 107 -82 165t-195 59q-203 0 -295 -185l-114 72q59 114 165 178t244 64q199 0 309 -100t111 -249
q0 -115 -60 -193t-145 -101v-5q106 -23 192 -128t85 -238q-1 -213 -135 -337t-357 -124z" />
    <glyph glyph-name="four.lf" horiz-adv-x="1146" 
d="M717 481v707h-4l-467 -707h471zM717 0v348h-697l697 1045h143v-912h184v-133h-184v-348h-143z" />
    <glyph glyph-name="five.lf" horiz-adv-x="1218" 
d="M582 -41q-315 0 -500 277l111 92q147 -236 387 -236q166 0 264 112t98 268t-97 261q-97 104 -247 105q-219 0 -350 -105l37 660h682l-19 -129h-534l-23 -338q87 47 193 47t184 -28t152 -82t120 -155t45 -233q0 -250 -142 -383t-361 -133z" />
    <glyph glyph-name="six.lf" horiz-adv-x="1208" 
d="M604 86q150 0 254 104t105 254q-1 150 -105 254t-254 104t-254 -104t-104 -254t104 -254t254 -104zM1106 443q0 -213 -150 -349t-361 -135q-212 0 -352 136t-141 345q0 128 40 226t128 196l469 531h185l-414 -475q55 14 117 14q193 0 336 -138t143 -351z" />
    <glyph glyph-name="seven.lf" horiz-adv-x="1003" 
d="M942 1393v-133l-553 -1260h-153l563 1260h-819l30 133h932z" />
    <glyph glyph-name="eight.lf" horiz-adv-x="1261" 
d="M632 92q155 0 254 96t99 222t-96 219q-96 94 -259 94t-258 -97q-96 -96 -96 -222t100 -219t256 -93zM629 854q125 0 204 60t79 156t-76 164q-76 66 -206 66t-205 -64t-75 -164q0 -98 77 -158t202 -60zM632 -41q-220 0 -360 125q-139 125 -139 322q0 139 76 239t164 143
q-166 100 -166 295q0 143 119 247t306 104t305 -104t118 -247q0 -195 -166 -295q88 -43 164 -139t75 -225q0 -209 -138 -337t-358 -128z" />
    <glyph glyph-name="nine.lf" horiz-adv-x="1208" 
d="M604 590q150 0 254 104t105 254q-1 150 -105 254t-254 104t-254 -104t-104 -254t104 -254t254 -104zM582 461q-193 0 -336 138q-144 138 -144 351t150 348q150 136 362 136t352 -136t140 -346q0 -127 -40 -225t-128 -197l-467 -530h-184l411 475q-55 -14 -116 -14z" />
    <glyph glyph-name="zero.tosf" horiz-adv-x="1155" 
d="M578 102q127 0 217 86t90 222t-90 221q-90 86 -217 86q-128 0 -218 -86t-90 -221t90 -222q91 -86 218 -86zM578 -31q-201 0 -326 121t-125 320q0 200 125 320t326 120q202 0 326 -121t124 -319t-124 -320q-124 -121 -326 -121z" />
    <glyph glyph-name="one.tosf" horiz-adv-x="1155" 
d="M229 0v143h318v502l-330 -172v168l330 178h143v-676h301v-143h-762z" />
    <glyph glyph-name="two.tosf" horiz-adv-x="1155" 
d="M215 0v102q0 109 59 181q60 71 144 103t168 56t143 61q59 36 59 89t-51 89t-140 36t-173 -40t-148 -104l-81 123q94 76 179 115q84 39 226 39t237 -68t95 -188q0 -82 -41 -140t-103 -86t-133 -53q-72 -25 -133 -42t-102 -50t-41 -80h553l-21 -143h-696z" />
    <glyph glyph-name="three.tosf" horiz-adv-x="1155" 
d="M547 -440q-283 0 -430 256l102 88q131 -211 328 -211q117 1 202 65t85 187t-94 191t-214 69h-61v143h61q102 0 174 52t72 140t-64 133q-65 44 -161 44q-158 0 -266 -144l-103 82q129 195 369 195q176 0 272 -84t96 -204t-55 -188t-129 -98q82 -14 164 -101t82 -241
q-1 -154 -119 -264t-311 -110z" />
    <glyph glyph-name="four.tosf" horiz-adv-x="1155" 
d="M692 133v481l-389 -481h389zM692 -410v410h-655l655 819h144v-686h204v-133h-204v-410h-144z" />
    <glyph glyph-name="five.tosf" horiz-adv-x="1155" 
d="M539 -440q-281 0 -430 225l102 102q49 -82 137 -138t206 -56t205 99t87 236q0 138 -86 224t-201 86q-174 0 -328 -92l41 573h607l-13 -133h-471l-20 -256q77 41 221 41t268 -113t125 -331q0 -219 -130 -343t-320 -124z" />
    <glyph glyph-name="six.tosf" horiz-adv-x="1155" 
d="M578 102q127 0 217 86t90 222t-90 221q-90 86 -217 86q-128 0 -218 -87t-90 -221t90 -221q91 -86 218 -86zM578 -31q-201 0 -326 121t-125 320q0 114 41 204t123 205l409 574h185l-430 -574q74 31 153 31q168 0 294 -121t126 -319t-124 -320q-124 -121 -326 -121z" />
    <glyph glyph-name="seven.tosf" horiz-adv-x="1155" 
d="M1049 819v-133l-502 -1137h-164l522 1137h-768l31 133h881z" />
    <glyph glyph-name="eight.tosf" horiz-adv-x="1155" 
d="M578 102q137 0 222 96t85 216t-83 212t-225 91q-143 0 -225 -94t-82 -216q0 -121 86 -213t222 -92zM574 854q112 0 181 61t69 157t-67 163q-67 65 -183 65t-179 -62t-63 -163t65 -161t177 -60zM1028 430q0 -213 -124 -337t-325 -124q-202 0 -327 121t-125 320
q0 139 64 235q65 96 151 143q-154 104 -154 297q0 145 106 247t282 102q178 0 284 -102t107 -247q0 -96 -45 -174t-115 -123q221 -115 221 -358z" />
    <glyph glyph-name="nine.tosf" horiz-adv-x="1155" 
d="M578 102q127 0 217 87t90 221t-90 221q-90 86 -217 86q-128 0 -218 -86t-90 -221t90 -222q91 -86 218 -86zM547 -31q-168 0 -294 121t-126 320q0 200 125 320t326 120q202 0 326 -121t124 -319q0 -113 -41 -205t-123 -205l-323 -451h-179l338 451q-74 -31 -153 -31z" />
    <glyph glyph-name="uni2007.tosf" horiz-adv-x="1155" 
 />
    <glyph glyph-name="parenleft.case" horiz-adv-x="696" 
d="M123 737q0 272 105 513t284 419l102 -102q-162 -163 -255 -395t-93 -435t93 -435t255 -394l-102 -103q-178 178 -284 419q-105 241 -105 513z" />
    <glyph glyph-name="parenright.case" horiz-adv-x="696" 
d="M430 737q0 203 -93 435t-255 395l102 102q178 -178 284 -419t105 -513q1 -272 -105 -513t-284 -419l-102 103q162 162 255 394t93 435z" />
    <glyph glyph-name="hyphen.case" horiz-adv-x="604" 
d="M82 666v143h440v-143h-440z" />
    <glyph glyph-name="bracketleft.case" horiz-adv-x="696" 
d="M348 1495v-1515h184l-20 -144l-307 10v1782l307 10l20 -143h-184z" />
    <glyph glyph-name="bracketright.case" horiz-adv-x="696" 
d="M348 -20v1515h-184l20 143l308 -10v-1782l-308 -10l-20 144h184z" />
    <glyph glyph-name="braceleft.case" horiz-adv-x="675" 
d="M471 -164q-139 0 -203 64t-63 202v451q0 71 -39 95t-125 24v131q86 -1 125 23t39 96v450q0 138 63 202t203 64h102l21 -133h-123q-71 -1 -97 -29t-26 -104v-450q0 -78 -20 -116t-82 -69q61 -31 82 -68q20 -38 20 -116v-451q0 -76 27 -104t96 -29h123l-21 -133h-102z" />
    <glyph glyph-name="braceright.case" horiz-adv-x="675" 
d="M205 -31q71 0 97 29t26 104v451q0 78 20 116t82 68q-61 31 -82 69q-20 38 -20 116v450q0 76 -27 105t-96 28h-123l20 133h103q139 0 203 -63t63 -203v-450q0 -72 39 -96t125 -23v-131q-86 0 -125 -24t-39 -95v-451q0 -139 -63 -202t-203 -64h-103l-20 133h123z" />
    <glyph glyph-name="exclamdown.case" horiz-adv-x="522" 
d="M184 0v1147h154v-1147h-154zM184 1300v175h154v-175h-154z" />
    <glyph glyph-name="guillemotleft.case" horiz-adv-x="798" 
d="M328 512l-226 225l226 226l82 -82l-144 -144l144 -143zM573 512l-225 225l225 226l82 -82l-143 -144l143 -143z" />
    <glyph glyph-name="uni00AD.case" horiz-adv-x="604" 
d="M82 666v143h440v-143h-440z" />
    <glyph glyph-name="guillemotright.case" horiz-adv-x="798" 
d="M225 512l-82 82l144 143l-144 144l82 82l226 -226zM471 512l-82 82l143 143l-143 144l82 82l225 -226z" />
    <glyph glyph-name="questiondown.case" horiz-adv-x="1003" 
d="M508 -41q-184 0 -305 99t-121 290q0 98 40 176t96 129t114 103q138 126 137 299q0 49 -8 92h153q46 -254 -89 -404q-88 -98 -190 -191q-101 -92 -100 -200t79 -179t194 -71q117 0 199 81t81 204l154 -29q-14 -184 -132 -292t-302 -107zM461 1300v175h153v-175h-153z" />
    <glyph glyph-name="gravecomb.case" horiz-adv-x="2" 
d="M-858 1597l-184 246h184l123 -246h-123z" />
    <glyph glyph-name="acutecomb.case" horiz-adv-x="2" 
d="M-899 1597l123 246h184l-184 -246h-123z" />
    <glyph glyph-name="uni0302.case" horiz-adv-x="2" 
d="M-1042 1597l163 246h123l164 -246h-143l-82 164l-82 -164h-143z" />
    <glyph glyph-name="tildecomb.case" horiz-adv-x="2" 
d="M-670 1577q-59 0 -151 46t-118 46t-34 -13t-8 -59h-102v41q0 90 29 127q30 37 89 37t151 -46t119 -46q25 0 33 13t9 59h102v-41q0 -90 -30 -127t-89 -37z" />
    <glyph glyph-name="uni0304.case" horiz-adv-x="2" 
d="M-748 1618v125h635v-125h-635z" />
    <glyph glyph-name="uni0306.case" horiz-adv-x="2" 
d="M-307 1577q-129 0 -188 67q-58 67 -58 199h133q0 -143 113 -143t112 143h134q-1 -133 -59 -199t-187 -67z" />
    <glyph glyph-name="uni0307.case" horiz-adv-x="2" 
d="M-225 1597v164h143v-164h-143z" />
    <glyph glyph-name="uni0308.case" horiz-adv-x="2" 
d="M-530 1597v164h143v-164h-143zM-223 1597v164h143v-164h-143z" />
    <glyph glyph-name="uni030A.case" horiz-adv-x="2" 
d="M-244 1649q28 -1 50 21t22 50t-22 50t-50 22t-50 -22t-22 -50t22 -50q21 -21 50 -21zM-244 1556q-68 0 -116 48t-48 116t48 116t116 48t116 -48t48 -116t-48 -116t-116 -48z" />
    <glyph glyph-name="uni030B.case" horiz-adv-x="2" 
d="M-676 1597l123 246h184l-184 -246h-123zM-389 1597l123 246h184l-184 -246h-123z" />
    <glyph glyph-name="uni030C.case" horiz-adv-x="2" 
d="M-604 1597l-164 246h143l82 -164l82 164h144l-164 -246h-123z" />
    <glyph glyph-name="uni0326.case" horiz-adv-x="2" 
d="M-55 -232q0 -62 -52 -128t-118 -91l-62 41q33 23 60 78q27 56 27 112t-25 97h143q27 -47 27 -109z" />
    <glyph glyph-name="uni0327.case" horiz-adv-x="2" 
d="M-53 -232q0 -62 -52 -128t-118 -91l-62 41q35 23 61 78q26 56 26 112t-25 97h143q27 -47 27 -109z" />
    <glyph glyph-name="uni0328.case" horiz-adv-x="2" 
d="M-111 -446q-186 0 -186 170q0 133 166 276h113q-150 -150 -150 -231q0 -94 94 -95q29 0 86 9v-113q-49 -16 -123 -16z" />
    <glyph glyph-name="endash.case" horiz-adv-x="1249" 
d="M184 666v143h881v-143h-881z" />
    <glyph glyph-name="emdash.case" horiz-adv-x="1925" 
d="M82 666v143h1761v-143h-1761z" />
    <glyph glyph-name="guilsinglleft.case" horiz-adv-x="552" 
d="M328 512l-226 225l226 226l82 -82l-144 -144l144 -143z" />
    <glyph glyph-name="guilsinglright.case" horiz-adv-x="552" 
d="M225 512l-82 82l144 143l-144 144l82 82l226 -226z" />
    <glyph glyph-name="A.dlig" 
d="M20 0l502 1475h144l403 -1188l-80 -236l-129 400h-532l-144 -451h-164zM373 594h442l-221 696z" />
    <glyph glyph-name="S.dlig" horiz-adv-x="829" 
d="M582 -41q-305 0 -516 246l122 102q86 -109 176 -157t215 -48q123 0 199 73t76 194q0 152 -134 246q-60 42 -132 81q-195 106 -276 173q-134 112 -134 291t116 267t284 89q238 0 368 -164l-92 -113q-41 57 -115 95t-174 38t-167 -51q-66 -51 -66 -153t70 -174
q70 -73 168 -122t198 -105q100 -57 170 -157t70 -241v-29l-158 -131q47 -59 82 -88q-114 -162 -350 -162z" />
    <glyph glyph-name="Agrave.dlig" 
d="M20 0l502 1475h144l403 -1188l-80 -236l-129 400h-532l-144 -451h-164zM373 594h442l-221 696zM532 1597l-184 246h184l123 -246h-123z" />
    <glyph glyph-name="Aacute.dlig" 
d="M20 0l502 1475h144l403 -1188l-80 -236l-129 400h-532l-144 -451h-164zM373 594h442l-221 696zM532 1597l123 246h185l-185 -246h-123z" />
    <glyph glyph-name="Acircumflex.dlig" 
d="M20 0l502 1475h144l403 -1188l-80 -236l-129 400h-532l-144 -451h-164zM373 594h442l-221 696zM369 1597l163 246h123l164 -246h-143l-82 164l-82 -164h-143z" />
    <glyph glyph-name="Atilde.dlig" 
d="M20 0l502 1475h144l403 -1188l-80 -236l-129 400h-532l-144 -451h-164zM373 594h442l-221 696zM740 1577q-60 0 -152 46t-117 46t-33 -13t-8 -59h-102v41q0 90 29 127q31 37 91 37t152 -46t117 -46t33 13t8 59h102v-41q0 -90 -30 -127t-90 -37z" />
    <glyph glyph-name="Adieresis.dlig" 
d="M20 0l502 1475h144l403 -1188l-80 -236l-129 400h-532l-144 -451h-164zM373 594h442l-221 696zM369 1597v164h143v-164h-143zM676 1597v164h143v-164h-143z" />
    <glyph glyph-name="Aring.dlig" 
d="M20 0l502 1475h144l403 -1188l-80 -236l-129 400h-532l-144 -451h-164zM373 594h442l-221 696zM594 1649q28 -1 50 21t22 50t-22 50t-50 22t-50 -22t-22 -50t22 -50q22 -21 50 -21zM594 1556q-68 0 -116 48t-48 116t48 116t116 48t116 -48t48 -116t-48 -116t-116 -48z
" />
    <glyph glyph-name="Amacron.dlig" 
d="M276 1618v125h635v-125h-635zM20 0l502 1475h144l403 -1188l-80 -236l-129 400h-532l-144 -451h-164zM373 594h442l-221 696z" />
    <glyph glyph-name="Abreve.dlig" 
d="M594 1577q-129 0 -187 67t-59 199h133q0 -143 113 -143t113 143h133q0 -133 -58 -199t-188 -67zM20 0l502 1475h144l403 -1188l-80 -236l-129 400h-532l-144 -451h-164zM373 594h442l-221 696z" />
    <glyph glyph-name="Sacute.dlig" horiz-adv-x="829" 
d="M502 1597l123 246h184l-184 -246h-123zM582 -41q-305 0 -516 246l122 102q86 -109 176 -157t215 -48q123 0 199 73t76 194q0 152 -134 246q-60 42 -132 81q-195 106 -276 173q-134 112 -134 291t116 267t284 89q238 0 368 -164l-92 -113q-41 57 -115 95t-174 38t-167 -51
q-66 -51 -66 -153t70 -174q70 -73 168 -122t198 -105q100 -57 170 -157t70 -241v-29l-158 -131q47 -59 82 -88q-114 -162 -350 -162z" />
    <glyph glyph-name="Scircumflex.dlig" horiz-adv-x="829" 
d="M358 1597l164 246h123l164 -246h-143l-82 164l-82 -164h-144zM582 -41q-305 0 -516 246l122 102q86 -109 176 -157t215 -48q123 0 199 73t76 194q0 152 -134 246q-60 42 -132 81q-195 106 -276 173q-134 112 -134 291t116 267t284 89q238 0 368 -164l-92 -113
q-41 57 -115 95t-174 38t-167 -51q-66 -51 -66 -153t70 -174q70 -73 168 -122t198 -105q100 -57 170 -157t70 -241v-29l-158 -131q47 -59 82 -88q-114 -162 -350 -162z" />
    <glyph glyph-name="Scedilla.dlig" horiz-adv-x="829" 
d="M676 -232q0 -62 -52 -128t-118 -91l-62 41q35 23 61 78q25 56 25 112t-24 97h143q27 -47 27 -109zM582 -41q-305 0 -516 246l122 102q86 -109 176 -157t215 -48q123 0 199 73t76 194q0 152 -134 246q-60 42 -132 81q-195 106 -276 173q-134 112 -134 291t116 267t284 89
q238 0 368 -164l-92 -113q-41 57 -115 95t-174 38t-167 -51q-66 -51 -66 -153t70 -174q70 -73 168 -122t198 -105q100 -57 170 -157t70 -241v-29l-158 -131q47 -59 82 -88q-114 -162 -350 -162z" />
    <glyph glyph-name="Scaron.dlig" horiz-adv-x="829" 
d="M582 -41q-305 0 -516 246l122 102q86 -109 176 -157t215 -48q123 0 199 73t76 194q0 152 -134 246q-60 42 -132 81q-195 106 -276 173q-134 112 -134 291t116 267t284 89q238 0 368 -164l-92 -113q-41 57 -115 95t-174 38t-167 -51q-66 -51 -66 -153t70 -174
q70 -73 168 -122t198 -105q100 -57 170 -157t70 -241v-29l-158 -131q47 -59 82 -88q-114 -162 -350 -162zM522 1597l-164 246h144l82 -164l82 164h143l-164 -246h-123z" />
    <glyph glyph-name="Scommaaccent.dlig" horiz-adv-x="829" 
d="M676 -232q0 -62 -52 -128t-118 -91l-62 41q35 23 61 78q25 56 25 112t-24 97h143q27 -47 27 -109zM582 -41q-305 0 -516 246l122 102q86 -109 176 -157t215 -48q123 0 199 73t76 194q0 152 -134 246q-60 42 -132 81q-195 106 -276 173q-134 112 -134 291t116 267t284 89
q238 0 368 -164l-92 -113q-41 57 -115 95t-174 38t-167 -51q-66 -51 -66 -153t70 -174q70 -73 168 -122t198 -105q100 -57 170 -157t70 -241v-29l-158 -131q47 -59 82 -88q-114 -162 -350 -162z" />
    <glyph glyph-name="a.ss01" 
d="M399 102q197 0 308 185v92h-123q-193 0 -271 -37t-77 -117q-1 -123 163 -123zM399 -31q-307 0 -307 256q0 287 492 287h123q0 121 -35 163t-129 42q-190 0 -369 -103l-51 134q180 102 420 102q171 0 239 -68t68 -250v-532h-143v102q-63 -70 -133 -102t-175 -31z" />
    <glyph glyph-name="ordfeminine.ss01" horiz-adv-x="716" 
d="M287 922q152 0 225 122v62h-123q-115 0 -160 -26t-45 -76q1 -82 103 -82zM82 614v123h553v-123h-553zM287 819q-98 0 -162 48q-63 48 -64 137q0 205 328 204h123q0 102 -143 103q-72 1 -115 -15t-111 -57l-61 92q78 47 137 65t150 17q266 0 266 -205v-368h-123v82
q-67 -103 -225 -103z" />
    <glyph glyph-name="agrave.ss01" 
d="M451 1024l-185 246h185l122 -246h-122zM399 102q197 0 308 185v92h-123q-193 0 -271 -37t-77 -117q-1 -123 163 -123zM399 -31q-307 0 -307 256q0 287 492 287h123q0 121 -35 163t-129 42q-190 0 -369 -103l-51 134q180 102 420 102q171 0 239 -68t68 -250v-532h-143v102
q-63 -70 -133 -102t-175 -31z" />
    <glyph glyph-name="aacute.ss01" 
d="M410 1024l122 246h185l-185 -246h-122zM399 102q197 0 308 185v92h-123q-193 0 -271 -37t-77 -117q-1 -123 163 -123zM399 -31q-307 0 -307 256q0 287 492 287h123q0 121 -35 163t-129 42q-190 0 -369 -103l-51 134q180 102 420 102q171 0 239 -68t68 -250v-532h-143v102
q-63 -70 -133 -102t-175 -31z" />
    <glyph glyph-name="acircumflex.ss01" 
d="M266 1024l164 246h123l164 -246h-144l-81 164l-82 -164h-144zM399 102q197 0 308 185v92h-123q-193 0 -271 -37t-77 -117q-1 -123 163 -123zM399 -31q-307 0 -307 256q0 287 492 287h123q0 121 -35 163t-129 42q-190 0 -369 -103l-51 134q180 102 420 102q171 0 239 -68
t68 -250v-532h-143v102q-63 -70 -133 -102t-175 -31z" />
    <glyph glyph-name="atilde.ss01" 
d="M748 1167q0 -91 -30 -127t-89 -36t-151 46t-119 46q-25 0 -33 -14t-9 -58h-102v41q0 90 30 127t89 37t151 -46t118 -46t34 13t8 58h103v-41zM399 102q197 0 308 185v92h-123q-193 0 -271 -37t-77 -117q-1 -123 163 -123zM399 -31q-307 0 -307 256q0 287 492 287h123
q0 121 -35 163t-129 42q-190 0 -369 -103l-51 134q180 102 420 102q171 0 239 -68t68 -250v-532h-143v102q-63 -70 -133 -102t-175 -31z" />
    <glyph glyph-name="adieresis.ss01" 
d="M276 1024v164h144v-164h-144zM584 1024v164h143v-164h-143zM399 102q197 0 308 185v92h-123q-193 0 -271 -37t-77 -117q-1 -123 163 -123zM399 -31q-307 0 -307 256q0 287 492 287h123q0 121 -35 163t-129 42q-190 0 -369 -103l-51 134q180 102 420 102q171 0 239 -68
t68 -250v-532h-143v102q-63 -70 -133 -102t-175 -31z" />
    <glyph glyph-name="aring.ss01" 
d="M481 1075q29 0 51 22q22 23 21 51q0 28 -22 50q-23 22 -51 21q-28 0 -50 -22q-22 -23 -20 -51q0 -28 21 -50t50 -21zM481 983q-67 0 -115 48t-49 116q1 68 49 116t116 48t115 -48q48 -48 48 -116t-48 -116t-116 -48zM399 102q197 0 308 185v92h-123q-193 0 -271 -37
t-77 -117q-1 -123 163 -123zM399 -31q-307 0 -307 256q0 287 492 287h123q0 121 -35 163t-129 42q-190 0 -369 -103l-51 134q180 102 420 102q171 0 239 -68t68 -250v-532h-143v102q-63 -70 -133 -102t-175 -31z" />
    <glyph glyph-name="ae.ss01" horiz-adv-x="1607" 
d="M860 502h514q-20 88 -87 151t-170 63t-172 -66t-85 -148zM399 102q197 0 308 185v82h-144q-188 0 -258 -33t-69 -111q-1 -123 163 -123zM382 -31q-116 1 -203 63t-87 198t109 204t362 68h144q0 129 -35 172t-129 43q-190 0 -369 -103l-51 134q180 102 420 102
q121 0 185 -29t93 -98q121 127 294 127t292 -124t119 -316v-37h-678q6 -113 83 -192t185 -79q156 0 252 121l121 -73q-152 -180 -373 -181q-106 1 -197 53t-147 142q-51 -63 -86 -97t-112 -66q-76 -32 -192 -32z" />
    <glyph glyph-name="amacron.ss01" 
d="M217 1038v125h553v-125h-553zM399 102q197 0 308 185v92h-123q-193 0 -271 -37t-77 -117q-1 -123 163 -123zM399 -31q-307 0 -307 256q0 287 492 287h123q0 121 -35 163t-129 42q-190 0 -369 -103l-51 134q180 102 420 102q171 0 239 -68t68 -250v-532h-143v102
q-63 -70 -133 -102t-175 -31z" />
    <glyph glyph-name="abreve.ss01" 
d="M399 102q197 0 308 185v92h-123q-193 0 -271 -37t-77 -117q-1 -123 163 -123zM399 -31q-307 0 -307 256q0 287 492 287h123q0 121 -35 163t-129 42q-190 0 -369 -103l-51 134q180 102 420 102q171 0 239 -68t68 -250v-532h-143v102q-63 -70 -133 -102t-175 -31zM492 971
q-129 0 -188 66q-58 67 -58 200h133q0 -143 113 -143t112 143h133q0 -133 -58 -199t-187 -67z" />
    <glyph glyph-name="aogonek.ss01" 
d="M399 102q197 0 308 185v92h-123q-193 0 -271 -37t-77 -117q-1 -123 163 -123zM727 -446q-186 0 -186 170q0 133 166 276v102q-63 -70 -133 -102t-175 -31q-307 0 -307 256q0 287 492 287h123q0 121 -35 163t-129 42q-190 0 -369 -103l-51 134q180 102 420 102
q171 0 239 -68t68 -250v-532h-31q-150 -150 -149 -231q0 -94 94 -95q29 0 86 9v-113q-49 -16 -123 -16z" />
    <glyph glyph-name="g.ss02" horiz-adv-x="1044" 
d="M522 -317q164 -1 246 29t82 110t-71 104t-223 23q-152 0 -230 18q-131 -57 -131 -151q0 -74 81 -104q82 -29 246 -29zM522 348q106 0 176 53t70 131t-70 132t-176 53q-106 0 -176 -53q-70 -54 -70 -132t70 -131t176 -53zM522 -451q-471 0 -471 267q0 137 148 202
q-66 45 -66 125q0 104 107 166q-106 88 -106 224q0 137 109 227q110 90 279 90q109 0 197 -39q70 78 69 254h164q0 -193 -151 -305q111 -88 111 -226t-110 -229q-110 -90 -280 -90q-102 0 -184 35q-62 -35 -62 -76t14 -57q14 -15 55 -25q42 -10 177 -10q264 0 368 -57
t103 -209q0 -267 -471 -267z" />
    <glyph glyph-name="gcircumflex.ss02" horiz-adv-x="1044" 
d="M522 -317q164 -1 246 29t82 110t-71 104t-223 23q-152 0 -230 18q-131 -57 -131 -151q0 -74 81 -104q82 -29 246 -29zM522 348q106 0 176 53t70 131t-70 132t-176 53q-106 0 -176 -53q-70 -54 -70 -132t70 -131t176 -53zM522 -451q-471 0 -471 267q0 137 148 202
q-66 45 -66 125q0 104 107 166q-106 88 -106 224q0 137 109 227q110 90 279 90q109 0 197 -39q70 78 69 254h164q0 -193 -151 -305q111 -88 111 -226t-110 -229q-110 -90 -280 -90q-102 0 -184 35q-62 -35 -62 -76t14 -57q14 -15 55 -25q42 -10 177 -10q264 0 368 -57
t103 -209q0 -267 -471 -267zM281 1024l163 246h123l164 -246h-143l-82 164l-82 -164h-143z" />
    <glyph glyph-name="gbreve.ss02" horiz-adv-x="1044" 
d="M522 -317q164 -1 246 29t82 110t-71 104t-223 23q-152 0 -230 18q-131 -57 -131 -151q0 -74 81 -104q82 -29 246 -29zM522 348q106 0 176 53t70 131t-70 132t-176 53q-106 0 -176 -53q-70 -54 -70 -132t70 -131t176 -53zM522 -451q-471 0 -471 267q0 137 148 202
q-66 45 -66 125q0 104 107 166q-106 88 -106 224q0 137 109 227q110 90 279 90q109 0 197 -39q70 78 69 254h164q0 -193 -151 -305q111 -88 111 -226t-110 -229q-110 -90 -280 -90q-102 0 -184 35q-62 -35 -62 -76t14 -57q14 -15 55 -25q42 -10 177 -10q264 0 368 -57
t103 -209q0 -267 -471 -267zM506 971q-129 0 -188 66q-58 67 -58 200h133q0 -143 113 -143t112 143h134q0 -133 -58 -199t-188 -67z" />
    <glyph glyph-name="gdotaccent.ss02" horiz-adv-x="1044" 
d="M522 -317q164 -1 246 29t82 110t-71 104t-223 23q-152 0 -230 18q-131 -57 -131 -151q0 -74 81 -104q82 -29 246 -29zM522 348q106 0 176 53t70 131t-70 132t-176 53q-106 0 -176 -53q-70 -54 -70 -132t70 -131t176 -53zM522 -451q-471 0 -471 267q0 137 148 202
q-66 45 -66 125q0 104 107 166q-106 88 -106 224q0 137 109 227q110 90 279 90q109 0 197 -39q70 78 69 254h164q0 -193 -151 -305q111 -88 111 -226t-110 -229q-110 -90 -280 -90q-102 0 -184 35q-62 -35 -62 -76t14 -57q14 -15 55 -25q42 -10 177 -10q264 0 368 -57
t103 -209q0 -267 -471 -267zM455 1024v164h143v-164h-143z" />
    <glyph glyph-name="gcommaaccent.ss02" horiz-adv-x="1044" 
d="M569 1122q0 -56 25 -98h-143q-27 48 -27 110t52 128t118 90l61 -41q-33 -23 -59 -78t-27 -111zM522 -317q164 -1 246 29t82 110t-71 104t-223 23q-152 0 -230 18q-131 -57 -131 -151q0 -74 81 -104q82 -29 246 -29zM522 348q106 0 176 53t70 131t-70 132t-176 53
q-106 0 -176 -53q-70 -54 -70 -132t70 -131t176 -53zM522 -451q-471 0 -471 267q0 137 148 202q-66 45 -66 125q0 104 107 166q-106 88 -106 224q0 137 109 227q110 90 279 90q109 0 197 -39q70 78 69 254h164q0 -193 -151 -305q111 -88 111 -226t-110 -229
q-110 -90 -280 -90q-102 0 -184 35q-62 -35 -62 -76t14 -57q14 -15 55 -25q42 -10 177 -10q264 0 368 -57t103 -209q0 -267 -471 -267z" />
    <glyph glyph-name="L.dligA" horiz-adv-x="655" 
d="M184 0v1475h154v-1332h356l-49 -143h-461z" />
    <glyph glyph-name="Lacute.dligA" horiz-adv-x="655" 
d="M205 1597l123 246h184l-184 -246h-123zM184 0v1475h154v-1332h356l-49 -143h-461z" />
    <glyph glyph-name="Lcommaaccent.dligA" horiz-adv-x="655" 
d="M465 -220q0 56 -25 97h144q26 -47 26 -109t-52 -128t-118 -91l-61 41q35 23 60 78q26 56 26 112zM184 0v1475h154v-1332h356l-49 -143h-461z" />
    <glyph glyph-name="Lslash.dligA" horiz-adv-x="655" 
d="M184 0v553l-102 -102v184l102 102v738h154v-584l215 215v-184l-215 -215v-564h356l-49 -143h-461z" />
    <glyph glyph-name="L.dligAE" horiz-adv-x="563" 
d="M184 0v1475h154v-1332h262l-70 -143h-346z" />
    <glyph glyph-name="Lacute.dligAE" horiz-adv-x="563" 
d="M205 1597l123 246h184l-184 -246h-123zM184 0v1475h154v-1332h262l-70 -143h-346z" />
    <glyph glyph-name="Lcommaaccent.dligAE" horiz-adv-x="563" 
d="M418 -220q0 56 -25 97h144q27 -47 27 -109t-53 -128q-52 -66 -118 -91l-61 41q33 23 59 78q27 56 27 112zM184 0v1475h154v-1332h262l-70 -143h-346z" />
    <glyph glyph-name="O.dligC" horiz-adv-x="1044" 
d="M808 -41q-308 0 -507 219t-199 559t199 559q199 220 507 220t509 -205q-61 -72 -92 -127q-160 188 -404 188q-245 0 -405 -185t-160 -449t161 -450t401 -186t407 195q39 -72 92 -131q-201 -207 -509 -207zM1536 743q0 -209 -82 -383q-63 86 -96 191q51 175 -2 381
q33 115 90 194q90 -174 90 -383z" />
    <glyph glyph-name="Ograve.dligC" horiz-adv-x="1044" 
d="M808 -41q-308 0 -507 219t-199 559t199 559q199 220 507 220t509 -205q-61 -72 -92 -127q-160 188 -404 188q-245 0 -405 -185t-160 -449t161 -450t401 -186t407 195q39 -72 92 -131q-201 -207 -509 -207zM1536 743q0 -209 -82 -383q-63 86 -96 191q51 175 -2 381
q33 115 90 194q90 -174 90 -383zM778 1597l-184 246h184l123 -246h-123z" />
    <glyph glyph-name="Oacute.dligC" horiz-adv-x="1044" 
d="M808 -41q-308 0 -507 219t-199 559t199 559q199 220 507 220t509 -205q-61 -72 -92 -127q-160 188 -404 188q-245 0 -405 -185t-160 -449t161 -450t401 -186t407 195q39 -72 92 -131q-201 -207 -509 -207zM1536 743q0 -209 -82 -383q-63 86 -96 191q51 175 -2 381
q33 115 90 194q90 -174 90 -383zM737 1597l123 246h184l-184 -246h-123z" />
    <glyph glyph-name="Ocircumflex.dligC" horiz-adv-x="1044" 
d="M808 -41q-308 0 -507 219t-199 559t199 559q199 220 507 220t509 -205q-61 -72 -92 -127q-160 188 -404 188q-245 0 -405 -185t-160 -449t161 -450t401 -186t407 195q39 -72 92 -131q-201 -207 -509 -207zM1536 743q0 -209 -82 -383q-63 86 -96 191q51 175 -2 381
q33 115 90 194q90 -174 90 -383zM594 1597l164 246h123l163 -246h-143l-82 164l-82 -164h-143z" />
    <glyph glyph-name="Otilde.dligC" horiz-adv-x="1044" 
d="M808 -41q-308 0 -507 219t-199 559t199 559q199 220 507 220t509 -205q-61 -72 -92 -127q-160 188 -404 188q-245 0 -405 -185t-160 -449t161 -450t401 -186t407 195q39 -72 92 -131q-201 -207 -509 -207zM1536 743q0 -209 -82 -383q-63 86 -96 191q51 175 -2 381
q33 115 90 194q90 -174 90 -383zM1085 1741q1 -90 -29 -127t-90 -37t-152 46t-118 46q-24 0 -32 -13t-9 -59h-102v41q0 90 30 127t90 37t152 -46t117 -46t33 13t8 59h102v-41z" />
    <glyph glyph-name="Odieresis.dligC" horiz-adv-x="1044" 
d="M808 -41q-308 0 -507 219t-199 559t199 559q199 220 507 220t509 -205q-61 -72 -92 -127q-160 188 -404 188q-245 0 -405 -185t-160 -449t161 -450t401 -186t407 195q39 -72 92 -131q-201 -207 -509 -207zM1536 743q0 -209 -82 -383q-63 86 -96 191q51 175 -2 381
q33 115 90 194q90 -174 90 -383zM594 1597v164h143v-164h-143zM901 1597v164h143v-164h-143z" />
    <glyph glyph-name="Omacron.dligC" horiz-adv-x="1044" 
d="M502 1618v125h635v-125h-635zM808 -41q-308 0 -507 219t-199 559t199 559q199 220 507 220t509 -205q-61 -72 -92 -127q-160 188 -404 188q-245 0 -405 -185t-160 -449t161 -450t401 -186t407 195q39 -72 92 -131q-201 -207 -509 -207zM1536 743q0 -209 -82 -383
q-63 86 -96 191q51 175 -2 381q33 115 90 194q90 -174 90 -383z" />
    <glyph glyph-name="Ohungarumlaut.dligC" horiz-adv-x="1044" 
d="M612 1597l123 246h185l-185 -246h-123zM899 1597l123 246h184l-184 -246h-123zM808 -41q-308 0 -507 219t-199 559t199 559q199 220 507 220t509 -205q-61 -72 -92 -127q-160 188 -404 188q-245 0 -405 -185t-160 -449t161 -450t401 -186t407 195q39 -72 92 -131
q-201 -207 -509 -207zM1536 743q0 -209 -82 -383q-63 86 -96 191q51 175 -2 381q33 115 90 194q90 -174 90 -383z" />
    <glyph glyph-name="O.dligG" horiz-adv-x="1044" 
d="M812 -41q-312 0 -511 219t-199 559t199 559q199 220 514 220t516 -213q-59 -68 -96 -132q-164 201 -411 201q-248 0 -408 -185t-160 -449t161 -450t407 -186t411 199q39 -70 96 -131q-207 -211 -519 -211zM1382 731q0 98 -22 193q39 115 94 190q82 -184 82 -378t-78 -371
q-63 84 -94 194q18 74 18 172z" />
    <glyph glyph-name="Ograve.dligG" horiz-adv-x="1044" 
d="M812 -41q-312 0 -511 219t-199 559t199 559q199 220 514 220t516 -213q-59 -68 -96 -132q-164 201 -411 201q-248 0 -408 -185t-160 -449t161 -450t407 -186t411 199q39 -70 96 -131q-207 -211 -519 -211zM1382 731q0 98 -22 193q39 115 94 190q82 -184 82 -378t-78 -371
q-63 84 -94 194q18 74 18 172zM778 1597l-184 246h184l123 -246h-123z" />
    <glyph glyph-name="Oacute.dligG" horiz-adv-x="1044" 
d="M812 -41q-312 0 -511 219t-199 559t199 559q199 220 514 220t516 -213q-59 -68 -96 -132q-164 201 -411 201q-248 0 -408 -185t-160 -449t161 -450t407 -186t411 199q39 -70 96 -131q-207 -211 -519 -211zM1382 731q0 98 -22 193q39 115 94 190q82 -184 82 -378t-78 -371
q-63 84 -94 194q18 74 18 172zM737 1597l123 246h184l-184 -246h-123z" />
    <glyph glyph-name="Ocircumflex.dligG" horiz-adv-x="1044" 
d="M812 -41q-312 0 -511 219t-199 559t199 559q199 220 514 220t516 -213q-59 -68 -96 -132q-164 201 -411 201q-248 0 -408 -185t-160 -449t161 -450t407 -186t411 199q39 -70 96 -131q-207 -211 -519 -211zM1382 731q0 98 -22 193q39 115 94 190q82 -184 82 -378t-78 -371
q-63 84 -94 194q18 74 18 172zM594 1597l164 246h123l163 -246h-143l-82 164l-82 -164h-143z" />
    <glyph glyph-name="Otilde.dligG" horiz-adv-x="1044" 
d="M812 -41q-312 0 -511 219t-199 559t199 559q199 220 514 220t516 -213q-59 -68 -96 -132q-164 201 -411 201q-248 0 -408 -185t-160 -449t161 -450t407 -186t411 199q39 -70 96 -131q-207 -211 -519 -211zM1382 731q0 98 -22 193q39 115 94 190q82 -184 82 -378t-78 -371
q-63 84 -94 194q18 74 18 172zM1085 1741q1 -90 -29 -127t-90 -37t-152 46t-118 46q-24 0 -32 -13t-9 -59h-102v41q0 90 30 127t90 37t152 -46t117 -46t33 13t8 59h102v-41z" />
    <glyph glyph-name="Odieresis.dligG" horiz-adv-x="1044" 
d="M812 -41q-312 0 -511 219t-199 559t199 559q199 220 514 220t516 -213q-59 -68 -96 -132q-164 201 -411 201q-248 0 -408 -185t-160 -449t161 -450t407 -186t411 199q39 -70 96 -131q-207 -211 -519 -211zM1382 731q0 98 -22 193q39 115 94 190q82 -184 82 -378t-78 -371
q-63 84 -94 194q18 74 18 172zM594 1597v164h143v-164h-143zM901 1597v164h143v-164h-143z" />
    <glyph glyph-name="Omacron.dligG" horiz-adv-x="1044" 
d="M502 1618v125h635v-125h-635zM812 -41q-312 0 -511 219t-199 559t199 559q199 220 514 220t516 -213q-59 -68 -96 -132q-164 201 -411 201q-248 0 -408 -185t-160 -449t161 -450t407 -186t411 199q39 -70 96 -131q-207 -211 -519 -211zM1382 731q0 98 -22 193
q39 115 94 190q82 -184 82 -378t-78 -371q-63 84 -94 194q18 74 18 172z" />
    <glyph glyph-name="Ohungarumlaut.dligG" horiz-adv-x="1044" 
d="M612 1597l123 246h185l-185 -246h-123zM899 1597l123 246h184l-184 -246h-123zM812 -41q-312 0 -511 219t-199 559t199 559q199 220 514 220t516 -213q-59 -68 -96 -132q-164 201 -411 201q-248 0 -408 -185t-160 -449t161 -450t407 -186t411 199q39 -70 96 -131
q-207 -211 -519 -211zM1382 731q0 98 -22 193q39 115 94 190q82 -184 82 -378t-78 -371q-63 84 -94 194q18 74 18 172z" />
    <glyph glyph-name="O.dligO" horiz-adv-x="1044" 
d="M1536 739q0 -215 -84 -393q-68 96 -96 199q55 175 2 381q33 119 94 200q84 -172 84 -387zM812 -41q-312 0 -511 219t-199 559t199 559q199 220 509 220t509 -199q-47 -53 -94 -133q-162 188 -405 188q-244 0 -404 -185t-160 -449t161 -450t401 -186t407 187
q43 -76 92 -131q-193 -199 -505 -199z" />
    <glyph glyph-name="Ograve.dligO" horiz-adv-x="1044" 
d="M1536 739q0 -215 -84 -393q-68 96 -96 199q55 175 2 381q33 119 94 200q84 -172 84 -387zM812 -41q-312 0 -511 219t-199 559t199 559q199 220 509 220t509 -199q-47 -53 -94 -133q-162 188 -405 188q-244 0 -404 -185t-160 -449t161 -450t401 -186t407 187
q43 -76 92 -131q-193 -199 -505 -199zM778 1597l-184 246h184l123 -246h-123z" />
    <glyph glyph-name="Oacute.dligO" horiz-adv-x="1044" 
d="M1536 739q0 -215 -84 -393q-68 96 -96 199q55 175 2 381q33 119 94 200q84 -172 84 -387zM812 -41q-312 0 -511 219t-199 559t199 559q199 220 509 220t509 -199q-47 -53 -94 -133q-162 188 -405 188q-244 0 -404 -185t-160 -449t161 -450t401 -186t407 187
q43 -76 92 -131q-193 -199 -505 -199zM737 1597l123 246h184l-184 -246h-123z" />
    <glyph glyph-name="Ocircumflex.dligO" horiz-adv-x="1044" 
d="M1536 739q0 -215 -84 -393q-68 96 -96 199q55 175 2 381q33 119 94 200q84 -172 84 -387zM812 -41q-312 0 -511 219t-199 559t199 559q199 220 509 220t509 -199q-47 -53 -94 -133q-162 188 -405 188q-244 0 -404 -185t-160 -449t161 -450t401 -186t407 187
q43 -76 92 -131q-193 -199 -505 -199zM594 1597l164 246h123l163 -246h-143l-82 164l-82 -164h-143z" />
    <glyph glyph-name="Otilde.dligO" horiz-adv-x="1044" 
d="M1536 739q0 -215 -84 -393q-68 96 -96 199q55 175 2 381q33 119 94 200q84 -172 84 -387zM812 -41q-312 0 -511 219t-199 559t199 559q199 220 509 220t509 -199q-47 -53 -94 -133q-162 188 -405 188q-244 0 -404 -185t-160 -449t161 -450t401 -186t407 187
q43 -76 92 -131q-193 -199 -505 -199zM1085 1741q1 -90 -29 -127t-90 -37t-152 46t-118 46q-24 0 -32 -13t-9 -59h-102v41q0 90 30 127t90 37t152 -46t117 -46t33 13t8 59h102v-41z" />
    <glyph glyph-name="Odieresis.dligO" horiz-adv-x="1044" 
d="M1536 739q0 -215 -84 -393q-68 96 -96 199q55 175 2 381q33 119 94 200q84 -172 84 -387zM812 -41q-312 0 -511 219t-199 559t199 559q199 220 509 220t509 -199q-47 -53 -94 -133q-162 188 -405 188q-244 0 -404 -185t-160 -449t161 -450t401 -186t407 187
q43 -76 92 -131q-193 -199 -505 -199zM594 1597v164h143v-164h-143zM901 1597v164h143v-164h-143z" />
    <glyph glyph-name="Omacron.dligO" horiz-adv-x="1044" 
d="M502 1618v125h635v-125h-635zM1536 739q0 -215 -84 -393q-68 96 -96 199q55 175 2 381q33 119 94 200q84 -172 84 -387zM812 -41q-312 0 -511 219t-199 559t199 559q199 220 509 220t509 -199q-47 -53 -94 -133q-162 188 -405 188q-244 0 -404 -185t-160 -449t161 -450
t401 -186t407 187q43 -76 92 -131q-193 -199 -505 -199z" />
    <glyph glyph-name="Ohungarumlaut.dligO" horiz-adv-x="1044" 
d="M612 1597l123 246h185l-185 -246h-123zM899 1597l123 246h184l-184 -246h-123zM1536 739q0 -215 -84 -393q-68 96 -96 199q55 175 2 381q33 119 94 200q84 -172 84 -387zM812 -41q-312 0 -511 219t-199 559t199 559q199 220 509 220t509 -199q-47 -53 -94 -133
q-162 188 -405 188q-244 0 -404 -185t-160 -449t161 -450t401 -186t407 187q43 -76 92 -131q-193 -199 -505 -199z" />
    <glyph glyph-name="T.dligT1" horiz-adv-x="792" 
d="M369 0v1321h-328l20 154h723l-16 -154h-246v-1321h-153z" />
    <glyph glyph-name="Tcommaaccent.dligT1" horiz-adv-x="792" 
d="M543 -232q0 -62 -52 -128t-118 -91l-62 41q33 23 60 78q27 56 27 112t-25 97h143q27 -47 27 -109zM369 0v1321h-328l20 154h723l-16 -154h-246v-1321h-153z" />
    <glyph glyph-name="Tcaron.dligT1" horiz-adv-x="792" 
d="M387 1597l-164 246h144l82 -164l81 164h144l-164 -246h-123zM369 0v1321h-328l20 154h723l-16 -154h-246v-1321h-153z" />
    <glyph glyph-name="uni021A.dligT1" horiz-adv-x="792" 
d="M549 -232q0 -62 -52 -128t-118 -91l-62 41q33 23 60 78q27 56 27 112t-25 97h143q27 -47 27 -109zM369 0v1321h-328l20 154h723l-16 -154h-246v-1321h-153z" />
    <glyph glyph-name="T.dligT2" horiz-adv-x="804" 
d="M283 0v1321h-277l17 154h720l21 -154h-328v-1321h-153z" />
    <glyph glyph-name="Tcommaaccent.dligT2" horiz-adv-x="804" 
d="M457 -232q0 -62 -52 -128t-118 -91l-62 41q33 23 60 78q27 56 27 112t-25 97h143q27 -47 27 -109zM283 0v1321h-277l17 154h720l21 -154h-328v-1321h-153z" />
    <glyph glyph-name="Tcaron.dligT2" horiz-adv-x="804" 
d="M301 1597l-164 246h144l81 -164l82 164h144l-164 -246h-123zM283 0v1321h-277l17 154h720l21 -154h-328v-1321h-153z" />
    <glyph glyph-name="uni021A.dligT2" horiz-adv-x="804" 
d="M463 -232q0 -62 -52 -128t-118 -91l-62 41q35 23 61 78q26 56 26 112t-25 97h143q27 -47 27 -109zM283 0v1321h-277l17 154h720l21 -154h-328v-1321h-153z" />
    <glyph glyph-name="T.dligW" horiz-adv-x="716" 
d="M369 0v1321h-328l20 154h646l43 -154h-228v-1321h-153z" />
    <glyph glyph-name="Tcommaaccent.dligW" horiz-adv-x="716" 
d="M543 -232q0 -62 -52 -128t-118 -91l-62 41q33 23 60 78q27 56 27 112t-25 97h143q27 -47 27 -109zM369 0v1321h-328l20 154h646l43 -154h-228v-1321h-153z" />
    <glyph glyph-name="Tcaron.dligW" horiz-adv-x="716" 
d="M387 1597l-164 246h144l82 -164l81 164h144l-164 -246h-123zM369 0v1321h-328l20 154h646l43 -154h-228v-1321h-153z" />
    <glyph glyph-name="uni021A.dligW" horiz-adv-x="716" 
d="M543 -232q0 -62 -52 -128t-118 -91l-62 41q33 23 60 78q27 56 27 112t-25 97h143q27 -47 27 -109zM369 0v1321h-328l20 154h646l43 -154h-228v-1321h-153z" />
    <glyph glyph-name="T.dligY" horiz-adv-x="737" 
d="M369 0v1321h-328l20 154h646l73 -154h-258v-1321h-153z" />
    <glyph glyph-name="Tcommaaccent.dligY" horiz-adv-x="737" 
d="M543 -232q0 -62 -52 -128t-118 -91l-62 41q33 23 60 78q27 56 27 112t-25 97h143q27 -47 27 -109zM369 0v1321h-328l20 154h646l73 -154h-258v-1321h-153z" />
    <glyph glyph-name="Tcaron.dligY" horiz-adv-x="737" 
d="M387 1597l-164 246h144l82 -164l81 164h144l-164 -246h-123zM369 0v1321h-328l20 154h646l73 -154h-258v-1321h-153z" />
    <glyph glyph-name="uni021A.dligY" horiz-adv-x="737" 
d="M543 -232q0 -62 -52 -128t-118 -91l-62 41q33 23 60 78q27 56 27 112t-25 97h143q27 -47 27 -109zM369 0v1321h-328l20 154h646l73 -154h-258v-1321h-153z" />
    <glyph glyph-name="f.dligbkh" horiz-adv-x="522" 
d="M717 1495v-133h-236q-80 0 -122 -37t-42 -137v-369h205v-133h-205v-686h-143v686h-123l21 133h102v369q0 143 67 225t199 82h277z" />
    <glyph glyph-name="f.dligft" horiz-adv-x="491" 
d="M748 819v-133h-431v-686h-143v686h-123l21 133h102v369q0 143 67 225t199 82h82v-133h-41q-80 0 -122 -37t-42 -137v-369h431z" />
    <glyph glyph-name="T.dligh" horiz-adv-x="686" 
d="M369 0v1321h-328l20 154h738v-154h-277v-1321h-153z" />
    <glyph glyph-name="Tcommaaccent.dligh" horiz-adv-x="686" 
d="M543 -232q0 -62 -52 -128t-118 -91l-62 41q33 23 60 78q27 56 27 112t-25 97h143q27 -47 27 -109zM369 0v1321h-328l20 154h738v-154h-277v-1321h-153z" />
    <glyph glyph-name="Tcaron.dligh" horiz-adv-x="686" 
d="M387 1597l-164 246h144l82 -164l81 164h144l-164 -246h-123zM369 0v1321h-328l20 154h738v-154h-277v-1321h-153z" />
    <glyph glyph-name="uni021A.dligh" horiz-adv-x="686" 
d="M543 -232q0 -62 -52 -128t-118 -91l-62 41q33 23 60 78q27 56 27 112t-25 97h143q27 -47 27 -109zM369 0v1321h-328l20 154h738v-154h-277v-1321h-153z" />
    <glyph glyph-name="f.dligj" horiz-adv-x="522" 
d="M748 819v-133h-431v-686h-143v686h-123l21 133h102v369q0 143 67 225t199 82h82v-133h-41q-80 0 -122 -37t-42 -137v-369h431z" />
    <glyph glyph-name="t.dligt" horiz-adv-x="491" 
d="M666 819v-133h-349v-512q0 -68 56 -68q39 0 88 37v-143q-61 -31 -121 -31q-166 0 -166 195v522h-123l21 133h102v297l143 41v-338h349z" />
    <glyph glyph-name="tcommaaccent.dligt" horiz-adv-x="491" 
d="M254 -210q0 56 -25 97h144q27 -47 27 -109t-53 -128q-52 -65 -118 -90l-61 41q34 23 60 77q26 56 26 112zM666 819v-133h-349v-512q0 -68 56 -68q39 0 88 37v-143q-61 -31 -121 -31q-166 0 -166 195v522h-123l21 133h102v297l143 41v-338h349z" />
    <glyph glyph-name="uni021B.dligt" horiz-adv-x="491" 
d="M254 -210q0 56 -25 97h144q27 -47 27 -109t-53 -128q-52 -65 -118 -90l-61 41q34 23 60 77q26 56 26 112zM666 819v-133h-349v-512q0 -68 56 -68q39 0 88 37v-143q-61 -31 -121 -31q-166 0 -166 195v522h-123l21 133h102v297l143 41v-338h349z" />
    <glyph glyph-name="f.dligy" horiz-adv-x="471" 
d="M606 819v-133h-289v-686h-143v686h-123l21 133h102v369q0 143 67 225t199 82h82v-133h-41q-80 0 -122 -37t-42 -137v-369h289z" />
    <glyph glyph-name="t.dligy" horiz-adv-x="471" 
d="M606 819v-133h-289v-512q0 -68 56 -68q39 0 88 37v-143q-61 -31 -121 -31q-166 0 -166 195v522h-123l21 133h102v297l143 41v-338h289z" />
    <glyph glyph-name="tcommaaccent.dligy" horiz-adv-x="471" 
d="M254 -210q0 56 -25 97h144q27 -47 27 -109t-53 -128q-52 -65 -118 -90l-61 41q34 23 60 77q26 56 26 112zM606 819v-133h-289v-512q0 -68 56 -68q39 0 88 37v-143q-61 -31 -121 -31q-166 0 -166 195v522h-123l21 133h102v297l143 41v-338h289z" />
    <glyph glyph-name="uni021B.dligy" horiz-adv-x="471" 
d="M254 -210q0 56 -25 97h144q27 -47 27 -109t-53 -128q-52 -65 -118 -90l-61 41q34 23 60 77q26 56 26 112zM606 819v-133h-289v-512q0 -68 56 -68q39 0 88 37v-143q-61 -31 -121 -31q-166 0 -166 195v522h-123l21 133h102v297l143 41v-338h289z" />
    <glyph glyph-name="t.dligz" horiz-adv-x="487" 
d="M657 819v-133h-340v-512q0 -68 56 -68q39 0 88 37v-143q-61 -31 -121 -31q-166 0 -166 195v522h-123l21 133h102v297l143 41v-338h340z" />
    <glyph glyph-name="tcommaaccent.dligz" horiz-adv-x="487" 
d="M254 -210q0 56 -25 97h144q27 -47 27 -109t-53 -128q-52 -65 -118 -90l-61 41q34 23 60 77q26 56 26 112zM657 819v-133h-340v-512q0 -68 56 -68q39 0 88 37v-143q-61 -31 -121 -31q-166 0 -166 195v522h-123l21 133h102v297l143 41v-338h340z" />
    <glyph glyph-name="uni021B.dligz" horiz-adv-x="487" 
d="M254 -210q0 56 -25 97h144q27 -47 27 -109t-53 -128q-52 -65 -118 -90l-61 41q34 23 60 77q26 56 26 112zM657 819v-133h-340v-512q0 -68 56 -68q39 0 88 37v-143q-61 -31 -121 -31q-166 0 -166 195v522h-123l21 133h102v297l143 41v-338h340z" />
    </font>
</defs>
</svg>
