<?xml version="1.0" encoding="UTF-8" standalone="no"?>
<svg width="40px" height="40px" viewBox="0 0 40 40" version="1.1" xmlns="http://www.w3.org/2000/svg" xmlns:xlink="http://www.w3.org/1999/xlink" xmlns:sketch="http://www.bohemiancoding.com/sketch/ns">
    <!-- Generator: Sketch 3.3.3 (12072) - http://www.bohemiancoding.com/sketch -->
    <title>Dribbble_hover</title>
    <desc>Created with Sketch.</desc>
    <defs></defs>
    <g id="DS-V2" stroke="none" stroke-width="1" fill="none" fill-rule="evenodd" sketch:type="MSPage">
        <g id="Dribbble_hover" sketch:type="MSArtboardGroup">
            <circle id="Oval-37-Copy-3" fill="#6B6B77" sketch:type="MSShapeGroup" cx="20" cy="20" r="20"></circle>
            <path d="M24.7727406,27.0827209 C24.6857176,26.5676995 24.2306109,24.0607913 23.1098959,20.9835969 C25.8675839,20.5426539 28.2560122,21.2987242 28.4324102,21.3563408 C28.0525666,23.7362573 26.6895984,25.7881122 24.7727406,27.0827209 L24.7727406,27.0827209 L24.7727406,27.0827209 Z M20.000588,28.5407725 C17.933204,28.5407725 16.037514,27.8058675 14.5592991,26.5829855 C14.6721938,26.6747016 14.7509849,26.7323182 14.7509849,26.7323182 C14.7509849,26.7323182 16.3879579,23.1624434 21.4529311,21.3974954 C21.4717469,21.3904404 21.4917387,21.385737 21.5105545,21.3798577 C22.7124125,24.5017344 23.2075028,27.1168205 23.3345093,27.863484 C22.3102252,28.2985478 21.1824543,28.5407725 20.000588,28.5407725 L20.000588,28.5407725 L20.000588,28.5407725 Z M11.4593991,19.9994121 C11.4593991,19.9088718 11.464103,19.8195073 11.466455,19.7301429 C11.6181572,19.7336704 15.8375963,19.8289141 20.2346093,18.5131401 C20.4792144,18.9917103 20.7132357,19.4796872 20.9272652,19.9653125 C20.8143706,19.9958845 20.7026518,20.0299841 20.5909331,20.0676113 C15.9822426,21.5562349 13.6443817,25.7022753 13.6443817,25.7022753 C13.6443817,25.7022753 13.6479097,25.7058028 13.6479097,25.7069787 C12.2872935,24.1936622 11.4593991,22.1935446 11.4593991,19.9994121 L11.4593991,19.9994121 L11.4593991,19.9994121 Z M16.3562063,12.2776177 C16.4702769,12.4293021 18.0496266,14.5705215 19.5278415,17.1973661 C15.427177,18.2873773 11.8674663,18.2438709 11.6428529,18.2403433 C12.1967425,15.5946852 13.9736579,13.4017285 16.3562063,12.2776177 L16.3562063,12.2776177 L16.3562063,12.2776177 Z M17.9543717,11.7085073 C17.9543717,11.7096831 17.9531957,11.710859 17.9531957,11.710859 C17.9531957,11.710859 17.9426119,11.7132107 17.927324,11.7155623 C17.9367319,11.7132107 17.9449638,11.7120348 17.9543717,11.7085073 L17.9543717,11.7085073 L17.9543717,11.7085073 Z M25.6406186,13.5922159 C25.6194508,13.6239638 24.4034809,15.4759245 21.1789263,16.6835205 C19.7195273,14.001411 18.1154819,11.8707743 17.9872993,11.7014522 C18.6329159,11.5450644 19.306756,11.4604033 20.000588,11.4604033 C22.1620509,11.4604033 24.136532,12.2670351 25.6406186,13.5922159 L25.6406186,13.5922159 L25.6406186,13.5922159 Z M28.538249,19.914751 C28.4147704,19.8877065 25.5241959,19.2656829 22.59011,19.6348992 C22.5289587,19.489094 22.4689834,19.342113 22.4054801,19.195132 C22.2279062,18.7765301 22.0362204,18.3626315 21.8374787,17.9557881 C25.2102076,16.57887 26.5790557,14.5999177 26.5955195,14.5764007 C27.7926736,16.0309248 28.5182572,17.8887648 28.538249,19.914751 L28.538249,19.914751 L28.538249,19.914751 Z M29.7977303,17.987536 C29.6660199,17.345523 29.4684542,16.7117408 29.2132651,16.1073549 C28.963956,15.5147275 28.6523196,14.9432653 28.2912918,14.4094303 C27.934968,13.8802987 27.5233727,13.3817391 27.071794,12.9302134 C26.6190392,12.4775119 26.121597,12.0671409 25.5912271,11.7096831 C25.0573293,11.3475219 24.4858,11.0382739 23.8931028,10.7866424 C23.2886459,10.5326592 22.6559652,10.3351167 22.0138766,10.2045976 C21.3553243,10.069375 20.6779561,10 20.000588,10 C19.3220439,10 18.6446757,10.069375 17.9861234,10.2045976 C17.3440348,10.3351167 16.7113541,10.5326592 16.1068972,10.7866424 C15.5142,11.0382739 14.9426707,11.3475219 14.4075969,11.7096831 C13.878403,12.0671409 13.3809608,12.4775119 12.928206,12.9302134 C12.4766273,13.3817391 12.066208,13.8802987 11.7087082,14.4094303 C11.3476804,14.9432653 11.036044,15.5147275 10.7867349,16.1073549 C10.5303698,16.7117408 10.3339801,17.345523 10.2022697,17.987536 C10.0682072,18.6448351 10,19.3221236 10,19.9994121 C10,20.6790523 10.0682072,21.3563408 10.2022697,22.0148157 C10.3339801,22.6568287 10.5303698,23.289435 10.7867349,23.8926451 C11.036044,24.4852725 11.3476804,25.0590864 11.7087082,25.5929214 C12.066208,26.122053 12.4766273,26.6182609 12.928206,27.0721383 C13.3809608,27.5236639 13.878403,27.9328591 14.4075969,28.2914927 C14.9426707,28.6524781 15.5142,28.962902 16.1068972,29.2133576 C16.7113541,29.4696925 17.3440348,29.6648833 17.9861234,29.7954024 C18.6446757,29.9318008 19.3220439,30 20.000588,30 C20.6779561,30 21.3553243,29.9318008 22.0138766,29.7954024 C22.6559652,29.6648833 23.2886459,29.4696925 23.8931028,29.2133576 C24.4858,28.962902 25.0573293,28.6524781 25.5912271,28.2914927 C26.121597,27.9328591 26.6190392,27.5236639 27.071794,27.0721383 C27.5233727,26.6182609 27.934968,26.122053 28.2912918,25.5929214 C28.6523196,25.0590864 28.963956,24.4852725 29.2132651,23.8926451 C29.4684542,23.289435 29.6660199,22.6568287 29.7977303,22.0148157 C29.9317928,21.3563408 30,20.6790523 30,19.9994121 C30,19.3221236 29.9317928,18.6448351 29.7977303,17.987536 L29.7977303,17.987536 L29.7977303,17.987536 Z" id="Dribbble" fill="#F3F3F3" sketch:type="MSShapeGroup"></path>
        </g>
    </g>
</svg>