# OBJ written from /Users/Stritar/Desktop/model/planet.obj
# Units	meters

o Mesh
v 0 -0.777219 0
v 0 -0.721577 -0.304705
v -0.300068 -0.675209 -0.300068
v -0.536104 -0.536104 -0.286158
v 0 -0.554652 -0.554652
v -0.286158 -0.536104 -0.536104
v -0.480462 -0.480462 -0.480462
v 0.304705 -0.721577 0
v 0.300068 -0.675209 -0.300068
v 0.286158 -0.536104 -0.536104
v 0.554652 -0.554652 0
v 0.536104 -0.536104 -0.286158
v 0.480462 -0.480462 -0.480462
v 0 -0.721577 0.304705
v 0.300068 -0.675209 0.300068
v 0.536104 -0.536104 0.286158
v 0 -0.554652 0.554652
v 0.286158 -0.536104 0.536104
v 0.480462 -0.480462 0.480462
v -0.304705 -0.721577 0
v -0.300068 -0.675209 0.300068
v -0.286158 -0.536104 0.536104
v -0.554652 -0.554652 0
v -0.536104 -0.536104 0.286158
v -0.480462 -0.480462 0.480462
v 0 0 -0.777219
v 0 0.304705 -0.721577
v -0.300068 0.300068 -0.675209
v -0.536104 0.286158 -0.536104
v 0 0.554652 -0.554652
v -0.286158 0.536104 -0.536104
v -0.480462 0.480462 -0.480462
v 0.304705 0 -0.721577
v 0.300068 0.300068 -0.675209
v 0.286158 0.536104 -0.536104
v 0.554652 0 -0.554652
v 0.536104 0.286158 -0.536104
v 0.480462 0.480462 -0.480462
v 0 -0.304705 -0.721577
v 0.300068 -0.300068 -0.675209
v 0.536104 -0.286158 -0.536104
v -0.304705 0 -0.721577
v -0.300068 -0.300068 -0.675209
v -0.554652 0 -0.554652
v -0.536104 -0.286158 -0.536104
v 0.777219 0 0
v 0.721577 0.304705 0
v 0.675209 0.300068 -0.300068
v 0.554652 0.554652 0
v 0.536104 0.536104 -0.286158
v 0.721577 0 0.304705
v 0.675209 0.300068 0.300068
v 0.536104 0.536104 0.286158
v 0.554652 0 0.554652
v 0.536104 0.286158 0.536104
v 0.480462 0.480462 0.480462
v 0.721577 -0.304705 0
v 0.675209 -0.300068 0.300068
v 0.536104 -0.286158 0.536104
v 0.721577 0 -0.304705
v 0.675209 -0.300068 -0.300068
v 0 0 0.777219
v 0 0.304705 0.721577
v 0.300068 0.300068 0.675209
v 0 0.554652 0.554652
v 0.286158 0.536104 0.536104
v -0.304705 0 0.721577
v -0.300068 0.300068 0.675209
v -0.286158 0.536104 0.536104
v -0.554652 0 0.554652
v -0.536104 0.286158 0.536104
v -0.480462 0.480462 0.480462
v 0 -0.304705 0.721577
v -0.300068 -0.300068 0.675209
v -0.536104 -0.286158 0.536104
v 0.304705 0 0.721577
v 0.300068 -0.300068 0.675209
v -0.777219 0 0
v -0.721577 0.304705 0
v -0.675209 0.300068 0.300068
v -0.554652 0.554652 0
v -0.536104 0.536104 0.286158
v -0.721577 0 -0.304705
v -0.675209 0.300068 -0.300068
v -0.536104 0.536104 -0.286158
v -0.721577 -0.304705 0
v -0.675209 -0.300068 -0.300068
v -0.721577 0 0.304705
v -0.675209 -0.300068 0.300068
v 0 0.777219 0
v -0.304705 0.721577 0
v -0.300068 0.675209 -0.300068
v 0 0.721577 0.304705
v -0.300068 0.675209 0.300068
v 0.304705 0.721577 0
v 0.300068 0.675209 0.300068
v 0 0.721577 -0.304705
v 0.300068 0.675209 -0.300068
vn 0 -1 0
vn -0.375928 -0.926649 0
vn -0.345365 -0.872609 -0.345365
vn 0 -0.926649 -0.375928
vn -0.707107 -0.707107 0
vn -0.671499 -0.671499 -0.313332
vn -0.313332 -0.671499 -0.671499
vn 0 -0.707107 -0.707107
vn -0.57735 -0.57735 -0.57735
vn 0.345365 -0.872609 -0.345365
vn 0.375928 -0.926649 0
vn 0.313332 -0.671499 -0.671499
vn 0.671499 -0.671499 -0.313332
vn 0.707107 -0.707107 0
vn 0.57735 -0.57735 -0.57735
vn 0.345365 -0.872609 0.345365
vn 0 -0.926649 0.375928
vn 0.671499 -0.671499 0.313332
vn 0.313332 -0.671499 0.671499
vn 0 -0.707107 0.707107
vn 0.57735 -0.57735 0.57735
vn -0.345365 -0.872609 0.345365
vn -0.313332 -0.671499 0.671499
vn -0.671499 -0.671499 0.313332
vn -0.57735 -0.57735 0.57735
vn 0 0 -1
vn -0.375928 0 -0.926649
vn -0.345365 0.345365 -0.872609
vn 0 0.375928 -0.926649
vn -0.707107 0 -0.707107
vn -0.671499 0.313332 -0.671499
vn -0.313332 0.671499 -0.671499
vn 0 0.707107 -0.707107
vn -0.57735 0.57735 -0.57735
vn 0.345365 0.345365 -0.872609
vn 0.375928 0 -0.926649
vn 0.313332 0.671499 -0.671499
vn 0.671499 0.313332 -0.671499
vn 0.707107 0 -0.707107
vn 0.57735 0.57735 -0.57735
vn 0.345365 -0.345365 -0.872609
vn 0 -0.375928 -0.926649
vn 0.671499 -0.313332 -0.671499
vn -0.345365 -0.345365 -0.872609
vn -0.671499 -0.313332 -0.671499
vn 1 0 0
vn 0.926649 0 -0.375928
vn 0.872609 0.345365 -0.345365
vn 0.926649 0.375928 0
vn 0.671499 0.671499 -0.313332
vn 0.707107 0.707107 0
vn 0.872609 0.345365 0.345365
vn 0.926649 0 0.375928
vn 0.671499 0.671499 0.313332
vn 0.671499 0.313332 0.671499
vn 0.707107 0 0.707107
vn 0.57735 0.57735 0.57735
vn 0.872609 -0.345365 0.345365
vn 0.926649 -0.375928 0
vn 0.671499 -0.313332 0.671499
vn 0.872609 -0.345365 -0.345365
vn 0 0 1
vn 0.375928 0 0.926649
vn 0.345365 0.345365 0.872609
vn 0 0.375928 0.926649
vn 0.313332 0.671499 0.671499
vn 0 0.707107 0.707107
vn -0.345365 0.345365 0.872609
vn -0.375928 0 0.926649
vn -0.313332 0.671499 0.671499
vn -0.671499 0.313332 0.671499
vn -0.707107 0 0.707107
vn -0.57735 0.57735 0.57735
vn -0.345365 -0.345365 0.872609
vn 0 -0.375928 0.926649
vn -0.671499 -0.313332 0.671499
vn 0.345365 -0.345365 0.872609
vn -1 0 0
vn -0.926649 0 0.375928
vn -0.872609 0.345365 0.345365
vn -0.926649 0.375928 0
vn -0.671499 0.671499 0.313332
vn -0.707107 0.707107 0
vn -0.872609 0.345365 -0.345365
vn -0.926649 0 -0.375928
vn -0.671499 0.671499 -0.313332
vn -0.872609 -0.345365 -0.345365
vn -0.926649 -0.375928 0
vn -0.872609 -0.345365 0.345365
vn 0 1 0
vn 0 0.926649 -0.375928
vn -0.345365 0.872609 -0.345365
vn -0.375928 0.926649 0
vn -0.345365 0.872609 0.345365
vn 0 0.926649 0.375928
vn 0.345365 0.872609 0.345365
vn 0.375928 0.926649 0
vn 0.345365 0.872609 -0.345365
vt 0.833333 0.165297
vt 0.78733 0.211274
vt 0.740372 0.165297
vt 0.78733 0.11932
vt 0.739711 0.259136
vt 0.694351 0.207957
vt 0.694351 0.122637
vt 0.739711 0.0714582
vt 0.666667 0.165297
vt 0.833333 0.0726558
vt 0.879337 0.11932
vt 0.791128 0.0269218
vt 0.875539 0.0269217
vt 0.926955 0.0714582
vt 0.833333 0
vt 0.926295 0.165297
vt 0.879337 0.211274
vt 0.972316 0.122637
vt 0.972316 0.207957
vt 0.926956 0.259136
vt 1 0.165297
vt 0.833334 0.257939
vt 0.875539 0.303673
vt 0.791128 0.303673
vt 0.833334 0.330595
vt 0.200338 0.399514
vt 0.150464 0.351683
vt 0.202206 0.331868
vt 0.23699 0.365273
vt 0.103075 0.296094
vt 0.182285 0.296094
vt 0.238726 0.315465
vt 0.267468 0.339512
vt 0.219912 0.296095
vt 0.279698 0.388721
vt 0.259214 0.431732
vt 0.298652 0.360241
vt 0.322694 0.398032
vt 0.322694 0.443387
vt 0.322694 0.372838
vt 0.237592 0.496385
vt 0.154682 0.449368
vt 0.322694 0.510012
vt 0.212511 0.592189
vt 0.0839021 0.52899
vt 0.322694 0.586242
vt 0.0936735 0.376235
vt 0.00420445 0.40881
vt 0.0676937 0.296095
vt 0 0.296095
vt 0.44505 0.399514
vt 0.386174 0.431732
vt 0.36569 0.388721
vt 0.408398 0.365273
vt 0.346736 0.360241
vt 0.37792 0.339512
vt 0.443182 0.331868
vt 0.494923 0.351683
vt 0.406662 0.315465
vt 0.463103 0.296094
vt 0.542312 0.296094
vt 0.425476 0.296095
vt 0.551714 0.376235
vt 0.490705 0.449368
vt 0.577694 0.296095
vt 0.641183 0.408809
vt 0.561486 0.52899
vt 0.645387 0.296095
vt 0.407796 0.496385
vt 0.432877 0.592189
vt 0.44505 0.192675
vt 0.494923 0.240506
vt 0.443182 0.260322
vt 0.408398 0.226917
vt 0.406662 0.276724
vt 0.37792 0.252678
vt 0.36569 0.203468
vt 0.386174 0.160457
vt 0.346736 0.231949
vt 0.322694 0.194157
vt 0.322694 0.148803
vt 0.322694 0.219352
vt 0.407796 0.0958037
vt 0.490705 0.142821
vt 0.322694 0.0821772
vt 0.432877 3.09613e-07
vt 0.561485 0.0631989
vt 0.322694 0.00594728
vt 0.551714 0.215954
vt 0.641183 0.18338
vt 0.200337 0.192675
vt 0.259214 0.160457
vt 0.279698 0.203468
vt 0.236989 0.226916
vt 0.298652 0.231949
vt 0.267468 0.252677
vt 0.202206 0.260321
vt 0.150464 0.240506
vt 0.238726 0.276724
vt 0.0936735 0.215954
vt 0.154682 0.142821
vt 0.00420441 0.18338
vt 0.0839019 0.0631986
vt 0.237591 0.0958035
vt 0.212511 0
vt 0.322694 0.296095
vt 0.295272 0.317385
vt 0.266714 0.296095
vt 0.295272 0.274805
vt 0.322694 0.253161
vt 0.350116 0.274805
vt 0.378675 0.296095
vt 0.350116 0.317385
vt 0.322694 0.339028
mtllib planet.mtl
usemtl planet
g Default
f 1/1/1 20/2/2 3/3/3 2/4/4
f 20/2/2 23/5/5 4/6/6 3/3/3
f 2/4/4 3/3/3 6/7/7 5/8/8
f 3/3/3 4/6/6 7/9/9 6/7/7
f 1/1/1 2/4/4 9/10/10 8/11/11
f 2/4/4 5/8/8 10/12/12 9/10/10
f 8/11/11 9/10/10 12/13/13 11/14/14
f 9/10/10 10/12/12 13/15/15 12/13/13
f 1/1/1 8/11/11 15/16/16 14/17/17
f 8/11/11 11/14/14 16/18/18 15/16/16
f 14/17/17 15/16/16 18/19/19 17/20/20
f 15/16/16 16/18/18 19/21/21 18/19/19
f 1/1/1 14/17/17 21/22/22 20/2/2
f 14/17/17 17/20/20 22/23/23 21/22/22
f 20/2/2 21/22/22 24/24/24 23/5/5
f 21/22/22 22/23/23 25/25/25 24/24/24
f 26/26/26 42/27/27 28/28/28 27/29/29
f 42/27/27 44/30/30 29/31/31 28/28/28
f 27/29/29 28/28/28 31/32/32 30/33/33
f 28/28/28 29/31/31 32/34/34 31/32/32
f 26/26/26 27/29/29 34/35/35 33/36/36
f 27/29/29 30/33/33 35/37/37 34/35/35
f 33/36/36 34/35/35 37/38/38 36/39/39
f 34/35/35 35/37/37 38/40/40 37/38/38
f 26/26/26 33/36/36 40/41/41 39/42/42
f 33/36/36 36/39/39 41/43/43 40/41/41
f 39/42/42 40/41/41 10/44/12 5/45/8
f 40/41/41 41/43/43 13/46/15 10/44/12
f 26/26/26 39/42/42 43/47/44 42/27/27
f 39/42/42 5/45/8 6/48/7 43/47/44
f 42/27/27 43/47/44 45/49/45 44/30/30
f 43/47/44 6/48/7 7/50/9 45/49/45
f 46/51/46 60/52/47 48/53/48 47/54/49
f 60/52/47 36/39/39 37/38/38 48/53/48
f 47/54/49 48/53/48 50/55/50 49/56/51
f 48/53/48 37/38/38 38/40/40 50/55/50
f 46/51/46 47/54/49 52/57/52 51/58/53
f 47/54/49 49/56/51 53/59/54 52/57/52
f 51/58/53 52/57/52 55/60/55 54/61/56
f 52/57/52 53/59/54 56/62/57 55/60/55
f 46/51/46 51/58/53 58/63/58 57/64/59
f 51/58/53 54/61/56 59/65/60 58/63/58
f 57/64/59 58/63/58 16/66/18 11/67/14
f 58/63/58 59/65/60 19/68/21 16/66/18
f 46/51/46 57/64/59 61/69/61 60/52/47
f 57/64/59 11/67/14 12/70/13 61/69/61
f 60/52/47 61/69/61 41/43/43 36/39/39
f 61/69/61 12/70/13 13/46/15 41/43/43
f 62/71/62 76/72/63 64/73/64 63/74/65
f 76/72/63 54/61/56 55/60/55 64/73/64
f 63/74/65 64/73/64 66/75/66 65/76/67
f 64/73/64 55/60/55 56/62/57 66/75/66
f 62/71/62 63/74/65 68/77/68 67/78/69
f 63/74/65 65/76/67 69/79/70 68/77/68
f 67/78/69 68/77/68 71/80/71 70/81/72
f 68/77/68 69/79/70 72/82/73 71/80/71
f 62/71/62 67/78/69 74/83/74 73/84/75
f 67/78/69 70/81/72 75/85/76 74/83/74
f 73/84/75 74/83/74 22/86/23 17/87/20
f 74/83/74 75/85/76 25/88/25 22/86/23
f 62/71/62 73/84/75 77/89/77 76/72/63
f 73/84/75 17/87/20 18/90/19 77/89/77
f 76/72/63 77/89/77 59/65/60 54/61/56
f 77/89/77 18/90/19 19/68/21 59/65/60
f 78/91/78 88/92/79 80/93/80 79/94/81
f 88/92/79 70/81/72 71/80/71 80/93/80
f 79/94/81 80/93/80 82/95/82 81/96/83
f 80/93/80 71/80/71 72/82/73 82/95/82
f 78/91/78 79/94/81 84/97/84 83/98/85
f 79/94/81 81/96/83 85/99/86 84/97/84
f 83/98/85 84/97/84 29/31/31 44/30/30
f 84/97/84 85/99/86 32/34/34 29/31/31
f 78/91/78 83/98/85 87/100/87 86/101/88
f 83/98/85 44/30/30 45/49/45 87/100/87
f 86/101/88 87/100/87 4/102/6 23/103/5
f 87/100/87 45/49/45 7/50/9 4/102/6
f 78/91/78 86/101/88 89/104/89 88/92/79
f 86/101/88 23/103/5 24/105/24 89/104/89
f 88/92/79 89/104/89 75/85/76 70/81/72
f 89/104/89 24/105/24 25/88/25 75/85/76
f 90/106/90 97/107/91 92/108/92 91/109/93
f 97/107/91 30/33/33 31/32/32 92/108/92
f 91/109/93 92/108/92 85/99/86 81/96/83
f 92/108/92 31/32/32 32/34/34 85/99/86
f 90/106/90 91/109/93 94/110/94 93/111/95
f 91/109/93 81/96/83 82/95/82 94/110/94
f 93/111/95 94/110/94 69/79/70 65/76/67
f 94/110/94 82/95/82 72/82/73 69/79/70
f 90/106/90 93/111/95 96/112/96 95/113/97
f 93/111/95 65/76/67 66/75/66 96/112/96
f 95/113/97 96/112/96 53/59/54 49/56/51
f 96/112/96 66/75/66 56/62/57 53/59/54
f 90/106/90 95/113/97 98/114/98 97/107/91
f 95/113/97 49/56/51 50/55/50 98/114/98
f 97/107/91 98/114/98 35/37/37 30/33/33
f 98/114/98 50/55/50 38/40/40 35/37/37
