<?xml version="1.0" encoding="UTF-8" standalone="no"?>
<svg width="15px" height="15px" viewBox="0 0 15 15" version="1.1" xmlns="http://www.w3.org/2000/svg" xmlns:xlink="http://www.w3.org/1999/xlink" xmlns:sketch="http://www.bohemiancoding.com/sketch/ns">
    <!-- Generator: Sketch 3.0.4 (8054) - http://www.bohemiancoding.com/sketch -->
    <title>UI/Icons/Search_menu</title>
    <desc>Created with Sketch.</desc>
    <defs></defs>
    <g id="WEBSITE" stroke="none" stroke-width="1" fill="none" fill-rule="evenodd" sketch:type="MSPage">
        <g id="config/table/menu" sketch:type="MSArtboardGroup" transform="translate(-572.000000, -192.000000)" stroke="#FFFFFF" stroke-width="2">
            <g id="Group" sketch:type="MSLayerGroup" transform="translate(548.000000, 0.000000)">
                <g id="UI/Icons/Search_menu" transform="translate(30.500000, 199.500000) rotate(-30.000000) translate(-30.500000, -199.500000) translate(22.000000, 192.000000)" sketch:type="MSShapeGroup">
                    <path d="M10.25,10.8599548 C12.5585048,10.2070259 14.25,8.08454155 14.25,5.5669873 C14.25,2.52942117 11.7875661,0.0669872981 8.75,0.0669872981 C5.71243388,0.0669872981 3.25,2.52942117 3.25,5.5669873 C3.25,8.08454155 4.9414952,10.2070259 7.25,10.8599548 L7.25,14.5346779 C7.25,15.0888961 7.69266033,15.5381787 8.24895656,15.5381787 L9.25104344,15.5381787 C9.80275191,15.5381787 10.25,15.0904481 10.25,14.5346779 L10.25,10.8599548 Z" id="Rectangle-7" transform="translate(8.750000, 7.566987) rotate(-285.000000) translate(-8.750000, -7.566987) "></path>
                </g>
            </g>
        </g>
    </g>
</svg>