<?xml version="1.0" encoding="UTF-8" standalone="no"?>
<svg width="30px" height="30px" viewBox="0 0 30 30" version="1.1" xmlns="http://www.w3.org/2000/svg" xmlns:xlink="http://www.w3.org/1999/xlink" xmlns:sketch="http://www.bohemiancoding.com/sketch/ns">
    <!-- Generator: Sketch 3.0.4 (8054) - http://www.bohemiancoding.com/sketch -->
    <title>UI/Icons/Insta_footer_hover&amp;click</title>
    <desc>Created with Sketch.</desc>
    <defs></defs>
    <g id="UI" stroke="none" stroke-width="1" fill="none" fill-rule="evenodd" sketch:type="MSPage">
        <g id="UI-Elements" sketch:type="MSArtboardGroup" transform="translate(-215.000000, -65.000000)">
            <g id="UI/Icons/Insta_footer_hover&amp;click" sketch:type="MSLayerGroup" transform="translate(215.000000, 65.000000)">
                <circle id="UI/Icons/Instagram_footer" fill="#4B4B4B" sketch:type="MSShapeGroup" cx="15" cy="15" r="15"></circle>
                <path d="M20.2972807,13.8804912 L19.0871404,13.8804912 C19.1753158,14.2227544 19.227386,14.5803684 19.227386,14.9501404 C19.227386,17.3127018 17.3125789,19.227386 14.950386,19.227386 C12.5883158,19.227386 10.673386,17.3127018 10.673386,14.9501404 C10.673386,14.5803684 10.7257018,14.2227544 10.8138772,13.8804912 L9.60361404,13.8804912 L9.60361404,19.7620877 C9.60361404,20.0569474 9.84308772,20.2962982 10.138807,20.2962982 L19.7620877,20.2962982 C20.057807,20.2962982 20.2972807,20.0569474 20.2972807,19.7620877 L20.2972807,13.8804912 L20.2972807,13.8804912 Z M20.2972807,10.138193 C20.2972807,9.84308772 20.057807,9.60361404 19.7620877,9.60361404 L18.1584737,9.60361404 C17.8631228,9.60361404 17.6238947,9.84308772 17.6238947,10.138193 L17.6238947,11.7424211 C17.6238947,12.0375263 17.8631228,12.277 18.1584737,12.277 L19.7620877,12.277 C20.057807,12.277 20.2972807,12.0375263 20.2972807,11.7424211 L20.2972807,10.138193 L20.2972807,10.138193 Z M14.950386,12.277 C13.4738772,12.277 12.2771228,13.4736316 12.2771228,14.9501404 C12.2771228,16.4264035 13.4738772,17.6236491 14.950386,17.6236491 C16.4268947,17.6236491 17.6238947,16.4264035 17.6238947,14.9501404 C17.6238947,13.4736316 16.4268947,12.277 14.950386,12.277 L14.950386,12.277 Z M20.2972807,21.9007719 L9.60361404,21.9007719 C8.71805263,21.9007719 8,21.1824737 8,20.2962982 L8,9.60361404 C8,8.71792982 8.71805263,8 9.60361404,8 L20.2972807,8 C21.1829649,8 21.9008947,8.71792982 21.9008947,9.60361404 L21.9008947,20.2962982 C21.9008947,21.1824737 21.1829649,21.9007719 20.2972807,21.9007719 L20.2972807,21.9007719 Z" id="Imported-Layers" fill="#EEEEEE" sketch:type="MSShapeGroup"></path>
            </g>
        </g>
    </g>
</svg>