<?xml version="1.0" encoding="UTF-8" standalone="no"?>
<svg width="14px" height="14px" viewBox="0 0 14 14" version="1.1" xmlns="http://www.w3.org/2000/svg" xmlns:xlink="http://www.w3.org/1999/xlink" xmlns:sketch="http://www.bohemiancoding.com/sketch/ns">
    <!-- Generator: Sketch 3.0.4 (8054) - http://www.bohemiancoding.com/sketch -->
    <title>UI/Icons/Phone</title>
    <desc>Created with Sketch.</desc>
    <defs></defs>
    <g id="UI" stroke="none" stroke-width="1" fill="none" fill-rule="evenodd" sketch:type="MSPage">
        <g id="UI-Elements" sketch:type="MSArtboardGroup" transform="translate(-96.000000, -133.000000)" fill="#656565">
            <g id="UI/Icons/Phone" sketch:type="MSLayerGroup" transform="translate(94.000000, 133.000000)">
                <path d="M8.90741964,11.0395664 C8.44011064,10.4181485 8,9.44841665 8,8 C8,6.55158335 8.44011064,5.5818515 8.90741964,4.96043363 L8.90741964,4.96043363 C9.21642198,4.98873544 9.51981883,5 9.8,5 C11.3463973,5 10.9873047,4.15685425 10.9873047,2.5 C10.9873047,0.843145751 11.3463973,0 9.8,0 C8.54322421,0 6.81933859,0.887149038 6.21769636,2.10884818 L6,2 C6,2 5,4.93920898 5,8 C5,11.060791 6,14 6,14 L6.21769636,13.8911518 C6.81933859,15.112851 8.54322421,16 9.8,16 C11.3463973,16 11.2470703,15.1568542 11.2470703,13.5 C11.2470703,11.8431458 11.3463973,11 9.8,11 C9.51981883,11 9.21642198,11.0112646 8.90741964,11.0395664 Z" id="Rectangle-11" sketch:type="MSShapeGroup" transform="translate(8.000000, 8.000000) rotate(-45.000000) translate(-8.000000, -8.000000) "></path>
            </g>
        </g>
    </g>
</svg>