<?xml version="1.0" encoding="UTF-8" standalone="no"?>
<svg width="30px" height="30px" viewBox="0 0 30 30" version="1.1" xmlns="http://www.w3.org/2000/svg" xmlns:xlink="http://www.w3.org/1999/xlink" xmlns:sketch="http://www.bohemiancoding.com/sketch/ns">
    <!-- Generator: Sketch 3.0.4 (8054) - http://www.bohemiancoding.com/sketch -->
    <title>UI/Icons/Twitter_footer_hover&amp;click</title>
    <desc>Created with Sketch.</desc>
    <defs></defs>
    <g id="UI" stroke="none" stroke-width="1" fill="none" fill-rule="evenodd" sketch:type="MSPage">
        <g id="UI-Elements" sketch:type="MSArtboardGroup" transform="translate(-173.000000, -65.000000)" fill="#4B4B4B">
            <g id="UI/Icons/Twitter_footer_hover&amp;click" sketch:type="MSLayerGroup" transform="translate(173.000000, 65.000000)">
                <path d="M15,30 C23.2842712,30 30,23.2842712 30,15 C30,6.71572875 23.2842712,0 15,0 C6.71572875,0 0,6.71572875 0,15 C0,23.2842712 6.71572875,30 15,30 Z M12.5808408,20.299063 C11.0699097,20.299063 9.66353941,19.8561586 8.47950372,19.097044 C8.68881597,19.1217531 8.9018012,19.1343939 9.11774389,19.1343939 C10.3712323,19.1343939 11.5248824,18.7066585 12.440552,17.9890915 C11.2697772,17.9674829 10.2816974,17.1939625 9.94125498,16.1309921 C10.1045834,16.1622363 10.2722049,16.1789794 10.4445966,16.1789794 C10.6886352,16.1789794 10.9249939,16.1463042 11.1495228,16.0851514 C9.92551363,15.8393955 9.00330905,14.7580125 9.00330905,13.4616885 C9.00330905,13.4504311 9.00330905,13.4392213 9.00349985,13.4280593 C9.36426297,13.6284514 9.77678172,13.7488012 10.215393,13.7626822 C9.49749202,13.282905 9.02510843,12.4639732 9.02510843,11.5357583 C9.02510843,11.0454391 9.15704956,10.5858394 9.38735028,10.1906838 C10.7069524,11.8093716 12.6783895,12.8745362 14.902022,12.986109 C14.8564198,12.7902961 14.8327124,12.5860879 14.8327124,12.376394 C14.8327124,10.8988537 16.0306768,9.70093704 17.5083125,9.70093704 C18.277826,9.70093704 18.9731643,10.0258767 19.4612416,10.5458659 C20.0706703,10.42585 20.6432738,10.2031815 21.1602102,9.89660679 C20.9604381,10.5213476 20.5362326,11.0456776 19.9838067,11.3768184 C20.5250229,11.3121357 21.0406713,11.168317 21.5204963,10.9555226 C21.1617843,11.4920641 20.7081472,11.9633029 20.185439,12.3405228 C20.1905908,12.4552439 20.1931666,12.5706328 20.1931666,12.6866417 C20.1931666,16.2221965 17.5020637,20.299063 12.5808408,20.299063 Z" id="UI/Icons/Twitter_footer" sketch:type="MSShapeGroup"></path>
            </g>
        </g>
    </g>
</svg>