<?xml version="1.0" encoding="UTF-8" standalone="no"?>
<svg width="40px" height="40px" viewBox="0 0 40 40" version="1.1" xmlns="http://www.w3.org/2000/svg" xmlns:xlink="http://www.w3.org/1999/xlink" xmlns:sketch="http://www.bohemiancoding.com/sketch/ns">
    <!-- Generator: Sketch 3.3.3 (12072) - http://www.bohemiancoding.com/sketch -->
    <title>CodePen_hover</title>
    <desc>Created with Sketch.</desc>
    <defs></defs>
    <g id="DS-V2" stroke="none" stroke-width="1" fill="none" fill-rule="evenodd" sketch:type="MSPage">
        <g id="CodePen_hover" sketch:type="MSArtboardGroup" fill="#6B6B77">
            <path d="M9.78491139,18.1998312 L9.78491139,21.7501266 L12.4389198,19.9750211 L9.78491139,18.1998312 Z" id="Fill-1" sketch:type="MSShapeGroup"></path>
            <path d="M18.9453502,15.6228186 L18.9453502,10.675308 L10.634211,16.2156456 L14.3467848,18.6991899 L18.9453502,15.6228186 Z" id="Fill-2" sketch:type="MSShapeGroup"></path>
            <path d="M29.378135,16.2156371 L21.0669114,10.6752996 L21.0669114,15.6228101 L25.6658143,18.6991814 L29.378135,16.2156371 Z" id="Fill-3" sketch:type="MSShapeGroup"></path>
            <path d="M10.6341857,23.734346 L18.9453249,29.2746835 L18.9453249,24.3270886 L14.3468439,21.2514768 L10.6341857,23.734346 Z" id="Fill-4" sketch:type="MSShapeGroup"></path>
            <path d="M21.0668861,24.3271224 L21.0668861,29.2747173 L29.3781097,23.7343797 L25.665789,21.2515105 L21.0668861,24.3271224 Z" id="Fill-5" sketch:type="MSShapeGroup"></path>
            <path d="M20.0060169,17.4655105 L16.2543713,19.974962 L20.0060169,22.4844979 L23.7579156,19.974962 L20.0060169,17.4655105 Z" id="Fill-6" sketch:type="MSShapeGroup"></path>
            <g id="Group-11" sketch:type="MSLayerGroup">
                <path d="M32.348616,23.7356624 C32.348616,23.7824135 32.3453249,23.8284895 32.3391646,23.8745654 C32.3368861,23.8895021 32.3332574,23.9051139 32.3307257,23.9200506 C32.3252405,23.9499241 32.3200084,23.9797975 32.3121603,24.0089958 C32.3076878,24.0265485 32.3011899,24.0433418 32.2956203,24.0603038 C32.2871814,24.086211 32.278827,24.1122869 32.2684473,24.1382785 C32.2612743,24.1557468 32.2524135,24.1726245 32.2447342,24.1895021 C32.2333418,24.2135527 32.2216118,24.2368439 32.2087004,24.2603038 C32.1991646,24.2765063 32.1885316,24.2927932 32.1784051,24.3089958 C32.1641435,24.3311055 32.1496287,24.3525401 32.1336793,24.3732996 C32.1219494,24.3895021 32.1099662,24.4044388 32.0970549,24.4193755 C32.0804304,24.4387848 32.0628776,24.4582785 32.0443966,24.4764219 C32.0303882,24.4907679 32.0167173,24.5050295 32.0022025,24.5180253 C31.9830464,24.5355781 31.9626245,24.5524557 31.941865,24.5686582 C31.9261688,24.5810633 31.9106414,24.593384 31.8940169,24.6050295 C31.8879409,24.6089958 31.8824557,24.6141435 31.876211,24.6180253 L20.5946076,32.1393755 C20.4163797,32.2581941 20.2114852,32.3178565 20.006,32.3178565 C19.8011899,32.3178565 19.5959578,32.2581941 19.41773,32.1393755 L8.13578903,24.6180253 C8.12988186,24.6141435 8.12439662,24.6089958 8.11857384,24.6050295 C8.10194937,24.593384 8.08608439,24.5810633 8.07047257,24.5686582 C8.04971308,24.5524557 8.0295443,24.5355781 8.01038819,24.5180253 C7.99578903,24.5050295 7.98186498,24.4907679 7.96785654,24.4764219 C7.94937553,24.4582785 7.93224473,24.4387848 7.91494515,24.4193755 C7.90262447,24.4044388 7.8903038,24.3895021 7.87865823,24.3732996 C7.86304641,24.3525401 7.8481097,24.3311055 7.83410127,24.3089958 C7.82338397,24.2927932 7.81334177,24.2765063 7.80363713,24.2603038 C7.79064135,24.2368439 7.77899578,24.2135527 7.76760338,24.1895021 C7.75950211,24.1726245 7.75131646,24.1557468 7.7438903,24.1382785 C7.73351055,24.1122869 7.72473418,24.086211 7.71663291,24.0603038 C7.71081013,24.0433418 7.70498734,24.0265485 7.70009283,24.0089958 C7.69224473,23.9797975 7.68709705,23.9499241 7.68152743,23.9200506 C7.67899578,23.9051139 7.67511392,23.8895021 7.67308861,23.8745654 C7.66692827,23.8284895 7.66338397,23.7824135 7.66338397,23.7356624 L7.66338397,16.2143122 C7.66338397,16.1675612 7.66692827,16.1214852 7.67308861,16.076 C7.67511392,16.0604726 7.67899578,16.0455359 7.68152743,16.0299241 C7.68709705,16.0000506 7.69224473,15.9701772 7.70009283,15.9409789 C7.70498734,15.9234262 7.71081013,15.9065485 7.71663291,15.8896709 C7.72473418,15.8636793 7.73351055,15.8377722 7.7438903,15.8123713 C7.75131646,15.794903 7.75950211,15.7773502 7.76760338,15.7604726 C7.77899578,15.7364219 7.79064135,15.7130464 7.80363713,15.690346 C7.81334177,15.6734684 7.82338397,15.6572658 7.83410127,15.6409789 C7.8481097,15.6189536 7.86304641,15.597519 7.87865823,15.5766751 C7.8903038,15.5611477 7.90262447,15.5455359 7.91494515,15.5306835 C7.93224473,15.5111899 7.94937553,15.4916962 7.96785654,15.4734684 C7.98186498,15.4592068 7.99578903,15.4449451 8.01038819,15.4319494 C8.0295443,15.4143966 8.04971308,15.397519 8.07047257,15.3812321 C8.08608439,15.3689114 8.10194937,15.3565907 8.11857384,15.3449451 C8.12439662,15.3409789 8.12988186,15.3358312 8.13578903,15.3319494 L19.41773,7.81059916 C19.7741857,7.57296203 20.2380675,7.57296203 20.5946076,7.81059916 L31.876211,15.3319494 C31.8824557,15.3358312 31.8879409,15.3409789 31.8940169,15.3449451 C31.9106414,15.3565907 31.9261688,15.3689114 31.941865,15.3812321 C31.9626245,15.397519 31.9830464,15.4143966 32.0022025,15.4319494 C32.0167173,15.4449451 32.0303882,15.4592068 32.0443966,15.4734684 C32.0628776,15.4916962 32.0804304,15.5111899 32.0970549,15.5306835 C32.1099662,15.5455359 32.1219494,15.5611477 32.1336793,15.5766751 C32.1496287,15.597519 32.1641435,15.6189536 32.1784051,15.6409789 C32.1885316,15.6572658 32.1991646,15.6734684 32.2087004,15.690346 C32.2216118,15.7130464 32.2333418,15.7364219 32.2447342,15.7604726 C32.2524135,15.7773502 32.2612743,15.794903 32.2684473,15.8123713 C32.278827,15.8377722 32.2871814,15.8636793 32.2956203,15.8896709 C32.3011899,15.9065485 32.3076878,15.9234262 32.3121603,15.9409789 C32.3200084,15.9701772 32.3252405,16.0000506 32.3307257,16.0299241 C32.3332574,16.0455359 32.3368861,16.0604726 32.3391646,16.076 C32.3453249,16.1214852 32.348616,16.1675612 32.348616,16.2143122 L32.348616,23.7356624 Z M20.006,0.0130464135 C8.98178059,0.0130464135 0.0443122363,8.95017722 0.0443122363,19.9749873 C0.0443122363,30.9998819 8.98178059,39.9365907 20.006,39.9365907 C31.0308945,39.9365907 39.9679409,30.9998819 39.9679409,19.9749873 C39.9679409,8.95017722 31.0308945,0.0130464135 20.006,0.0130464135 L20.006,0.0130464135 Z" id="Fill-7" sketch:type="MSShapeGroup"></path>
                <path d="M30.2273671,21.7501519 L30.2273671,18.1998565 L27.5737806,19.974962 L30.2273671,21.7501519 Z" id="Fill-9" sketch:type="MSShapeGroup"></path>
            </g>
        </g>
    </g>
</svg>