<?xml version="1.0" encoding="UTF-8" standalone="no"?>
<svg width="64px" height="64px" viewBox="0 0 64 64" version="1.1" xmlns="http://www.w3.org/2000/svg" xmlns:xlink="http://www.w3.org/1999/xlink">
    <!-- Generator: Sketch 39.1 (31720) - http://www.bohemiancoding.com/sketch -->
    <title>Logo_Hover</title>
    <desc>Created with Sketch.</desc>
    <defs></defs>
    <g id="Page-1" stroke="none" stroke-width="1" fill="none" fill-rule="evenodd">
        <path d="M31.893906,0 C14.2794452,0 0,14.3114619 0,31.9652735 C0,49.6187982 14.2794452,63.9305471 31.893906,63.9305471 C49.5083669,63.9305471 63.7876689,49.6187982 63.7876689,31.9652735 C63.7876689,14.3114619 49.5083669,0 31.893906,0 L31.893906,0 Z M25.9920179,45.6015785 C25.9560805,45.2033722 26.0341119,44.7761794 26.5123221,44.7341345 C27.5517852,44.6039821 29.6342908,44.38687 31.1949172,45.5157668 C31.5426935,45.8189776 31.5849306,45.5157668 31.8017002,45.341991 C32.0187562,45.1673543 32.7990694,44.3418117 33.7527696,44.5153004 C34.7071857,44.6892197 36.1809038,44.9938655 36.5720626,45.1247354 C36.9594989,45.2533094 37.2647517,45.6015785 37.0479821,45.9476951 C36.8312125,46.2959641 36.4437763,47.3462242 35.4445459,47.6446996 C34.2733602,47.9905291 32.3656734,47.6446996 31.6728412,47.6446996 C30.9780045,47.6446996 29.0256465,47.8619552 28.4202953,47.8619552 C27.8123669,47.8619552 26.2959821,47.6880359 25.9920179,45.6015785 L25.9920179,45.6015785 Z M45.3571007,39.2136323 C44.5903893,41.8146726 43.0665593,45.2670852 40.3169933,48.637417 C38.1200895,51.325417 36.5956868,53.0976143 33.716689,53.8029058 C32.9870604,53.9026368 32.2442595,53.953722 31.4917226,53.953722 C29.914774,53.953722 28.3806353,53.7281435 26.9369843,53.3074081 C26.6668098,52.9687534 26.9049128,52.5678206 27.3159732,52.5481614 C30.4767427,52.384287 31.554434,52.1245561 32.3441969,51.807426 C33.22817,51.4516951 35.2015749,49.7485202 35.8968412,49.1240179 C36.5919642,48.5049686 37.5798837,46.8703857 37.9256555,46.306009 C39.7027651,43.4126637 39.4997405,42.3639821 38.4800358,43.0995516 C38.1007606,43.3729148 36.8423803,43.5288969 36.3117673,43.4204126 C35.3436063,43.2206637 34.79166,42.6326099 34.2110783,42.401435 C33.6319284,42.1655247 33.0251454,42.1405561 32.4547293,42.3127534 C31.9511767,42.4664395 31.4307293,43.0820448 30.9684116,43.0507623 C30.6571454,43.0321076 30.2586846,42.9521794 29.4607606,42.6360538 C28.861566,42.3952646 27.5466309,42.2365561 26.9286801,42.5875516 C26.3092975,42.9385471 25.6035794,43.6926278 25.1021745,44.3518565 C24.5983356,45.0112287 23.5205011,46.7442511 22.0144251,44.9760717 C21.5314899,44.4092556 20.1499776,42.0732556 19.1833915,40.4686637 C18.3184609,39.0339731 17.218434,36.7638386 17.544877,33.7470852 C17.8611544,30.8205919 20.8976465,29.2358027 22.7353199,29.3705471 C24.7455213,29.5154798 23.8442237,33.2452735 23.8011275,34.974565 C23.7097808,38.6092197 25.2235884,39.9678565 26.8868725,40.6247892 C28.8730201,41.4064215 30.0855839,40.864574 31.8014139,40.4959283 C33.5034989,40.1327354 34.0951051,38.8853094 34.9026219,38.7718027 C36.3845011,38.5581345 36.9531991,36.4579013 36.4648233,35.5314798 C36.0755257,34.7934709 35.4863535,33.7968789 34.7505682,33.4886457 C33.659132,33.0366278 35.2385145,34.7237309 35.400877,35.4016143 C35.8083579,37.122296 34.2175213,37.2396771 34.2175213,37.2396771 C33.3073468,37.4044126 31.4741119,39.4033363 29.5018523,37.3247713 C28.9162595,36.705148 29.2219418,35.0807534 29.2915257,33.858009 C29.3697002,32.4927713 29.4654855,28.5927892 29.4654855,27.6399641 C29.4654855,26.6872825 28.8720179,25.7370404 28.3806353,25.1883049 C27.8716421,24.6219193 27.5290201,24.1087713 24.3262998,22.8538834 C21.8948725,21.9026368 19.6346846,22.0292018 18.4965727,22.2181883 C17.5971365,22.368861 15.9846801,19.7447175 17.4140134,17.2038027 L17.6886264,16.7744574 C20.8629978,12.6140269 25.5949888,9.97495964 31.4961611,9.97495964 C37.4972707,9.97495964 43.593736,12.5856143 45.5982103,16.9876951 L45.5982103,16.9904215 C46.8868009,18.9332377 45.2769217,22.3344215 44.010953,22.0553184 C42.5093154,21.7244126 39.8107204,22.2747265 38.4284922,22.7354978 C36.2232841,23.4694888 34.1508009,25.1327713 34.0089128,26.2651121 C33.9663893,26.6118027 34.2047785,27.1405919 34.4440268,27.5449686 C34.9461477,28.3980628 36.4025414,29.3401256 37.8317315,29.5230852 C39.2146756,29.6998744 41.014264,29.8452377 42.7674631,29.4754439 C49.659132,28.0232466 46.1451454,36.5452915 45.3571007,39.2136323 L45.3571007,39.2136323 Z" id="Logo_Hover" fill="#FF5722"></path>
    </g>
</svg>