<?xml version="1.0" encoding="UTF-8" standalone="no"?>
<svg width="40px" height="40px" viewBox="0 0 40 40" version="1.1" xmlns="http://www.w3.org/2000/svg" xmlns:xlink="http://www.w3.org/1999/xlink" xmlns:sketch="http://www.bohemiancoding.com/sketch/ns">
    <!-- Generator: Sketch 3.3.3 (12072) - http://www.bohemiancoding.com/sketch -->
    <title>Twitter_hover</title>
    <desc>Created with Sketch.</desc>
    <defs></defs>
    <g id="DS-V2" stroke="none" stroke-width="1" fill="none" fill-rule="evenodd" sketch:type="MSPage">
        <g id="Twitter_hover" sketch:type="MSArtboardGroup">
            <circle id="Oval-37-Copy-3" fill="#6B6B77" sketch:type="MSShapeGroup" cx="20" cy="20" r="20"></circle>
            <path d="M19.7111412,16.5222662 L19.7544945,17.2575641 L19.0319394,17.1675276 C16.4018386,16.8223878 14.1041133,15.6519135 12.1532144,13.686117 L11.1994416,12.7107218 L10.9537728,13.4310136 C10.4335331,15.0366642 10.7659085,16.7323513 11.8497412,17.8728134 C12.4277853,18.5030688 12.2977254,18.5931053 11.3005993,18.2179533 C10.9537728,18.0979046 10.6502996,18.0078681 10.6213974,18.0528864 C10.5202397,18.1579289 10.8670662,19.5234823 11.1416371,20.0637012 C11.5173658,20.8140052 12.2832743,21.5493031 13.1214383,21.9844795 L13.8295423,22.3296193 L12.9913783,22.3446254 C12.1821166,22.3446254 12.1532144,22.3596315 12.239921,22.6747592 C12.528943,23.6501544 13.6705802,24.6855739 14.9422772,25.1357563 L15.8382456,25.450884 L15.0578861,25.9310786 C13.9017978,26.6213583 12.5433941,27.0115164 11.1849904,27.0415286 C10.5346908,27.0565346 10,27.116559 10,27.1615772 C10,27.311638 11.7630346,28.1519785 12.7890629,28.4821123 C15.8671478,29.4575075 19.5232769,29.0373373 22.2689865,27.3716623 C24.2198854,26.186182 26.1707843,23.8302273 27.0812038,21.5493031 C27.5725413,20.3338106 28.0638788,18.1129107 28.0638788,17.047479 C28.0638788,16.3571993 28.1072321,16.2671628 28.9164939,15.4418284 C29.3933803,14.9616338 29.8413645,14.436421 29.9280711,14.2863602 C30.0725821,14.0012447 30.058131,14.0012447 29.3211247,14.256348 C28.092781,14.7065304 27.9193678,14.6465061 28.5263141,13.9712325 C28.9742983,13.4910379 29.5089891,12.6206853 29.5089891,12.3655819 C29.5089891,12.3205637 29.2922225,12.3955941 29.0465538,12.5306488 C28.7864339,12.6807096 28.2083898,12.9058008 27.7748567,13.0408555 L26.9944972,13.2959589 L26.2863931,12.8007582 C25.8962133,12.5306488 25.3470714,12.2305272 25.0580494,12.1404907 C24.3210431,11.9304056 23.1938571,11.9604177 22.5291063,12.200515 C20.7227184,12.8757886 19.5810813,14.616494 19.7111412,16.5222662 Z" id="Path" fill="#F4F4F4" sketch:type="MSShapeGroup"></path>
        </g>
    </g>
</svg>