<?xml version="1.0" encoding="UTF-8" standalone="no"?>
<svg width="161px" height="160px" viewBox="0 0 161 160" version="1.1" xmlns="http://www.w3.org/2000/svg" xmlns:xlink="http://www.w3.org/1999/xlink" xmlns:sketch="http://www.bohemiancoding.com/sketch/ns">
    <!-- Generator: Sketch 3.3.3 (12072) - http://www.bohemiancoding.com/sketch -->
    <title>appreciate_hover</title>
    <desc>Created with Sketch.</desc>
    <defs></defs>
    <g id="DS-V2" stroke="none" stroke-width="1" fill="none" fill-rule="evenodd" sketch:type="MSPage">
        <g id="Project" sketch:type="MSArtboardGroup" transform="translate(-1415.670013, -2815.000000)">
            <g id="appreciate_hover" sketch:type="MSLayerGroup" transform="translate(1416.000000, 2815.000000)">
                <polygon id="Star-1" fill="#6B6B77" sketch:type="MSShapeGroup" points="80 152 70.3570656 159.41671 62.7692722 149.907811 51.631609 154.801299 46.5399316 143.752834 34.5548203 145.838709 32.2551686 133.892774 20.1191401 133.049813 20.7451617 120.900662 9.16351795 117.177854 12.6788305 105.531552 2.32465461 99.1452531 8.52496106 88.678641 0 80 8.52496106 71.321359 2.32465461 60.8547469 12.6788305 54.4684481 9.16351795 42.8221462 20.7451617 39.0993382 20.1191401 26.9501873 32.2551686 26.1072261 34.5548203 14.1612907 46.5399316 16.2471662 51.631609 5.19870059 62.7692722 10.0921891 70.3570656 0.583290072 80 8 89.6429344 0.583290072 97.2307278 10.0921891 108.368391 5.19870059 113.460068 16.2471662 125.44518 14.1612907 127.744831 26.1072261 139.88086 26.9501873 139.254838 39.0993382 150.836482 42.8221462 147.321169 54.4684481 157.675345 60.8547469 151.475039 71.321359 160 80 151.475039 88.678641 157.675345 99.1452531 147.321169 105.531552 150.836482 117.177854 139.254838 120.900662 139.88086 133.049813 127.744831 133.892774 125.44518 145.838709 113.460068 143.752834 108.368391 154.801299 97.2307278 149.907811 89.6429344 159.41671 "></polygon>
                <path d="M88.3397095,67.3409745 L104.228746,67.3409745 L104.228746,62.7280742 L88.3397095,62.7280742 L88.3397095,67.3409745 L88.3397095,67.3409745 Z M92.1038308,77.4061253 C91.0913633,78.4500232 90.4528385,79.8642227 90.1917841,81.6487239 L102.549532,81.6487239 C102.419005,79.7443155 101.776952,78.3054292 100.641013,77.3144316 C99.4909629,76.3304872 98.0763306,75.8402784 96.3830052,75.8402784 C94.5485693,75.8402784 93.1162982,76.3622274 92.1038308,77.4061253 L92.1038308,77.4061253 L92.1038308,77.4061253 Z M102.828225,71.2132715 C104.743799,72.0667285 106.320709,73.4209745 107.562481,75.2689559 C108.694892,76.8982831 109.421611,78.7885847 109.75322,80.9363341 C109.947247,82.1918329 110.024858,84.0116009 109.993108,86.3780046 L90.0153961,86.3780046 C90.13534,89.12529 91.08078,91.0543852 92.8869938,92.1582367 C93.9805998,92.8459397 95.2964547,93.1915545 96.8416141,93.1915545 C98.4679121,93.1915545 99.7978781,92.7718794 100.817401,91.9360557 C101.378315,91.4811137 101.872202,90.8533643 102.295533,90.0492807 L109.615638,90.0492807 C109.421611,91.6715545 108.532615,93.3255684 106.959233,95.0042691 C104.503912,97.6669142 101.064344,99 96.6440595,99 C92.9928266,99 89.7719806,97.8785151 86.9885769,95.6284919 C84.1910622,93.3819954 82.8011243,89.7212993 82.8011243,84.6569838 C82.8011243,79.9065429 84.0605351,76.2634803 86.5758288,73.7277958 C89.0981782,71.1991647 92.3613573,69.9260325 96.3794774,69.9260325 C98.7677718,69.9260325 100.916178,70.3562877 102.828225,71.2132715 L102.828225,71.2132715 L102.828225,71.2132715 Z M57.3906599,81.747471 L57.3906599,91.632761 L66.3935066,91.632761 C68.0021658,91.632761 69.2580488,91.4141067 70.1505724,90.9803248 C71.7768703,90.1691879 72.5882554,88.6315545 72.5882554,86.3533179 C72.5882554,84.4206961 71.8050924,83.0981903 70.2281831,82.3752204 C69.3462428,81.9731787 68.1079986,81.7615777 66.520506,81.747471 L57.3906599,81.747471 L57.3906599,81.747471 Z M57.3906599,67.4361949 L57.3906599,75.6145708 L66.4076177,75.6145708 C68.012749,75.6145708 69.3215485,75.3077494 70.3304882,74.6941067 C71.3323724,74.080464 71.8368423,72.9942459 71.8368423,71.4425058 C71.8368423,69.7109049 71.1736231,68.5717865 69.8471849,68.0145708 C68.6971347,67.6301624 67.2366416,67.4361949 65.4621776,67.4361949 L57.3906599,67.4361949 L57.3906599,67.4361949 Z M77.5271212,64.949884 C78.6595326,66.5263109 79.2275021,68.4095592 79.2275021,70.6066821 C79.2275021,72.8672854 78.6595326,74.69058 77.5130101,76.0659861 C76.8709576,76.8348028 75.9290453,77.5401392 74.6837456,78.174942 C76.5746256,78.8661717 77.9998412,79.9559165 78.9699755,81.447703 C79.9295266,82.9359629 80.4128299,84.7486775 80.4128299,86.8787935 C80.4128299,89.0759165 79.8624992,91.0473318 78.7583099,92.7895128 C78.0598131,93.9427378 77.1849283,94.9161021 76.1336555,95.7060789 C74.9518555,96.6124362 73.5583898,97.2296056 71.9462029,97.5681671 C70.334016,97.9032019 68.5913019,98.0654292 66.7074774,98.0654292 L50,98.0654292 L50,61 L67.9174995,61 C72.4400894,61.067007 75.6397689,62.3824594 77.5271212,64.949884 L77.5271212,64.949884 L77.5271212,64.949884 Z" id="Behance-Copy" fill="#F2F2F2" sketch:type="MSShapeGroup"></path>
            </g>
        </g>
    </g>
</svg>