<?xml version="1.0" encoding="UTF-8" standalone="no"?>
<svg width="40px" height="40px" viewBox="0 0 40 40" version="1.1" xmlns="http://www.w3.org/2000/svg" xmlns:xlink="http://www.w3.org/1999/xlink" xmlns:sketch="http://www.bohemiancoding.com/sketch/ns">
    <!-- Generator: Sketch 3.3.3 (12072) - http://www.bohemiancoding.com/sketch -->
    <title>Behance</title>
    <desc>Created with Sketch.</desc>
    <defs></defs>
    <g id="DS-V2" stroke="none" stroke-width="1" fill="none" fill-rule="evenodd" sketch:type="MSPage">
        <g id="Behance" sketch:type="MSArtboardGroup">
            <g id="Oval-37-Copy-3-+-Behance" sketch:type="MSLayerGroup">
                <path d="M20,40 C31.045695,40 40,31.045695 40,20 C40,8.954305 31.045695,0 20,0 C8.954305,0 0,8.954305 0,20 C0,31.045695 8.954305,40 20,40 Z" id="Oval-37-Copy-3" fill="#404040" sketch:type="MSShapeGroup"></path>
                <path d="M23.0578935,15.3361485 L28.8838736,15.3361485 L28.8838736,13.6366589 L23.0578935,13.6366589 L23.0578935,15.3361485 L23.0578935,15.3361485 Z M24.4380713,19.0443619 C24.0668332,19.4289559 23.8327074,19.9499768 23.7369875,20.6074246 L28.2681617,20.6074246 C28.2203017,19.9058005 27.9848825,19.3756845 27.5683714,19.01058 C27.1466864,18.6480742 26.6279879,18.467471 26.0071019,18.467471 C25.3344754,18.467471 24.8093094,18.659768 24.4380713,19.0443619 L24.4380713,19.0443619 L24.4380713,19.0443619 Z M28.3703492,16.7627842 C29.0727264,17.0772158 29.6509265,17.5761485 30.1062429,18.2569838 C30.5214604,18.8572622 30.787924,19.5536891 30.9095141,20.3449652 C30.9806573,20.8075174 31.0091146,21.4779582 30.997473,22.3497912 L23.6723119,22.3497912 C23.7162913,23.361949 24.0629527,24.0726682 24.725231,24.4793503 C25.1262199,24.7327146 25.6087001,24.8600464 26.1752585,24.8600464 C26.7715678,24.8600464 27.259222,24.7054292 27.6330471,24.3974942 C27.8387155,24.229884 28.0198073,23.9986079 28.1750288,23.7023666 L30.8590672,23.7023666 C30.787924,24.3000464 30.4619588,24.90942 29.8850523,25.5278886 C28.9847676,26.5088631 27.7235929,27 26.1028218,27 C24.7640364,27 23.5830595,26.5868213 22.5624782,25.7578654 C21.5367228,24.9302088 21.0270789,23.5815313 21.0270789,21.7157309 C21.0270789,19.9655684 21.4888629,18.6233875 22.4111372,17.6891879 C23.3359987,16.757587 24.5324977,16.2885383 26.0058084,16.2885383 C26.8815163,16.2885383 27.6692654,16.4470534 28.3703492,16.7627842 L28.3703492,16.7627842 L28.3703492,16.7627842 Z M11.7099086,20.6438051 L11.7099086,24.2857541 L15.0109524,24.2857541 C15.6007941,24.2857541 16.0612846,24.2051972 16.3885432,24.0453828 C16.9848525,23.7465429 17.2823603,23.1800464 17.2823603,22.3406961 C17.2823603,21.6286775 16.9952006,21.1414385 16.4170005,20.8750812 C16.0936224,20.7269606 15.6395995,20.6490023 15.0575189,20.6438051 L11.7099086,20.6438051 L11.7099086,20.6438051 Z M11.7099086,15.3712297 L11.7099086,18.3843155 L15.0161265,18.3843155 C15.6046746,18.3843155 16.0845678,18.2712761 16.4545123,18.0451972 C16.8218699,17.8191183 17.0068422,17.4189327 17.0068422,16.847239 C17.0068422,16.2092807 16.7636618,15.7896056 16.2773011,15.5843155 C15.8556161,15.4426914 15.3201019,15.3712297 14.6694651,15.3712297 L11.7099086,15.3712297 L11.7099086,15.3712297 Z M19.0932778,14.4552204 C19.5084953,15.0360093 19.7167508,15.7298376 19.7167508,16.5393039 C19.7167508,17.3721578 19.5084953,18.0438979 19.0881037,18.5506265 C18.8526845,18.8338747 18.5073166,19.0937355 18.0507067,19.3276102 C18.7440294,19.5822738 19.2666084,19.9837587 19.6223244,20.5333643 C19.9741598,21.0816705 20.151371,21.7495128 20.151371,22.5342923 C20.151371,23.3437587 19.949583,24.0700696 19.5447136,24.7119258 C19.2885982,25.1367981 18.9678071,25.495406 18.5823403,25.7864501 C18.1490137,26.1203712 17.6380762,26.3477494 17.046941,26.4724826 C16.4558059,26.5959165 15.8168107,26.6556845 15.126075,26.6556845 L9,26.6556845 L9,13 L15.5697498,13 C17.2280328,13.0246868 18.4012486,13.5093271 19.0932778,14.4552204 L19.0932778,14.4552204 L19.0932778,14.4552204 Z" id="Behance" fill="#F3F3F3" sketch:type="MSShapeGroup"></path>
            </g>
        </g>
    </g>
</svg>