<?xml version="1.0" encoding="UTF-8" standalone="no"?>
<svg width="64px" height="64px" viewBox="0 0 64 64" version="1.1" xmlns="http://www.w3.org/2000/svg" xmlns:xlink="http://www.w3.org/1999/xlink">
    <!-- Generator: Sketch 39.1 (31720) - http://www.bohemiancoding.com/sketch -->
    <title>Imported Layers Copy 7</title>
    <desc>Created with Sketch.</desc>
    <defs></defs>
    <g id="Page-1" stroke="none" stroke-width="1" fill="none" fill-rule="evenodd">
        <g id="Intro-Desktop-HD" transform="translate(-32.000000, -32.000000)" fill="#3B3B41">
            <path d="M63.893906,32 C46.2794452,32 32,46.3114619 32,63.9652735 C32,81.6187982 46.2794452,95.9305471 63.893906,95.9305471 C81.5083669,95.9305471 95.7876689,81.6187982 95.7876689,63.9652735 C95.7876689,46.3114619 81.5083669,32 63.893906,32 L63.893906,32 Z M57.9920179,77.6015785 C57.9560805,77.2033722 58.0341119,76.7761794 58.5123221,76.7341345 C59.5517852,76.6039821 61.6342908,76.38687 63.1949172,77.5157668 C63.5426935,77.8189776 63.5849306,77.5157668 63.8017002,77.341991 C64.0187562,77.1673543 64.7990694,76.3418117 65.7527696,76.5153004 C66.7071857,76.6892197 68.1809038,76.9938655 68.5720626,77.1247354 C68.9594989,77.2533094 69.2647517,77.6015785 69.0479821,77.9476951 C68.8312125,78.2959641 68.4437763,79.3462242 67.4445459,79.6446996 C66.2733602,79.9905291 64.3656734,79.6446996 63.6728412,79.6446996 C62.9780045,79.6446996 61.0256465,79.8619552 60.4202953,79.8619552 C59.8123669,79.8619552 58.2959821,79.6880359 57.9920179,77.6015785 L57.9920179,77.6015785 Z M77.3571007,71.2136323 C76.5903893,73.8146726 75.0665593,77.2670852 72.3169933,80.637417 C70.1200895,83.325417 68.5956868,85.0976143 65.716689,85.8029058 C64.9870604,85.9026368 64.2442595,85.953722 63.4917226,85.953722 C61.914774,85.953722 60.3806353,85.7281435 58.9369843,85.3074081 C58.6668098,84.9687534 58.9049128,84.5678206 59.3159732,84.5481614 C62.4767427,84.384287 63.554434,84.1245561 64.3441969,83.807426 C65.22817,83.4516951 67.2015749,81.7485202 67.8968412,81.1240179 C68.5919642,80.5049686 69.5798837,78.8703857 69.9256555,78.306009 C71.7027651,75.4126637 71.4997405,74.3639821 70.4800358,75.0995516 C70.1007606,75.3729148 68.8423803,75.5288969 68.3117673,75.4204126 C67.3436063,75.2206637 66.79166,74.6326099 66.2110783,74.401435 C65.6319284,74.1655247 65.0251454,74.1405561 64.4547293,74.3127534 C63.9511767,74.4664395 63.4307293,75.0820448 62.9684116,75.0507623 C62.6571454,75.0321076 62.2586846,74.9521794 61.4607606,74.6360538 C60.861566,74.3952646 59.5466309,74.2365561 58.9286801,74.5875516 C58.3092975,74.9385471 57.6035794,75.6926278 57.1021745,76.3518565 C56.5983356,77.0112287 55.5205011,78.7442511 54.0144251,76.9760717 C53.5314899,76.4092556 52.1499776,74.0732556 51.1833915,72.4686637 C50.3184609,71.0339731 49.218434,68.7638386 49.544877,65.7470852 C49.8611544,62.8205919 52.8976465,61.2358027 54.7353199,61.3705471 C56.7455213,61.5154798 55.8442237,65.2452735 55.8011275,66.974565 C55.7097808,70.6092197 57.2235884,71.9678565 58.8868725,72.6247892 C60.8730201,73.4064215 62.0855839,72.864574 63.8014139,72.4959283 C65.5034989,72.1327354 66.0951051,70.8853094 66.9026219,70.7718027 C68.3845011,70.5581345 68.9531991,68.4579013 68.4648233,67.5314798 C68.0755257,66.7934709 67.4863535,65.7968789 66.7505682,65.4886457 C65.659132,65.0366278 67.2385145,66.7237309 67.400877,67.4016143 C67.8083579,69.122296 66.2175213,69.2396771 66.2175213,69.2396771 C65.3073468,69.4044126 63.4741119,71.4033363 61.5018523,69.3247713 C60.9162595,68.705148 61.2219418,67.0807534 61.2915257,65.858009 C61.3697002,64.4927713 61.4654855,60.5927892 61.4654855,59.6399641 C61.4654855,58.6872825 60.8720179,57.7370404 60.3806353,57.1883049 C59.8716421,56.6219193 59.5290201,56.1087713 56.3262998,54.8538834 C53.8948725,53.9026368 51.6346846,54.0292018 50.4965727,54.2181883 C49.5971365,54.368861 47.9846801,51.7447175 49.4140134,49.2038027 L49.6886264,48.7744574 C52.8629978,44.6140269 57.5949888,41.9749596 63.4961611,41.9749596 C69.4972707,41.9749596 75.593736,44.5856143 77.5982103,48.9876951 L77.5982103,48.9904215 C78.8868009,50.9332377 77.2769217,54.3344215 76.010953,54.0553184 C74.5093154,53.7244126 71.8107204,54.2747265 70.4284922,54.7354978 C68.2232841,55.4694888 66.1508009,57.1327713 66.0089128,58.2651121 C65.9663893,58.6118027 66.2047785,59.1405919 66.4440268,59.5449686 C66.9461477,60.3980628 68.4025414,61.3401256 69.8317315,61.5230852 C71.2146756,61.6998744 73.014264,61.8452377 74.7674631,61.4754439 C81.659132,60.0232466 78.1451454,68.5452915 77.3571007,71.2136323 L77.3571007,71.2136323 Z" id="Imported-Layers-Copy-7"></path>
        </g>
    </g>
</svg>