<?xml version="1.0" encoding="UTF-8" standalone="no"?>
<svg width="40px" height="40px" viewBox="0 0 40 40" version="1.1" xmlns="http://www.w3.org/2000/svg" xmlns:xlink="http://www.w3.org/1999/xlink" xmlns:sketch="http://www.bohemiancoding.com/sketch/ns">
    <!-- Generator: Sketch 3.3.3 (12072) - http://www.bohemiancoding.com/sketch -->
    <title>Medium</title>
    <desc>Created with Sketch.</desc>
    <defs>
        <path id="path-1" d="M13.8275472,0.176044444 C13.5267925,0.0255 13.2807547,0.177744444 13.2807547,0.514344444 L13.2807547,13.9044889 L18.7692453,16.6518778 C19.3732075,16.9541 19.8628302,16.7425444 19.8628302,16.1792778 L19.8628302,3.28496667 C19.8628302,3.23113333 19.8322642,3.18164444 19.7841509,3.15746667 L13.8275472,0.176044444"></path>
        <path id="path-2" d="M6.69886792,10.6098889 L12.9603774,0.423488889 C13.1366038,0.136755556 13.5267925,0.0255 13.8275472,0.176044444 L19.7909434,3.16105556 C19.8296226,3.18032222 19.8433962,3.22867778 19.8207547,3.26551111 L13.2807547,13.9044889 L6.69886792,10.6098889"></path>
        <path id="path-3" d="M1.02811321,0.358511111 C0.526792453,0.107477778 0.357169811,0.293155556 0.650754717,0.771044444 L6.69886792,10.6098889 L13.2807547,13.9044889 L6.71301887,3.21998889 C6.70377358,3.20487778 6.69037736,3.19278889 6.6745283,3.18485556 L1.02811321,0.358511111"></path>
        <path id="path-4" d="M6.69886792,16.1792778 C6.69886792,16.7402778 6.28867925,16.9939556 5.78754717,16.7431111 L0.663584906,14.1781889 C0.362830189,14.0276444 0.116792453,13.6290889 0.116792453,13.2924889 L0.116792453,0.718344444 C0.116792453,0.269544444 0.44490566,0.0664888889 0.845849057,0.267277778 L6.66339623,3.17918889 C6.68509434,3.19014444 6.69886792,3.21224444 6.69886792,3.23661111 L6.69886792,16.1792778"></path>
    </defs>
    <g id="DS-V2" stroke="none" stroke-width="1" fill="none" fill-rule="evenodd" sketch:type="MSPage">
        <g id="Medium" sketch:type="MSArtboardGroup">
            <g id="Oval-37-Copy-3-+-Group" sketch:type="MSLayerGroup">
                <circle id="Oval-37-Copy-3" fill="#404040" sketch:type="MSShapeGroup" cx="20" cy="20" r="20"></circle>
                <g id="Group" transform="translate(10.000000, 12.000000)">
                    <g id="Fill-1">
                        <use fill="#CCCDC9" sketch:type="MSShapeGroup" xlink:href="#path-1"></use>
                        <use fill-opacity="0.4" fill="#F3F3F3" xlink:href="#path-1"></use>
                    </g>
                    <g id="Fill-2">
                        <use fill="#9EA1A0" sketch:type="MSShapeGroup" xlink:href="#path-2"></use>
                        <use fill-opacity="0.4" fill="#F3F3F3" xlink:href="#path-2"></use>
                    </g>
                    <g id="Fill-3">
                        <use fill="#797B79" sketch:type="MSShapeGroup" xlink:href="#path-3"></use>
                        <use fill-opacity="0.4" fill="#F3F3F3" xlink:href="#path-3"></use>
                    </g>
                    <g id="Fill-4">
                        <use fill="#515251" sketch:type="MSShapeGroup" xlink:href="#path-4"></use>
                        <use fill-opacity="0.4" fill="#F3F3F3" xlink:href="#path-4"></use>
                    </g>
                </g>
            </g>
        </g>
    </g>
</svg>