<svg width="24" height="24" viewBox="0 0 24 24" fill="none" xmlns="http://www.w3.org/2000/svg">
<path d="M6 3C7.71039 2.99971 9.36169 3.62564 10.6421 4.75962C11.9226 5.89359 12.7435 7.45712 12.95 9.155C13.602 8.4726 14.3858 7.92973 15.2539 7.55929C16.1219 7.18886 17.0562 6.99858 18 7H21C21.2652 7 21.5196 7.10536 21.7071 7.29289C21.8946 7.48043 22 7.73478 22 8V9C22 10.8565 21.2625 12.637 19.9497 13.9497C18.637 15.2625 16.8565 16 15 16H13V20C13 20.2652 12.8946 20.5196 12.7071 20.7071C12.5196 20.8946 12.2652 21 12 21C11.7348 21 11.4804 20.8946 11.2929 20.7071C11.1054 20.5196 11 20.2652 11 20V13H9C7.14348 13 5.36301 12.2625 4.05025 10.9497C2.7375 9.63699 2 7.85652 2 6V4C2 3.73478 2.10536 3.48043 2.29289 3.29289C2.48043 3.10536 2.73478 3 3 3H6Z" fill="#F7F5F4"/>
</svg>
