<svg height="24" viewBox="0 0 24 24" width="24" xmlns="http://www.w3.org/2000/svg"><path d="m20.452313 20.4506667h-3.558354v-5.5702223c0-1.3284444-.0235564-3.0368888-1.8498463-3.0368888-1.852513 0-2.1351901 1.448-2.1351901 2.9417777v5.6653334h-3.55835406v-11.45333337h3.41434866v1.56622227h.0488907c.4751287-.90088893 1.6365051-1.85022227 3.3681248-1.85022227 3.6050224 0 4.2703803 2.37155557 4.2703803 5.45555557zm-15.11478198-13.01822226c-1.14093115 0-2.06318753-.92488888-2.06318753-2.06355555 0-1.14.92225638-2.06488889 2.06318753-2.06488889 1.13781992 0 2.06274306.92488889 2.06274306 2.06488889 0 1.13866667-.92492314 2.06355555-2.06274306 2.06355555zm-1.78051039 13.01822226h3.56102078v-11.45333337h-3.56102078zm18.66780247-20.4506667h-20.45364639c-.97692507 0-1.77117671.77511111-1.77117671 1.73066667v20.53777773c0 .9555556.79425164 1.7315556 1.77117671 1.7315556h20.45364639c.9791474 0 1.7751769-.776 1.7751769-1.7315556v-20.53777773c0-.95555556-.7960295-1.73066667-1.7751769-1.73066667z" fill="#F45550" fill-rule="evenodd"/></svg>