<svg width="16" height="16" viewBox="0 0 16 16" fill="none" xmlns="http://www.w3.org/2000/svg">
<path d="M1.33301 3.99969V2.66669C1.33301 2.2985 1.63181 1.99969 2 1.99969H4C5.23768 1.99969 6.42463 2.49171 7.2998 3.36688C8.17497 4.24205 8.66699 5.42901 8.66699 6.66669C8.66699 7.03488 8.36819 7.33368 8 7.33368C7.63181 7.33368 7.33301 7.03488 7.33301 6.66669C7.33301 5.78263 6.98254 4.93439 6.35742 4.30927C5.7323 3.68414 4.88405 3.33368 4 3.33368H2.66699V3.99969C2.66699 4.88367 3.01756 5.73201 3.64258 6.35712C4.2677 6.98224 5.11595 7.33368 6 7.33368H8C8.36808 7.33368 8.66682 7.63165 8.66699 7.99969C8.66699 8.36788 8.36819 8.66669 8 8.66669H6C4.76232 8.66669 3.57537 8.17467 2.7002 7.2995C1.82513 6.42435 1.33301 5.2373 1.33301 3.99969Z" fill="#F7F5F4"/>
<path d="M13.333 6.00035H12C11.1159 6.00035 10.2677 6.35081 9.64258 6.97593C9.01746 7.60105 8.66699 8.4493 8.66699 9.33335H10C10.8841 9.33335 11.7323 8.98191 12.3574 8.35679C12.9433 7.7708 13.2882 6.98908 13.3291 6.16539L13.333 6.00035ZM14.667 6.00035C14.6669 7.23791 14.1749 8.42506 13.2998 9.30015C12.4247 10.1752 11.2376 10.6664 10 10.6664H8C7.63192 10.6664 7.33318 10.3684 7.33301 10.0003C7.33301 9.87805 7.36928 9.76489 7.42676 9.66636C7.36946 9.56794 7.33301 9.45544 7.33301 9.33335C7.33301 8.09568 7.82503 6.90872 8.7002 6.03355C9.57537 5.15838 10.7623 4.66636 12 4.66636H14C14.3682 4.66636 14.667 4.96516 14.667 5.33335V6.00035Z" fill="#F7F5F4"/>
<path d="M7.33301 13.3337V6.66669C7.33301 6.2985 7.63181 5.99969 8 5.99969C8.36819 5.99969 8.66699 6.2985 8.66699 6.66669V13.3337C8.66682 13.7017 8.36808 13.9997 8 13.9997C7.63192 13.9997 7.33318 13.7017 7.33301 13.3337Z" fill="#F7F5F4"/>
</svg>
