<?xml version="1.0" encoding="UTF-8" standalone="no"?>
<svg width="32px" height="20px" viewBox="0 0 32 20" version="1.1" xmlns="http://www.w3.org/2000/svg" xmlns:xlink="http://www.w3.org/1999/xlink" xmlns:sketch="http://www.bohemiancoding.com/sketch/ns">
    <!-- Generator: Sketch 3.3.3 (12072) - http://www.bohemiancoding.com/sketch -->
    <title>Behance</title>
    <desc>Created with Sketch.</desc>
    <defs></defs>
    <g id="DS-V2" stroke="none" stroke-width="1" fill="none" fill-rule="evenodd" sketch:type="MSPage">
        <g id="Desktop-HD" sketch:type="MSArtboardGroup" transform="translate(-1194.000000, -5987.000000)" fill="#404040">
            <g id="Behance-+-Dribbble-+-Imported-Layers" sketch:type="MSLayerGroup" transform="translate(1194.000000, 5984.000000)">
                <path d="M20.4478451,6.33735499 L28.921998,6.33735499 L28.921998,3.90951276 L20.4478451,3.90951276 L20.4478451,6.33735499 L20.4478451,6.33735499 Z M22.4553764,11.6348028 C21.9153937,12.1842227 21.5748472,12.9285383 21.4356182,13.8677494 L28.026417,13.8677494 C27.9568025,12.8654292 27.6143745,12.1081206 27.0085403,11.5865429 C26.3951802,11.0686775 25.6407096,10.8106729 24.7376028,10.8106729 C23.759237,10.8106729 22.9953591,11.0853828 22.4553764,11.6348028 L22.4553764,11.6348028 L22.4553764,11.6348028 Z M28.1750533,8.37540603 C29.196693,8.82459397 30.0377113,9.53735499 30.6999897,10.5099768 C31.3039424,11.3675174 31.6915258,12.362413 31.8683842,13.4928074 C31.9718652,14.1535963 32.0132576,15.1113689 31.9963244,16.3568445 L21.3415446,16.3568445 C21.4055146,17.8027842 21.9097493,18.8180974 22.8730633,19.3990719 C23.4563199,19.7610209 24.1581092,19.9429234 24.9821942,19.9429234 C25.8495531,19.9429234 26.5588683,19.7220418 27.1026139,19.2821346 C27.4017681,19.0426914 27.6651742,18.712297 27.890951,18.2890951 L31.7950068,18.2890951 C31.6915258,19.1429234 31.2173947,20.0134571 30.3782578,20.8969838 C29.0687529,22.2983759 27.234317,23 24.8768317,23 C22.9295075,23 21.211723,22.4097448 19.727241,21.225522 C18.2352332,20.0431555 17.493933,18.1164733 17.493933,15.4510441 C17.493933,12.9508121 18.1656187,11.0334107 19.5071087,9.69883991 C20.8523617,8.36798144 22.5927239,7.69791183 24.7357213,7.69791183 C26.0094783,7.69791183 27.1552952,7.92436195 28.1750533,8.37540603 L28.1750533,8.37540603 L28.1750533,8.37540603 Z M3.94168526,13.9197216 L3.94168526,19.1225058 L8.74320353,19.1225058 C9.60115507,19.1225058 10.2709593,19.0074246 10.7469719,18.7791183 C11.6143308,18.3522042 12.0470696,17.5429234 12.0470696,16.3438515 C12.0470696,15.3266821 11.6293826,14.6306265 10.7883643,14.250116 C10.3179962,14.0385151 9.65759925,13.9271462 8.81093655,13.9197216 L3.94168526,13.9197216 L3.94168526,13.9197216 Z M3.94168526,6.387471 L3.94168526,10.6918794 L8.75072942,10.6918794 C9.60679949,10.6918794 10.3048259,10.5303944 10.842927,10.2074246 C11.3772653,9.88445476 11.6463159,9.31276102 11.6463159,8.49605568 C11.6463159,7.58468677 11.292599,6.98515081 10.5851653,6.69187935 C9.97180519,6.48955916 9.1928755,6.387471 8.24649474,6.387471 L3.94168526,6.387471 L3.94168526,6.387471 Z M14.6811313,5.07888631 C15.285084,5.90858469 15.5880011,6.89976798 15.5880011,8.05614849 C15.5880011,9.24593968 15.285084,10.2055684 14.6736054,10.9294664 C14.3311774,11.3341067 13.8288242,11.7053364 13.1646643,12.0394432 C14.1731337,12.4032483 14.9332486,12.9767981 15.4506536,13.761949 C15.9624142,14.5452436 16.220176,15.4993039 16.220176,16.6204176 C16.220176,17.7767981 15.9266662,18.8143852 15.3377653,19.7313225 C14.9652337,20.3382831 14.4986285,20.85058 13.9379496,21.2663573 C13.3076562,21.7433875 12.5644745,22.0682135 11.7046415,22.2464037 C10.8448085,22.4227378 9.91536101,22.5081206 8.9106546,22.5081206 L0,22.5081206 L0,3 L9.55599973,3 C11.9680477,3.03526682 13.6745434,3.72761021 14.6811313,5.07888631 L14.6811313,5.07888631 L14.6811313,5.07888631 Z" id="Behance" sketch:type="MSShapeGroup"></path>
            </g>
        </g>
    </g>
</svg>