<?xml version="1.0" encoding="UTF-8" standalone="no"?>
<svg width="26px" height="26px" viewBox="0 0 26 26" version="1.1" xmlns="http://www.w3.org/2000/svg" xmlns:xlink="http://www.w3.org/1999/xlink" xmlns:sketch="http://www.bohemiancoding.com/sketch/ns">
    <!-- Generator: Sketch 3.3.3 (12072) - http://www.bohemiancoding.com/sketch -->
    <title>Dribbble</title>
    <desc>Created with Sketch.</desc>
    <defs></defs>
    <g id="DS-V2" stroke="none" stroke-width="1" fill="none" fill-rule="evenodd" sketch:type="MSPage">
        <g id="Desktop-HD" sketch:type="MSArtboardGroup" transform="translate(-1267.000000, -5984.000000)" fill="#404040">
            <g id="Behance-+-Dribbble-+-Imported-Layers" sketch:type="MSLayerGroup" transform="translate(1194.000000, 5984.000000)">
                <path d="M92.2045628,22.2075372 C92.0914329,21.5380093 91.4997942,18.2790287 90.0428647,14.278676 C93.6278591,13.7054501 96.7328159,14.6883415 96.9621332,14.763243 C96.4683366,17.8571345 94.6964779,20.5245458 92.2045628,22.2075372 L92.2045628,22.2075372 L92.2045628,22.2075372 Z M86.0007644,24.1030043 C83.3131652,24.1030043 80.8487682,23.1476277 78.9270888,21.5578811 C79.0738519,21.6771121 79.1762804,21.7520136 79.1762804,21.7520136 C79.1762804,21.7520136 81.3043453,17.1111764 87.8888105,14.8167441 C87.913271,14.8075725 87.9392603,14.8014581 87.9637208,14.793815 C89.5261363,18.8522547 90.1697536,22.2518667 90.3348621,23.2225292 C89.0032928,23.7881122 87.5371906,24.1030043 86.0007644,24.1030043 L86.0007644,24.1030043 L86.0007644,24.1030043 Z M74.8972188,12.9992357 C74.8972188,12.8815333 74.9033339,12.7653595 74.9063915,12.6491857 C75.1036044,12.6537715 80.5888752,12.7775883 86.3049921,11.0670821 C86.6229788,11.6892234 86.9272064,12.3235934 87.2054448,12.9549062 C87.0586817,12.9946499 86.9134474,13.0389794 86.7682131,13.0878946 C80.7769154,15.0231054 77.7376962,20.4129578 77.7376962,20.4129578 C77.7376962,20.4129578 77.7422826,20.4175437 77.7422826,20.4190723 C75.9734815,18.4517608 74.8972188,15.851608 74.8972188,12.9992357 L74.8972188,12.9992357 L74.8972188,12.9992357 Z M81.2630681,2.96090305 C81.41136,3.15809277 83.4645146,5.94167794 85.3861939,9.35657593 C80.0553302,10.7735905 75.4277062,10.7170322 75.1357088,10.7124464 C75.8557653,7.27309072 78.1657553,4.42224705 81.2630681,2.96090305 L81.2630681,2.96090305 L81.2630681,2.96090305 Z M83.3406832,2.22105944 C83.3406832,2.22258804 83.3391545,2.22411664 83.3391545,2.22411664 C83.3391545,2.22411664 83.3253954,2.22717385 83.3055213,2.23023105 C83.3177515,2.22717385 83.328453,2.22564525 83.3406832,2.22105944 L83.3406832,2.22105944 L83.3406832,2.22105944 Z M93.3328041,4.66988065 C93.3052861,4.71115292 91.7245252,7.11870186 87.5326042,8.68857664 C85.6353854,5.20183432 83.5501264,2.43200658 83.3834892,2.21188782 C84.2227906,2.00858369 85.0987829,1.89852431 86.0007644,1.89852431 C88.8106662,1.89852431 91.3774916,2.94714563 93.3328041,4.66988065 L93.3328041,4.66988065 L93.3328041,4.66988065 Z M97.0997236,12.8891763 C96.9392015,12.8540185 93.1814547,12.0453877 89.3671429,12.5253689 C89.2876463,12.3358222 89.2096784,12.1447469 89.1271241,11.9536716 C88.896278,11.4094891 88.6470865,10.871421 88.3887223,10.3425245 C92.7732698,8.55253101 94.5527724,5.979893 94.5741753,5.94932095 C96.1304757,7.84020225 97.0737343,10.2553942 97.0997236,12.8891763 L97.0997236,12.8891763 L97.0997236,12.8891763 Z M98.7370495,10.3837968 C98.5658258,9.54917985 98.3089904,8.7252631 97.9772447,7.93956141 C97.6531428,7.16914575 97.2480155,6.42624493 96.7786794,5.73225939 C96.3154583,5.04438827 95.7803845,4.3962608 95.1933322,3.80927744 C94.604751,3.22076548 93.9580761,2.6872832 93.2685953,2.22258804 C92.5745281,1.75177847 91.83154,1.34975601 91.0610337,1.02263508 C90.2752396,0.692456935 89.4527547,0.435651714 88.6180396,0.265976836 C87.7619216,0.0901875478 86.881343,0 86.0007644,0 C85.118657,0 84.2380784,0.0901875478 83.3819604,0.265976836 C82.5472453,0.435651714 81.7247604,0.692456935 80.9389663,1.02263508 C80.16846,1.34975601 79.4254719,1.75177847 78.7298759,2.22258804 C78.0419239,2.6872832 77.395249,3.22076548 76.8066678,3.80927744 C76.2196155,4.3962608 75.6860704,5.04438827 75.2213206,5.73225939 C74.7519845,6.42624493 74.3468572,7.16914575 74.0227553,7.93956141 C73.6894808,8.7252631 73.4341742,9.54917985 73.2629505,10.3837968 C73.0886694,11.2382856 73,12.1187607 73,12.9992357 C73,13.8827679 73.0886694,14.763243 73.2629505,15.6192604 C73.4341742,16.4538774 73.6894808,17.2762655 74.0227553,18.0604386 C74.3468572,18.8308543 74.7519845,19.5768123 75.2213206,20.2707978 C75.6860704,20.9586689 76.2196155,21.6037392 76.8066678,22.1937798 C77.395249,22.7807631 78.0419239,23.3127168 78.7298759,23.7789406 C79.4254719,24.2482215 80.16846,24.6517726 80.9389663,24.9773649 C81.7247604,25.3106003 82.5472453,25.5643483 83.3819604,25.7340232 C84.2380784,25.9113411 85.118657,26 86.0007644,26 C86.881343,26 87.7619216,25.9113411 88.6180396,25.7340232 C89.4527547,25.5643483 90.2752396,25.3106003 91.0610337,24.9773649 C91.83154,24.6517726 92.5745281,24.2482215 93.2685953,23.7789406 C93.9580761,23.3127168 94.604751,22.7807631 95.1933322,22.1937798 C95.7803845,21.6037392 96.3154583,20.9586689 96.7786794,20.2707978 C97.2480155,19.5768123 97.6531428,18.8308543 97.9772447,18.0604386 C98.3089904,17.2762655 98.5658258,16.4538774 98.7370495,15.6192604 C98.9113306,14.763243 99,13.8827679 99,12.9992357 C99,12.1187607 98.9113306,11.2382856 98.7370495,10.3837968 L98.7370495,10.3837968 L98.7370495,10.3837968 Z" id="Dribbble" sketch:type="MSShapeGroup"></path>
            </g>
        </g>
    </g>
</svg>