<?xml version="1.0" encoding="UTF-8" standalone="no"?>
<svg width="160px" height="160px" viewBox="0 0 160 160" version="1.1" xmlns="http://www.w3.org/2000/svg" xmlns:xlink="http://www.w3.org/1999/xlink" xmlns:sketch="http://www.bohemiancoding.com/sketch/ns">
    <!-- Generator: Sketch 3.3.3 (12072) - http://www.bohemiancoding.com/sketch -->
    <title>Logo</title>
    <desc>Created with Sketch.</desc>
    <defs></defs>
    <g id="DS-V2" stroke="none" stroke-width="1" fill="none" fill-rule="evenodd" sketch:type="MSPage">
        <g id="Desktop-HD" sketch:type="MSArtboardGroup" transform="translate(-1200.000000, -590.000000)" fill="#3B3B41">
            <path d="M1279.73477,590 C1235.69861,590 1200,625.778655 1200,669.913184 C1200,714.046996 1235.69861,749.826368 1279.73477,749.826368 C1323.77092,749.826368 1359.46917,714.046996 1359.46917,669.913184 C1359.46917,625.778655 1323.77092,590 1279.73477,590 L1279.73477,590 Z M1264.98004,704.003946 C1264.8902,703.00843 1265.08528,701.940448 1266.28081,701.835336 C1268.87946,701.509955 1274.08573,700.967175 1277.98729,703.789417 C1278.85673,704.547444 1278.96233,703.789417 1279.50425,703.354978 C1280.04689,702.918386 1281.99767,700.854529 1284.38192,701.288251 C1286.76796,701.723049 1290.45226,702.484664 1291.43016,702.811839 C1292.39875,703.133274 1293.16188,704.003946 1292.61996,704.869238 C1292.07803,705.73991 1291.10944,708.365561 1288.61136,709.111749 C1285.6834,709.976323 1280.91418,709.111749 1279.1821,709.111749 C1277.44501,709.111749 1272.56412,709.654888 1271.05074,709.654888 C1269.53092,709.654888 1265.73996,709.22009 1264.98004,704.003946 L1264.98004,704.003946 Z M1313.39275,688.034081 C1311.47597,694.536682 1307.6664,703.167713 1300.79248,711.593543 C1295.30022,718.313543 1291.48922,722.744036 1284.29172,724.507265 C1282.46765,724.756592 1280.61065,724.884305 1278.72931,724.884305 C1274.78694,724.884305 1270.95159,724.320359 1267.34246,723.26852 C1266.66702,722.421883 1267.26228,721.419552 1268.28993,721.370404 C1276.19186,720.960717 1278.88609,720.31139 1280.86049,719.518565 C1283.07043,718.629238 1288.00394,714.3713 1289.7421,712.810045 C1291.47991,711.262422 1293.94971,707.175964 1294.81414,705.765022 C1299.25691,698.531659 1298.74935,695.909955 1296.20009,697.748879 C1295.2519,698.432287 1292.10595,698.822242 1290.77942,698.551031 C1288.35902,698.051659 1286.97915,696.581525 1285.5277,696.003587 C1284.07982,695.413812 1282.56286,695.35139 1281.13682,695.781883 C1279.87794,696.166099 1278.57682,697.705112 1277.42103,697.626906 C1276.64286,697.580269 1275.64671,697.380448 1273.6519,696.590135 C1272.15391,695.988161 1268.86658,695.59139 1267.3217,696.468879 C1265.77324,697.346368 1264.00895,699.23157 1262.75544,700.879641 C1261.49584,702.528072 1258.80125,706.860628 1255.03606,702.440179 C1253.82872,701.023139 1250.37494,695.183139 1247.95848,691.171659 C1245.79615,687.584933 1243.04609,681.909596 1243.86219,674.367713 C1244.65289,667.05148 1252.24412,663.089507 1256.8383,663.426368 C1261.8638,663.7887 1259.61056,673.113184 1259.50282,677.436413 C1259.27445,686.523049 1263.05897,689.919641 1267.21718,691.561973 C1272.18255,693.516054 1275.21396,692.161435 1279.50353,691.239821 C1283.75875,690.331839 1285.23776,687.213274 1287.25655,686.929507 C1290.96125,686.395336 1292.383,681.144753 1291.16206,678.8287 C1290.18881,676.983677 1288.71588,674.492197 1286.87642,673.721614 C1284.14783,672.59157 1288.09629,676.809327 1288.50219,678.504036 C1289.52089,682.80574 1285.5438,683.099193 1285.5438,683.099193 C1283.26837,683.511031 1278.68528,688.508341 1273.75463,683.311928 C1272.29065,681.76287 1273.05485,677.701883 1273.22881,674.645022 C1273.42425,671.231928 1273.66371,661.481973 1273.66371,659.09991 C1273.66371,656.718206 1272.18004,654.342601 1270.95159,652.970762 C1269.67911,651.554798 1268.82255,650.271928 1260.81575,647.134709 C1254.73718,644.756592 1249.08671,645.073004 1246.24143,645.545471 C1243.99284,645.922152 1239.9617,639.361794 1243.53503,633.009507 L1244.22157,631.936143 C1252.15749,621.535067 1263.98747,614.937399 1278.7404,614.937399 C1293.74318,614.937399 1308.98434,621.464036 1313.99553,632.469238 L1313.99553,632.476054 C1317.217,637.333094 1313.1923,645.836054 1310.02738,645.138296 C1306.27329,644.311031 1299.5268,645.686816 1296.07123,646.838744 C1290.55821,648.673722 1285.377,652.831928 1285.02228,655.66278 C1284.91597,656.529507 1285.51195,657.85148 1286.11007,658.862422 C1287.36537,660.995157 1291.00635,663.350314 1294.57933,663.807713 C1298.03669,664.249686 1302.53566,664.613094 1306.91866,663.68861 C1324.14783,660.058117 1315.36286,681.363229 1313.39275,688.034081 L1313.39275,688.034081 Z" id="Logo" sketch:type="MSShapeGroup"></path>
        </g>
    </g>
</svg>