<?xml version="1.0" encoding="UTF-8" standalone="no"?>
<svg width="81px" height="80px" viewBox="0 0 81 80" version="1.1" xmlns="http://www.w3.org/2000/svg" xmlns:xlink="http://www.w3.org/1999/xlink" xmlns:sketch="http://www.bohemiancoding.com/sketch/ns">
    <!-- Generator: Sketch 3.3.3 (12072) - http://www.bohemiancoding.com/sketch -->
    <title>Logo Copy</title>
    <desc>Created with Sketch.</desc>
    <defs></defs>
    <g id="DS-V2" stroke="none" stroke-width="1" fill="none" fill-rule="evenodd" sketch:type="MSPage">
        <g id="Project" sketch:type="MSArtboardGroup" transform="translate(-1239.670013, -80.000000)" fill="#6B6B77">
            <path d="M1279.86738,80 C1257.84931,80 1240,97.8893274 1240,119.956592 C1240,142.023498 1257.84931,159.913184 1279.86738,159.913184 C1301.88546,159.913184 1319.73459,142.023498 1319.73459,119.956592 C1319.73459,97.8893274 1301.88546,80 1279.86738,80 L1279.86738,80 Z M1272.49002,137.001973 C1272.4451,136.504215 1272.54264,135.970224 1273.1404,135.917668 C1274.43973,135.754978 1277.04286,135.483587 1278.99365,136.894709 C1279.42837,137.273722 1279.48116,136.894709 1279.75213,136.677489 C1280.02345,136.459193 1280.99884,135.427265 1282.19096,135.644126 C1283.38398,135.861525 1285.22613,136.242332 1285.71508,136.405919 C1286.19937,136.566637 1286.58094,137.001973 1286.30998,137.434619 C1286.03902,137.869955 1285.55472,139.18278 1284.30568,139.555874 C1282.8417,139.988161 1280.45709,139.555874 1279.59105,139.555874 C1278.72251,139.555874 1276.28206,139.827444 1275.52537,139.827444 C1274.76546,139.827444 1272.86998,139.610045 1272.49002,137.001973 L1272.49002,137.001973 Z M1296.69638,129.01704 C1295.73799,132.268341 1293.8332,136.583857 1290.39624,140.796771 C1287.65011,144.156771 1285.74461,146.372018 1282.14586,147.253632 C1281.23383,147.378296 1280.30532,147.442152 1279.36465,147.442152 C1277.39347,147.442152 1275.47579,147.160179 1273.67123,146.63426 C1273.33351,146.210942 1273.63114,145.709776 1274.14497,145.685202 C1278.09593,145.480359 1279.44304,145.155695 1280.43025,144.759283 C1281.53521,144.314619 1284.00197,142.18565 1284.87105,141.405022 C1285.73996,140.631211 1286.97485,138.587982 1287.40707,137.882511 C1289.62846,134.26583 1289.37468,132.954978 1288.10004,133.874439 C1287.62595,134.216143 1286.05298,134.411121 1285.38971,134.275516 C1284.17951,134.02583 1283.48957,133.290762 1282.76385,133.001794 C1282.03991,132.706906 1281.28143,132.675695 1280.56841,132.890942 C1279.93897,133.083049 1279.28841,133.852556 1278.71051,133.813453 C1278.32143,133.790135 1277.82336,133.690224 1276.82595,133.295067 C1276.07696,132.994081 1274.43329,132.795695 1273.66085,133.234439 C1272.88662,133.673184 1272.00447,134.615785 1271.37772,135.439821 C1270.74792,136.264036 1269.40063,138.430314 1267.51803,136.22009 C1266.91436,135.51157 1265.18747,132.59157 1263.97924,130.58583 C1262.89808,128.792466 1261.52304,125.954798 1261.9311,122.183857 C1262.32644,118.52574 1266.12206,116.544753 1268.41915,116.713184 C1270.9319,116.89435 1269.80528,121.556592 1269.75141,123.718206 C1269.63723,128.261525 1271.52949,129.959821 1273.60859,130.780987 C1276.09128,131.758027 1277.60698,131.080717 1279.75177,130.61991 C1281.87937,130.165919 1282.61888,128.606637 1283.62828,128.464753 C1285.48063,128.197668 1286.1915,125.572377 1285.58103,124.41435 C1285.09441,123.491839 1284.35794,122.246099 1283.43821,121.860807 C1282.07391,121.295785 1284.04814,123.404664 1284.2511,124.252018 C1284.76045,126.40287 1282.7719,126.549596 1282.7719,126.549596 C1281.63418,126.755516 1279.34264,129.25417 1276.87732,126.655964 C1276.14532,125.881435 1276.52743,123.850942 1276.61441,122.322511 C1276.71213,120.615964 1276.83186,115.740987 1276.83186,114.549955 C1276.83186,113.359103 1276.09002,112.1713 1275.47579,111.485381 C1274.83955,110.777399 1274.41128,110.135964 1270.40787,108.567354 C1267.36859,107.378296 1264.54336,107.536502 1263.12072,107.772735 C1261.99642,107.961076 1259.98085,104.680897 1261.76752,101.504753 L1262.11078,100.968072 C1266.07875,95.7675336 1271.99374,92.4686996 1279.3702,92.4686996 C1286.87159,92.4686996 1294.49217,95.7320179 1296.99776,101.234619 L1296.99776,101.238027 C1298.6085,103.666547 1296.59615,107.918027 1295.01369,107.569148 C1293.13664,107.155516 1289.7634,107.843408 1288.03562,108.419372 C1285.27911,109.336861 1282.6885,111.415964 1282.51114,112.83139 C1282.45799,113.264753 1282.75597,113.92574 1283.05503,114.431211 C1283.68268,115.497578 1285.50318,116.675157 1287.28966,116.903857 C1289.01834,117.124843 1291.26783,117.306547 1293.45933,116.844305 C1302.07391,115.029058 1297.68143,125.681614 1296.69638,129.01704 L1296.69638,129.01704 Z" id="Logo-Copy" sketch:type="MSShapeGroup"></path>
        </g>
    </g>
</svg>