<?xml version="1.0" standalone="no"?>
<!DOCTYPE svg PUBLIC "-//W3C//DTD SVG 1.1//EN" "http://www.w3.org/Graphics/SVG/1.1/DTD/svg11.dtd" >
<svg xmlns="http://www.w3.org/2000/svg">
<metadata>
Created by FontPrep 20130207 at Fri Jun 26 11:59:34 2015
 By Denis Stritar
Copyright (c) Laurenz Brunner. www.lineto.com, 2004. All rights reserved.
</metadata>
<defs>
<font id="f7245738dc754a382cf7b919e84b0652" horiz-adv-x='1024' >
  <font-face 
    font-family="Akkurat-LightItalic"
    font-weight="400"
    font-style="italic"
    font-stretch="normal"
    units-per-em="2048"
    panose-1="2 0 6 3 3 0 0 2 0 4"
    ascent="1638"
    descent="-410"
    x-height="1024"
    cap-height="1452"
    bbox="-299 -575 2150 1921"
    underline-thickness="92"
    underline-position="-145"
    unicode-range="U+0020-FB02"
  />
<missing-glyph horiz-adv-x="1204" 
d="M870 152v1124h-536v-1124h536zM180 1430h844v-1430h-844v1430z" />
    <glyph glyph-name=".notdef" horiz-adv-x="1204" 
d="M870 152v1124h-536v-1124h536zM180 1430h844v-1430h-844v1430z" />
    <glyph glyph-name=".null" horiz-adv-x="0" 
 />
    <glyph glyph-name="nonmarkingreturn" horiz-adv-x="436" 
 />
    <glyph glyph-name="space" unicode=" " horiz-adv-x="436" 
 />
    <glyph glyph-name="exclam" unicode="!" horiz-adv-x="624" 
d="M291 0h-156l29 156h155zM463 1055l-135 -590h-70l74 590l71 397h132z" />
    <glyph glyph-name="quotedbl" unicode="&#x22;" horiz-adv-x="892" 
d="M436 1198l-86 -311h-65l26 311l45 254h125zM745 1198l-86 -311h-65l27 311l45 254h125z" />
    <glyph glyph-name="numbersign" unicode="#" horiz-adv-x="1562" 
d="M629 926l-135 -428h442l135 428h-442zM1442 926h-279l-133 -428h270l-16 -92h-285l-129 -406h-92l129 406h-442l-129 -406h-94l129 406h-256l16 92h270l134 428h-263l17 92h276l129 405h92l-129 -405h443l129 405h94l-129 -405h264z" />
    <glyph glyph-name="dollar" unicode="$" 
d="M934 386q0 103 -60.5 169t-154.5 98l-74 25l-102 -576h18q149 0 227 54.5t112 110t34 119.5zM655 1350q-167 0 -255 -93q-89 -93 -89 -193q0 -101 52.5 -153.5t136.5 -79.5l84 -26l94 545h-23zM1110 1047v-13q0 -12 -2 -22h-98v20q0 129 -72 205t-178 100l-98 -557
l88 -28q121 -38 204.5 -125.5t83.5 -229.5t-106 -254q-139 -139 -379 -139h-27l-32 -184h-84l34 192q-205 32 -305 178q-71 106 -71 248v14q0 13 2 23h100v-29q0 -210 114.5 -267.5t176.5 -67.5l104 594l-94 30q-262 89 -262 322q0 143 96 243q78 84 168 116t197 32h26
l33 190h84l-35 -202q144 -30 238 -135t94 -254z" />
    <glyph glyph-name="percent" unicode="%" horiz-adv-x="1890" 
d="M739 1188q0 78 -47 138t-160 60t-177 -110.5t-64 -227.5q0 -118 47 -178.5t160 -60.5t177 110.5t64 268.5zM1581 444q0 78 -47 138.5t-160 60.5t-177 -110t-64 -228t47 -178.5t160 -60.5t177 111.5t64 266.5zM740 855q-94 -138 -261 -138q-129 0 -204.5 87t-75.5 216
q0 179 90.5 319t261.5 140q129 0 206 -87.5t77 -242.5q0 -156 -94 -294zM311 -25l-57 60l1309 1438l61 -56zM1582 111.5q-93 -138.5 -261 -138.5q-129 0 -205 86.5t-76 216.5q0 179 90.5 319t262.5 140q129 0 205.5 -88t76.5 -242q0 -155 -93 -293.5z" />
    <glyph glyph-name="ampersand" unicode="&#x26;" horiz-adv-x="1468" 
d="M238 340q0 -139 74.5 -202.5t193.5 -63.5q231 0 399 176l-334 467l-127 -72q-94 -53 -150 -138t-56 -167zM961 1162q0 109 -63 166.5t-137 57.5q-134 0 -213 -70t-79 -175q0 -104 57 -187q16 -20 31 -43t51 -73l185 104q72 41 120 97.5t48 122.5zM131 307q0 262 262 412
l127 72l-82 112q-71 98 -71 215q0 155 106 259t283 104q124 0 215.5 -81t91.5 -195q1 -193 -167 -304q-88 -59 -234 -133l307 -436q76 104 107.5 224t56.5 257h253l-14 -92h-155q-35 -204 -94.5 -313t-98.5 -154l182 -254h-123l-120 172q-210 -201 -467 -201
q-150 0 -257.5 97.5t-107.5 238.5z" />
    <glyph glyph-name="quotesingle" unicode="'" horiz-adv-x="489" 
d="M399 1198l-86 -311h-65l26 311l45 254h125z" />
    <glyph glyph-name="parenleft" unicode="(" horiz-adv-x="591" 
d="M702 1524q-475 -433 -475 -1040q0 -367 170 -683l-69 -39q-195 318 -195 725q0 378 162 661.5t352 434.5z" />
    <glyph glyph-name="parenright" unicode=")" horiz-adv-x="591" 
d="M-111 -176q476 434 476 1039q0 366 -170 683l69 37q195 -318 195 -723q0 -379 -165 -666t-349 -430z" />
    <glyph glyph-name="asterisk" unicode="*" horiz-adv-x="1089" 
d="M653 983l176 -293l-90 -57l-155 305l-267 -303l-69 61l274 293l-325 105l41 88l321 -123l39 366h104l-59 -366l361 121l18 -93z" />
    <glyph glyph-name="plus" unicode="+" horiz-adv-x="1394" 
d="M745 573v-563h-96v563h-502v93h502v526h96v-526h502v-93h-502z" />
    <glyph glyph-name="comma" unicode="," horiz-adv-x="546" 
d="M229 0q-18 -100 -59 -160.5t-145 -89.5l-23 62q80 27 108.5 69.5t43.5 118.5h-107l33 184h182z" />
    <glyph glyph-name="hyphen" unicode="-" horiz-adv-x="882" 
d="M705 571h-580l16 95h580z" />
    <glyph glyph-name="period" unicode="." horiz-adv-x="536" 
d="M229 0h-180l31 184h182z" />
    <glyph glyph-name="slash" unicode="/" horiz-adv-x="806" 
d="M18 -27h-102l899 1506h103z" />
    <glyph glyph-name="zero" unicode="0" 
d="M197 458q0 -386 307 -386q124 0 223 94q123 118 179.5 398t56.5 399q0 118 -22.5 193t-76.5 124q-74 74 -197 74t-214 -78q-138 -117 -197 -407.5t-59 -410.5zM973 1309q90 -119 90 -312t-69.5 -499.5t-235.5 -434.5q-119 -90 -266 -90q-190 0 -304 142q-92 122 -92 314
q0 193 70 500.5t235 432.5q119 90 267 90q188 0 305 -143z" />
    <glyph glyph-name="one" unicode="1" 
d="M575 0h-102l225 1288l-399 -260l23 123l411 272h92z" />
    <glyph glyph-name="two" unicode="2" 
d="M1061 1110q0 -96 -61.5 -193.5t-143.5 -175.5l-674 -643h709l-17 -98h-821l19 113l719 694q167 167 167 325t-103 190t-164 32q-122 0 -210.5 -88.5t-109.5 -210.5h-107q29 170 151 283.5t280 113.5q159 0 262.5 -87.5t103.5 -254.5z" />
    <glyph glyph-name="three" unicode="3" 
d="M66 336q0 66 4 86h100q-2 -14 -2 -17v-36q0 -145 88 -221t238 -76t245 97t95 239t-80 213t-205 71h-74l17 99h75q242 0 299.5 114.5t57.5 184.5q0 125 -84 193.5t-208 68.5t-218.5 -79.5t-118.5 -207.5h-111q32 172 156.5 278.5t292.5 106.5t282.5 -90.5t114.5 -235.5
t-81 -252.5t-214 -136.5q100 -43 151.5 -128t51.5 -189q0 -201 -134.5 -323t-319.5 -122q-184 0 -269.5 77t-117 148.5t-31.5 137.5z" />
    <glyph glyph-name="four" unicode="4" 
d="M1014 326h-199l-59 -326h-105l60 326h-672l18 112l754 985h121l-762 -995h557l78 440h104l-78 -440h199z" />
    <glyph glyph-name="five" unicode="5" 
d="M109 338q0 54 4 86h104q-2 -10 -2 -13v-32q0 -147 88 -228t230 -81t239 102q66 66 97.5 158t31.5 184q0 141 -75.5 225t-221.5 84q-186 0 -293 -131l-116 47l159 684h752l-16 -96h-656l-129 -539q111 132 302 132t295 -105.5t104 -290.5q0 -131 -60.5 -284t-192 -211
t-229.5 -58q-207 0 -323 133q-41 47 -66.5 113.5t-25.5 120.5z" />
    <glyph glyph-name="six" unicode="6" 
d="M820 742.5q-79 86.5 -236 86.5t-256 -128.5t-99 -294.5q0 -224 115.5 -279t195.5 -55t149 39t139.5 132t70.5 253t-79 246.5zM967 1094q0 122 -78.5 190t-205.5 68t-224 -97q-146 -146 -207 -524q57 90 152.5 141.5t192.5 51.5q189 0 298 -109t109 -289
q0 -224 -134.5 -388.5t-349.5 -164.5q-154 0 -260 97q-141 126 -141 389q0 191 66.5 469t222.5 411q124 111 284.5 111t270.5 -96.5t110 -259.5h-106z" />
    <glyph glyph-name="seven" unicode="7" 
d="M1106 1315l-870 -1315h-117l878 1325h-778l17 98h888z" />
    <glyph glyph-name="eight" unicode="8" 
d="M770 623q-96 77 -241 77q-146 0 -248.5 -95t-102.5 -236t92.5 -221t237.5 -80t251.5 97.5t106.5 238.5q0 142 -96 219zM862.5 1290.5q-91.5 69.5 -219.5 69.5q-127 0 -219 -88t-92 -215t89 -199t218 -72t222 87.5t93 217.5t-91.5 199.5zM978 862.5
q-81 -106.5 -208 -133.5q98 -43 148.5 -133t50.5 -192q0 -197 -142 -314t-323 -117t-306.5 100.5t-125.5 260.5q0 159 90 273t235 153q-80 41 -126 123t-46 171q0 173 132 285.5t300 112.5t285 -95.5t117 -241.5t-81 -252.5z" />
    <glyph glyph-name="nine" unicode="9" 
d="M855 1262.5q-77 91.5 -219 91.5t-241 -99q-133 -133 -133 -344q0 -141 79 -228t236 -87t256 132.5t99 287.5t-77 246.5zM658 1452q116 0 204 -62t134 -156q46 -95 46 -234t-23 -271q-42 -245 -129.5 -499.5t-406.5 -256.5q-173 0 -281 112t-108 253v16h107v-14
q0 -112 79 -190t211 -78t224 96q113 117 147.5 292t44.5 236q-79 -135 -189 -164.5t-180 -29.5q-152 0 -265 108.5t-113 288.5q0 119 41 228.5t118 189.5q130 135 339 135z" />
    <glyph glyph-name="colon" unicode=":" horiz-adv-x="598" 
d="M264 0h-170l33 176h170zM412 848h-170l32 176h170z" />
    <glyph glyph-name="semicolon" unicode=";" horiz-adv-x="598" 
d="M264 0q-16 -94 -55 -151.5t-137 -84.5l-21 58q76 25 103.5 65.5t40.5 112.5h-101l31 174h170zM412 848h-170l32 176h170z" />
    <glyph glyph-name="less" unicode="&#x3c;" horiz-adv-x="995" 
d="M774 -47l-672 670l670 669l62 -63l-607 -606l609 -609z" />
    <glyph glyph-name="equal" unicode="=" horiz-adv-x="1415" 
d="M215 279v94h956v-94h-956zM215 764v94h956v-94h-956z" />
    <glyph glyph-name="greater" unicode="&#x3e;" horiz-adv-x="995" 
d="M227 -47l-61 61l608 609l-606 606l61 63l670 -669z" />
    <glyph glyph-name="question" unicode="?" horiz-adv-x="995" 
d="M418 0h-160l27 160h159zM571 1477q223 0 337 -156q62 -85 63 -201q0 -248 -289 -395q-107 -56 -154 -127.5t-63 -179.5h-109q27 156 88 239t181 148t174.5 138t54.5 187t-84 178t-213 64t-222 -76.5t-116 -212.5h-110q28 175 155 284.5t307 109.5z" />
    <glyph glyph-name="at" unicode="@" horiz-adv-x="1908" 
d="M1192 752q0 80 -40 139t-124 59q-149 0 -238.5 -139t-89.5 -287q0 -83 44.5 -145t126.5 -62q143 0 227 136.5t94 273.5v25zM1763 834q0 -206 -89 -360t-181 -199.5t-169 -45.5t-127 44t-54 116q-41 -78 -119 -118t-153 -40q-132 0 -201.5 88t-69.5 192q0 216 121 371.5
t315 155.5q70 0 128.5 -37.5t78.5 -97.5l47 117h76l-135 -541q-8 -28 -8 -64t22.5 -68t79.5 -32q95 0 182 78q76 72 118 189t42 244q0 250 -173.5 404t-422.5 154q-182 0 -328.5 -70.5t-250 -188t-160 -269.5t-56.5 -302q0 -287 180 -464.5t451 -177.5t506 121l-16 -96
q-208 -117 -479 -117q-330 0 -537 201.5t-207 523.5q0 186 66.5 356t187.5 298t286.5 204t335.5 76q313 0 513 -181.5t200 -463.5z" />
    <glyph glyph-name="A" unicode="A" horiz-adv-x="1245" 
d="M727 1305l-455 -822h625zM997 0l-79 383h-703l-211 -383h-117l809 1452h105l299 -1452h-103z" />
    <glyph glyph-name="B" unicode="B" horiz-adv-x="1351" 
d="M1075 437q0 150 -101 210t-243 60h-407l-107 -607h408q311 0 380.5 125.5t69.5 211.5zM750 809q399 0 399 311q0 121 -90 176.5t-213 55.5h-408l-96 -543h408zM1182 886q-78 -110 -209 -134q104 -35 157.5 -115.5t53.5 -190.5q0 -216 -151 -331t-376 -115h-565l258 1452
h514q163 0 279.5 -84t116.5 -228t-78 -254z" />
    <glyph glyph-name="C" unicode="C" horiz-adv-x="1255" 
d="M1110 1004q0 160 -100 265t-269 105t-309 -137q-110 -110 -169.5 -320t-59.5 -367t65.5 -314.5t325.5 -157.5q158 0 278 112q100 91 136 228h110q-16 -72 -59 -151t-94 -132q-158 -162 -375 -162q-218 1 -358 143t-140 390q0 357 124 598.5t267 308t257 66.5
q217 0 349 -141t132 -334h-111z" />
    <glyph glyph-name="D" unicode="D" horiz-adv-x="1368" 
d="M1068.5 1241q-88.5 107 -265.5 107h-365l-221 -1244h379q176 0 303 107q125 101 191.5 317.5t66.5 411.5q0 194 -88.5 301zM1195 496q-73 -238 -222 -361q-167 -135 -395 -135h-486l258 1452h465q218 0 335.5 -135t117.5 -359t-73 -462z" />
    <glyph glyph-name="E" unicode="E" horiz-adv-x="1263" 
d="M1251 1350h-813l-94 -533h721l-18 -104h-721l-109 -611h823l-18 -102h-930l258 1452h920z" />
    <glyph glyph-name="F" unicode="F" horiz-adv-x="1183" 
d="M1235 1350h-797l-100 -562h723l-17 -102h-722l-123 -686h-107l258 1452h903z" />
    <glyph glyph-name="G" unicode="G" horiz-adv-x="1366" 
d="M1229 1020h-111q0 152 -93 251t-276 99q-182 0 -317 -133q-110 -110 -169.5 -320t-59.5 -367t34.5 -239t86.5 -132q106 -101 265 -101t271 96q162 136 217 473h-428l19 103h530l-131 -750h-82l19 197q-68 -106 -181.5 -165t-231.5 -59q-216 0 -358 142q-141 145 -141 391
q0 357 124 599t269 308t259 66q229 0 357 -137t128 -322z" />
    <glyph glyph-name="H" unicode="H" horiz-adv-x="1466" 
d="M1116 0h-106l127 713h-811l-127 -713h-107l258 1452h107l-113 -635h811l113 635h106z" />
    <glyph glyph-name="I" unicode="I" horiz-adv-x="550" 
d="M201 0h-109l258 1452h109z" />
    <glyph glyph-name="J" unicode="J" horiz-adv-x="1034" 
d="M86 350q0 -129 71.5 -200.5t198.5 -71.5t212.5 93.5t111.5 234.5l184 1046h107l-191 -1071q-29 -171 -144.5 -289.5t-285.5 -118.5t-271.5 103.5t-101.5 265.5q0 33 9 80h108q-8 -36 -8 -72z" />
    <glyph glyph-name="K" unicode="K" horiz-adv-x="1333" 
d="M811 909l369 -909h-115l-336 834l-459 -433l-71 -401h-107l258 1452h107l-160 -895l956 895h136z" />
    <glyph glyph-name="L" unicode="L" horiz-adv-x="1105" 
d="M952 0h-860l258 1452h107l-240 -1352h754z" />
    <glyph glyph-name="M" unicode="M" horiz-adv-x="1806" 
d="M1456 0h-106l233 1298l-758 -1278h-94l-309 1268l-223 -1288h-107l258 1452h139l308 -1292l757 1292h160z" />
    <glyph glyph-name="N" unicode="N" horiz-adv-x="1511" 
d="M1161 0h-110l-625 1288l-227 -1288h-107l258 1452h111l624 -1284l228 1284h106z" />
    <glyph glyph-name="O" unicode="O" horiz-adv-x="1343" 
d="M1133 950q0 94 -31 180.5t-86 138.5q-111 105 -279 105q-336 0 -435 -336t-99 -541q0 -204 125 -319q104 -100 274 -100t290 121t180.5 337t60.5 414zM1243 950q0 -350 -123.5 -601t-268 -313.5t-257.5 -62.5q-221 -1 -361 145q-141 146 -141 371t90.5 529.5t270.5 382.5
t293 78q216 0 356 -144q141 -141 141 -385z" />
    <glyph glyph-name="P" unicode="P" horiz-adv-x="1259" 
d="M1151 1060q0 150 -91 220t-231 70h-391l-114 -652h403q294 0 359 138.5t65 223.5zM1264 1056q0 -108 -44 -198t-155.5 -176t-355.5 -86h-404l-106 -596h-107l258 1452h498q179 0 297.5 -101t118.5 -295z" />
    <glyph glyph-name="Q" unicode="Q" horiz-adv-x="1343" 
d="M1135 950q0 94 -31 180.5t-86 138.5q-111 105 -279 105q-336 0 -435 -336t-99 -541q0 -204 125 -319q104 -100 268 -100q117 0 213 59l-184 279l80 55l182 -276q178 178 212 419.5t34 335.5zM1245 950q0 -350 -102 -556.5t-144.5 -242.5t-52.5 -47l103 -153l-78 -55
l-101 153q-127 -76 -257 -76q-238 -1 -378 145q-141 146 -141 372t92 530.5t270.5 381.5t291.5 77q216 0 356 -144q141 -141 141 -385z" />
    <glyph glyph-name="R" unicode="R" horiz-adv-x="1343" 
d="M1176 1063q0 147 -94 218t-236 71h-408l-112 -635h424q286 0 356 131t70 215zM1288 1092q0 -186 -99 -303t-271 -152l202 -637h-114l-201 618h-496l-110 -618h-107l258 1452h506q285 0 358.5 -134t73.5 -226z" />
    <glyph glyph-name="S" unicode="S" horiz-adv-x="1261" 
d="M1065 1024q0 140 -82 233q-107 119 -291 119q-185 0 -293 -106q-84 -89 -84 -195t60.5 -163.5t146.5 -80.5l264 -71q158 -43 234 -138.5t76 -198.5q0 -189 -117 -302q-152 -148 -404 -148q-140 0 -220.5 32t-130.5 69t-90 93q-79 111 -79 259v39h111v-31
q0 -176 116.5 -267t285.5 -91t292 85t123 236q0 86 -53.5 158t-175.5 104l-262 72q-123 33 -205 115t-82 225t95 242q95 98 189.5 132t204.5 34q225 0 365 -144q115 -115 115 -311h-109z" />
    <glyph glyph-name="T" unicode="T" horiz-adv-x="1091" 
d="M1171 1350h-462l-240 -1350h-107l240 1350h-461l19 102h1030z" />
    <glyph glyph-name="U" unicode="U" horiz-adv-x="1419" 
d="M620 -27q-206 0 -337 118t-131 325q0 41 10 116l164 920h106l-162 -922q-10 -72 -10 -131t23.5 -124.5t70.5 -108.5q98 -90 274 -90q175 0 298 123q123 118 159 331l164 922h107l-164 -920q-75 -390 -263.5 -474.5t-308.5 -84.5z" />
    <glyph glyph-name="V" unicode="V" horiz-adv-x="1157" 
d="M492 0h-99l-262 1452h107l231 -1298l684 1298h117z" />
    <glyph glyph-name="W" unicode="W" horiz-adv-x="1763" 
d="M1251 0h-112l-162 1272l-594 -1272h-117l-57 1452h98l53 -1298l594 1276h97l163 -1276l496 1298h102z" />
    <glyph glyph-name="X" unicode="X" horiz-adv-x="1171" 
d="M649 735l346 -735h-112l-305 649l-537 -649h-123l608 735l-348 717h109l309 -635l534 635h123z" />
    <glyph glyph-name="Y" unicode="Y" horiz-adv-x="1083" 
d="M553 575l-102 -575h-107l102 575l-346 877h109l305 -772l576 772h118z" />
    <glyph glyph-name="Z" unicode="Z" horiz-adv-x="1222" 
d="M1217 1337l-1100 -1237h907l-18 -100h-1033l21 115l1098 1237h-869l19 100h995z" />
    <glyph glyph-name="bracketleft" unicode="[" horiz-adv-x="653" 
d="M731 1477h-270l-287 -1629h270l-14 -84h-360l315 1797h360z" />
    <glyph glyph-name="backslash" unicode="\" horiz-adv-x="808" 
d="M539 -27l-383 1506h88l383 -1506h-88z" />
    <glyph glyph-name="bracketright" unicode="]" horiz-adv-x="653" 
d="M246 -236h-361l15 84h270l287 1629h-271l15 84h360z" />
    <glyph glyph-name="asciicircum" unicode="^" horiz-adv-x="1046" 
d="M809 829l-268 547l-271 -547h-112l327 650h113l324 -650h-113z" />
    <glyph glyph-name="underscore" unicode="_" horiz-adv-x="1081" 
d="M-53 -88v88h950v-88h-950z" />
    <glyph glyph-name="grave" unicode="`" horiz-adv-x="493" 
d="M459 1149l-305 205l65 86l283 -238z" />
    <glyph glyph-name="a" unicode="a" horiz-adv-x="1148" 
d="M766 850q-74 100 -215 100q-140 0 -236 -100q-78 -78 -116.5 -197t-38.5 -211t11 -144t42 -104q72 -120 227 -120q117 0 205.5 88.5t133 210.5t44.5 260q0 137 -57 217zM57 388q0 334 185 525q138 138 325 138q113 0 196 -66t105 -135l50 174h90l-183 -1024h-84l19 176
q-36 -82 -131 -142.5t-219 -60.5q-72 0 -151 42t-126 112q-76 106 -76 261z" />
    <glyph glyph-name="b" unicode="b" horiz-adv-x="1165" 
d="M851 848q-77 104 -220 104q-102 0 -194 -71t-137.5 -197t-45.5 -233t20.5 -168.5t83 -135t199.5 -73.5q184 0 277.5 158t93.5 335t-77 281zM650 1051q175 0 277.5 -133.5t102.5 -315.5q0 -253 -124.5 -441t-362.5 -188q-92 0 -172 45t-127 121q-4 8 -15.5 28.5
t-15.5 37.5l-51 -205h-90l262 1479h102q-27 -150 -52.5 -298.5t-53.5 -297.5q38 75 133.5 121.5t186.5 46.5z" />
    <glyph glyph-name="c" unicode="c" horiz-adv-x="1024" 
d="M825 678v6q1 114 -75 190t-202 76t-226 -100q-78 -74 -119 -198t-41 -228q0 -187 100 -279q75 -71 190 -71t196 63.5t116 161.5h108q-40 -143 -157 -234.5t-272 -91.5q-156 0 -265 109q-121 117 -121 313q0 145 47.5 286.5t149.5 240.5q134 129 301 129t272 -101
q107 -107 107 -258v-14h-109z" />
    <glyph glyph-name="d" unicode="d" horiz-adv-x="1165" 
d="M836 615q0 146 -76 240.5t-225 94.5q-106 0 -186 -68q-142 -119 -179 -341q-10 -55 -10 -125q0 -145 76.5 -243.5t222.5 -98.5q93 0 186 67q143 105 167 255t24 219zM442 -27q-179 0 -282 127.5t-103 305.5v8q0 198 89.5 371.5t209 219.5t189.5 46q134 0 225 -70
t113 -164l116 662h105l-266 -1479h-88l18 176l-4 -12q-47 -92 -137.5 -141.5t-184.5 -49.5z" />
    <glyph glyph-name="e" unicode="e" horiz-adv-x="1077" 
d="M856 595v60q0 40 -20.5 99t-80.5 128.5t-207 69.5t-263 -131q-80 -92 -111 -239h680q2 10 2 13zM958 623q0 -44 -16 -136h-782q-2 -16 -2 -19v-40q0 -174 86 -264t233 -90t215 81t84 126h109q-21 -98 -127 -198q-49 -46 -130 -78t-170 -32q-169 0 -285 120t-116 329
q0 310 179 491q138 138 316 138q178 -1 292 -115t114 -313z" />
    <glyph glyph-name="f" unicode="f" horiz-adv-x="704" 
d="M631 1382q-146 0 -180 -182l-31 -176h319l-16 -94h-322l-163 -930h-103l164 930h-205l17 94h206l33 188q20 117 97 190t198 73q79 0 191 -35l-17 -92q-110 34 -188 34z" />
    <glyph glyph-name="g" unicode="g" horiz-adv-x="1005" 
d="M754 -147q0 82 -57.5 120.5t-139.5 49.5l-315 36q-33 0 -49 -8q-68 -25 -112 -74t-44 -123t57 -133q90 -90 326 -90t285 91.5t49 130.5zM721 893.5q-80 67.5 -199 67.5t-206 -85.5t-87 -207.5t80 -185q68 -57 194 -57t212 82t86 200t-80 185.5zM903 740
q0 -188 -117.5 -297t-289.5 -109q-115 0 -207 51q-50 -13 -92.5 -51.5t-42.5 -85.5t32.5 -67.5t67.5 -24.5l336 -41q181 -21 223.5 -108t42.5 -146q0 -113 -69 -183t-171 -105.5t-208 -35.5q-107 0 -237.5 28t-179 121t-48.5 153q0 112 82 194q48 48 110 65q-80 53 -80 132
q0 80 50.5 130t111.5 78q-88 88 -88 215q0 171 116.5 285.5t271.5 114.5t253 -70q29 55 82.5 95t111.5 40t78 -8l-14 -90q-24 8 -62 8t-77 -29.5t-58 -72.5q72 -85 72 -186z" />
    <glyph glyph-name="h" unicode="h" horiz-adv-x="1187" 
d="M1008 754q0 -39 -7 -78l-120 -676h-103l119 674q6 33 6 65q0 88 -50.5 149.5t-152.5 61.5q-178 0 -289 -129t-145 -309l-92 -512h-102l262 1479h102l-110 -629q150 200 396 200q128 0 207 -83.5t79 -212.5z" />
    <glyph glyph-name="i" unicode="i" horiz-adv-x="493" 
d="M178 0h-106l182 1024h108zM428 1309h-143l24 143h144z" />
    <glyph glyph-name="j" unicode="j" horiz-adv-x="495" 
d="M-108 -328q123 0 153 172l211 1180h104l-215 -1200q-49 -250 -245 -250q-107 0 -199 49l18 101q102 -52 173 -52zM430 1309h-143l24 143h144z" />
    <glyph glyph-name="k" unicode="k" horiz-adv-x="1091" 
d="M631 629l299 -629h-119l-264 551l-326 -297l-45 -254h-104l262 1479h104l-188 -1065l674 610h139z" />
    <glyph glyph-name="l" unicode="l" horiz-adv-x="550" 
d="M201 168q0 -82 94 -82q44 0 100 23l-16 -97q-55 -24 -118 -24t-113 42t-50 120v20q0 20 4 35l228 1274h102l-227 -1270q-4 -20 -4 -41z" />
    <glyph glyph-name="m" unicode="m" horiz-adv-x="1783" 
d="M1604 780q0 -25 -3.5 -50t-7.5 -54l-118 -676h-103l117 670q10 62 10 92q0 193 -201 192q-98 0 -181 -65q-156 -122 -193 -338l-99 -551h-102l117 670q8 50 8 92q0 86 -46 139t-150 53t-197 -73q-141 -117 -189 -369l-92 -512h-102l182 1024h90l-20 -176
q88 138 187 170.5t163 32.5q131 0 198 -67t72 -155q53 90 154.5 156t230.5 66t202 -74t73 -197z" />
    <glyph glyph-name="n" unicode="n" horiz-adv-x="1187" 
d="M1008 754q0 -39 -7 -78l-120 -676h-103l119 674q6 33 6 65q0 88 -50.5 149.5t-152.5 61.5q-178 0 -289 -129t-145 -309l-92 -512h-102l182 1024h90l-20 -186q93 146 211 179.5t172 33.5q143 0 222 -84t79 -213z" />
    <glyph glyph-name="o" unicode="o" horiz-adv-x="1093" 
d="M854 616q0 220 -108 277t-180 57q-188 0 -296 -166t-108 -382t108 -272t180 -56q126 0 220 80q133 110 158.5 255.5t25.5 206.5zM958 589q0 -120 -54 -270.5t-176 -248.5t-293 -97q-170 0 -274 127t-104 291t54.5 314.5t176.5 248.5t293 97q170 0 281 -136
q47 -57 71.5 -131.5t24.5 -194.5z" />
    <glyph glyph-name="p" unicode="p" horiz-adv-x="1167" 
d="M853 848q-77 104 -220 104q-102 0 -194 -71t-137.5 -197t-45.5 -233t20.5 -168.5t83 -135t199.5 -73.5q184 0 277.5 158t93.5 335t-77 281zM1032 588q0 -98 -27.5 -210t-124.5 -258.5t-335 -146.5q-92 0 -173 45t-128 121q-4 10 -16.5 30.5t-16.5 37.5l-111 -617h-102
l254 1434h90l-14 -135q70 110 175 136t173 26t138.5 -39t119.5 -101.5t73.5 -143.5t24.5 -179z" />
    <glyph glyph-name="q" unicode="q" 
d="M836 615q0 146 -76 240.5t-225 94.5q-106 0 -195 -76q-180 -148 -180 -462q0 -144 78 -242t225 -98q95 0 188 67q185 136 185 476zM403.5 -27q-133.5 0 -240 126.5t-106.5 306.5q0 264 107 415t209.5 190.5t170.5 39.5q133 0 224 -70t113 -164l47 207h90l-254 -1434h-102
l94 533q-51 -72 -135 -111t-217.5 -39z" />
    <glyph glyph-name="r" unicode="r" horiz-adv-x="778" 
d="M686 1034q26 0 98 -12l-18 -102q-67 16 -98 16q-164 0 -265.5 -124.5t-136.5 -303.5l-94 -508h-100l184 1024h90l-24 -199q51 104 151 156.5t213 52.5z" />
    <glyph glyph-name="s" unicode="s" horiz-adv-x="1021" 
d="M788 735q0 111 -80 166t-203 55t-196 -77q-49 -49 -49 -128t58.5 -103.5t103.5 -39.5l188 -55q123 -35 176.5 -106t53.5 -143q0 -222 -153 -276.5t-251 -54.5q-197 0 -317 125q-84 84 -84 205v11q0 10 2 18h104v-19q-1 -94 57 -148q99 -93 250 -93q150 0 234 84
q53 49 53 131q0 119 -153 166l-191 55q-235 70 -235 224q0 79 21.5 126t66.5 90t118.5 73t156.5 30q167 0 270.5 -82t103.5 -234h-105z" />
    <glyph glyph-name="t" unicode="t" horiz-adv-x="753" 
d="M270 213q0 -131 146 -131q81 0 188 49l-18 -98q-91 -47 -188 -47t-164.5 52t-67.5 159q0 49 8 88l115 645h-205l16 94h205l51 283l107 28l-55 -311h317l-16 -94h-318l-112 -641q-9 -40 -9 -76z" />
    <glyph glyph-name="u" unicode="u" horiz-adv-x="1171" 
d="M406 -27q-143 0 -220 83t-77 212q0 40 8 80l119 676h104l-119 -670q-6 -37 -6 -69q0 -88 47.5 -149.5t149.5 -61.5q178 0 285 129t141 309l90 512h102l-180 -1024h-90l18 186q-94 -148 -206.5 -180.5t-165.5 -32.5z" />
    <glyph glyph-name="v" unicode="v" horiz-adv-x="958" 
d="M401 0h-104l-223 1024h108l189 -879l485 879h115z" />
    <glyph glyph-name="w" unicode="w" horiz-adv-x="1519" 
d="M1051 0h-117l-146 877l-454 -877h-127l-72 1024h98l62 -901l459 887h108l148 -879l381 893h96z" />
    <glyph glyph-name="x" unicode="x" horiz-adv-x="964" 
d="M514 524l274 -524h-114l-234 451l-399 -451h-129l463 524l-273 500h115l234 -432l391 432h127z" />
    <glyph glyph-name="y" unicode="y" horiz-adv-x="980" 
d="M16 -334q68 0 106 34t68 87l119 209l-235 1028h108l201 -909l504 909h110l-723 -1288q-93 -164 -247 -164q-41 0 -93.5 17.5t-89.5 45.5l17 93q87 -62 155 -62z" />
    <glyph glyph-name="z" unicode="z" horiz-adv-x="991" 
d="M909 911l-784 -813h653l-18 -98h-772l20 115l785 813h-641l18 96h760z" />
    <glyph glyph-name="braceleft" unicode="{" horiz-adv-x="714" 
d="M766 1475q-102 0 -159.5 -60.5t-74.5 -146.5l-63 -367q-16 -96 -76.5 -158.5t-159.5 -80.5q68 -18 111 -72.5t43 -126.5q0 -21 -4 -41l-64 -367q-4 -24 -4 -49q0 -72 41 -115t123 -43h53l-14 -86h-53q-115 0 -180.5 59.5t-65.5 168.5q0 31 6 65l64 367q2 10 2 31
q0 72 -53.5 112.5t-124.5 48.5l16 97q84 10 156.5 57t89.5 133l63 367q21 126 115 209.5t227 83.5h54l-15 -86h-53z" />
    <glyph glyph-name="bar" unicode="|" horiz-adv-x="524" 
d="M219 -236v1795h86v-1795h-86z" />
    <glyph glyph-name="braceright" unicode="}" horiz-adv-x="714" 
d="M401 1327q0 148 -165 148h-54l15 86h53q111 0 178.5 -55.5t67.5 -168.5q0 -33 -7 -69l-63 -367q-2 -10 -2 -31q0 -72 53 -111.5t125 -47.5l-16 -97q-84 -8 -157 -57t-89 -135l-64 -367q-54 -293 -342 -293h-53l15 86h53q106 0 161.5 59.5t71.5 147.5l64 367
q16 92 79.5 158.5t155.5 83.5q-63 16 -107 73.5t-44 128.5v12q0 13 2 23l63 367q6 31 6 59z" />
    <glyph glyph-name="asciitilde" unicode="~" horiz-adv-x="1265" 
d="M1081 637q-151 -127 -269 -127q-70 0 -117.5 19.5t-92.5 42t-90 42t-96 19.5q-102 0 -215 -94l-54 75q149 125 289 125q76 0 158 -40t127 -58t94 -18q98 0 215 88z" />
    <glyph glyph-name="Zcaron" horiz-adv-x="1222" 
d="M776 1550h-67l-205 293l65 55l181 -268l272 268l61 -55zM1217 1337l-1100 -1237h907l-18 -100h-1033l21 115l1098 1237h-869l19 100h995z" />
    <glyph glyph-name="Zcaron" unicode="&#x17d;" horiz-adv-x="1222" 
d="M776 1550h-67l-205 293l65 55l181 -268l272 268l61 -55zM1217 1337l-1100 -1237h907l-18 -100h-1033l21 115l1098 1237h-869l19 100h995z" />
    <glyph glyph-name="zcaron" horiz-adv-x="991" 
d="M578 1139h-62l-184 264l59 49l162 -242l246 242l55 -49zM909 911l-784 -813h653l-18 -98h-772l20 115l785 813h-641l18 96h760z" />
    <glyph glyph-name="zcaron" unicode="&#x17e;" horiz-adv-x="991" 
d="M578 1139h-62l-184 264l59 49l162 -242l246 242l55 -49zM909 911l-784 -813h653l-18 -98h-772l20 115l785 813h-641l18 96h760z" />
    <glyph glyph-name="uni00A0" unicode="&#xa0;" horiz-adv-x="436" 
 />
    <glyph glyph-name="exclamdown" unicode="&#xa1;" horiz-adv-x="624" 
d="M260 -20l-72 -398h-131l72 398l135 589h70zM430 879h-156l29 155h156z" />
    <glyph glyph-name="cent" unicode="&#xa2;" 
d="M268 594q0 -153 101 -244q49 -41 106 -59l154 862q-114 -11 -201 -98q-117 -111 -138.5 -252t-21.5 -209zM932 883v6q0 114 -76 190q-55 55 -143 72l-156 -872h14q104 0 184.5 64.5t114.5 160.5h109q-40 -145 -157 -235.5t-261 -90.5h-20l-33 -178h-84l35 190
q-102 23 -174 97q-121 117 -121 313q0 145 61.5 329.5t196.5 253t225 72.5l35 197h84l-35 -201q118 -16 203 -96q106 -106 106 -258v-14h-108z" />
    <glyph glyph-name="sterling" unicode="&#xa3;" horiz-adv-x="1179" 
d="M1130 1162q0 -42 -4 -66h-100q2 10 2 12v27q0 96 -56.5 160.5t-152.5 64.5t-195 -51t-141 -271l-41 -233h373l-16 -92h-373l-76 -422q-23 -142 -129 -187v-4h494q117 0 181.5 64.5t82.5 154.5h96q-33 -162 -135 -240.5t-244 -78.5h-665l20 113q167 13 199 188l74 412
h-170l16 92h170l41 237q35 207 150.5 309.5t274.5 102.5t221.5 -68.5t82.5 -125t20 -98.5z" />
    <glyph glyph-name="currency" unicode="&#xa4;" 
d="M938 518q0 76 -26.5 143.5t-73.5 118.5t-113 81t-143.5 30t-143 -30t-112.5 -81t-74 -118.5t-27 -143.5t27 -144.5t74 -119.5t112.5 -81t143 -30t143.5 30t113 81t73.5 119.5t26.5 144.5zM129 517q0 180 107 306l-158 138l82 81l137 -159q121 100 284.5 100t284.5 -100
l135 159l82 -81l-157 -138q108 -129 108 -306t-112 -310l161 -144l-82 -79l-141 163q-122 -96 -282 -96t-277 96l-141 -163l-82 79l164 144q-113 130 -113 310z" />
    <glyph glyph-name="yen" unicode="&#xa5;" 
d="M657 649h338l-14 -82h-385l-2 -4l-37 -207h387l-14 -84h-387l-49 -272h-103l49 272h-344l15 84h344l37 207l-3 4h-342l15 82h295l-305 774h104l301 -757l565 757h115z" />
    <glyph glyph-name="brokenbar" unicode="&#xa6;" horiz-adv-x="536" 
d="M219 -102v651h98v-651h-98zM219 897v657h98v-657h-98z" />
    <glyph glyph-name="section" unicode="&#xa7;" horiz-adv-x="1112" 
d="M815 336q0 75 -61 149l-332 385q-184 -77 -184 -252q0 -75 61 -149l334 -385q182 76 182 252zM305 1108q0 153 107.5 249.5t251.5 96.5q145 0 235 -86t90 -223q0 -35 -6 -72h-106q6 33 6 68q0 104 -61.5 160.5t-162.5 56.5t-174 -70t-73 -162t67 -170l352 -405
q82 -95 82 -206q0 -112 -61 -197t-166 -132q62 -88 62 -172t-30 -145t-80 -105.5t-115.5 -69t-172 -24.5t-197 86.5t-90.5 225.5q0 24 11 73h102q-6 -35 -6 -69q0 -104 60.5 -161.5t164.5 -57.5t175 66t71 161t-68 172l-352 407q-82 95 -82 206q0 112 62.5 195t167.5 130
q-64 90 -64 174z" />
    <glyph glyph-name="dieresis" unicode="&#xa8;" horiz-adv-x="591" 
d="M264 1276h-123l23 129h123zM643 1276h-125l23 129h125z" />
    <glyph glyph-name="copyright" unicode="&#xa9;" horiz-adv-x="1798" 
d="M932 1038q-134 0 -202 -93.5t-68 -229.5t73 -226q63 -73 165 -73t169.5 54t75.5 148h104q-12 -140 -109.5 -220.5t-240.5 -80.5q-144 0 -244 112t-100 288t101.5 298t247.5 122t239.5 -80.5t105.5 -220.5h-104q-8 94 -71.5 148t-141.5 54zM1546 724q0 138 -49 260
t-136 211t-206 141.5t-256 52.5t-256 -52.5t-206 -141.5t-136 -211t-49 -260t49 -258t136 -209t206 -140t256 -51t256 51t206 140t136 209t49 258zM1645 724q0 -157 -57.5 -293t-159 -238.5t-237.5 -161t-293 -58.5q-311 0 -527.5 218.5t-216.5 533.5q0 156 57 294
t158.5 239.5t236.5 161t292 59.5t293 -59.5t237.5 -161t159 -239.5t57.5 -295z" />
    <glyph glyph-name="ordfeminine" unicode="&#xaa;" horiz-adv-x="999" 
d="M279 864q0 -78 54 -118.5t133 -40.5q138 0 205.5 90t67.5 219v35l-280 -17q-86 -4 -133 -47t-47 -121zM821 803q1 -84 47 -84q26 0 35 2v-72q-16 -4 -17 -4h-22q-72 0 -97.5 42t-27.5 101q-29 -66 -103 -112.5t-150 -46.5q-139 0 -215 64.5t-76 172.5t70.5 169t187.5 69
l286 20v74q0 176 -204 176q-92 0 -151.5 -43t-66.5 -129h-81q8 121 90 185.5t216 64.5t201.5 -65t72.5 -128t5 -102v-354z" />
    <glyph glyph-name="guillemotleft" unicode="&#xab;" horiz-adv-x="1069" 
d="M217 596l209 -395l-72 -49l-252 452l406 438l57 -49zM641 596l209 -395l-72 -49l-252 452l406 438l57 -49z" />
    <glyph glyph-name="logicalnot" unicode="&#xac;" horiz-adv-x="1265" 
d="M981 244v327h-854v95h950v-422h-96z" />
    <glyph glyph-name="uni00AD" unicode="&#xad;" horiz-adv-x="882" 
d="M705 571h-580l16 95h580z" />
    <glyph glyph-name="registered" unicode="&#xae;" horiz-adv-x="1792" 
d="M1096 880.5q0 57.5 -39 105.5t-131 48h-185v-307h183q92 0 132 48t40 105.5zM1194 866q0 -62 -39 -125t-117 -92l148 -321h-111l-135 301h-199v-301h-96v805h281q130 0 199 -74t69 -193zM1540 724q0 138 -49 259t-136 211t-206 141t-256 51t-256 -51t-206 -141t-136 -211
t-49 -259t49 -258t136 -209t206 -140t256 -51t256 51t206 140t136 209t49 258zM1638 724q0 -157 -57 -293t-158.5 -238.5t-237.5 -161t-293 -58.5q-311 0 -528 219t-217 533q0 156 57.5 293t217 298t471.5 161q156 0 292 -58.5t237.5 -161t158.5 -239.5t57 -294z" />
    <glyph glyph-name="macron" unicode="&#xaf;" horiz-adv-x="602" 
d="M680 1262h-537l17 96h536z" />
    <glyph glyph-name="degree" unicode="&#xb0;" horiz-adv-x="972" 
d="M728.5 1318.5q-70.5 72.5 -172.5 72.5q-103 0 -175 -72t-72 -179t72.5 -178t174.5 -71t172.5 72t70.5 177q0 106 -70.5 178.5zM893 1140.5q0 -69.5 -26.5 -132t-72.5 -108.5t-107.5 -72.5t-131.5 -26.5t-132.5 26.5t-108.5 72.5t-72.5 108.5t-26.5 132t26.5 132
t72.5 108.5t108.5 73t132.5 27t131.5 -27t107.5 -73t72.5 -108.5t26.5 -132z" />
    <glyph glyph-name="plusminus" unicode="&#xb1;" horiz-adv-x="1163" 
d="M123 0v90h868v-90h-868zM606 721v-404h-96v404h-387v90h387v391h96v-391h385v-90h-385z" />
    <glyph glyph-name="twosuperior" unicode="&#xb2;" horiz-adv-x="843" 
d="M706 1132.5q-46 -57.5 -145 -133.5l-246 -190h385l-14 -90h-532l12 76l373 295q114 86 114 164q0 50 -31.5 86t-106.5 36t-124 -49t-61 -121h-99q32 179 138.5 220.5t160.5 41.5t93 -16t84 -58.5t45 -123.5q0 -80 -46 -137.5z" />
    <glyph glyph-name="threesuperior" unicode="&#xb3;" horiz-adv-x="921" 
d="M567 1382q-153 0 -196 -129h-103q29 104 114 158.5t200 54.5q150 0 188.5 -75.5t38.5 -127.5t-40 -104.5t-101 -71.5q45 -12 71.5 -55t26.5 -99t-29.5 -104.5t-74.5 -78.5q-86 -60 -200 -60t-185.5 63.5t-71.5 166.5l2 28h94l-2 -24q0 -72 51 -110t131 -38t137 51
q52 41 52 105q0 65 -46 88.5t-98 23.5h-55l16 86h62q61 0 110.5 32t49.5 94t-41 94t-101 32z" />
    <glyph glyph-name="acute" unicode="&#xb4;" horiz-adv-x="493" 
d="M180 1157l-24 55l364 238l43 -90z" />
    <glyph glyph-name="mu" unicode="&#xb5;" horiz-adv-x="1210" 
d="M537 -27q-175 0 -258 101v-484h-103v1434h103v-670q0 -135 61 -207.5t203 -72.5q178 0 259 125t81 313v512h102v-1024h-90l-12 186q-69 -148 -181 -180.5t-165 -32.5z" />
    <glyph glyph-name="paragraph" unicode="&#xb6;" horiz-adv-x="1376" 
d="M240 1064q0 75 34.5 148.5t126 155.5t271.5 82h690l-16 -98h-205l-285 -1608h-100l284 1608h-284l-285 -1608h-100l174 977q-126 8 -215.5 106t-89.5 237z" />
    <glyph glyph-name="periodcentered" unicode="&#xb7;" horiz-adv-x="577" 
d="M326 522h-181l33 185h180z" />
    <glyph glyph-name="cedilla" unicode="&#xb8;" horiz-adv-x="352" 
d="M18 -422l-100 53l193 275h100z" />
    <glyph glyph-name="onesuperior" unicode="&#xb9;" horiz-adv-x="657" 
d="M414 707h-97l111 630l-227 -151l20 110l232 156h92z" />
    <glyph glyph-name="ordmasculine" unicode="&#xba;" horiz-adv-x="999" 
d="M786 1038.5q0 75.5 -14 143.5t-55 110q-76 78 -184 78t-167 -60t-72 -128t-13 -143.5t13 -143.5t66 -121q60 -66 172 -66t169 60q57 59 71 127t14 143.5zM870 997.5q0 -254.5 -131 -312.5t-237.5 -58t-205.5 99t-99 354t132 312.5t237.5 57.5t204.5 -99t99 -353.5z" />
    <glyph glyph-name="guillemotright" unicode="&#xbb;" horiz-adv-x="1032" 
d="M104 152l-55 49l346 397l-207 395l72 49l252 -452zM528 152l-55 49l348 397l-209 395l70 49l254 -452z" />
    <glyph glyph-name="onequarter" unicode="&#xbc;" horiz-adv-x="1714" 
d="M492 707h-97l113 630l-227 -151l18 110l233 156h93zM1479 166h-131l-29 -166h-94l26 166h-381l19 100l407 494h113l-416 -504h275l30 170h97l-31 -170h131zM248 -25l-64 56l1313 1442l64 -54z" />
    <glyph glyph-name="onehalf" unicode="&#xbd;" horiz-adv-x="1843" 
d="M492 707h-97l113 630l-227 -151l18 110l233 156h93zM248 -25l-64 56l1313 1442l64 -54zM1537 409q-50 -61 -140 -128l-246 -191h385l-14 -90h-533l12 76l373 295q115 87 115 163q0 50 -32.5 86.5t-106.5 36.5t-123 -49t-62 -121h-98q33 181 138.5 222t159.5 41t93 -16.5
t84 -58.5t45 -123q0 -82 -50 -143z" />
    <glyph glyph-name="threequarters" unicode="&#xbe;" horiz-adv-x="1824" 
d="M567 1382q-153 0 -196 -129h-103q29 104 114 158.5t200 54.5q150 0 188.5 -75.5t38.5 -127.5t-40 -104.5t-101 -71.5q45 -12 71.5 -55t26.5 -99t-29.5 -104.5t-74.5 -78.5q-86 -60 -200 -60t-185.5 63.5t-71.5 166.5l2 28h94l-2 -24q0 -72 51 -110t131 -38t137 51
q52 41 52 105q0 65 -46 88.5t-98 23.5h-55l16 86h62q61 0 110.5 32t49.5 94t-41 94t-101 32zM1587 166h-131l-29 -166h-96l29 166h-381l18 100l410 494h113l-418 -504h274l31 170h96l-30 -170h131zM358 -25l-63 56l1313 1442l63 -54z" />
    <glyph glyph-name="questiondown" unicode="&#xbf;" horiz-adv-x="995" 
d="M353 -453q-93 0 -182 35t-151 121t-63 176q0 276 289 420q107 56 151.5 123.5t65.5 183.5h108q-28 -159 -89.5 -241.5t-180.5 -146.5t-173 -137t-54 -159t46.5 -178t250.5 -92q129 0 222 77.5t116 211.5h110q-32 -179 -157 -286.5t-309 -107.5zM643 864h-160l27 160h160z
" />
    <glyph glyph-name="Agrave" unicode="&#xc0;" horiz-adv-x="1245" 
d="M897 1616l-305 205l65 86l283 -238zM727 1305l-455 -822h625zM997 0l-79 383h-703l-211 -383h-117l809 1452h105l299 -1452h-103z" />
    <glyph glyph-name="Aacute" unicode="&#xc1;" horiz-adv-x="1245" 
d="M563 1573l-24 55l364 238l43 -90zM727 1305l-455 -822h625zM997 0l-79 383h-703l-211 -383h-117l809 1452h105l299 -1452h-103z" />
    <glyph glyph-name="Acircumflex" unicode="&#xc2;" horiz-adv-x="1245" 
d="M979 1563l-180 268l-273 -268l-55 55l303 293h64l206 -299zM727 1305l-455 -822h625zM997 0l-79 383h-703l-211 -383h-117l809 1452h105l299 -1452h-103z" />
    <glyph glyph-name="Atilde" unicode="&#xc3;" horiz-adv-x="1245" 
d="M891 1630q-50 0 -107 29t-88.5 42t-74 13t-93.5 -47l-41 55q83 78 168 78q52 0 108 -28.5t86 -42t71 -13.5t94 47l43 -55q-88 -78 -166 -78zM727 1305l-455 -822h625zM997 0l-79 383h-703l-211 -383h-117l809 1452h105l299 -1452h-103z" />
    <glyph glyph-name="Adieresis" unicode="&#xc4;" horiz-adv-x="1245" 
d="M1004 1624h-123l22 129h123zM627 1624h-123l22 129h123zM727 1305l-455 -822h625zM997 0l-79 383h-703l-211 -383h-117l809 1452h105l299 -1452h-103z" />
    <glyph glyph-name="Aring" unicode="&#xc5;" horiz-adv-x="1245" 
d="M727 1305l-455 -822h625zM907 1605.5q0 61.5 -40 104.5t-107.5 43t-107.5 -45t-40 -106.5t40 -104.5t107.5 -43t107.5 45t40 106.5zM530 1616q0 84 60.5 147.5t169 63.5t169 -63.5t60.5 -153.5t-45 -149.5t-129 -76.5l285 -1384h-103l-79 383h-703l-211 -383h-117
l779 1397q-136 52 -136 219z" />
    <glyph glyph-name="AE" unicode="&#xc6;" horiz-adv-x="1798" 
d="M813 1354l-520 -850h549l149 850h-178zM1808 1354h-712l-92 -529h610l-19 -100h-610l-111 -625h713l-18 -100h-817l71 406h-594l-247 -406h-119l901 1452h1063z" />
    <glyph glyph-name="Ccedilla" unicode="&#xc7;" horiz-adv-x="1255" 
d="M397 -422l-100 53l192 275h101zM1110 1004q0 160 -100 265t-269 105t-309 -137q-110 -110 -169.5 -320t-59.5 -367t65.5 -314.5t325.5 -157.5q158 0 278 112q100 91 136 228h110q-16 -72 -59 -151t-94 -132q-158 -162 -375 -162q-218 1 -358 143t-140 390
q0 357 124 598.5t267 308t257 66.5q217 0 349 -141t132 -334h-111z" />
    <glyph glyph-name="Egrave" unicode="&#xc8;" horiz-adv-x="1263" 
d="M932 1577l-305 205l65 86l283 -238zM1251 1350h-813l-94 -533h721l-18 -104h-721l-109 -611h823l-18 -102h-930l258 1452h920z" />
    <glyph glyph-name="Eacute" unicode="&#xc9;" horiz-adv-x="1263" 
d="M698 1573l-24 55l364 238l43 -90zM1251 1350h-813l-94 -533h721l-18 -104h-721l-109 -611h823l-18 -102h-930l258 1452h920z" />
    <glyph glyph-name="Ecircumflex" unicode="&#xca;" horiz-adv-x="1263" 
d="M1047 1573l-181 268l-272 -268l-55 55l303 293h63l207 -299zM1251 1350h-813l-94 -533h721l-18 -104h-721l-109 -611h823l-18 -102h-930l258 1452h920z" />
    <glyph glyph-name="Edieresis" unicode="&#xcb;" horiz-adv-x="1263" 
d="M1081 1665h-123l23 129h123zM705 1665h-123l22 129h123zM1251 1350h-813l-94 -533h721l-18 -104h-721l-109 -611h823l-18 -102h-930l258 1452h920z" />
    <glyph glyph-name="Igrave" unicode="&#xcc;" horiz-adv-x="550" 
d="M567 1616l-305 205l66 86l282 -238zM201 0h-109l258 1452h109z" />
    <glyph glyph-name="Iacute" unicode="&#xcd;" horiz-adv-x="550" 
d="M201 0h-109l258 1452h109zM285 1587l-23 49l328 215l39 -82z" />
    <glyph glyph-name="Icircumflex" unicode="&#xce;" horiz-adv-x="550" 
d="M201 0h-109l258 1452h109zM635 1581l-162 240l-246 -240l-49 49l273 262h57l186 -268z" />
    <glyph glyph-name="Idieresis" unicode="&#xcf;" horiz-adv-x="550" 
d="M637 1665h-123l23 129h122zM362 1665h-122l22 129h123zM201 0h-109l258 1452h109z" />
    <glyph glyph-name="Eth" unicode="&#xd0;" horiz-adv-x="1368" 
d="M1070.5 1241q-88.5 107 -265.5 107h-365l-98 -551h348l-14 -86h-348l-109 -607h379q176 0 303 107q125 101 191.5 317.5t66.5 411.5q0 194 -88.5 301zM1197 496q-73 -238 -222 -361q-167 -135 -395 -135h-486l127 711h-155l14 86h156l116 655h465q218 0 335.5 -135
t117.5 -359t-73 -462z" />
    <glyph glyph-name="Ntilde" unicode="&#xd1;" horiz-adv-x="1511" 
d="M1022 1577q-46 0 -105 28.5t-90.5 42t-72.5 13.5t-95 -47l-41 55q83 78 168 78q48 0 106 -28.5t88 -42t71 -13.5t94 47l43 -55q-88 -78 -166 -78zM1161 0h-110l-625 1288l-227 -1288h-107l258 1452h111l624 -1284l228 1284h106z" />
    <glyph glyph-name="Ograve" unicode="&#xd2;" horiz-adv-x="1343" 
d="M975 1593l-305 205l65 86l283 -237zM1133 950q0 94 -31 180.5t-86 138.5q-111 105 -279 105q-336 0 -435 -336t-99 -541q0 -204 125 -319q104 -100 274 -100t290 121t180.5 337t60.5 414zM1243 950q0 -350 -123.5 -601t-268 -313.5t-257.5 -62.5q-221 -1 -361 145
q-141 146 -141 371t90.5 529.5t270.5 382.5t293 78q216 0 356 -144q141 -141 141 -385z" />
    <glyph glyph-name="Oacute" unicode="&#xd3;" horiz-adv-x="1343" 
d="M659 1573l-24 55l364 238l43 -90zM1133 950q0 94 -31 180.5t-86 138.5q-111 105 -279 105q-336 0 -435 -336t-99 -541q0 -204 125 -319q104 -100 274 -100t290 121t180.5 337t60.5 414zM1243 950q0 -350 -123.5 -601t-268 -313.5t-257.5 -62.5q-221 -1 -361 145
q-141 146 -141 371t90.5 529.5t270.5 382.5t293 78q216 0 356 -144q141 -141 141 -385z" />
    <glyph glyph-name="Ocircumflex" unicode="&#xd4;" horiz-adv-x="1343" 
d="M1036 1563l-180 268l-272 -268l-56 55l303 293h64l207 -299zM1133 950q0 94 -31 180.5t-86 138.5q-111 105 -279 105q-336 0 -435 -336t-99 -541q0 -204 125 -319q104 -100 274 -100t290 121t180.5 337t60.5 414zM1243 950q0 -350 -123.5 -601t-268 -313.5t-257.5 -62.5
q-221 -1 -361 145q-141 146 -141 371t90.5 529.5t270.5 382.5t293 78q216 0 356 -144q141 -141 141 -385z" />
    <glyph glyph-name="Otilde" unicode="&#xd5;" horiz-adv-x="1343" 
d="M1118 1708q-88 -78 -158 -78q-44 0 -77 13.5t-90 42t-105.5 28.5t-97.5 -47l-41 55q83 78 168 78q50 0 107 -28.5t86.5 -42t71.5 -13.5t93 47zM1133 950q0 94 -31 180.5t-86 138.5q-111 105 -279 105q-336 0 -435 -336t-99 -541q0 -204 125 -319q104 -100 274 -100
t290 121t180.5 337t60.5 414zM1243 950q0 -350 -123.5 -601t-268 -313.5t-257.5 -62.5q-221 -1 -361 145q-141 146 -141 371t90.5 529.5t270.5 382.5t293 78q216 0 356 -144q141 -141 141 -385z" />
    <glyph glyph-name="Odieresis" unicode="&#xd6;" horiz-adv-x="1343" 
d="M1081 1624h-123l23 129h123zM705 1624h-123l22 129h123zM1133 950q0 94 -31 180.5t-86 138.5q-111 105 -279 105q-336 0 -435 -336t-99 -541q0 -204 125 -319q104 -100 274 -100t290 121t180.5 337t60.5 414zM1243 950q0 -350 -123.5 -601t-268 -313.5t-257.5 -62.5
q-221 -1 -361 145q-141 146 -141 371t90.5 529.5t270.5 382.5t293 78q216 0 356 -144q141 -141 141 -385z" />
    <glyph glyph-name="multiply" unicode="&#xd7;" horiz-adv-x="1378" 
d="M1167 66l-479 479l-477 -479l-64 63l480 479l-480 477l64 64l477 -477l479 477l64 -64l-479 -477l479 -479z" />
    <glyph glyph-name="Oslash" unicode="&#xd8;" horiz-adv-x="1347" 
d="M743 1374q-342 0 -441 -336t-99 -525t96 -304l680 1091q-99 74 -236 74zM1137 944q0 188 -97 301l-684 -1091q102 -76 240 -76q176 0 295 120t182.5 339t63.5 407zM1100 1339q147 -147 147 -374t-69.5 -461t-194.5 -363q-160 -168 -391 -168q-164 0 -291 88l-129 -204
l-70 39l136 217l-2 4q-144 144 -144 370t90.5 531t270.5 383t295 78q164 0 288 -86l115 182l70 -41z" />
    <glyph glyph-name="Ugrave" unicode="&#xd9;" horiz-adv-x="1419" 
d="M958 1591l-305 205l66 86l282 -237zM620 -27q-206 0 -337 118t-131 325q0 41 10 116l164 920h106l-162 -922q-10 -72 -10 -131t23.5 -124.5t70.5 -108.5q98 -90 274 -90q175 0 298 123q123 118 159 331l164 922h107l-164 -920q-75 -390 -263.5 -474.5t-308.5 -84.5z" />
    <glyph glyph-name="Uacute" unicode="&#xda;" horiz-adv-x="1419" 
d="M700 1573l-24 55l364 238l43 -90zM620 -27q-206 0 -337 118t-131 325q0 41 10 116l164 920h106l-162 -922q-10 -72 -10 -131t23.5 -124.5t70.5 -108.5q98 -90 274 -90q175 0 298 123q123 118 159 331l164 922h107l-164 -920q-75 -390 -263.5 -474.5t-308.5 -84.5z" />
    <glyph glyph-name="Ucircumflex" unicode="&#xdb;" horiz-adv-x="1419" 
d="M1075 1563l-180 268l-272 -268l-56 55l303 293h64l207 -299zM620 -27q-206 0 -337 118t-131 325q0 41 10 116l164 920h106l-162 -922q-10 -72 -10 -131t23.5 -124.5t70.5 -108.5q98 -90 274 -90q175 0 298 123q123 118 159 331l164 922h107l-164 -920
q-75 -390 -263.5 -474.5t-308.5 -84.5z" />
    <glyph glyph-name="Udieresis" unicode="&#xdc;" horiz-adv-x="1419" 
d="M1104 1626h-123l23 129h122zM727 1626h-123l23 129h123zM620 -27q-206 0 -337 118t-131 325q0 41 10 116l164 920h106l-162 -922q-10 -72 -10 -131t23.5 -124.5t70.5 -108.5q98 -90 274 -90q175 0 298 123q123 118 159 331l164 922h107l-164 -920q-75 -390 -263.5 -474.5
t-308.5 -84.5z" />
    <glyph glyph-name="Yacute" unicode="&#xdd;" horiz-adv-x="1083" 
d="M483 1552l-24 56l364 237l43 -90zM553 575l-102 -575h-107l102 575l-346 877h109l305 -772l576 772h118z" />
    <glyph glyph-name="Thorn" unicode="&#xde;" horiz-adv-x="1193" 
d="M1061 775q0 151 -91 220.5t-231 69.5h-354l-115 -651h367q295 0 359.5 138t64.5 223zM1174 772q0 -108 -44.5 -198.5t-156.5 -176.5t-355 -86h-366l-55 -311h-107l256 1452h107l-50 -285h355q179 0 297.5 -100.5t118.5 -294.5z" />
    <glyph glyph-name="germandbls" unicode="&#xdf;" horiz-adv-x="1208" 
d="M963 459q0 129 -91 207.5t-219 78.5h-82l19 99h117q123 0 199.5 85t76.5 203t-77.5 183t-188.5 65q-188 0 -246.5 -119.5t-69.5 -181.5l-194 -1079h-101l164 926h-182l16 98h185l10 63q31 176 143.5 284t276.5 108t267.5 -92.5t103.5 -222.5t-71 -240.5t-177 -135.5
q109 -41 169 -131t60 -199q0 -211 -141 -343.5t-348 -132.5q-87 0 -197 28l16 99q112 -25 190 -25q161 0 266.5 104.5t105.5 270.5z" />
    <glyph glyph-name="agrave" unicode="&#xe0;" horiz-adv-x="1148" 
d="M752 1149l-306 205l66 86l283 -238zM766 850q-74 100 -215 100q-140 0 -236 -100q-78 -78 -116.5 -197t-38.5 -211t11 -144t42 -104q72 -120 227 -120q117 0 205.5 88.5t133 210.5t44.5 260q0 137 -57 217zM57 388q0 334 185 525q138 138 325 138q113 0 196 -66t105 -135
l50 174h90l-183 -1024h-84l19 176q-36 -82 -131 -142.5t-219 -60.5q-72 0 -151 42t-126 112q-76 106 -76 261z" />
    <glyph glyph-name="aacute" unicode="&#xe1;" horiz-adv-x="1148" 
d="M473 1165l-24 56l364 237l43 -90zM766 850q-74 100 -215 100q-140 0 -236 -100q-78 -78 -116.5 -197t-38.5 -211t11 -144t42 -104q72 -120 227 -120q117 0 205.5 88.5t133 210.5t44.5 260q0 137 -57 217zM57 388q0 334 185 525q138 138 325 138q113 0 196 -66t105 -135
l50 174h90l-183 -1024h-84l19 176q-36 -82 -131 -142.5t-219 -60.5q-72 0 -151 42t-126 112q-76 106 -76 261z" />
    <glyph glyph-name="acircumflex" unicode="&#xe2;" horiz-adv-x="1148" 
d="M852 1151l-180 268l-273 -268l-55 55l303 293h64l207 -299zM766 850q-74 100 -215 100q-140 0 -236 -100q-78 -78 -116.5 -197t-38.5 -211t11 -144t42 -104q72 -120 227 -120q117 0 205.5 88.5t133 210.5t44.5 260q0 137 -57 217zM57 388q0 334 185 525q138 138 325 138
q113 0 196 -66t105 -135l50 174h90l-183 -1024h-84l19 176q-36 -82 -131 -142.5t-219 -60.5q-72 0 -151 42t-126 112q-76 106 -76 261z" />
    <glyph glyph-name="atilde" unicode="&#xe3;" horiz-adv-x="1148" 
d="M770 1243q-46 0 -105 28.5t-90.5 42t-73 13.5t-93.5 -47l-41 55q83 78 168 78q47 0 105 -28.5t88 -42t71 -13.5t94 47l43 -55q-88 -78 -166 -78zM766 850q-74 100 -215 100q-140 0 -236 -100q-78 -78 -116.5 -197t-38.5 -211t11 -144t42 -104q72 -120 227 -120
q117 0 205.5 88.5t133 210.5t44.5 260q0 137 -57 217zM57 388q0 334 185 525q138 138 325 138q113 0 196 -66t105 -135l50 174h90l-183 -1024h-84l19 176q-36 -82 -131 -142.5t-219 -60.5q-72 0 -151 42t-126 112q-76 106 -76 261z" />
    <glyph glyph-name="adieresis" unicode="&#xe4;" horiz-adv-x="1148" 
d="M909 1276h-123l23 129h123zM532 1276h-122l22 129h123zM766 850q-74 100 -215 100q-140 0 -236 -100q-78 -78 -116.5 -197t-38.5 -211t11 -144t42 -104q72 -120 227 -120q117 0 205.5 88.5t133 210.5t44.5 260q0 137 -57 217zM57 388q0 334 185 525q138 138 325 138
q113 0 196 -66t105 -135l50 174h90l-183 -1024h-84l19 176q-36 -82 -131 -142.5t-219 -60.5q-72 0 -151 42t-126 112q-76 106 -76 261z" />
    <glyph glyph-name="aring" unicode="&#xe5;" horiz-adv-x="1148" 
d="M786 1372.5q0 59.5 -36.5 101.5t-102 42t-103.5 -42t-38 -101.5t38 -101.5t103.5 -42t102 42t36.5 101.5zM866 1370q0 -94 -63.5 -153.5t-155.5 -59.5t-155.5 59.5t-63.5 153.5t57.5 155.5t162 61.5t161.5 -61.5t57 -155.5zM766 850q-74 100 -215 100q-140 0 -236 -100
q-78 -78 -116.5 -197t-38.5 -211t11 -144t42 -104q72 -120 227 -120q117 0 205.5 88.5t133 210.5t44.5 260q0 137 -57 217zM57 388q0 334 185 525q138 138 325 138q113 0 196 -66t105 -135l50 174h90l-183 -1024h-84l19 176q-36 -82 -131 -142.5t-219 -60.5q-72 0 -151 42
t-126 112q-76 106 -76 261z" />
    <glyph glyph-name="ae" unicode="&#xe6;" horiz-adv-x="1759" 
d="M420 487q-121 0 -201 -63.5t-80 -159.5t60 -145t145 -49q153 0 258 104t148 264l12 49h-342zM1534 595v60q0 40 -17.5 100t-74.5 129.5t-197 69.5q-141 0 -239.5 -105.5t-131.5 -266.5h658q2 10 2 13zM1636 652q0 -63 -10 -165h-764q-2 -16 -2 -19v-40q0 -241 112 -298.5
t176 -57.5q114 0 196 60t114 149h109q-10 -47 -44 -99.5t-69 -85.5q-129 -123 -301 -123q-218 0 -287 122t-82 181q-25 -59 -63.5 -108t-58.5 -68q-134 -127 -306 -127q-137 0 -228 74t-91 207q0 134 110.5 231t282.5 97h348q6 43 16 78q9 35 9 83q0 94 -57.5 152.5
t-168 58.5t-193.5 -53t-116 -160h-102q41 150 155.5 230t271.5 80t218 -78t72 -129q55 84 147 145.5t204 61.5t174 -28t116 -82t83 -140t29 -149z" />
    <glyph glyph-name="ccedilla" unicode="&#xe7;" horiz-adv-x="1024" 
d="M266 -426l-98 53l190 275h101zM825 678v6q1 114 -75 190t-202 76t-226 -100q-78 -74 -119 -198t-41 -228q0 -187 100 -279q75 -71 190 -71t196 63.5t116 161.5h108q-40 -143 -157 -234.5t-272 -91.5q-156 0 -265 109q-121 117 -121 313q0 145 47.5 286.5t149.5 240.5
q134 129 301 129t272 -101q107 -107 107 -258v-14h-109z" />
    <glyph glyph-name="egrave" unicode="&#xe8;" horiz-adv-x="1077" 
d="M772 1149l-305 205l65 86l283 -238zM856 595v60q0 40 -20.5 99t-80.5 128.5t-207 69.5t-263 -131q-80 -92 -111 -239h680q2 10 2 13zM958 623q0 -44 -16 -136h-782q-2 -16 -2 -19v-40q0 -174 86 -264t233 -90t215 81t84 126h109q-21 -98 -127 -198q-49 -46 -130 -78
t-170 -32q-169 0 -285 120t-116 329q0 310 179 491q138 138 316 138q178 -1 292 -115t114 -313z" />
    <glyph glyph-name="eacute" unicode="&#xe9;" horiz-adv-x="1077" 
d="M453 1165l-25 56l365 237l43 -90zM856 595v60q0 40 -20.5 99t-80.5 128.5t-207 69.5t-263 -131q-80 -92 -111 -239h680q2 10 2 13zM958 623q0 -44 -16 -136h-782q-2 -16 -2 -19v-40q0 -174 86 -264t233 -90t215 81t84 126h109q-21 -98 -127 -198q-49 -46 -130 -78
t-170 -32q-169 0 -285 120t-116 329q0 310 179 491q138 138 316 138q178 -1 292 -115t114 -313z" />
    <glyph glyph-name="ecircumflex" unicode="&#xea;" horiz-adv-x="1077" 
d="M807 1151l-180 268l-273 -268l-55 55l303 293h64l206 -299zM856 595v60q0 40 -20.5 99t-80.5 128.5t-207 69.5t-263 -131q-80 -92 -111 -239h680q2 10 2 13zM958 623q0 -44 -16 -136h-782q-2 -16 -2 -19v-40q0 -174 86 -264t233 -90t215 81t84 126h109q-21 -98 -127 -198
q-49 -46 -130 -78t-170 -32q-169 0 -285 120t-116 329q0 310 179 491q138 138 316 138q178 -1 292 -115t114 -313z" />
    <glyph glyph-name="edieresis" unicode="&#xeb;" horiz-adv-x="1077" 
d="M885 1276h-123l22 129h123zM508 1276h-123l23 129h122zM856 595v60q0 40 -20.5 99t-80.5 128.5t-207 69.5t-263 -131q-80 -92 -111 -239h680q2 10 2 13zM958 623q0 -44 -16 -136h-782q-2 -16 -2 -19v-40q0 -174 86 -264t233 -90t215 81t84 126h109q-21 -98 -127 -198
q-49 -46 -130 -78t-170 -32q-169 0 -285 120t-116 329q0 310 179 491q138 138 316 138q178 -1 292 -115t114 -313z" />
    <glyph glyph-name="igrave" unicode="&#xec;" horiz-adv-x="493" 
d="M178 0h-106l182 1024h108zM461 1251l-275 185l58 77l254 -213z" />
    <glyph glyph-name="iacute" unicode="&#xed;" horiz-adv-x="493" 
d="M178 0h-106l182 1024h108zM188 1260l-22 49l328 215l38 -82z" />
    <glyph glyph-name="icircumflex" unicode="&#xee;" horiz-adv-x="493" 
d="M178 0h-106l182 1024h108zM532 1169l-161 240l-246 -240l-49 50l272 262h58l186 -269z" />
    <glyph glyph-name="idieresis" unicode="&#xef;" horiz-adv-x="493" 
d="M551 1323h-123l23 129h122zM276 1323h-122l22 129h123zM178 0h-106l182 1024h108z" />
    <glyph glyph-name="eth" unicode="&#xf0;" horiz-adv-x="1105" 
d="M862 616q0 225 -108 279.5t-180 54.5q-189 0 -296.5 -167.5t-107.5 -374.5q0 -138 76 -236q76 -99 207 -98q131 0 225 80q136 112 160 256.5t24 205.5zM66 391q0 164 54 314.5t176 248.5t279 97q117 0 181 -56l-90 230h-265l15 82h219l-68 172h105l65 -172h209l-14 -82
h-162l156 -400q41 -107 41 -232q0 -124 -54.5 -274.5t-176.5 -248.5t-292 -97q-169 0 -282 138q-96 116 -96 280z" />
    <glyph glyph-name="ntilde" unicode="&#xf1;" horiz-adv-x="1187" 
d="M813 1249q-48 0 -106 29t-89.5 42t-74.5 13t-92 -47l-41 55q83 78 168 78q51 0 107 -28.5t86 -42t71 -13.5t94 47l43 -55q-88 -78 -166 -78zM1008 754q0 -39 -7 -78l-120 -676h-103l119 674q6 33 6 65q0 88 -50.5 149.5t-152.5 61.5q-178 0 -289 -129t-145 -309l-92 -512
h-102l182 1024h90l-20 -186q93 146 211 179.5t172 33.5q143 0 222 -84t79 -213z" />
    <glyph glyph-name="ograve" unicode="&#xf2;" horiz-adv-x="1093" 
d="M752 1149l-306 205l66 86l283 -238zM854 616q0 220 -108 277t-180 57q-188 0 -296 -166t-108 -382t108 -272t180 -56q126 0 220 80q133 110 158.5 255.5t25.5 206.5zM958 589q0 -120 -54 -270.5t-176 -248.5t-293 -97q-170 0 -274 127t-104 291t54.5 314.5t176.5 248.5
t293 97q170 0 281 -136q47 -57 71.5 -131.5t24.5 -194.5z" />
    <glyph glyph-name="oacute" unicode="&#xf3;" horiz-adv-x="1093" 
d="M473 1165l-24 56l364 237l43 -90zM854 616q0 220 -108 277t-180 57q-188 0 -296 -166t-108 -382t108 -272t180 -56q126 0 220 80q133 110 158.5 255.5t25.5 206.5zM958 589q0 -120 -54 -270.5t-176 -248.5t-293 -97q-170 0 -274 127t-104 291t54.5 314.5t176.5 248.5
t293 97q170 0 281 -136q47 -57 71.5 -131.5t24.5 -194.5z" />
    <glyph glyph-name="ocircumflex" unicode="&#xf4;" horiz-adv-x="1093" 
d="M844 1151l-180 268l-273 -268l-55 55l303 293h63l207 -299zM854 616q0 220 -108 277t-180 57q-188 0 -296 -166t-108 -382t108 -272t180 -56q126 0 220 80q133 110 158.5 255.5t25.5 206.5zM958 589q0 -120 -54 -270.5t-176 -248.5t-293 -97q-170 0 -274 127t-104 291
t54.5 314.5t176.5 248.5t293 97q170 0 281 -136q47 -57 71.5 -131.5t24.5 -194.5z" />
    <glyph glyph-name="otilde" unicode="&#xf5;" horiz-adv-x="1093" 
d="M770 1243q-46 0 -105 28.5t-90.5 42t-73 13.5t-93.5 -47l-41 55q83 78 168 78q47 0 105 -28.5t88 -42t71 -13.5t94 47l43 -55q-88 -78 -166 -78zM854 616q0 220 -108 277t-180 57q-188 0 -296 -166t-108 -382t108 -272t180 -56q126 0 220 80q133 110 158.5 255.5
t25.5 206.5zM958 589q0 -120 -54 -270.5t-176 -248.5t-293 -97q-170 0 -274 127t-104 291t54.5 314.5t176.5 248.5t293 97q170 0 281 -136q47 -57 71.5 -131.5t24.5 -194.5z" />
    <glyph glyph-name="odieresis" unicode="&#xf6;" horiz-adv-x="1093" 
d="M909 1276h-123l23 129h123zM532 1276h-122l22 129h123zM854 616q0 220 -108 277t-180 57q-188 0 -296 -166t-108 -382t108 -272t180 -56q126 0 220 80q133 110 158.5 255.5t25.5 206.5zM958 589q0 -120 -54 -270.5t-176 -248.5t-293 -97q-170 0 -274 127t-104 291
t54.5 314.5t176.5 248.5t293 97q170 0 281 -136q47 -57 71.5 -131.5t24.5 -194.5z" />
    <glyph glyph-name="divide" unicode="&#xf7;" horiz-adv-x="1333" 
d="M580 100v170h161v-170h-161zM168 567v95h997v-95h-997zM580 967v172h161v-172h-161z" />
    <glyph glyph-name="oslash" unicode="&#xf8;" horiz-adv-x="1093" 
d="M570 950q-192 0 -300 -166t-108 -376q0 -137 69 -230q4 -4 5.5 -6t5.5 -6l469 745q-65 39 -141 39zM443 74q198 0 304.5 166.5t106.5 352.5q0 185 -84 269l-469 -747q63 -41 142 -41zM583 1051q94 0 183 -54l113 181l67 -37l-119 -189q10 -10 70.5 -67t60.5 -296
q0 -120 -54 -270.5t-176 -248.5t-260 -97q-137 0 -222 56l-119 -189l-68 35l125 199q-127 127 -127 327q0 154 54.5 304.5t176.5 248.5q123 98 295 97z" />
    <glyph glyph-name="ugrave" unicode="&#xf9;" horiz-adv-x="1171" 
d="M793 1149l-306 205l66 86l283 -238zM406 -27q-143 0 -220 83t-77 212q0 40 8 80l119 676h104l-119 -670q-6 -37 -6 -69q0 -88 47.5 -149.5t149.5 -61.5q178 0 285 129t141 309l90 512h102l-180 -1024h-90l18 186q-94 -148 -206.5 -180.5t-165.5 -32.5z" />
    <glyph glyph-name="uacute" unicode="&#xfa;" horiz-adv-x="1171" 
d="M504 1161l-25 56l365 237l43 -90zM406 -27q-143 0 -220 83t-77 212q0 40 8 80l119 676h104l-119 -670q-6 -37 -6 -69q0 -88 47.5 -149.5t149.5 -61.5q178 0 285 129t141 309l90 512h102l-180 -1024h-90l18 186q-94 -148 -206.5 -180.5t-165.5 -32.5z" />
    <glyph glyph-name="ucircumflex" unicode="&#xfb;" horiz-adv-x="1171" 
d="M868 1151l-180 268l-272 -268l-56 55l304 293h63l207 -299zM406 -27q-143 0 -220 83t-77 212q0 40 8 80l119 676h104l-119 -670q-6 -37 -6 -69q0 -88 47.5 -149.5t149.5 -61.5q178 0 285 129t141 309l90 512h102l-180 -1024h-90l18 186q-94 -148 -206.5 -180.5
t-165.5 -32.5z" />
    <glyph glyph-name="udieresis" unicode="&#xfc;" horiz-adv-x="1171" 
d="M911 1276h-123l23 129h123zM535 1276h-123l22 129h123zM406 -27q-143 0 -220 83t-77 212q0 40 8 80l119 676h104l-119 -670q-6 -37 -6 -69q0 -88 47.5 -149.5t149.5 -61.5q178 0 285 129t141 309l90 512h102l-180 -1024h-90l18 186q-94 -148 -206.5 -180.5t-165.5 -32.5z
" />
    <glyph glyph-name="yacute" unicode="&#xfd;" horiz-adv-x="980" 
d="M410 1141l-25 55l365 238l43 -91zM16 -334q68 0 106 34t68 87l119 209l-235 1028h108l201 -909l504 909h110l-723 -1288q-93 -164 -247 -164q-41 0 -93.5 17.5t-89.5 45.5l17 93q87 -62 155 -62z" />
    <glyph glyph-name="thorn" unicode="&#xfe;" horiz-adv-x="1165" 
d="M851 848q-77 104 -220 104q-103 0 -179 -58q-139 -105 -173 -278l-15 -71q-10 -58 -10 -130q0 -146 83 -243.5t220 -97.5q184 0 277.5 158t93.5 335t-77 281zM1030 588q0 -98 -27.5 -210t-124.5 -258.5t-335 -146.5q-92 0 -172 45t-127 121q-4 8 -15.5 28.5t-15.5 37.5
l-113 -615h-102l336 1889h102l-106 -596q38 75 133.5 121.5t186.5 46.5t163 -39t120 -101.5t72.5 -143.5t24.5 -179z" />
    <glyph glyph-name="ydieresis" unicode="&#xff;" horiz-adv-x="980" 
d="M795 1276h-123l22 129h123zM418 1276h-123l22 129h123zM16 -334q68 0 106 34t68 87l119 209l-235 1028h108l201 -909l504 909h110l-723 -1288q-93 -164 -247 -164q-41 0 -93.5 17.5t-89.5 45.5l17 93q87 -62 155 -62z" />
    <glyph glyph-name="dotlessi" unicode="&#x131;" horiz-adv-x="493" 
d="M178 0h-106l182 1024h108z" />
    <glyph glyph-name="Lslash" unicode="&#x141;" horiz-adv-x="1105" 
d="M952 0h-860l115 639l-164 -90l-33 74l213 118l127 711h107l-115 -643l354 197l33 -74l-405 -225l-107 -607h754z" />
    <glyph glyph-name="lslash" unicode="&#x142;" horiz-adv-x="550" 
d="M229.5 101.5q28.5 -15.5 68.5 -15.5t97 23l-16 -97q-55 -24 -119 -24t-113 42t-49 120v20q0 20 4 35l101 563l-150 -84l-33 74l201 112l109 609h102l-98 -545l215 119l31 -74l-265 -148l-110 -622q-4 -20 -4 -56t28.5 -51.5z" />
    <glyph glyph-name="OE" unicode="&#x152;" horiz-adv-x="2105" 
d="M1116 948q0 211 -121 326q-100 100 -266 100t-295 -129q-105 -105 -169 -319.5t-64 -409.5t96 -316.5t277 -121.5q182 0 316 134t189 425l25 129q12 56 12 182zM594 -27q-249 0 -375.5 153.5t-126.5 391.5q0 341 125.5 589t265.5 310t232 62q169 0 295.5 -85t163.5 -225
l51 283h909l-18 -102h-803l-94 -533h706l-18 -104h-707l-108 -611h813l-19 -102h-919l37 201q-61 -98 -169 -163t-241 -65z" />
    <glyph glyph-name="oe" unicode="&#x153;" horiz-adv-x="1826" 
d="M162 404q0 -220 105 -275t175 -55q121 0 212 76t137.5 203.5t46.5 266.5t-66 224q-79 106 -225 106q-113 0 -207 -80q-134 -117 -156 -259.5t-22 -206.5zM1606 595v60q0 40 -19.5 100t-77 128.5t-198.5 68.5q-100 0 -212 -71.5t-159 -298.5h664q2 10 2 13zM1708 623
q0 -44 -16 -136h-766q-2 -16 -2 -19v-40q0 -176 85 -265t222 -89q98 0 181 57t116 148h106q-38 -117 -104 -180q-132 -126 -309 -126q-135 0 -237.5 77t-133.5 206q-57 -129 -162.5 -206t-247.5 -77q-181 0 -288 136q-94 117 -95 292q0 259 106.5 416t212 195.5t185.5 38.5
q151 0 258 -107q69 -69 90 -164q37 86 104 148q135 124 301 123q166 1 280 -115t114 -313z" />
    <glyph glyph-name="Scaron" unicode="&#x160;" horiz-adv-x="1261" 
d="M791 1550h-68l-205 293l66 55l180 -268l272 268l62 -55zM1065 1024q0 140 -82 233q-107 119 -291 119q-185 0 -293 -106q-84 -89 -84 -195t60.5 -163.5t146.5 -80.5l264 -71q158 -43 234 -138.5t76 -198.5q0 -189 -117 -302q-152 -148 -404 -148q-140 0 -220.5 32
t-130.5 69t-90 93q-79 111 -79 259v39h111v-31q0 -176 116.5 -267t285.5 -91t292 85t123 236q0 86 -53.5 158t-175.5 104l-262 72q-123 33 -205 115t-82 225t95 242q95 98 189.5 132t204.5 34q225 0 365 -144q115 -115 115 -311h-109z" />
    <glyph glyph-name="scaron" unicode="&#x161;" horiz-adv-x="1021" 
d="M606 1139h-61l-185 264l60 49l162 -242l245 242l56 -49zM788 735q0 111 -80 166t-203 55t-196 -77q-49 -49 -49 -128t58.5 -103.5t103.5 -39.5l188 -55q123 -35 176.5 -106t53.5 -143q0 -222 -153 -276.5t-251 -54.5q-197 0 -317 125q-84 84 -84 205v11q0 10 2 18h104
v-19q-1 -94 57 -148q99 -93 250 -93q150 0 234 84q53 49 53 131q0 119 -153 166l-191 55q-235 70 -235 224q0 79 21.5 126t66.5 90t118.5 73t156.5 30q167 0 270.5 -82t103.5 -234h-105z" />
    <glyph glyph-name="Ydieresis" unicode="&#x178;" horiz-adv-x="1083" 
d="M899 1636h-123l23 129h123zM522 1636h-123l23 129h123zM553 575l-102 -575h-107l102 575l-346 877h109l305 -772l576 772h118z" />
    <glyph glyph-name="florin" unicode="&#x192;" horiz-adv-x="1077" 
d="M838 1372q-137 0 -172 -182l-66 -318h309v-92h-327l-70 -346h-2l-86 -426q-29 -141 -100.5 -199.5t-176.5 -58.5q-60 0 -116 8v95q56 -7 124 -7q136 0 173 181l153 753h-229v92h250l67 334q29 141 101.5 199.5t177.5 58.5q45 0 117 -10v-96q-59 14 -127 14z" />
    <glyph glyph-name="circumflex" unicode="&#x2c6;" horiz-adv-x="722" 
d="M659 1151l-180 268l-272 -268l-55 55l303 293h63l207 -299z" />
    <glyph glyph-name="caron" unicode="&#x2c7;" horiz-adv-x="718" 
d="M500 1550h-68l-205 293l66 55l180 -268l272 268l62 -55z" />
    <glyph glyph-name="breve" unicode="&#x2d8;" horiz-adv-x="739" 
d="M462 1243q89 0 152.5 55.5t92.5 153.5h92q-33 -133 -128.5 -213t-215.5 -80t-189 67.5t-69 182.5q0 23 4 43h84l-2 -22q0 -86 45 -136.5t134 -50.5z" />
    <glyph glyph-name="dotaccent" unicode="&#x2d9;" horiz-adv-x="559" 
d="M453 1309h-142l27 143h141z" />
    <glyph glyph-name="ring" unicode="&#x2da;" horiz-adv-x="446" 
d="M475 1372.5q0 59.5 -37 101.5t-102.5 42t-103 -42t-37.5 -101.5t37.5 -101.5t103 -42t102.5 42t37 101.5zM555 1370q0 -94 -63.5 -153.5t-155.5 -59.5t-155.5 59.5t-63.5 153.5t57 155.5t161.5 61.5t162 -61.5t57.5 -155.5z" />
    <glyph glyph-name="ogonek" unicode="&#x2db;" horiz-adv-x="352" 
d="M20 -446l-75 327h90l100 -276z" />
    <glyph glyph-name="tilde" unicode="&#x2dc;" horiz-adv-x="733" 
d="M586 1249q-50 0 -107 29t-89 42t-74 13t-93 -47l-41 55q83 78 168 78q52 0 108 -28.5t85.5 -42t70.5 -13.5t95 47l43 -55q-88 -78 -166 -78z" />
    <glyph glyph-name="hungarumlaut" unicode="&#x2dd;" horiz-adv-x="935" 
d="M180 1151l-26 59l370 246l45 -92zM616 1151l-26 59l371 246l45 -92z" />
    <glyph glyph-name="uni03A9" unicode="&#x3a9;" horiz-adv-x="1798" 
d="M1128 846q0 55 -38.5 102t-128.5 47h-181v-301h178q90 0 130 48.5t40 103.5zM1153 668q-70 -70 -195 -70h-178v-293h-96v787h277q123 0 192.5 -71.5t69.5 -177t-70 -175.5zM1546 724q0 138 -49 260t-136 211t-206 141.5t-256 52.5t-256 -52.5t-206 -141.5t-136 -211
t-49 -260t49 -258t136 -209t206 -140t256 -51t256 51t206 140t136 209t49 258zM1645 724q0 -157 -57.5 -293t-159 -238.5t-237.5 -161t-293 -58.5q-311 0 -527.5 218.5t-216.5 533.5q0 156 57 294t158.5 239.5t236.5 161t292 59.5t293 -59.5t237.5 -161t159 -239.5
t57.5 -295z" />
    <glyph glyph-name="pi" unicode="&#x3c0;" horiz-adv-x="1308" 
d="M1061 -10q-96 0 -152.5 51t-56.5 168v723h-438v-932h-99v932h-168v92h973v-92h-164v-719q0 -53 20.5 -90t86.5 -37h33q32 0 55 4v-88q-48 -12 -90 -12z" />
    <glyph glyph-name="endash" unicode="&#x2013;" horiz-adv-x="1253" 
d="M1063 571h-950l16 95h950z" />
    <glyph glyph-name="emdash" unicode="&#x2014;" horiz-adv-x="2242" 
d="M2056 571h-1939l16 95h1940z" />
    <glyph glyph-name="quoteleft" unicode="&#x2018;" horiz-adv-x="473" 
d="M455 1417q-80 -27 -109 -69.5t-43 -118.5h107l-33 -185h-182l32 185q18 100 59.5 160.5t145.5 89.5z" />
    <glyph glyph-name="quoteright" unicode="&#x2019;" horiz-adv-x="432" 
d="M416 1268q-18 -100 -59.5 -160.5t-145.5 -89.5l-23 61q80 27 109 70t43 119h-107l33 184h183z" />
    <glyph glyph-name="quotesinglbase" unicode="&#x201a;" horiz-adv-x="493" 
d="M219 0q-18 -100 -59 -160.5t-146 -89.5l-22 62q80 27 108.5 69.5t42.5 118.5h-106l33 184h182z" />
    <glyph glyph-name="quotedblleft" unicode="&#x201c;" horiz-adv-x="786" 
d="M449 1417q-80 -27 -109 -69.5t-43 -118.5h106l-32 -185h-183l33 185q18 100 59.5 160.5t145.5 89.5zM786 1417q-80 -27 -108.5 -69.5t-42.5 -118.5h106l-32 -185h-183l33 185q18 100 59 160.5t146 89.5z" />
    <glyph glyph-name="quotedblright" unicode="&#x201d;" horiz-adv-x="765" 
d="M389 1268q-18 -100 -59 -160.5t-146 -89.5l-22 61q80 27 108.5 70t42.5 119h-106l33 184h182zM727 1268q-18 -100 -59 -160.5t-146 -89.5l-22 61q80 27 108.5 70t42.5 119h-106l33 184h182z" />
    <glyph glyph-name="quotedblbase" unicode="&#x201e;" horiz-adv-x="817" 
d="M195 0q-18 -100 -59.5 -160.5t-145.5 -89.5l-23 62q80 27 108.5 69.5t43.5 118.5h-107l33 184h182zM532 0q-18 -100 -59 -160.5t-145 -89.5l-23 62q80 27 108.5 69.5t43.5 118.5h-107l33 184h182z" />
    <glyph glyph-name="dagger" unicode="&#x2020;" horiz-adv-x="1157" 
d="M1073 934h-401l-209 -1190h-98l208 1190h-403l16 90h404l76 428h98l-76 -428h402z" />
    <glyph glyph-name="daggerdbl" unicode="&#x2021;" horiz-adv-x="1157" 
d="M1065 934h-401l-119 -672h403l-16 -90h-404l-75 -428h-99l76 428h-401l16 90h401l119 672h-403l14 90h404l75 428h99l-76 -428h401z" />
    <glyph glyph-name="bullet" unicode="&#x2022;" horiz-adv-x="868" 
d="M641 598q0 -49 -18.5 -92t-50 -75t-74.5 -50.5t-92.5 -18.5t-92.5 18.5t-74.5 50.5t-50 75t-18.5 92t18.5 92t50 75t74.5 50.5t92.5 18.5t92.5 -18.5t74.5 -50.5t50 -75t18.5 -92z" />
    <glyph glyph-name="ellipsis" unicode="&#x2026;" horiz-adv-x="1753" 
d="M250 0h-176l32 182h177zM836 0h-177l33 182h176zM1421 0h-176l33 182h176z" />
    <glyph glyph-name="perthousand" unicode="&#x2030;" horiz-adv-x="2273" 
d="M1343 430q0 74 -46 133.5t-129 59.5t-129 -34t-88 -110.5t-42 -187.5q0 -228 193 -228q120 0 180.5 108.5t60.5 258.5zM727 1196q0 74 -46 133.5t-129 59.5t-130 -34t-89 -109.5t-42 -187.5q0 -231 192 -231q119 0 181.5 110t62.5 259zM2058 430q0 74 -46 133.5
t-129 59.5t-129 -34t-88 -110.5t-42 -187.5q0 -228 193 -228q118 0 179.5 108t61.5 259zM1345.5 107q-90.5 -134 -253.5 -134q-124 0 -198.5 83t-74.5 234t88 287t254 136q128 0 201.5 -86t73.5 -236t-90.5 -284zM193 -25l-58 60l1309 1438l61 -56zM728 873.5
q-89 -134.5 -253 -134.5q-124 0 -198 83.5t-74 209.5q0 177 88.5 311t251.5 134q127 0 200.5 -85t73.5 -234q0 -150 -89 -284.5zM2059.5 107q-90.5 -134 -253.5 -134q-124 0 -198 83.5t-74 233.5t88 286.5t254 136.5q128 0 201 -85.5t73 -236.5q0 -150 -90.5 -284z" />
    <glyph glyph-name="guilsinglleft" unicode="&#x2039;" horiz-adv-x="645" 
d="M217 596l209 -395l-72 -49l-252 452l406 438l57 -49z" />
    <glyph glyph-name="guilsinglright" unicode="&#x203a;" horiz-adv-x="624" 
d="M104 152l-55 49l348 397l-209 395l70 49l254 -452z" />
    <glyph glyph-name="fraction" unicode="&#x2044;" horiz-adv-x="1202" 
d="M113 -25l-72 56l1059 1442l74 -52z" />
    <glyph glyph-name="Euro" unicode="&#x20ac;" horiz-adv-x="1210" 
d="M319 526q0 -208 113 -330q113 -121 318 -122q137 0 258 61l22 -88q-128 -72 -269 -72q-252 -1 -399 139t-151 412h-166l16 86h152q10 122 27 201h-146l17 86h149q79 286 245 420q167 135 385 135t363 -131l-53 -82q-133 115 -316 115q-184 0 -315 -113
q-136 -111 -198 -344h610l-53 -86h-578q-23 -106 -28 -201h497l-53 -86h-447z" />
    <glyph glyph-name="trademark" unicode="&#x2122;" horiz-adv-x="1687" 
d="M723 1370h-236l-129 -741h-86l129 741h-235l16 84h557zM1503 629h-86l127 723l-377 -705h-59l-127 705l-127 -723h-84l145 825h127l119 -668l355 668h133z" />
    <glyph glyph-name="Omega" unicode="&#x2126;" horiz-adv-x="1798" 
d="M1128 846q0 55 -38.5 102t-128.5 47h-181v-301h178q90 0 130 48.5t40 103.5zM1153 668q-70 -70 -195 -70h-178v-293h-96v787h277q123 0 192.5 -71.5t69.5 -177t-70 -175.5zM1546 724q0 138 -49 260t-136 211t-206 141.5t-256 52.5t-256 -52.5t-206 -141.5t-136 -211
t-49 -260t49 -258t136 -209t206 -140t256 -51t256 51t206 140t136 209t49 258zM1645 724q0 -157 -57.5 -293t-159 -238.5t-237.5 -161t-293 -58.5q-311 0 -527.5 218.5t-216.5 533.5q0 156 57 294t158.5 239.5t236.5 161t292 59.5t293 -59.5t237.5 -161t159 -239.5
t57.5 -295z" />
    <glyph glyph-name="partialdiff" unicode="&#x2202;" 
d="M893 0h-770l16 98h334l209 1190l-399 -260l22 123l412 272h92l-234 -1325h334z" />
    <glyph glyph-name="Delta" unicode="&#x2206;" horiz-adv-x="1439" 
d="M1192 496v798l-999 -999l-68 67l1003 1002h-780v88h930v-956h-86z" />
    <glyph glyph-name="product" unicode="&#x220f;" horiz-adv-x="1835" 
d="M162 -575v38h1511v-38h-1511zM162 -188v38h1511v-38h-1511zM162 201v39h1511v-39h-1511zM162 588v39h1511v-39h-1511zM162 977v39h1511v-39h-1511zM162 1364v39h1511v-39h-1511zM162 1753v39h1511v-39h-1511z" />
    <glyph glyph-name="summation" unicode="&#x2211;" horiz-adv-x="1892" 
d="M72 -147v450h82v-364h1407v364h79v-450h-1568z" />
    <glyph glyph-name="minus" unicode="&#x2212;" horiz-adv-x="1286" 
d="M137 571v95h950v-95h-950z" />
    <glyph glyph-name="radical" unicode="&#x221a;" horiz-adv-x="1388" 
d="M1411 1704v-90h-237l-543 -1630h-105l-354 1017h111l297 -872l518 1575h313z" />
    <glyph glyph-name="infinity" unicode="&#x221e;" horiz-adv-x="1470" 
d="M645 705q-168 0 -291 -96.5t-123 -252.5q0 -124 84.5 -193t212.5 -69h318l108 611h-309zM520 0q-213 0 -317 129q-76 89 -76 229t85.5 244t231.5 156q-78 41 -123 117.5t-45 160.5t33 159t95 135t160 93t198 33t180 -20l-16 -93q-273 53 -409 -46t-136 -257
q0 -115 88 -186q51 -41 111.5 -50t134.5 -9h256l41 243h104l-43 -243h232l-17 -90h-231l-111 -611h234l-17 -94h-643z" />
    <glyph glyph-name="integral" unicode="&#x222b;" horiz-adv-x="1439" 
d="M289 496h-86v956h930v-88h-781l1004 -1002l-68 -67l-999 999v-798z" />
    <glyph glyph-name="approxequal" unicode="&#x2248;" horiz-adv-x="1308" 
d="M416 350q-62 0 -103 -25.5t-90 -72.5l-71 72q59 61 119.5 98t134.5 37t131 -19.5t152 -63.5t164 -44t108.5 22.5t91.5 69.5l71 -72q-130 -133 -256 -133q-74 0 -127 20.5t-105 45t-105 45t-115 20.5zM428 791q-74 0 -115 -26t-90 -73l-71 72q59 61 119.5 98t134.5 37
t131 -20.5t110 -44t104 -44t111 -20.5t99.5 23.5t91.5 70.5l71 -71q-132 -136 -256 -136q-74 0 -127 20.5t-146 67t-167 46.5z" />
    <glyph glyph-name="notequal" unicode="&#x2260;" horiz-adv-x="1415" 
d="M229 279v94h263l262 391h-525v94h588l148 219l67 -45l-117 -174h271v-94h-334l-262 -391h596v-94h-660l-149 -224l-68 45l119 179h-199z" />
    <glyph glyph-name="lessequal" unicode="&#x2264;" horiz-adv-x="1720" 
d="M1628 670v-92h-1384l567 -564l-61 -61l-672 670l670 669l61 -61l-565 -561h1384z" />
    <glyph glyph-name="greaterequal" unicode="&#x2265;" horiz-adv-x="1720" 
d="M84 578v92h1384l-565 561l62 61l669 -669l-671 -670l-62 61l567 564h-1384z" />
    <glyph glyph-name="lozenge" unicode="&#x25ca;" 
d="M963 989v23q0 22 -2 37l-748 -760q62 -217 291 -217q124 0 223 94q123 118 179.5 398t56.5 425zM864 1280q-74 74 -197 74t-214 -78q-138 -117 -197 -407t-59 -433v-18q0 -19 2 -31l745 756q-25 86 -80 137zM973 1309q90 -119 90 -312t-69.5 -499.5t-235.5 -434.5
q-119 -90 -266 -90q-190 0 -304 142q-92 122 -92 314q0 193 70 500.5t235 432.5q119 90 267 90q188 0 305 -143z" />
    <glyph glyph-name="fi" unicode="&#xfb01;" horiz-adv-x="1189" 
d="M631 1382q-149 0 -185 -182l-30 -176h323l-16 -94h-324l-159 -930h-105l164 930h-205l17 94h204l33 188q20 117 98 190t199 73q79 0 191 -35l-17 -92q-110 34 -188 34zM877 0h-109l182 1024h109zM1124 1309h-143l25 143h143z" />
    <glyph glyph-name="fl" unicode="&#xfb02;" horiz-adv-x="1290" 
d="M631 1382q-149 0 -185 -182l-30 -176h323l-16 -94h-324l-159 -930h-105l164 930h-205l17 94h204l33 188q20 117 98 190t199 73q79 0 191 -35l-17 -92q-110 34 -188 34zM989.5 101.5q28.5 -15.5 68.5 -15.5t97 23l-16 -97q-55 -24 -119 -24t-113 42t-49 120v20q0 20 4 35
l223 1274h103l-223 -1270q-4 -20 -4 -56t28.5 -51.5z" />
    </font>
</defs>
</svg>
