<?xml version="1.0" encoding="UTF-8" standalone="no"?>
<svg width="19px" height="30px" viewBox="0 0 19 30" version="1.1" xmlns="http://www.w3.org/2000/svg" xmlns:xlink="http://www.w3.org/1999/xlink" xmlns:sketch="http://www.bohemiancoding.com/sketch/ns">
    <!-- Generator: Sketch 3.3.3 (12072) - http://www.bohemiancoding.com/sketch -->
    <title>BackHome</title>
    <desc>Created with Sketch.</desc>
    <defs></defs>
    <g id="DS-V2" stroke="none" stroke-width="1" fill="none" fill-rule="evenodd" sketch:type="MSPage">
        <g id="Project" sketch:type="MSArtboardGroup" transform="translate(-20.670013, -20.000000)" fill="#3B3B41">
            <g id="BackHome" sketch:type="MSLayerGroup" transform="translate(20.000000, 18.500000)">
                <path d="M-1.23654403,22.5 C-1.23654403,20.8431458 0.112163005,19.5 1.76101343,19.5 L18.6948307,19.5 C20.350336,19.5 21.6923882,20.8465171 21.6923882,22.5 L21.6923882,22.5 C21.6923882,24.1568542 20.3436811,25.5 18.6948307,25.5 L1.76101343,25.5 C0.105508155,25.5 -1.23654403,24.1534829 -1.23654403,22.5 L-1.23654403,22.5 Z" id="Rectangle-Copy" sketch:type="MSShapeGroup" transform="translate(10.227922, 22.500000) rotate(-315.000000) translate(-10.227922, -22.500000) "></path>
                <path d="M-1.23654403,10.5 C-1.23654403,8.84314575 0.112163005,7.5 1.76101343,7.5 L18.6948307,7.5 C20.350336,7.5 21.6923882,8.84651712 21.6923882,10.5 L21.6923882,10.5 C21.6923882,12.1568542 20.3436811,13.5 18.6948307,13.5 L1.76101343,13.5 C0.105508155,13.5 -1.23654403,12.1534829 -1.23654403,10.5 L-1.23654403,10.5 Z" id="Rectangle-Copy-2" sketch:type="MSShapeGroup" transform="translate(10.227922, 10.500000) scale(1, -1) rotate(-315.000000) translate(-10.227922, -10.500000) "></path>
            </g>
        </g>
    </g>
</svg>