<?xml version="1.0" encoding="UTF-8" standalone="no"?>
<svg width="32px" height="24px" viewBox="0 0 32 24" version="1.1" xmlns="http://www.w3.org/2000/svg" xmlns:xlink="http://www.w3.org/1999/xlink" xmlns:sketch="http://www.bohemiancoding.com/sketch/ns">
    <!-- Generator: Sketch 3.3.3 (12072) - http://www.bohemiancoding.com/sketch -->
    <title>S6</title>
    <desc>Created with Sketch.</desc>
    <defs></defs>
    <g id="DS-V2" stroke="none" stroke-width="1" fill="none" fill-rule="evenodd" sketch:type="MSPage">
        <g id="Desktop-HD" sketch:type="MSArtboardGroup" transform="translate(-1334.000000, -5985.000000)" fill="#404040">
            <g id="Behance-+-Dribbble-+-Imported-Layers" sketch:type="MSLayerGroup" transform="translate(1194.000000, 5984.000000)">
                <path d="M155.507209,11.0401179 C158.962402,4.65500963 164.328935,1.83957646 170.858148,1 C171.174496,2.3425053 171.057666,2.53753396 169.851482,2.80427991 C165.271928,3.8167949 162.409672,6.80304837 160.861641,11.5515197 C161.379668,11.2669201 161.782594,11.0469265 162.184367,10.8248148 C163.750405,9.95860911 165.393656,9.53859393 167.177363,9.7799211 C170.412005,10.2176386 172.39134,12.9377514 171.934826,16.3580911 C171.359608,20.6680884 168.21745,24.0091458 164.00524,24.7856292 C162.404486,25.0806687 160.810789,25.0991276 159.224296,24.6639821 C157.197134,24.1080975 155.723005,22.8587944 154.835473,20.8575189 C154.746879,20.6577999 154.649353,20.4623173 154.552547,20.2573027 C154.483976,20.3004238 154.427362,20.3151002 154.420015,20.3436963 C153.710393,23.106325 151.753387,24.2524399 149.276913,24.7228387 C147.195586,25.1181916 145.119877,25.1147117 143.074708,24.5116207 C142.483356,24.3373205 141.898775,24.0714823 141.369512,23.743459 C139.95848,22.8687804 139.603092,21.3799657 140.465558,20.179382 C141.295611,19.0240376 143.188513,18.7825592 144.175155,19.8802574 C144.808427,20.5848722 145.226046,21.5417079 145.609525,22.4466469 C146.193673,23.8256161 146.470694,23.9987059 147.820646,23.4381309 C148.62549,23.1040554 149.185869,22.5256267 149.425003,21.6315815 C149.742791,20.4432532 149.371702,19.5676668 148.281051,19.0443122 C147.061181,18.4590749 145.817974,17.927096 144.604443,17.3283928 C143.576168,16.8209249 142.756055,16.053217 142.328496,14.9164828 C141.724323,13.3105602 141.988955,11.8352115 143.085512,10.5669957 C144.377266,9.07288546 146.098596,8.470551 147.933875,8.16915682 C149.64152,7.88864236 151.333462,8.05658791 153.003076,8.47766221 C154.224674,8.78556239 155.146635,9.47141571 155.507209,11.0401179 L155.507209,11.0401179 Z M166.576728,14.6803133 C166.173236,12.5288144 164.554297,11.6395873 162.649948,12.5445489 C161.515463,13.0836457 160.521858,13.7530485 160.431835,15.2768486 C160.339183,16.8476995 160.060932,18.4112177 160.041934,19.9802354 C160.031266,20.8593803 160.250183,21.8052821 160.597996,22.6117123 C161.229906,24.0766991 162.595437,24.4008599 163.879423,23.49544 C164.253687,23.2316202 164.58601,22.8701855 164.863237,22.4934746 C166.227746,20.6386393 166.613555,18.4605598 166.723745,15.9404464 C166.695102,15.684723 166.669527,15.1755675 166.576728,14.6803133 Z M148.811587,8.95201875 C148.092072,9.3835125 147.419695,9.69620625 146.847408,10.1477813 C145.344125,11.3344313 145.502332,13.35555 147.163013,14.2865438 C147.749507,14.6152688 148.395569,14.833125 149.024036,15.0741 C150.821291,15.7629375 152.590942,16.4921063 153.792502,18.321525 C154.027067,16.617825 154.243551,15.0445688 154.464879,13.4357063 C151.97313,14.3346375 150.676,13.7343938 149.670099,11.2566375 C149.37887,10.5391125 149.127354,9.8037 148.811587,8.95201875 L148.811587,8.95201875 Z" id="S6" sketch:type="MSShapeGroup"></path>
            </g>
        </g>
    </g>
</svg>