# OBJ written from /Users/Stritar/stritar.github.io/vr/object/test.obj
# Units	meters

o Mesh
v -0.56 -0.56 -0.56
v 0.56 -0.56 -0.56
v 0.56 -0.56 0.56
v -0.56 -0.56 0.56
v -0.56 0.56 -0.56
v 0.56 0.56 -0.56
v 0.56 0.56 0.56
v -0.56 0.56 0.56
v 0.0957227 -0.56 0.56
v 0.0957227 -0.56 -0.56
v -0.0957227 -0.56 0.56
v -0.0957227 -0.56 -0.56
v 0.0957227 0.56 -0.56
v 0.0957227 0.56 0.56
v 0.0957227 1.185 -0.56
v -0.0957227 1.185 -0.56
v 0.0957227 1.185 0.56
v -0.0957227 1.185 0.56
v -0.0957227 0.459 -0.56
v -0.196723 0.56 -0.56
v -0.0957227 0.661 -0.56
v 0.00527734 0.56 -0.56
v 0.00527734 0.56 0.56
v -0.0957227 0.661 0.56
v -0.196723 0.56 0.56
v -0.0957227 0.459 0.56
v -0.0976634 0.641296 -0.56
v -0.0976634 0.641296 0.56
v -0.103411 0.622349 -0.56
v -0.103411 0.622349 0.56
v -0.112744 0.604887 -0.56
v -0.112744 0.604887 0.56
v -0.125305 0.589582 -0.56
v -0.125305 0.589582 0.56
v -0.14061 0.577022 -0.56
v -0.14061 0.577022 0.56
v -0.158072 0.567688 -0.56
v -0.158072 0.567688 0.56
v -0.177019 0.561941 -0.56
v -0.177019 0.561941 0.56
vn 1 0 0
vn -1 0 0
vn 0 -1 0
vn 0 0 -1
vn 0 0 1
vn 0 1 0
vn -0.998795 0.0490678 0
vn -0.980785 0.19509 0
vn -0.92388 0.382683 0
vn -0.83147 0.55557 0
vn -0.707106 0.707107 0
vn -0.55557 0.83147 0
vn -0.382684 0.923879 0
vn -0.19509 0.980785 0
vn -0.0490672 0.998795 0
vt 0.75 0.666667
vt 0.5 0.666667
vt 0.5 0.333333
vt 0.75 0.333333
vt 0.25 0.666667
vt 0 0.666667
vt 0 0.333333
vt 0.25 0.333333
vt 0.396367 0
vt 0.5 0
vt 0.396367 0.333333
vt 0.353633 0.333333
vt 0.353633 0
vt 0.25 0
vt 0.853633 0.666667
vt 0.853633 0.333333
vt 0.396367 0.666667
vt 0.5 1
vt 0.396367 1
vt 0.353633 1
vt 0.353633 0.666667
vt 0.350815 1
vt 0.350815 0.666667
vt 0.347997 1
vt 0.347997 0.666667
vt 0.345179 1
vt 0.345179 0.666667
vt 0.342361 1
vt 0.342361 0.666667
vt 0.339543 1
vt 0.339543 0.666667
vt 0.336725 1
vt 0.336725 0.666667
vt 0.333907 1
vt 0.333907 0.666667
vt 0.331089 1
vt 0.331089 0.666667
vt 0.896367 0.646422
vt 0.876122 0.666667
vt 0.880071 0.667056
vt 0.883869 0.668208
vt 0.887369 0.670079
vt 0.890437 0.672596
vt 0.892955 0.675664
vt 0.894826 0.679164
vt 0.895978 0.682962
vt 0.896367 0.686912
vt 0.916612 0.666667
vt 0.376178 0.666667
vt 0.353633 0.636607
vt 0.896367 0.333333
vt 0.896367 0.636607
vt 0.873822 0.666667
vt 1 0.333333
vt 1 0.666667
vt 0.918911 0.666667
vt 0.25 1
vt 0.376178 1
mtllib test.mtl
usemtl Default
g Default
f 6/1/1 7/2/1 3/3/1 2/4/1
f 8/5/2 5/6/2 1/7/2 4/8/2
f 10/9/3 2/10/3 3/3/3 9/11/3
f 9/11/3 11/12/3 12/13/3 10/9/3
f 11/12/3 4/8/3 1/14/3 12/13/3
f 13/15/4 6/1/4 2/4/4 10/16/4
f 9/11/5 3/3/5 7/2/5 14/17/5
f 14/17/6 7/2/6 6/18/6 13/19/6
f 14/17/1 13/19/1 15/19/1 17/17/1
f 15/19/6 16/20/6 18/21/6 17/17/6
f 24/21/7 21/20/7 27/22/8 28/23/8
f 28/23/8 27/22/8 29/24/9 30/25/9
f 30/25/9 29/24/9 31/26/10 32/27/10
f 32/27/10 31/26/10 33/28/11 34/29/11
f 34/29/11 33/28/11 35/30/12 36/31/12
f 36/31/12 35/30/12 37/32/13 38/33/13
f 38/33/13 37/32/13 39/34/14 40/35/14
f 40/35/14 39/34/14 20/36/15 25/37/15
f 19/38/4 20/39/4 39/40/4 37/41/4 35/42/4 33/43/4 31/44/4 29/45/4 27/46/4 21/47/4 22/48/4
f 23/49/5 24/21/5 28/23/5 30/25/5 32/27/5 34/29/5 36/31/5 38/33/5 40/35/5 25/37/5 26/50/5
f 12/51/4 19/52/4 22/53/4 13/15/4 10/16/4
f 1/54/4 5/55/4 20/56/4 19/52/4 12/51/4
f 23/49/5 26/50/5 11/12/5 9/11/5 14/17/5
f 25/37/5 8/5/5 4/8/5 11/12/5 26/50/5
f 5/57/6 8/5/6 25/37/15 20/36/15
f 23/49/5 14/17/5 17/17/5 18/21/5 24/21/5
f 22/58/4 21/20/4 16/20/4 15/19/4 13/19/4
f 24/21/7 18/21/2 16/20/2 21/20/7
