<?xml version="1.0" encoding="UTF-8"?>
<svg width="24px" height="24px" viewBox="0 0 24 24" version="1.1" xmlns="http://www.w3.org/2000/svg" xmlns:xlink="http://www.w3.org/1999/xlink">
    <!-- Generator: Sketch 54.1 (76490) - https://sketchapp.com -->
    <title>arrow</title>
    <desc>Created with Sketch.</desc>
    <g id="arrow" stroke="none" stroke-width="1" fill="none" fill-rule="evenodd">
        <path d="M12,24 C18.627417,24 24,18.627417 24,12 C24,5.372583 18.627417,0 12,0 C5.372583,0 0,5.372583 0,12 C0,18.627417 5.372583,24 12,24 Z M12,21 C7.02943725,21 3,16.9705627 3,12 C3,7.02943725 7.02943725,3 12,3 C16.9705627,3 21,7.02943725 21,12 C21,16.9705627 16.9705627,21 12,21 Z" id="Oval" fill="#FF3100" fill-rule="nonzero"></path>
        <path d="M10.5547002,7.0364668 L16.7519246,11.1679497 C17.2114532,11.4743022 17.3356271,12.0951715 17.0292747,12.5547002 C16.9560398,12.6645525 16.8617768,12.7588154 16.7519246,12.8320503 L10.5547002,16.9635332 C10.0951715,17.2698857 9.47430216,17.1457118 9.16794971,16.6861831 C9.05843803,16.5219156 9,16.3289079 9,16.1314829 L9,7.86851709 C9,7.31623234 9.44771525,6.86851709 10,6.86851709 C10.197425,6.86851709 10.3904327,6.92695512 10.5547002,7.0364668 Z" id="Rectangle" fill="#FF3100"></path>
    </g>
</svg>