<?xml version="1.0" encoding="UTF-8"?>
<svg width="24px" height="24px" viewBox="0 0 24 24" version="1.1" xmlns="http://www.w3.org/2000/svg" xmlns:xlink="http://www.w3.org/1999/xlink">
    <!-- Generator: Sketch 53.2 (72643) - https://sketchapp.com -->
    <title>arrow</title>
    <desc>Created with Sketch.</desc>
    <g id="arrow" stroke="none" stroke-width="1" fill="none" fill-rule="evenodd">
        <path d="M12,0 C5.372583,-4.05812251e-16 8.11624501e-16,5.372583 0,12 C-8.11624501e-16,18.627417 5.372583,24 12,24 C18.627417,24 24,18.627417 24,12 C23.9928352,5.37555305 18.624447,0.00716484761 12,0 Z M8.253,17.571 C8.09714808,17.4824514 8.00062116,17.3172492 8,17.138 L8,6.862 C7.99970064,6.68362937 8.09444636,6.51860723 8.24863885,6.42893646 C8.40283134,6.3392657 8.59311669,6.33852779 8.748,6.427 L17.741,11.566 C17.8966679,11.6550543 17.9927179,11.8206591 17.9927179,12 C17.9927179,12.1793409 17.8966679,12.3449457 17.741,12.434 L8.752,17.573 C8.59719757,17.6613138 8.40708954,17.6605519 8.253,17.571 L8.253,17.571 Z" id="Shape" fill="#EC1349"></path>
    </g>
</svg>