<svg height="24" viewBox="0 0 24 24" width="24" xmlns="http://www.w3.org/2000/svg"><path d="m12 0c-6.627417 0-12 5.372583-12 12s5.372583 12 12 12 12-5.372583 12-12c-.0071648-6.62444695-5.375553-11.99283515-12-12zm-3.747 17.571c-.15585192-.0885486-.25237884-.2537508-.253-.433v-10.276c-.00029936-.17837063.09444636-.34339277.24863885-.43306354.15419249-.08967076.34447784-.09040867.49936115-.00193646l8.993 5.139c.1556679.0890543.2517179.2546591.2517179.434s-.09605.3449457-.2517179.434l-8.989 5.139c-.15480243.0883138-.34491046.0875519-.499-.002z" fill="#ff3100" fill-rule="evenodd"/></svg>