<?xml version="1.0" encoding="UTF-8"?>
<svg width="24px" height="24px" viewBox="0 0 24 24" version="1.1" xmlns="http://www.w3.org/2000/svg" xmlns:xlink="http://www.w3.org/1999/xlink">
    <!-- Generator: Sketch 54.1 (76490) - https://sketchapp.com -->
    <title>arrow</title>
    <desc>Created with Sketch.</desc>
    <g id="arrow" stroke="none" stroke-width="1" fill="none" fill-rule="evenodd">
        <path d="M12,24 C5.372583,24 0,18.627417 0,12 C0,5.372583 5.372583,0 12,0 C18.627417,0 24,5.372583 24,12 C24,18.627417 18.627417,24 12,24 Z M10.5547002,7.0364668 C10.3904327,6.92695512 10.197425,6.86851709 10,6.86851709 C9.44771525,6.86851709 9,7.31623234 9,7.86851709 L9,16.1314829 C9,16.3289079 9.05843803,16.5219156 9.16794971,16.6861831 C9.47430216,17.1457118 10.0951715,17.2698857 10.5547002,16.9635332 L16.7519246,12.8320503 C16.8617768,12.7588154 16.9560398,12.6645525 17.0292747,12.5547002 C17.3356271,12.0951715 17.2114532,11.4743022 16.7519246,11.1679497 L10.5547002,7.0364668 Z" id="Combined-Shape" fill="#FF1A6C"></path>
    </g>
</svg>