<svg height="24" viewBox="0 0 24 24" width="24" xmlns="http://www.w3.org/2000/svg"><path d="m12 24c-6.627417 0-12-5.372583-12-12s5.372583-12 12-12 12 5.372583 12 12-5.372583 12-12 12zm1.9459322-14.49819025h3.7074419v-1.09252903h-3.7074419zm.878295 2.38385145c.2362424-.2472389.570439-.3708584.998474-.3708584.3951093 0 .7251901.116102.9935351.3491415.2650526.23471.4148648.5754989.4453211 1.0265429h-2.8834744c.0609126-.422645.2099018-.757587.4461442-1.004826zm2.5023587-1.4667285c-.4461443-.2029698-.9474392-.3048724-1.5047078-.3048724-.9375614 0-1.6989698.3015313-2.2875181.9004176-.5869018.6005569-.8807643 1.4633875-.8807643 2.588492 0 1.1994431.3243188 2.06645.9770722 2.598515.6494609.5329002 1.4009916.7985151 2.252946.7985151 1.0313998 0 1.8339655-.3157309 2.4068739-.9463573.3671223-.397587.5745547-.7893272.6198277-1.1735499h-1.7080244c-.0987774.1904408-.2140176.3391183-.3448975.4468678-.2378887.1979582-.5482141.2973549-.9276836.2973549-.3605372 0-.6675701-.0818561-.9227448-.2447332-.4214498-.2614385-.6420526-.7183294-.6700394-1.3690022h4.6614661c.0074083-.5604641-.0107009-.9914618-.0559738-1.2888168-.0773756-.5086775-.2469433-.9563805-.5111726-1.3422737-.2897468-.4376799-.6576923-.7584223-1.1046596-.9605569zm-10.60209861 2.494942h2.13029746c.37041493.0033411.65933859.0534571.86512466.1486775.36794549.1712297.55068349.4844548.55068349.942181 0 .5395823-.1893231.9037587-.56879268 1.09587-.20825548.1027379-.50129488.1545244-.87664869.1545244h-2.10066424zm0-3.38951275h1.88335414c.4140416 0 .75482336.04593966 1.02316836.13698373.30950226.13197221.46425341.40176332.46425341.81187942 0 .3675174-.11770963.6247795-.35148265.770116-.23541922.1453364-.54080581.2180046-.91533641.2180046h-2.10395685zm4.69850771-.58886312c-.4403823-.60807427-1.1869741-.91962874-2.24224513-.93549883h-4.18074987v8.7786543h3.89841136c.43955908 0 .84619239-.0384223 1.22236924-.1177726.376177-.0801857.701319-.2263574.9770723-.4410209.2452971-.1870998.4494369-.4176335.6124194-.6907656.2576442-.4126219.3860547-.879536.3860547-1.3999073 0-.5045011-.1127708-.9338283-.336666-1.2863109-.2263647-.3533178-.558915-.6114153-1.0001204-.7751276.29057-.150348.5103495-.3174014.6601618-.4994895.2675219-.3257541.4000481-.757587.4000481-1.2929931 0-.5203712-.1325262-.96640368-.3967555-1.33976797z" fill="#ff3100" fill-rule="evenodd"/></svg>