<svg height="24" viewBox="0 0 24 24" width="24" xmlns="http://www.w3.org/2000/svg"><path d="m12 24c-6.627417 0-12-5.372583-12-12s5.372583-12 12-12 12 5.372583 12 12-5.372583 12-12 12zm0-20c-4.41648 0-8 3.58352-8 8s3.58352 8 8 8c4.407808 0 8-3.58352 8-8s-3.592192-8-8-8zm5.28416 3.687632c.954448 1.162688 1.52712 2.646432 1.54448 4.251632-.2256-.043392-2.481568-.503248-4.75488-.216928-.052064-.112784-.095456-.234272-.147504-.355744-.138832-.329712-.295024-.668112-.4512-.989152 2.516272-1.023856 3.6616-2.498912 3.809104-2.689808zm-5.28416-2.5075888c1.73536 0 3.323216.6507568 4.52928 1.7180048-.121472.173536-1.154016 1.553152-3.583504 2.464208-1.119312-2.0564-2.360096-3.739696-2.550976-4 .51192-.1214752 1.049888-.1822128 1.6052-.1822128zm-2.90672.6420848c.182208.242944 1.39696 1.934928 2.533616 3.947936-3.193056.85032-6.013008.832976-6.3167008.8330026.4425088-2.1171626 1.8741888-3.8785546 3.7830848-4.7809386zm-3.9305904 6.186544c0-.069408 0-.138816 0-.20824.2950112.008672 3.6095504.052064 7.0195184-.971792.199568.381776.381776.772224.555312 1.162688-.086768.026032-.182208.052064-.268976.07808-3.522768 1.136672-5.39696 4.24296-5.553136 4.503264-1.084608-1.20608-1.7527184-2.81128-1.7527184-4.564zm6.8373104 6.82864c-1.579168 0-3.03688-.537968-4.190896-1.440352.121488-.251616 1.509776-2.92408 5.362256-4.268976.01736-.008672.026032-.008672.043392-.01736.96312 2.49024 1.353584 4.581344 1.457696 5.180048-.824288.355744-1.726672.54664-2.672448.54664zm3.80912-1.17136c-.069424-.416496-.43384-2.41216-1.327552-4.86768 2.143168-.3384 4.017344.216912 4.251616.295008-.295008 1.900208-1.388288 3.540128-2.924064 4.572672z" fill="#FF1A6C" fill-rule="evenodd"/></svg>