<svg height="24" viewBox="0 0 24 24" width="24" xmlns="http://www.w3.org/2000/svg"><path d="m0 0h24v24h-24zm5.89729225 8.65196943v7.23750737c.04351799.2610838-.03689993.5277827-.21661998.718401l-1.68067227 2.0864197v.2751322h4.76563958v-.2751322l-1.68067226-2.0864197c-.18103817-.1903028-.26643568-.4552442-.2315593-.718401v-6.25925927l4.18300658 9.33921217h.4855275l3.5929038-9.33921217v7.44385657c0 .1987066 0 .2369194-.126984.366843l-1.2922503 1.2839507v.2751322h6.2745098v-.2751322l-1.2474323-1.2533804c-.1101182-.0859059-.1647425-.2270981-.1419234-.366843v-9.20928872c-.0228191-.1397449.0318052-.28093722.1419234-.36684304l1.2773109-1.25338037v-.27513227h-4.4220354l-3.1521943 8.047619-3.58543417-8.047619h-4.63865546v.27513227l1.49393091 1.84185773c.14666018.13528888.22155945.33396715.20168067.53497943z" fill="#FF1A6C" fill-rule="evenodd"/></svg>