<?xml version="1.0" standalone="no"?>
<!DOCTYPE svg PUBLIC "-//W3C//DTD SVG 20010904//EN"
 "http://www.w3.org/TR/2001/REC-SVG-20010904/DTD/svg10.dtd">
<svg version="1.0" xmlns="http://www.w3.org/2000/svg"
 width="400.000000pt" height="400.000000pt" viewBox="0 0 400.000000 400.000000"
 preserveAspectRatio="xMidYMid meet">
<metadata>
Created by potrace 1.14, written by Peter Selinger 2001-2017
</metadata>
<g transform="translate(0.000000,400.000000) scale(0.100000,-0.100000)"
fill="#000000" stroke="none">
<path d="M1829 3996 c-2 -2 -29 -6 -59 -9 -30 -4 -93 -14 -140 -23 -47 -9 -96
-18 -109 -21 -137 -25 -444 -158 -598 -258 -190 -124 -372 -288 -483 -434 -14
-18 -35 -45 -46 -59 -142 -178 -300 -528 -348 -767 -39 -200 -45 -261 -41
-465 4 -181 19 -310 56 -455 126 -501 470 -959 920 -1225 143 -85 400 -194
502 -214 12 -2 45 -10 72 -16 145 -34 256 -45 445 -45 172 0 244 6 370 30 47
10 95 19 108 21 38 7 183 55 262 86 111 44 240 111 349 182 474 308 791 795
886 1361 24 145 27 458 6 595 -63 402 -233 767 -491 1054 -203 226 -477 417
-750 524 -79 31 -193 70 -226 77 -135 29 -218 45 -259 50 -52 7 -420 16 -426
11z m400 -646 c298 -61 526 -206 623 -399 33 -66 37 -79 34 -137 -4 -71 -34
-143 -72 -173 -20 -16 -39 -19 -106 -17 -186 5 -385 -60 -499 -161 -69 -63
-85 -95 -69 -144 24 -71 122 -145 215 -164 64 -13 243 -14 312 -1 197 34 276
-20 275 -187 0 -186 -152 -626 -283 -825 -16 -24 -29 -47 -29 -52 0 -4 -3 -10
-7 -12 -5 -1 -24 -25 -43 -53 -19 -27 -41 -57 -50 -66 -8 -9 -31 -36 -50 -60
-104 -131 -236 -233 -330 -255 -92 -22 -258 -24 -355 -4 -27 6 -61 12 -74 15
-44 8 -50 54 -7 56 11 0 37 2 56 4 224 22 258 32 345 98 148 115 222 203 303
366 59 117 56 156 -8 124 -18 -8 -57 -17 -86 -19 -46 -2 -64 3 -131 37 -93 47
-136 49 -201 8 -42 -27 -45 -27 -90 -13 -97 30 -151 38 -190 26 -39 -12 -114
-79 -154 -138 -48 -70 -112 -83 -162 -31 -36 36 -178 261 -229 364 -66 132
-87 290 -53 407 52 179 346 296 384 153 10 -36 9 -132 -3 -249 -23 -239 90
-396 297 -413 30 -2 121 11 198 30 8 2 20 4 26 4 7 1 36 18 65 38 30 20 81 51
114 67 98 51 127 131 80 221 -31 58 -69 101 -96 108 -27 7 -24 -9 12 -65 40
-62 42 -113 4 -145 -14 -13 -32 -23 -39 -23 -8 0 -43 -13 -78 -30 -35 -16 -79
-31 -98 -33 -43 -4 -100 23 -130 60 -21 27 -22 33 -15 188 4 88 8 228 9 310 1
141 0 153 -24 198 -46 90 -145 156 -333 219 -83 27 -106 31 -224 32 -146 2
-151 4 -183 71 -31 65 -29 151 6 222 43 89 199 240 329 318 128 78 308 136
455 147 93 8 267 -3 359 -22z m-9 -2156 c41 -9 84 -24 94 -34 18 -18 18 -19
-8 -64 -46 -79 -51 -81 -291 -84 -115 -2 -225 -3 -244 -3 -76 0 -141 68 -141
148 0 38 12 44 107 49 73 3 194 -23 208 -46 10 -17 41 -11 61 11 44 49 75 52
214 23z"/>
</g>
</svg>
