<svg width="16" height="16" viewBox="0 0 16 16" fill="none" xmlns="http://www.w3.org/2000/svg">
<g clip-path="url(#clip0_29_519)">
<path d="M8.00008 0.353516C6.13848 0.353582 4.33761 1.01612 2.91981 2.22245C1.50195 3.42878 0.559612 5.10032 0.261412 6.93792C-0.0367884 8.77545 0.328612 10.6592 1.29221 12.252C2.25574 13.8448 3.75468 15.0428 5.52074 15.6316C5.91274 15.7002 6.05974 15.465 6.05974 15.2592C6.05974 15.073 6.04994 14.4556 6.04994 13.799C4.08014 14.1616 3.57054 13.3188 3.41374 12.8778C3.23974 12.449 2.96394 12.0689 2.61014 11.7704C2.33574 11.6234 1.94374 11.2608 2.60034 11.251C2.85108 11.2782 3.09148 11.3655 3.30134 11.5054C3.51114 11.6452 3.68421 11.8337 3.80574 12.0546C3.91294 12.2472 4.05714 12.4168 4.23001 12.5536C4.40288 12.6904 4.60108 12.7918 4.81321 12.8518C5.02534 12.9119 5.24721 12.9296 5.46615 12.9038C5.68508 12.878 5.89681 12.8092 6.08908 12.7014C6.12301 12.3028 6.30068 11.9302 6.58894 11.6528C4.84454 11.4568 3.02174 10.7806 3.02174 7.78185C3.01074 7.00272 3.29821 6.24885 3.82535 5.67492C3.58568 4.99772 3.61368 4.25452 3.90374 3.59732C3.90374 3.59732 4.56028 3.39152 6.05974 4.40092C7.34254 4.04812 8.69681 4.04812 9.97968 4.40092C11.4791 3.38172 12.1357 3.59732 12.1357 3.59732C12.4257 4.25452 12.4538 4.99772 12.2141 5.67492C12.7427 6.24785 13.0305 7.00245 13.0177 7.78185C13.0177 10.7904 11.1851 11.4568 9.44068 11.6528C9.62775 11.8424 9.77181 12.0702 9.86314 12.3204C9.95448 12.5707 9.99088 12.8377 9.96988 13.1032C9.96988 14.1519 9.96008 14.9946 9.96008 15.2592C9.96008 15.465 10.1071 15.71 10.4991 15.6316C12.262 15.038 13.7566 13.8372 14.7161 12.2436C15.6756 10.65 16.0375 8.76718 15.7372 6.93138C15.4369 5.09565 14.4941 3.42632 13.0768 2.22145C11.6596 1.01652 9.86028 0.354516 8.00008 0.353516Z" fill="white"/>
</g>
<defs>
<clipPath id="clip0_29_519">
<rect width="16" height="16" fill="white"/>
</clipPath>
</defs>
</svg>
