<svg width="16" height="16" viewBox="0 0 16 16" fill="none" xmlns="http://www.w3.org/2000/svg">
<path fill-rule="evenodd" clip-rule="evenodd" d="M6.90581 1.45561C7.19753 1.16389 7.59319 1 8.00575 1C8.41831 1 8.81397 1.16389 9.10569 1.45561C9.39742 1.74733 9.56131 2.143 9.56131 2.55556C9.56131 2.96812 9.39742 3.36378 9.10569 3.6555C8.81397 3.94722 8.41831 4.11111 8.00575 4.11111C7.59319 4.11111 7.19753 3.94722 6.90581 3.6555C6.61408 3.36378 6.4502 2.96812 6.4502 2.55556C6.4502 2.143 6.61408 1.74733 6.90581 1.45561ZM6.90581 6.90006C7.19753 6.60833 7.59319 6.44444 8.00575 6.44444C8.41831 6.44444 8.81397 6.60833 9.10569 6.90006C9.39742 7.19178 9.56131 7.58744 9.56131 8C9.56131 8.41256 9.39742 8.80822 9.10569 9.09994C8.81397 9.39167 8.41831 9.55556 8.00575 9.55556C7.59319 9.55556 7.19753 9.39167 6.90581 9.09994C6.61408 8.80822 6.4502 8.41256 6.4502 8C6.4502 7.58744 6.61408 7.19178 6.90581 6.90006ZM6.90581 12.3445C7.19753 12.0528 7.59319 11.8889 8.00575 11.8889C8.41831 11.8889 8.81397 12.0528 9.10569 12.3445C9.39742 12.6362 9.56131 13.0319 9.56131 13.4444C9.56131 13.857 9.39742 14.2527 9.10569 14.5444C8.81397 14.8361 8.41831 15 8.00575 15C7.59319 15 7.19753 14.8361 6.90581 14.5444C6.61408 14.2527 6.4502 13.857 6.4502 13.4444C6.4502 13.0319 6.61408 12.6362 6.90581 12.3445Z" fill="#1A1C1F"/>
</svg>
