<svg width="16" height="16" viewBox="0 0 16 16" fill="none" xmlns="http://www.w3.org/2000/svg">
<path fill-rule="evenodd" clip-rule="evenodd" d="M9.45599 0.728221C10.6933 0.669266 11.9253 0.927021 13.0352 1.47709C13.3075 1.61207 13.4799 1.88975 13.4799 2.19372C13.48 2.49769 13.3078 2.77544 13.0355 2.91054C12.0877 3.38077 11.2901 4.10637 10.7326 5.00556C10.175 5.90476 9.87973 6.9418 9.87993 7.99982C9.87973 9.05783 10.175 10.0952 10.7326 10.9944C11.2901 11.8936 12.0877 12.6192 13.0355 13.0894C13.3078 13.2245 13.48 13.5023 13.4799 13.8062C13.4799 14.1102 13.3075 14.3879 13.0352 14.5229C11.9253 15.0729 10.6933 15.3307 9.45599 15.2717C8.21864 15.2128 7.01681 14.8391 5.96422 14.1859C4.91163 13.5328 4.0431 12.6219 3.44083 11.5395C2.83855 10.457 2.52246 9.23872 2.52246 7.99997C2.52246 6.76122 2.83855 5.54296 3.44083 4.46048C4.0431 3.378 4.91163 2.4671 5.96422 1.814C7.01681 1.16089 8.21864 0.787176 9.45599 0.728221ZM10.8792 2.42296C10.4374 2.33766 9.98522 2.30482 9.53214 2.32641C8.56674 2.37241 7.62904 2.66399 6.80779 3.17355C5.98653 3.68312 5.30889 4.39382 4.83899 5.23839C4.36908 6.08296 4.12246 7.03348 4.12246 7.99997C4.12246 8.96647 4.36908 9.91698 4.83899 10.7616C5.30889 11.6061 5.98653 12.3168 6.80779 12.8264C7.62904 13.336 8.56674 13.6275 9.53214 13.6735C9.98522 13.6951 10.4374 13.6623 10.8792 13.577C10.2908 13.083 9.78144 12.4967 9.37275 11.8375C8.65821 10.6851 8.27973 9.35607 8.27993 8.00013M10.8792 2.42296C10.2908 2.91693 9.78144 3.50329 9.37275 4.16242C8.65821 5.31482 8.27973 6.64418 8.27993 8.00013" fill="#2E3136"/>
</svg>
