<svg width="16" height="16" viewBox="0 0 16 16" fill="none" xmlns="http://www.w3.org/2000/svg">
<g clip-path="url(#clip0_30_565)">
<path fill-rule="evenodd" clip-rule="evenodd" d="M4.88846 4.8887C5.71362 4.06354 6.83277 3.59997 7.99973 3.59997C9.16668 3.59997 10.2858 4.06354 11.111 4.8887C11.9362 5.71386 12.3997 6.83302 12.3997 7.99997C12.3997 9.16692 11.9362 10.2861 11.111 11.1112C10.2858 11.9364 9.16668 12.4 7.99973 12.4C6.83277 12.4 5.71362 11.9364 4.88846 11.1112C4.0633 10.2861 3.59973 9.16692 3.59973 7.99997C3.59973 6.83302 4.0633 5.71386 4.88846 4.8887ZM7.99973 5.19997C7.25712 5.19997 6.54493 5.49497 6.01983 6.02007C5.49473 6.54517 5.19973 7.25736 5.19973 7.99997C5.19973 8.74258 5.49473 9.45477 6.01983 9.97987C6.54493 10.505 7.25712 10.8 7.99973 10.8C8.74233 10.8 9.45452 10.505 9.97962 9.97987C10.5047 9.45477 10.7997 8.74258 10.7997 7.99997C10.7997 7.25736 10.5047 6.54517 9.97962 6.02007C9.45452 5.49497 8.74233 5.19997 7.99973 5.19997Z" fill="white"/>
<path fill-rule="evenodd" clip-rule="evenodd" d="M7.99973 0.719971C8.44155 0.719971 8.79973 1.07814 8.79973 1.51997V2.23997C8.79973 2.6818 8.44155 3.03997 7.99973 3.03997C7.5579 3.03997 7.19973 2.6818 7.19973 2.23997V1.51997C7.19973 1.07814 7.5579 0.719971 7.99973 0.719971Z" fill="white"/>
<path fill-rule="evenodd" clip-rule="evenodd" d="M2.85196 2.8522C3.16438 2.53979 3.67091 2.53979 3.98333 2.8522L4.49309 3.36197C4.80551 3.67438 4.80551 4.18092 4.49309 4.49334C4.18067 4.80576 3.67414 4.80576 3.36172 4.49334L2.85196 3.98358C2.53954 3.67116 2.53954 3.16462 2.85196 2.8522Z" fill="white"/>
<path fill-rule="evenodd" clip-rule="evenodd" d="M0.719727 7.99997C0.719727 7.55814 1.0779 7.19997 1.51973 7.19997H2.23973C2.68155 7.19997 3.03973 7.55814 3.03973 7.99997C3.03973 8.4418 2.68155 8.79997 2.23973 8.79997H1.51973C1.0779 8.79997 0.719727 8.4418 0.719727 7.99997Z" fill="white"/>
<path fill-rule="evenodd" clip-rule="evenodd" d="M4.49309 11.5066C4.80551 11.819 4.80551 12.3256 4.49309 12.638L3.98333 13.1477C3.67091 13.4602 3.16438 13.4602 2.85196 13.1477C2.53954 12.8353 2.53954 12.3288 2.85196 12.0164L3.36172 11.5066C3.67414 11.1942 4.18067 11.1942 4.49309 11.5066Z" fill="white"/>
<path fill-rule="evenodd" clip-rule="evenodd" d="M7.99973 12.96C8.44155 12.96 8.79973 13.3181 8.79973 13.76V14.48C8.79973 14.9218 8.44155 15.28 7.99973 15.28C7.5579 15.28 7.19973 14.9218 7.19973 14.48V13.76C7.19973 13.3181 7.5579 12.96 7.99973 12.96Z" fill="white"/>
<path fill-rule="evenodd" clip-rule="evenodd" d="M11.5064 11.5066C11.8188 11.1942 12.3253 11.1942 12.6377 11.5066L13.1475 12.0164C13.4599 12.3288 13.4599 12.8353 13.1475 13.1477C12.8351 13.4602 12.3285 13.4602 12.0161 13.1477L11.5064 12.638C11.1939 12.3256 11.1939 11.819 11.5064 11.5066Z" fill="white"/>
<path fill-rule="evenodd" clip-rule="evenodd" d="M12.9597 7.99997C12.9597 7.55814 13.3179 7.19997 13.7597 7.19997H14.4797C14.9216 7.19997 15.2797 7.55814 15.2797 7.99997C15.2797 8.4418 14.9216 8.79997 14.4797 8.79997H13.7597C13.3179 8.79997 12.9597 8.4418 12.9597 7.99997Z" fill="white"/>
<path fill-rule="evenodd" clip-rule="evenodd" d="M13.1475 2.85221C13.4599 3.16462 13.4599 3.67116 13.1475 3.98358L12.6377 4.49334C12.3253 4.80576 11.8188 4.80576 11.5064 4.49334C11.1939 4.18092 11.1939 3.67438 11.5064 3.36197L12.0161 2.8522C12.3285 2.53979 12.8351 2.53979 13.1475 2.85221Z" fill="white"/>
</g>
<defs>
<clipPath id="clip0_30_565">
<rect width="16" height="16" fill="white"/>
</clipPath>
</defs>
</svg>
