# OBJ written from /Users/Stritar/Dropbox/DS/Projects/2016/VR/Heart/Exports/HiFi/bottom.obj
# Units	meters

o Mesh
v -1.21128 -7.18088 -0.953567
v 1.41128 -5.48563 -0.953567
v 1.41128 -5.48563 0.953567
v -1.21128 -7.18088 0.953567
v -4.19432 1.65825 -2.834
v 4.19432 1.65825 -2.834
v 4.19432 1.65825 2.834
v -4.19432 1.65825 2.834
vn 0.542867 -0.839818 0
vn 0.774915 -0.632065 0
vn 0 -0.208083 -0.978111
vn 0.93179 -0.362998 0
vn 0 -0.254552 0.967059
vn -0.947498 -0.319763 0
vt 0.25 0
vt 0.5 0
vt 0.5 0.333333
vt 0.25 0.333333
vt 1 0.666667
vt 0.75 0.666667
vt 0.75 0.333333
vt 1 0.333333
vt 0.5 0.666667
vt 0.25 0.666667
vt 0 0.666667
vt 0 0.333333
mtllib bottom.mtl
usemtl bottom
g Default
f 1/1/1 2/2/2 3/3/2 4/4/1
f 5/5/3 6/6/3 2/7/3 1/8/3
f 6/6/4 7/9/4 3/3/2 2/7/2
f 7/9/5 8/10/5 4/4/5 3/3/5
f 8/10/6 5/11/6 1/12/6 4/4/6
