# OBJ written from /Users/Stritar/Dropbox/DS/Projects/2016/VR/Heart/Exports/HiFi/middle.obj
# Units	meters

o Mesh
v -6.73532e-08 -4.46823 -3.051
v -1.5255 -4.46823 -2.64224
v -2.64224 -4.46823 -1.5255
v -3.051 -4.46823 0
v -2.64224 -4.46823 1.5255
v -1.5255 -4.46823 2.64224
v -6.73532e-08 -4.46823 3.051
v 1.5255 -4.46823 2.64224
v 2.64224 -4.46823 1.5255
v 3.051 -4.46823 0
v 2.64224 -4.46823 -1.5255
v 1.5255 -4.46823 -2.64224
v -1.3113e-07 -0.63177 -5.94
v -2.97 -0.63177 -5.14419
v -5.14419 -0.63177 -2.97
v -5.94 -0.63177 0
v -5.14419 -0.63177 2.97
v -2.97 -0.63177 5.14419
v -1.3113e-07 -0.63177 5.94
v 2.97 -0.63177 5.14419
v 5.14419 -0.63177 2.97
v 5.94 -0.63177 0
v 5.14419 -0.63177 -2.97
v 2.97 -0.63177 -5.14419
vn 0 -0.601552 -0.798834
vn -0.399417 -0.601552 -0.69181
vn -0.69181 -0.601552 -0.399417
vn -0.798834 -0.601552 7.61935e-09
vn -0.69181 -0.601552 0.399417
vn -0.399417 -0.601552 0.69181
vn 0 -0.601552 0.798834
vn 0.399417 -0.601552 0.69181
vn 0.69181 -0.601552 0.399417
vn 0.798834 -0.601552 7.61935e-09
vn 0.69181 -0.601552 -0.399417
vn 0.399417 -0.601552 -0.69181
vt 0 0.5
vt 0 0
vt 0.0833333 0
vt 0.0833333 0.5
vt 0.166667 0
vt 0.166667 0.5
vt 0.25 0
vt 0.25 0.5
vt 0.333333 0
vt 0.333333 0.5
vt 0.416667 0
vt 0.416667 0.5
vt 0.5 0
vt 0.5 0.5
vt 0.583333 0
vt 0.583333 0.5
vt 0.666667 0
vt 0.666667 0.5
vt 0.75 0
vt 0.75 0.5
vt 0.833333 0
vt 0.833333 0.5
vt 0.916667 0
vt 0.916667 0.5
vt 1 0
vt 1 0.5
mtllib middle.mtl
usemtl middle
g Default
f 13/1/1 1/2/1 2/3/2 14/4/2
f 14/4/2 2/3/2 3/5/3 15/6/3
f 15/6/3 3/5/3 4/7/4 16/8/4
f 16/8/4 4/7/4 5/9/5 17/10/5
f 17/10/5 5/9/5 6/11/6 18/12/6
f 18/12/6 6/11/6 7/13/7 19/14/7
f 19/14/7 7/13/7 8/15/8 20/16/8
f 20/16/8 8/15/8 9/17/9 21/18/9
f 21/18/9 9/17/9 10/19/10 22/20/10
f 22/20/10 10/19/10 11/21/11 23/22/11
f 23/22/11 11/21/11 12/23/12 24/24/12
f 24/24/12 12/23/12 1/25/1 13/26/1
