# OBJ written from /Users/Stritar/Dropbox/DS/Projects/2016/VR/Heart/Exports/HiFi/top.obj
# Units	meters

o Mesh
v -1.78814e-07 7.46333 -3.0654
v -1.78814e-07 6.10859 -4.50174
v -2.21961 6.64633 -4.16259
v -1.34617 7.83151 -2.9165
v 2.21961 6.64633 -4.16259
v 1.34617 7.83151 -2.9165
v -1.78814e-07 5.43251 -4.8216
v -1.78814e-07 3.53397 -5.35302
v -3.27056 3.92005 -4.81494
v -2.65494 5.75678 -4.47299
v 3.27056 3.92005 -4.81494
v 2.65494 5.75678 -4.47299
v -1.78814e-07 2.26656 -5.48523
v -1.52464e-07 0.592862 -5.04772
v -2.81975 0.221635 -4.55143
v -3.51835 2.68264 -4.86909
v 2.81975 0.964088 -4.55143
v 3.51835 2.68264 -4.86909
v -1.78814e-07 7.46333 3.0654
v -1.78814e-07 6.10859 4.50174
v -2.21961 6.64633 4.16259
v -1.34617 7.83151 2.9165
v 2.21961 6.64633 4.16259
v 1.34617 7.83151 2.9165
v -1.78814e-07 5.43251 4.8216
v -1.78814e-07 3.53397 5.35302
v -3.27056 3.92005 4.81494
v -2.65494 5.75678 4.47299
v 3.27056 3.92005 4.81494
v 2.65494 5.75678 4.47299
v -1.78814e-07 2.26656 5.48523
v -1.52464e-07 0.592862 5.04772
v -2.81975 0.221635 4.55143
v -3.51835 2.68264 4.86909
v 2.81975 0.964088 4.55143
v 3.51835 2.68264 4.86909
v -3.92607 10.7208 0.714003
v -3.92607 10.7208 -0.714003
v -5.83105 10.4598 -0.82065
v -5.83105 10.4598 0.82065
v 5.83105 10.4598 0.82065
v 5.83105 10.4598 -0.82065
v 3.92607 10.7208 -0.714003
v 3.92607 10.7208 0.714003
v -7.61921 8.15839 0.880823
v -7.61921 8.15839 -0.880823
v -8.28071 6.56178 -0.909881
v -8.28071 6.56178 0.909881
v 8.28071 6.56178 0.909881
v 8.28071 6.56178 -0.909881
v 7.61921 8.15839 -0.880823
v 7.61921 8.15839 0.880823
v -7.94275 4.04383 0.917289
v -7.94275 4.04383 -0.917289
v -6.02281 -0.200057 -0.87777
v -6.02281 -0.200057 0.87777
v 6.02281 1.38578 0.87777
v 6.02281 1.38578 -0.87777
v 7.94275 4.04383 -0.917289
v 7.94275 4.04383 0.917289
v 2.67876 0.865527 -4.32386
v -1.44841e-07 0.512862 -4.79534
v -2.67876 0.160196 -4.32386
v -5.72167 -0.240411 -0.833881
v -5.72167 -0.240411 0.833881
v -2.67876 0.160196 4.32386
v -1.44841e-07 0.512862 4.79534
v 2.67876 0.865527 4.32386
v 5.72167 1.26613 0.833881
v 5.72167 1.26613 -0.833881
v -2.67876 1.0902 4.32386
v -1.44841e-07 1.44286 4.79534
v 2.67876 1.79553 4.32386
v 5.72167 2.19613 0.833881
v 5.72167 2.19613 -0.833881
v 2.67876 1.79553 -4.32386
v -1.44841e-07 1.44286 -4.79534
v -2.67876 1.0902 -4.32386
v -5.72167 0.689589 -0.833881
v -5.72167 0.689589 0.833881
v -4.78745 9.40898 -2.74891
v -4.99588 9.62685 -2.51459
v -3.25721 10.082 -1.65725
v -3.03636 9.84295 -1.87382
v 4.99588 9.62685 -2.51459
v 4.78745 9.40898 -2.74891
v 3.03636 9.84295 -1.87382
v 3.25721 10.082 -1.65725
v -6.94846 6.04004 -3.68111
v -7.19381 6.16499 -3.44753
v -6.50625 7.67537 -3.13804
v -6.24689 7.55149 -3.3673
v 7.19381 6.16499 -3.44753
v 6.94846 6.04004 -3.68111
v 6.24689 7.55149 -3.3673
v 6.50625 7.67537 -3.13804
v -5.01844 -0.067829 -3.35583
v -5.25869 -0.099458 -3.07221
v -6.94214 3.64942 -3.39474
v -6.68748 3.56967 -3.64778
v 5.25869 1.28518 -3.07221
v 5.01844 1.25355 -3.35583
v 6.68748 3.56967 -3.64778
v 6.94214 3.64942 -3.39474
v -4.99588 9.62685 2.51459
v -4.78745 9.40898 2.74891
v -3.03636 9.84295 1.87382
v -3.25721 10.082 1.65725
v 4.78745 9.40898 2.74891
v 4.99588 9.62685 2.51459
v 3.25721 10.082 1.65725
v 3.03636 9.84295 1.87382
v -6.94846 6.04004 3.68111
v -7.19381 6.16499 3.44753
v -6.24689 7.55149 3.3673
v -6.50625 7.67537 3.13804
v 6.94846 6.04004 3.68111
v 7.19381 6.16499 3.44753
v 6.50625 7.67537 3.13804
v 6.24689 7.55149 3.3673
v -5.25869 -0.099458 3.07221
v -5.01844 -0.067829 3.35583
v -6.68748 3.56967 3.64778
v -6.94214 3.64942 3.39474
v 5.01844 1.25355 3.35583
v 5.25869 1.28518 3.07221
v 6.68748 3.56967 3.64778
v 6.94214 3.64942 3.39474
v 4.99904 1.171 -2.90917
v 4.75879 1.13937 -3.19278
v -4.75879 -0.113646 -3.19278
v -4.99904 -0.145275 -2.90917
v -4.99904 -0.145275 2.90917
v -4.75879 -0.113646 3.19278
v 4.75879 1.13937 3.19278
v 4.99904 1.171 2.90917
v -4.99904 0.784725 2.90917
v -4.75879 0.816354 3.19278
v 4.75879 2.06937 3.19278
v 4.99904 2.101 2.90917
v 4.99904 2.101 -2.90917
v 4.75879 2.06937 -3.19278
v -4.75879 0.816354 -3.19278
v -4.99904 0.784725 -2.90917
v -0.206608 1.41566 0.0436932
v -0.206608 1.41566 -0.0436932
v -0.110128 1.42836 -0.2
v -7.85404e-09 1.44286 -0.2
v 0.110128 1.45736 -0.2
v 0.206608 1.47006 -0.0436932
v 0.206608 1.47006 0.0436932
v 0.110128 1.45736 0.2
v -7.85404e-09 1.44286 0.2
v -0.110128 1.42836 0.2
v -1.81424e-07 8.67436 0
vn 0.2904 0.750185 -0.594046
vn 0.0116933 0.82993 -0.557745
vn 0.00859465 0.553991 -0.832478
vn 0.0481475 0.520524 -0.852488
vn -0.0340507 0.540527 -0.840637
vn -0.276205 0.757912 -0.591
vn 0.000837774 0.16982 -0.985475
vn -0.189639 0.141868 -0.971551
vn -0.11049 0.319332 -0.94118
vn -0.00116971 0.322998 -0.946399
vn 0.175218 0.163138 -0.97092
vn 0.117056 0.315747 -0.941595
vn -0.272782 -0.0958471 -0.95729
vn 0.000472043 -0.0639071 -0.997956
vn 0.00270945 -0.217532 -0.976049
vn -0.299782 -0.205352 -0.931644
vn 0.26502 -0.119554 -0.956803
vn 0.314407 -0.332351 -0.889208
vn 0.284396 0.750552 0.596482
vn 0.0411765 0.517248 0.854844
vn 0.00859465 0.553991 0.832478
vn 0.0116933 0.82993 0.557745
vn -0.0350993 0.537278 0.842674
vn -0.274525 0.754866 0.595663
vn 0.000837774 0.16982 0.985475
vn -0.00116971 0.322998 0.946399
vn -0.119844 0.310043 0.943139
vn -0.200304 0.172969 0.964344
vn 0.207966 0.138014 0.96835
vn 0.112869 0.326623 0.938391
vn -0.285146 -0.0671562 0.956129
vn -0.314584 -0.225346 0.922093
vn 0.00270945 -0.217532 0.976049
vn 0.000472043 -0.0639071 0.997956
vn 0.344151 -0.300837 0.889414
vn 0.310669 -0.139275 0.940259
vn -0.811831 0.514695 0.275718
vn -0.704857 0.642697 0.300196
vn -0.704857 0.642697 -0.300196
vn -0.811831 0.514695 -0.275718
vn 0.915375 -0.368444 -0.16229
vn 0.990396 0.044547 -0.13089
vn 0.990396 0.044547 0.13089
vn 0.915375 -0.368444 0.16229
vn 0.607804 -0.789409 -0.0860653
vn 0.607804 -0.789409 0.0860653
vn 0.0474647 0.9584 -0.281453
vn -0.228018 0.951788 -0.205199
vn -0.228018 0.951788 0.205199
vn 0.0474647 0.9584 0.281453
vn -0.965394 0.130867 -0.225585
vn -0.965394 0.130867 0.225585
vn -0.945655 -0.271647 0.17873
vn -0.945655 -0.271647 -0.17873
vn -0.894618 -0.417072 -0.160344
vn -0.894618 -0.417072 0.160344
vn 0.198476 0.954221 -0.223761
vn -0.111662 0.942932 -0.313706
vn -0.111662 0.942932 0.313706
vn 0.198476 0.954221 0.223761
vn 0.815453 0.510934 -0.272
vn 0.74995 0.590503 -0.29813
vn 0.74995 0.590503 0.29813
vn 0.815453 0.510934 0.272
vn 0.96204 0.152758 -0.226148
vn 0.96204 0.152758 0.226148
vn 0.216552 -0.937635 -0.27193
vn 0.124182 -0.945879 -0.29982
vn 0.0306191 -0.960047 -0.278158
vn -0.12645 -0.991015 -0.0435747
vn -0.126449 -0.991016 0.0435747
vn 0.0306191 -0.960047 0.278158
vn 0.124182 -0.945879 0.29982
vn 0.216552 -0.937635 0.27193
vn 0.363759 -0.930591 0.0409829
vn 0.363759 -0.930591 -0.0409829
vn 0.329844 0 -0.944035
vn 7.5651e-09 0 -1
vn -0.329844 0 -0.944035
vn -0.985998 0 -0.166756
vn -0.985998 0 0.166756
vn -0.329844 0 0.944035
vn 7.5651e-09 0 1
vn 0.329844 0 0.944035
vn 0.985998 0 0.166756
vn 0.985998 0 -0.166756
vn -0.868345 0 0.495961
vn -0.63114 0 0.775669
vn 0.378413 0.728577 -0.570946
vn -0.00703112 0.584342 -0.811477
vn -0.090123 0.707352 -0.701092
vn 0.280424 0.831055 -0.480322
vn 0.130526 -0.991445 7.2151e-08
vn 0.130526 -0.991445 3.60755e-08
vn 0.130526 -0.991445 5.84401e-08
vn 0.130526 -0.991445 7.2151e-08
vn -0.0396985 -0.976632 -0.211218
vn -0.0941887 -0.987362 -0.127458
vn -0.0367726 0.603276 0.796685
vn 0.365107 0.741029 0.563536
vn 0.271774 0.840621 0.468503
vn -0.119856 0.731544 0.671177
vn 0.63114 0 -0.775669
vn 0.868345 0 -0.495961
vn 0.807346 -0.346644 -0.477525
vn 0.559845 -0.786339 -0.261237
vn 0.449686 -0.763497 -0.463524
vn 0.623687 -0.359267 -0.69422
vn -0.554872 -0.189974 -0.809955
vn -0.571884 -0.309185 -0.759838
vn -0.79252 -0.397454 -0.462539
vn -0.821772 -0.249329 -0.512373
vn 0.130526 -0.991445 -7.61374e-08
vn 0.130526 -0.991445 -3.90415e-08
vn 0.130526 -0.991445 -3.7454e-08
vn 0.130526 -0.991445 -7.4908e-08
vn 0.335027 -0.934424 0.120864
vn 0.559516 -0.786289 0.262091
vn 0.432019 -0.843886 0.318144
vn 0.28458 -0.936923 0.20295
vn 0.769247 0.165531 -0.617137
vn 0.548893 -0.253973 -0.796376
vn 0.507372 0.136762 -0.850805
vn 0.292617 0.405379 0.86605
vn 0.457614 0.137625 0.878436
vn 0.689028 0.261255 0.676008
vn 0.585723 0.482295 0.651399
vn 0.63114 0 0.775669
vn 0.868345 0 0.495961
vn -0.272871 0.398229 -0.87576
vn -0.564865 0.481231 -0.670331
vn -0.212846 0.6982 -0.68353
vn -0.374098 0.727386 0.575291
vn 0.0275022 0.589205 0.807516
vn 0.0703065 0.735937 0.673389
vn -0.308714 0.832548 0.459955
vn 0.808107 -0.346392 0.476419
vn 0.770315 0.166799 0.615462
vn 0.584841 -0.268545 0.765405
vn 0.130526 -0.991445 1.40694e-07
vn 0.130526 -0.991445 7.03472e-08
vn 0.130526 -0.991445 8.55325e-08
vn 0.130526 -0.991445 1.30402e-07
vn 0.575198 0.475973 -0.66528
vn 0.423691 0.163788 -0.890876
vn 0.283468 0.385128 -0.87825
vn -0.868345 0 -0.495961
vn -0.63114 0 -0.775669
vn 0.467657 -0.750805 0.466464
vn -0.530869 0.0907634 -0.84258
vn -0.77562 0.145671 -0.614161
vn 0.22005 0.707925 -0.671134
vn 0.0230392 0.594769 -0.803566
vn -0.367973 0.741971 -0.560424
vn -0.300117 0.841997 -0.448297
vn -0.454965 0.171696 0.8738
vn -0.303159 0.3992 0.865294
vn -0.581645 0.487693 0.651034
vn -0.709079 0.227964 0.667263
vn 0.130526 -0.991445 -3.44989e-08
vn 0.130526 -0.991445 -6.89979e-08
vn 0.130526 -0.991445 -5.47886e-08
vn 0.130526 -0.991445 -2.64216e-08
vn -0.563977 -0.159071 0.810325
vn -0.781235 0.146853 0.606718
vn -0.818568 -0.247767 0.518225
vn -0.0396985 -0.976632 0.211218
vn -0.0941887 -0.987362 0.127458
vn -0.234889 0.714624 0.658893
vn 0.226153 0.705291 0.671877
vn -0.570556 -0.322419 0.755322
vn -0.784429 -0.394987 0.478181
vn 0.335027 -0.934424 -0.120864
vn 0.28458 -0.936923 -0.20295
vn -0.438666 0.138069 -0.88798
vn 0.130526 -0.991445 2.58116e-08
vn 0.130526 -0.991445 3.11165e-08
vn -0.329646 0.209616 -0.920541
vn 0.308989 0.242103 -0.919735
vn 0.48255 -0.140851 -0.864469
vn 0.588037 -0.454523 0.669045
vn -0.274951 0.864658 -0.420438
vn 0.921228 0.248955 -0.298931
vn -0.330465 0.664176 -0.670569
vn -0.518843 0.740465 -0.427216
vn -0.274951 0.864658 0.420438
vn 0.921228 0.248955 0.298931
vn -0.348523 0.672162 0.653245
vn -0.518843 0.740465 0.427216
vn 0.524806 0.5344 0.662567
vn -0.844178 0.0550514 0.533228
vn 0.838734 0.0822919 0.538287
vn 0.130526 -0.991445 0
vn 0.130526 -0.991445 4.47292e-08
vn 0.130526 -0.991445 4.66747e-08
vn 0.130526 -0.991445 1.73842e-08
vn 0.130526 -0.991445 1.22946e-09
vn 0.130526 -0.991445 3.03705e-08
vn 0.130526 -0.991445 3.87174e-08
vn 0.130526 -0.991445 -1.9455e-09
vn -0.46766 0.860842 -0.200613
vn 0.46766 0.860842 -0.200613
vn 0.46766 0.860842 0.200613
vn -0.46766 0.860842 0.200613
vn -0.474867 0.880058 3.56052e-09
vn 0.474867 0.880058 3.56052e-09
vn 0.379561 0.89581 -0.231208
vn 0.453992 0.844455 -0.28423
vn 0.456011 0.887898 -0.0607507
vn -0.456011 0.887898 -0.0607507
vn -0.453992 0.844455 -0.28423
vn -0.379561 0.895811 -0.231208
vn 0.379561 0.89581 0.231208
vn 0.453992 0.844455 0.28423
vn 0.456011 0.887898 0.0607507
vn -0.456011 0.887898 0.0607507
vn -0.453992 0.844455 0.28423
vn -0.379561 0.89581 0.231208
vt 0.0732669 0.873599
vt 0.0101173 0.873803
vt 0 0.770416
vt 0.0833333 0.776305
vt 0.916667 0.776305
vt 1 0.770416
vt 0.989883 0.873803
vt 0.926733 0.873599
vt 0 0.621183
vt 0.0833333 0.621044
vt 0.0833333 0.720467
vt 0 0.726022
vt 0.916667 0.621044
vt 1 0.621183
vt 1 0.726022
vt 0.916667 0.720467
vt 0.0833333 0.563416
vt 0 0.563223
vt 0 0.42384
vt 0.0833333 0.433944
vt 1 0.563223
vt 0.916667 0.563416
vt 0.916667 0.433944
vt 1 0.42384
vt 0.227852 0.70531
vt 0.22447 0.792165
vt 0.771363 0.547022
vt 0.770891 0.632838
vt 0.772432 0.456764
vt 0.77553 0.792165
vt 0.783963 0.866731
vt 0.229109 0.632838
vt 0.228637 0.547022
vt 0.227568 0.456764
vt 0.216037 0.866731
vt 0.772148 0.70531
vt 0 0
vt 1 0
vt 1 1
vt 0 1
vt 0 -0.0774156
vt 1 -0.0774156
vt 1 0.0774156
vt 0 0.0774156
vt 0.170788 0.871395
vt 0.161561 0.788338
vt 0.171773 0.788959
vt 0.181305 0.870311
vt 0 -0.0774156
vt 0.992155 0.456851
vt 0.960774 0.519613
vt 0 0.0774156
vt 0 -0.0791812
vt 1 -0.0833486
vt 1 0.0833486
vt 0 0.0791812
vt 1 1.08335
vt 0 1.08335
vt 0 0.916651
vt 1 0.916651
vt 0.829061 0.547091
vt 0.828511 0.453338
vt 0.839462 0.451638
vt 0.837825 0.547976
vt 0.162175 0.547976
vt 0.160538 0.451638
vt 0.171489 0.453338
vt 0.170939 0.547091
vt 0 -0.0833486
vt 0.99314 0.46227
vt 0.9657 0.51715
vt 0 0.0833486
vt 1 1.07742
vt 0 1.07354
vt 0 0.926455
vt 1 0.922584
vt 0.829155 0.632788
vt 0.836961 0.632273
vt 0.837152 0.709356
vt 0.828904 0.708568
vt 0.162725 0.788065
vt 0.162848 0.709356
vt 0.171096 0.708568
vt 0.829212 0.871395
vt 0.838439 0.788338
vt 0.828227 0.788959
vt 0.818695 0.870311
vt 0 1.07742
vt 0 0.922584
vt 0.163039 0.632273
vt 0.170845 0.632788
vt 0.837275 0.788065
vt 1.03923 0.519613
vt 0.960774 0.480387
vt 0 1.07918
vt 0 0.920819
vt 0 -0.0735448
vt 0 0.0735448
vt 0.9657 0.48285
vt 0.958293 0.520854
vt 0.9066 0.873599
vt 0.846935 0.871034
vt 0.0933998 0.873599
vt 0.153065 0.871034
vt 1 0.0774156
vt 0 0.0735448
vt 0.958293 0.479146
vt 0.697235 0.960002
vt 0.157087 0.959347
vt 0.838492 0.870672
vt 0.472802 0.957681
vt 0.697235 0.958271
vt 0.914336 0.960508
mtllib top.mtl
usemtl top
g Default
f 4/1/1 1/2/2 2/3/3 3/4/4
f 5/5/5 2/6/3 1/7/2 6/8/6
f 8/9/7 9/10/8 10/11/9 7/12/10
f 11/13/11 8/14/7 7/15/10 12/16/12
f 10/11/9 3/4/4 2/3/3 7/12/10
f 7/15/10 2/6/3 5/5/5 12/16/12
f 16/17/13 13/18/14 14/19/15 15/20/16
f 13/21/14 18/22/17 17/23/18 14/24/15
f 16/17/13 9/10/8 8/9/7 13/18/14
f 13/21/14 8/14/7 11/13/11 18/22/17
f 22/1/19 21/4/20 20/3/21 19/2/22
f 23/5/23 24/8/24 19/7/22 20/6/21
f 26/9/25 25/12/26 28/11/27 27/10/28
f 29/13/29 30/16/30 25/15/26 26/14/25
f 28/11/27 25/12/26 20/3/21 21/4/20
f 25/15/26 30/16/30 23/5/23 20/6/21
f 34/17/31 33/20/32 32/19/33 31/18/34
f 31/21/34 32/24/33 35/23/35 36/22/36
f 34/17/31 31/18/34 26/9/25 27/10/28
f 31/21/34 36/22/36 29/13/29 26/14/25
f 45/25/37 40/26/38 39/26/39 46/25/40
f 59/27/41 50/28/42 49/28/43 60/27/44
f 58/29/45 59/27/41 60/27/44 57/29/46
f 42/30/47 43/31/48 44/31/49 41/30/50
f 46/25/40 47/32/51 48/32/52 45/25/37
f 53/33/53 48/32/52 47/32/51 54/33/54
f 54/33/54 55/34/55 56/34/56 53/33/53
f 38/35/57 39/26/58 40/26/59 37/35/60
f 51/36/61 42/30/62 41/30/63 52/36/64
f 50/28/65 51/36/61 52/36/64 49/28/66
f 17/37/67 61/38/67 62/39/68 14/40/68
f 14/37/68 62/38/68 63/39/69 15/40/69
f 55/37/70 64/38/70 65/39/71 56/40/71
f 33/37/72 66/38/72 67/39/73 32/40/73
f 32/37/73 67/38/73 68/39/74 35/40/74
f 57/37/46 69/38/75 70/39/76 58/40/45
f 66/37/77 71/38/77 72/39/78 67/40/78
f 67/37/78 72/38/78 73/39/79 68/40/79
f 69/37/80 74/38/80 75/39/81 70/40/81
f 61/37/82 76/38/82 77/39/83 62/40/83
f 62/37/83 77/38/83 78/39/84 63/40/84
f 64/37/85 79/38/85 80/39/86 65/40/86
f 129/41/87 141/42/87 142/43/88 130/44/88
f 84/45/89 81/46/90 82/47/91 83/48/92
f 137/49/93 145/50/94 154/51/95 138/52/96
f 97/53/97 131/54/97 132/55/98 98/56/98
f 106/46/99 107/45/100 108/48/101 105/47/102
f 138/57/103 134/58/103 133/59/104 137/60/104
f 104/61/105 101/62/106 102/63/107 103/64/108
f 100/65/109 97/66/110 98/67/111 99/68/112
f 143/69/113 147/70/114 146/71/115 144/72/116
f 136/73/117 126/74/118 125/75/119 135/76/120
f 93/77/121 104/61/105 103/64/122 94/78/123
f 120/79/124 117/78/125 118/77/126 119/80/127
f 131/69/128 143/54/128 144/55/129 132/72/129
f 81/81/90 92/82/130 91/83/131 82/47/132
f 112/84/133 109/85/134 110/86/135 111/87/136
f 128/61/137 118/77/138 117/78/125 127/64/139
f 141/41/140 150/50/141 149/51/142 142/44/143
f 96/80/144 93/77/121 94/78/145 95/79/146
f 140/73/147 136/88/147 135/89/148 139/76/148
f 126/62/118 128/61/137 127/64/139 125/63/149
f 89/90/150 100/65/109 99/68/112 90/91/151
f 85/86/152 96/80/144 95/79/146 86/92/153
f 86/85/153 87/84/154 88/87/155 85/86/152
f 113/90/156 115/82/157 116/83/158 114/91/159
f 151/93/160 140/88/161 139/89/162 152/94/163
f 123/65/164 113/90/156 114/91/165 124/68/166
f 134/57/167 122/95/167 121/96/168 133/60/168
f 115/82/157 106/81/99 105/47/169 116/83/158
f 119/80/127 110/86/170 109/92/134 120/79/124
f 122/66/171 123/65/164 124/68/166 121/67/172
f 101/97/106 129/42/173 130/43/174 102/98/107
f 92/82/130 89/90/175 90/91/151 91/83/131
f 145/99/94 146/71/115 147/51/114 148/100/176 149/51/142 150/71/141 151/71/160 152/51/163 153/100/177 154/51/95
f 5/5/5 6/101/6 87/102/154 86/92/153
f 4/103/1 3/4/4 81/81/90 84/104/89
f 89/90/178 92/82/130 10/11/9 9/10/8
f 11/13/11 12/16/12 95/79/146 94/78/179
f 81/81/90 3/4/4 10/11/9 92/82/130
f 5/5/5 86/92/153 95/79/146 12/16/12
f 16/17/13 15/20/16 97/66/110 100/65/109
f 103/64/122 102/63/107 17/23/18 18/22/17
f 89/90/175 9/10/8 16/17/13 100/65/109
f 11/13/11 94/78/145 103/64/180 18/22/17
f 112/102/133 24/101/24 23/5/23 109/92/134
f 106/81/99 21/4/20 22/103/19 107/104/100
f 28/11/27 115/82/157 113/90/156 27/10/28
f 120/79/124 30/16/30 29/13/29 117/78/125
f 28/11/27 21/4/20 106/81/99 115/82/157
f 120/79/124 109/92/134 23/5/23 30/16/30
f 122/66/171 33/20/32 34/17/31 123/65/164
f 35/23/35 125/63/181 127/64/139 36/22/36
f 34/17/31 27/10/28 113/90/156 123/65/164
f 127/64/139 117/78/125 29/13/29 36/22/36
f 88/87/155 43/31/48 42/30/47 85/86/152
f 38/35/57 83/48/92 82/47/132 39/26/182
f 96/80/144 51/36/61 50/28/183 93/77/121
f 46/25/40 91/83/131 90/91/151 47/32/51
f 82/47/184 91/83/131 46/25/40 39/26/185
f 42/30/62 51/36/61 96/80/144 85/86/152
f 58/29/45 101/62/106 104/61/105 59/27/41
f 98/67/111 55/34/55 54/33/54 99/68/112
f 90/91/151 99/68/112 54/33/54 47/32/51
f 50/28/65 59/27/41 104/61/105 93/77/121
f 111/87/136 110/86/135 41/30/50 44/31/49
f 37/35/60 40/26/186 105/47/169 108/48/101
f 119/80/127 118/77/138 49/28/187 52/36/64
f 45/25/37 48/32/52 114/91/165 116/83/158
f 105/47/188 40/26/189 45/25/37 116/83/158
f 41/30/63 110/86/190 119/80/127 52/36/64
f 57/29/46 60/27/44 128/61/137 126/62/118
f 121/67/172 124/68/166 53/33/53 56/34/56
f 114/91/191 48/32/52 53/33/53 124/68/166
f 49/28/66 118/77/192 128/61/137 60/27/44
f 130/43/174 61/39/67 17/40/67 102/98/107
f 63/38/69 131/76/97 97/75/97 15/37/69
f 132/55/98 64/39/70 55/40/70 98/56/98
f 65/38/71 133/60/168 121/96/168 56/37/71
f 134/105/167 66/39/72 33/40/72 122/106/167
f 68/38/74 135/76/120 125/75/119 35/37/74
f 136/55/117 69/39/75 57/40/46 126/56/118
f 70/38/76 129/60/173 101/96/106 58/37/45
f 138/105/103 71/39/77 66/40/77 134/52/103
f 73/38/79 139/76/148 135/89/148 68/37/79
f 140/55/147 74/39/80 69/40/80 136/72/147
f 75/38/81 141/60/87 129/59/87 70/37/81
f 142/43/88 76/39/82 61/40/82 130/44/88
f 78/38/84 143/76/128 131/89/128 63/37/84
f 144/55/129 79/39/85 64/40/85 132/72/129
f 80/38/86 137/60/104 133/59/104 65/37/86
f 80/37/193 145/99/94 137/59/93
f 138/52/96 154/51/95 71/40/194
f 154/94/95 153/100/177 72/40/195 71/37/194
f 153/107/177 152/51/163 73/40/196 72/37/195
f 73/37/196 152/94/163 139/89/162
f 140/72/161 151/71/160 74/40/197
f 151/99/160 150/71/141 75/40/193 74/37/197
f 75/37/193 150/99/141 141/59/140
f 142/44/143 149/51/142 76/40/198
f 149/94/142 148/100/176 77/40/199 76/37/198
f 148/107/176 147/51/114 78/40/200 77/37/199
f 78/37/200 147/94/114 143/89/113
f 144/72/116 146/71/115 79/40/197
f 146/99/115 145/71/94 80/40/193 79/37/197
f 87/84/154 155/108/201 88/87/155
f 84/45/89 83/48/92 155/109/202
f 107/45/100 155/109/203 108/48/101
f 111/110/136 155/108/204 112/102/133
f 155/111/205 44/31/49 43/31/48
f 37/35/60 155/111/206 38/35/57
f 155/111/207 1/2/2 4/1/1
f 84/104/89 155/109/208 4/103/1
f 83/48/92 38/35/57 155/109/209
f 43/31/48 88/87/155 155/108/210
f 6/101/6 155/111/211 87/102/154
f 155/108/212 6/8/6 1/7/2
f 22/1/19 19/2/22 155/111/213
f 155/109/214 107/104/100 22/103/19
f 108/48/101 155/109/215 37/35/60
f 44/31/49 155/112/216 111/87/136
f 155/113/217 24/101/24 112/102/133
f 19/7/22 24/8/24 155/108/218
