# OBJ written from /Users/Stritar/Dropbox/DS/Projects/2016/VR/Heart/Exports/HiFi/bottom.obj
# Units	meters

o Mesh
v -17.8285 -36.5875 -9.74461
v -17.8285 -36.5875 9.20294
v 17.8285 -36.5875 9.20294
v 17.8285 -36.5875 -9.74461
v -9.41885 -41.9425 10.3251
v 9.41885 -41.9425 10.3251
v 9.41885 -41.9425 -10.8668
v -9.41885 -41.9425 -10.8668
v -14.2639 -43.7275 -5.64702
v -19.0225 -39.1517 -5.9334
v -14.2639 -43.7275 5.10535
v -19.0225 -39.1517 5.39174
v 14.2639 -43.7275 5.10535
v 19.0225 -39.1517 5.39174
v 14.2639 -43.7275 -5.64702
v 19.0225 -39.1517 -5.9334
v -14.1283 -39.18 10.0052
v -4.75462 -49.7342 5.30505
v -4.70942 -44.705 10.645
v 4.75462 -49.7342 5.30505
v 4.70942 -44.705 10.645
v 14.1283 -39.18 10.0052
v 4.75462 -49.7342 -5.84672
v 4.70942 -44.705 -11.1867
v 14.1283 -39.18 -10.5469
v -14.1283 -39.18 -10.5469
v -4.75462 -49.7342 -5.84672
v -4.70942 -44.705 -11.1867
v -9.50923 -46.7308 -5.74687
v 9.50923 -46.7308 -5.74687
v 9.50923 -46.7308 5.2052
v -9.50923 -46.7308 5.2052
v -7.41217 -47.8175 -4.61021
v -5.73154 -47.8175 -5.43241
v -3.82103 -47.8175 -5.71561
v -1.91051 -47.8175 -5.99882
v 1.91051 -47.8175 -5.99882
v 3.82103 -47.8175 -5.71561
v 5.73154 -47.8175 -5.43241
v 7.41217 -47.8175 -4.61021
v 8.63304 -47.8175 -2.71002
v 8.63304 -47.8175 2.16835
v 7.41217 -47.8175 4.06854
v 5.73154 -47.8175 4.89074
v 3.82103 -47.8175 5.17394
v 1.91051 -47.8175 5.45715
v -1.91051 -47.8175 5.45715
v -3.82103 -47.8175 5.17394
v -5.73154 -47.8175 4.89074
v -7.41217 -47.8175 4.06854
v -8.63304 -47.8175 2.16835
v -8.63304 -47.8175 -2.71002
v -23.0587 -32.6141 -6.82999
v -22.4537 -31.6153 -6.61493
v -23.0587 -32.6141 6.28832
v -22.4537 -31.6153 6.07326
v -15.505 -33.5241 -13.8096
v -14.76 -32.4933 -13.563
v -19.8871 -32.0499 -11.7139
v -19.2325 -31.0891 -11.5303
v -15.505 -33.5241 13.2679
v -14.76 -32.4933 13.0214
v -19.8871 -32.0499 11.1722
v -19.2325 -31.0891 10.9886
v 23.0587 -32.6141 6.28832
v 22.4537 -31.6153 6.07326
v 23.0587 -32.6141 -6.82999
v 22.4537 -31.6153 -6.61493
v 15.505 -33.5241 13.2679
v 14.76 -32.4933 13.0214
v 19.8871 -32.0499 11.1722
v 19.2325 -31.0891 10.9886
v 15.505 -33.5241 -13.8096
v 14.76 -32.4933 -13.563
v 19.8871 -32.0499 -11.7139
v 19.2325 -31.0891 -11.5303
v -5.17688 -38.4906 14.7439
v -4.82699 -37.1075 14.2011
v -10.3451 -36.0105 14.0017
v -9.72503 -34.8222 13.5869
v 5.17688 -38.4906 14.7439
v 4.82699 -37.1075 14.2011
v 10.3451 -36.0105 14.0017
v 9.72503 -34.8222 13.5869
v 5.17688 -38.4906 -15.2856
v 4.82699 -37.1075 -14.7428
v -5.17688 -38.4906 -15.2856
v -4.82699 -37.1075 -14.7428
v 10.3451 -36.0105 -14.5434
v 9.72503 -34.8222 -14.1285
v -10.3451 -36.0105 -14.5434
v -9.72503 -34.8222 -14.1285
v -5.90326 -35.6643 -8.6827
v -6.58278 -34.7884 -9.65098
v -2.94244 -37.0965 -9.09266
v -3.31474 -36.3587 -10.2089
v 2.94244 -37.0965 -9.09266
v 3.31474 -36.3587 -10.2089
v 5.90326 -35.6643 -8.6827
v 6.58278 -34.7884 -9.65098
v 8.8781 -34.2274 -8.26606
v 9.76086 -33.2466 -9.06104
v 11.4971 -33.3761 -7.00168
v 12.528 -32.354 -7.60522
v 13.3865 -33.6961 -4.05306
v 14.5564 -32.7064 -4.38362
v 13.3865 -33.6961 3.5114
v 14.5564 -32.7064 3.84195
v 11.4971 -33.3761 6.46002
v 12.528 -32.354 7.06356
v 8.8781 -34.2274 7.7244
v 9.76086 -33.2466 8.51937
v 5.90326 -35.6643 8.14103
v 6.58278 -34.7884 9.10932
v 2.94244 -37.0965 8.55099
v 3.31474 -36.3587 9.66721
v -2.94244 -37.0965 8.55099
v -3.31474 -36.3587 9.66721
v -5.90326 -35.6643 8.14103
v -6.58278 -34.7884 9.10932
v -8.8781 -34.2274 7.7244
v -9.76086 -33.2466 8.51937
v -11.4971 -33.3761 6.46002
v -12.528 -32.354 7.06356
v -13.3865 -33.6961 3.5114
v -14.5564 -32.7064 3.84195
v -13.3865 -33.6961 -4.05306
v -14.5564 -32.7064 -4.38362
v -12.528 -32.354 -7.60522
v -11.4971 -33.3761 -7.00168
v -8.8781 -34.2274 -8.26606
v -9.76086 -33.2466 -9.06104
v 1.41942 -45.6699 10.7568
v -1.41942 -45.6699 10.7568
v -1.41942 -45.6699 -11.2984
v 1.41942 -45.6699 -11.2984
v 1.41121 -50.7901 -5.88183
v -1.41121 -50.7901 -5.88183
v -1.41121 -50.7901 5.34016
v 1.41121 -50.7901 5.34016
v 1.47595 -47.8175 -6.03102
v -1.47595 -47.8175 -6.03102
v -1.47595 -47.8175 5.48936
v 1.47595 -47.8175 5.48936
v -1.43583 -39.3858 15.0138
v 1.43583 -39.3858 15.0138
v 1.43707 -37.9073 14.4402
v -1.43707 -37.9073 14.4402
v 1.43583 -39.3858 -15.5555
v -1.43583 -39.3858 -15.5555
v -1.43707 -37.9073 -14.9819
v 1.43707 -37.9073 -14.9819
v -1.43507 -37.4623 -9.19604
v 1.43507 -37.4623 -9.19604
v 1.43582 -36.8052 -10.3546
v -1.43582 -36.8052 -10.3546
v 1.43507 -37.4623 8.65437
v -1.43507 -37.4623 8.65437
v -1.43582 -36.8052 9.81294
v 1.43582 -36.8052 9.81294
v -19.6199 -40.1886 1.24716
v -19.6199 -40.1886 -1.78882
v 19.6199 -40.1886 -1.78882
v 19.6199 -40.1886 1.24716
v -9.76018 -48.0484 -1.76806
v -9.76018 -48.0484 1.22639
v 9.76018 -48.0484 -1.76806
v 9.76018 -48.0484 1.22639
v -14.6374 -44.9531 1.22933
v -14.6374 -44.9531 -1.77099
v -4.88108 -51.145 -1.76356
v -4.88108 -51.145 1.22189
v 4.88108 -51.145 1.22189
v 4.88108 -51.145 -1.76356
v 14.6374 -44.9531 -1.77099
v 14.6374 -44.9531 1.22933
v 8.814 -47.8175 1.27754
v 8.814 -47.8175 -1.81921
v -8.814 -47.8175 -1.81921
v -8.814 -47.8175 1.27754
v -24.0875 -33.2196 -1.808
v -24.0875 -33.2196 1.26634
v -23.4446 -32.1813 1.26645
v -23.4446 -32.1813 -1.80811
v 24.0875 -33.2196 1.26634
v 24.0875 -33.2196 -1.808
v 23.4446 -32.1813 -1.80811
v 23.4446 -32.1813 1.26645
v 13.8376 -33.9639 -1.80935
v 13.8376 -33.9639 1.26768
v 15.0715 -33.011 1.26813
v 15.0715 -33.011 -1.80979
v -13.8376 -33.9639 1.26768
v -13.8376 -33.9639 -1.80935
v -15.0715 -33.011 -1.80979
v -15.0715 -33.011 1.26813
v 1.41114 -52.2465 -1.76056
v 1.41114 -52.2465 1.21889
v -1.41114 -52.2465 1.21889
v -1.41114 -52.2465 -1.76056
vn -0.54803 -0.704056 -0.451629
vn -0.691313 -0.592155 -0.414052
vn -0.58356 -0.544865 -0.602146
vn -0.466641 -0.583738 -0.664452
vn -0.478107 -0.743185 -0.46807
vn -0.397773 -0.596745 -0.696902
vn -0.306044 -0.617986 -0.724176
vn -0.374286 -0.788319 -0.488327
vn 0.478119 -0.743147 -0.468118
vn 0.374132 -0.788424 -0.488276
vn 0.306241 -0.617924 -0.724145
vn 0.397837 -0.596774 -0.696841
vn 0.464312 -0.583279 -0.666483
vn 0.547322 -0.704716 -0.451458
vn 0.565927 -0.55622 -0.608561
vn 0.678183 -0.605018 -0.417159
vn 0.397773 -0.596745 0.696902
vn 0.306044 -0.617986 0.724176
vn 0.374286 -0.788319 0.488327
vn 0.478107 -0.743185 0.46807
vn 0.54803 -0.704056 0.451629
vn 0.691313 -0.592155 0.414052
vn 0.58356 -0.544865 0.602146
vn 0.466641 -0.583738 0.664452
vn -0.397837 -0.596774 0.696841
vn -0.464312 -0.583279 0.666483
vn -0.547322 -0.704716 0.451458
vn -0.478119 -0.743147 0.468118
vn -0.565927 -0.55622 0.608561
vn -0.678183 -0.605018 0.417159
vn -0.374132 -0.788424 0.488276
vn -0.306241 -0.617924 0.724145
vn 0.0281694 0.358979 -0.93292
vn 0.0284537 0.338696 -0.940465
vn 0.146585 0.329062 -0.932862
vn 0.000636253 0.283716 -0.958908
vn 0.528496 0.516993 0.673357
vn 0.792418 0.552175 0.259183
vn 0.522805 0.514308 -0.679826
vn -0.0281693 0.358979 0.93292
vn -0.0284538 0.338696 0.940465
vn 0.130907 0.369392 0.920007
vn -0.528496 0.516993 -0.673357
vn -0.792418 0.552175 -0.259183
vn -0.546581 0.479488 0.686542
vn -0.159947 0.311931 0.936545
vn -0.000636183 0.283716 0.958908
vn -0.0187041 0.341466 -0.939708
vn 0.0187041 0.341467 0.939708
vn 0.788555 0.556453 -0.261804
vn -0.130907 0.369392 -0.920007
vn -0.798255 0.540709 0.265373
vn -0.759921 -0.517232 -0.393688
vn -0.600376 -0.513139 -0.613382
vn -0.573666 -0.530937 0.623709
vn -0.738486 -0.541978 0.401122
vn 0.759921 -0.517232 0.393688
vn 0.600376 -0.513139 0.613382
vn 0.573666 -0.530937 -0.623709
vn 0.738486 -0.541978 -0.401122
vn -0.435839 -0.529889 0.727504
vn -0.364133 -0.531031 0.765123
vn -0.278314 -0.543575 0.791876
vn 0.278221 -0.543617 0.79188
vn 0.363999 -0.530964 0.765233
vn 0.441176 -0.530806 0.723608
vn 0.278314 -0.543575 -0.791876
vn 0.364133 -0.531031 -0.765123
vn 0.435839 -0.529889 -0.727504
vn -0.441176 -0.530806 -0.723608
vn -0.363999 -0.530964 -0.765233
vn -0.278221 -0.543617 -0.79188
vn 0.410472 0.878159 0.24566
vn 0.346828 0.909195 0.230382
vn 0.585654 0.559417 0.586569
vn 0.478269 0.645179 0.595821
vn -0.45403 0.783691 0.423893
vn -0.346974 0.826015 0.444194
vn 0.414525 0.86818 -0.272824
vn 0.45403 0.783691 -0.423894
vn 0.475072 0.629301 -0.61505
vn -0.410472 0.878159 -0.24566
vn -0.346828 0.909194 -0.230382
vn -0.585654 0.559417 -0.586569
vn -0.478269 0.645179 -0.595821
vn -0.414525 0.86818 0.272823
vn -0.475072 0.629301 0.61505
vn 0.351539 0.905197 -0.238829
vn 0.587117 0.552645 -0.591504
vn -0.442918 0.894412 -0.0620546
vn -0.413034 0.903414 -0.115093
vn -0.466187 0.783144 -0.411528
vn -0.455855 0.800412 -0.389278
vn 0.442918 0.894412 0.0620546
vn 0.413034 0.903414 0.115093
vn 0.466187 0.783144 0.411527
vn 0.455855 0.800412 0.389278
vn -0.351539 0.905197 0.238829
vn -0.587117 0.552645 0.591504
vn 0.339114 0.909734 -0.239555
vn 0.744941 0.569908 -0.346796
vn -0.34238 0.934542 -0.0969871
vn -0.347673 0.831364 -0.43354
vn -0.339114 0.909734 0.239555
vn -0.744941 0.569908 0.346796
vn 0.34238 0.934542 0.0969872
vn 0.347673 0.831364 0.43354
vn 0.337629 0.910542 0.238578
vn 0.744 0.571673 0.345909
vn 0.346974 0.826015 -0.444194
vn -0.337629 0.910542 -0.238578
vn -0.744 0.571673 -0.345909
vn 0.632436 0.300607 0.713905
vn 0.286463 0.251302 0.924547
vn 0.372871 0.454895 0.808726
vn 0.14214 0.245611 0.958891
vn 0.106277 0.27468 0.955644
vn -0.105745 0.285092 0.952649
vn -0.14109 0.27233 0.951804
vn -0.285068 0.270633 0.919508
vn -0.632192 0.304737 0.712368
vn -0.403106 0.552761 0.729357
vn -0.874969 0.328027 0.356129
vn -0.874997 0.328369 -0.355745
vn -0.632436 0.300607 -0.713905
vn -0.286463 0.251302 -0.924547
vn -0.372871 0.454895 -0.808726
vn -0.14214 0.245611 -0.958891
vn -0.106277 0.27468 -0.955644
vn 0.105745 0.285092 -0.952649
vn 0.14109 0.27233 -0.951804
vn 0.285068 0.270633 -0.919508
vn 0.632192 0.304737 -0.712368
vn 0.403106 0.552761 -0.729357
vn 0.874969 0.328027 -0.356129
vn 0.874997 0.328369 0.355745
vn 0.294843 0.922094 -0.250622
vn 0.378572 0.884593 -0.272356
vn -0.378573 0.884593 -0.272356
vn -0.294843 0.922093 -0.250622
vn -0.315759 0.928532 -0.195254
vn -0.171581 0.98487 0.0242928
vn -0.417356 0.898574 0.13557
vn -0.0935947 0.984243 0.150017
vn -0.171581 0.98487 -0.0242929
vn -0.0935947 0.984243 -0.150017
vn -0.315759 0.928532 0.195254
vn -0.378573 0.884593 0.272356
vn -0.380621 0.924726 -0.00298772
vn -0.294843 0.922093 0.250622
vn 0.378573 0.884593 0.272356
vn 0.294843 0.922093 0.250622
vn 0.315759 0.928532 0.195254
vn 0.171581 0.98487 -0.0242928
vn 0.417356 0.898574 -0.13557
vn 0.0935947 0.984243 -0.150017
vn 0.171581 0.98487 0.0242929
vn 0.0935947 0.984243 0.150017
vn 0.315759 0.928532 -0.195254
vn 0.380621 0.924726 0.00298772
vn -0.095673 -0.558452 0.824001
vn -0.106451 -0.643898 0.75767
vn 0.106071 -0.64392 0.757705
vn 0.095044 -0.558485 0.824052
vn -0.119827 0.863586 -0.489757
vn 0.119827 0.86359 -0.489748
vn 0.119827 0.863585 0.489757
vn -0.119827 0.86359 0.489749
vn 0.106451 -0.643898 -0.75767
vn 0.133732 -0.845256 -0.517357
vn -0.133137 -0.845339 -0.517374
vn -0.106071 -0.64392 -0.757705
vn 0.104824 0.967422 0.230449
vn -0.104824 0.967422 0.230448
vn -0.104824 0.967422 -0.230449
vn 0.104824 0.967422 -0.230448
vn -0.0353764 0.291987 -0.955768
vn 0.0354706 0.287763 -0.957045
vn 0.133137 -0.845339 0.517374
vn -0.133732 -0.845256 0.517357
vn 0.00964634 0.361719 0.932237
vn -0.00956198 0.361403 0.932361
vn 0.0956729 -0.558452 -0.824001
vn -0.095044 -0.558485 -0.824052
vn 0.0095621 0.361403 -0.932361
vn -0.00964639 0.361718 -0.932238
vn 0.0353759 0.291987 0.955768
vn -0.0354701 0.287763 0.957045
vn 0.846269 0.530009 -0.0540305
vn 0.848911 0.525657 0.0550937
vn 0.151038 -0.974269 0.167293
vn -0.151566 -0.974194 0.167254
vn -0.151038 -0.974269 -0.167293
vn 0.151566 -0.974194 -0.167254
vn -0.608966 -0.779706 0.14567
vn -0.762717 -0.634079 0.127304
vn -0.765662 -0.630541 -0.127199
vn -0.609937 -0.77895 -0.14565
vn 0.803236 0.586467 -0.104248
vn 0.935941 0.339321 -0.0942141
vn 0.936894 0.336627 0.0944055
vn 0.804347 0.584913 0.104418
vn -0.803236 0.586467 0.104248
vn -0.935941 0.339321 0.0942141
vn -0.936894 0.336627 -0.0944055
vn -0.804347 0.584913 -0.104418
vn -0.848911 0.525657 -0.0550937
vn -0.846269 0.530009 0.0540305
vn -0.366815 0.925864 -0.0906777
vn -0.0983931 0.992804 -0.0682645
vn -0.0983932 0.992803 0.0682645
vn -0.366369 0.926046 0.0906232
vn 0.530356 -0.834176 -0.151238
vn 0.608966 -0.779706 -0.14567
vn 0.609937 -0.77895 0.14565
vn 0.530335 -0.8342 0.151183
vn 0.366369 0.926046 -0.0906232
vn 0.366815 0.925864 0.0906777
vn -0.530335 -0.8342 -0.151183
vn -0.418414 -0.894667 -0.156526
vn -0.418106 -0.894803 0.156575
vn -0.530356 -0.834176 0.151238
vn 0.418106 -0.894803 -0.156575
vn 0.418414 -0.894667 0.156526
vn 0.836003 -0.536251 0.116338
vn 0.765662 -0.630541 0.127199
vn 0.762717 -0.634079 -0.127304
vn 0.833301 -0.540451 -0.11629
vn -0.836003 -0.536251 -0.116338
vn -0.833301 -0.540451 0.11629
vn 0.0983931 0.992804 0.0682645
vn 0.0983932 0.992803 -0.0682645
vt 0.3125 0.958333
vt 0.3125 1
vt 0.25 1
vt 0.25 0.958333
vt 0.3125 0.916667
vt 0.25 0.916667
vt 0.25 0.875
vt 0.3125 0.875
vt 0.3125 0.75
vt 0.3125 0.791667
vt 0.25 0.791667
vt 0.25 0.75
vt 0.25 0.708333
vt 0.3125 0.708333
vt 0.25 0.666667
vt 0.3125 0.65625
vt 0.5 0.75
vt 0.5 0.791667
vt 0.4375 0.791667
vt 0.4375 0.75
vt 0.4375 0.708333
vt 0.4375 0.65625
vt 0.5 0.666667
vt 0.5 0.708333
vt 0.5 0.916667
vt 0.5 0.958333
vt 0.4375 0.958333
vt 0.4375 0.916667
vt 0.5 1
vt 0.4375 1
vt 0.4375 0.875
vt 0.5 0.875
vt -0.195591 1
vt -0.179712 0
vt 0.179712 0
vt 0.195591 1
vt -0.154023 1
vt 0.154023 1
vt -0.137373 1
vt -0.132092 0
vt 0.132092 0
vt 0.137373 1
vt 0.21875 0.568882
vt 0.259431 0.566069
vt 0.256194 0.600597
vt 0.21875 0.597785
vt -0.179712 1
vt -0.154023 0
vt 0.154023 0
vt 0.179712 1
vt -0.137373 0
vt 0.137373 0
vt -0.195591 0
vt 0.195591 0
vt 0.3125 0.572159
vt 0.3125 0.594508
vt -0.132092 1
vt 0.132092 1
vt 0.9375 0.666667
vt 0.9375 0.596104
vt 1 0.600597
vt 1 0.666667
vt 0.75 0.666667
vt 0.756194 0.600597
vt 0.8125 0.596104
vt 0.8125 0.666667
vt 0.4375 0.594508
vt 0.493806 0.600597
vt 0.71875 0.666667
vt 0.71875 0.597785
vt 0.6875 0.666667
vt 0.6875 0.597156
vt 0.65625 0.666667
vt 0.65625 0.596502
vt 0.59375 0.596502
vt 0.59375 0.666667
vt 0.5625 0.666667
vt 0.5625 0.597156
vt 0.53125 0.666667
vt 0.53125 0.597785
vt 0.15625 0.666667
vt 0.15625 0.596502
vt 0.1875 0.597156
vt 0.1875 0.666667
vt 0.21875 0.666667
vt 0.03125 0.666667
vt 0.03125 0.597785
vt 0.0625 0.597156
vt 0.0625 0.666667
vt 0 0.666667
vt 0 0.600597
vt 0.09375 0.596502
vt 0.09375 0.666667
vt -0.0607078 1
vt -0.0570812 0
vt 0.0570812 0
vt 0.0607078 1
vt -0.0676358 1
vt -0.0758695 0
vt 0.0758695 0
vt 0.0676358 1
vt -0.0676358 0
vt 0.0676358 0
vt -0.0570812 1
vt -0.0607078 0
vt 0.0607078 0
vt 0.0570812 1
vt -0.057933 1
vt 0.057933 1
vt -0.0758695 1
vt 0.0758695 1
vt -0.057933 0
vt 0.057933 0
vt 1 0
vt 1 1
vt 0.871468 1
vt 0.881903 0
vt 0.881903 1
vt 0.871468 0
vt 0.898785 1
vt 0.909727 1
vt 0.898785 0
vt 0.913197 1
vt 0.909727 0
vt 0.913197 0
vt 0.633667 0.596269
vt 0.634419 0.666667
vt 0.615581 0.666667
vt 0.616333 0.596269
vt -0.0826715 -0.433164
vt 0.0829304 -0.487713
vt 0.0783009 0.487713
vt -0.0785598 0.433164
vt -0.0826715 -0.433164
vt -0.0785598 0.433164
vt 0.25 0.820775
vt 0.3125 0.820966
vt 0.3125 0.8457
vt 0.25 0.845892
vt 0.869088 1.43316
vt 0.198872 1.29772
vt 0.197367 0.702285
vt 0.870527 0.566836
vt 1 -0.772542
vt 1 0.772542
vt 0.4375 0.820966
vt 0.5 0.820775
vt 0.5 0.845892
vt 0.4375 0.8457
vt -0.198821 1.27735
vt -0.197418 0.722646
vt 0.133667 0.596269
vt 0.134419 0.666667
vt 0.115581 0.666667
vt 0.116333 0.596269
vt -0.198821 -0.277354
vt 0.198872 -0.297715
vt 0.197367 0.297715
vt -0.197418 0.277354
vt -0.197418 0.277354
vt 0.0783009 0.512287
vt -0.0785598 0.566836
vt 1 0.227458
vt 1 0.227458
vt 0.870527 0.433164
vt 0.870527 0.433164
vt -0.1299 -0.234355
vt 0.129886 -0.242317
vt 0.130746 0.242317
vt -0.130732 0.234355
vt 0.391594 0.821285
vt 0.391594 0.845381
vt 0.358406 0.845381
vt 0.358406 0.821285
vt 0.39244 0.958333
vt 0.391755 1
vt 0.358245 1
vt 0.35756 0.958333
vt 0.0600301 -0.406774
vt 1 -0.634792
vt 1 0.634792
vt 0.0588173 0.406774
vt 0.129886 1.24232
vt -0.1299 1.23435
vt -0.130732 0.765645
vt 0.130746 0.757683
vt 0.9148 1.37419
vt 0.913927 0.625811
vt 0.357903 0.749369
vt 0.35756 0.708333
vt 0.39244 0.708333
vt 0.39208 0.749369
vt -0.0599815 -0.374189
vt -0.0588659 0.374189
vt 0.357912 0.916667
vt 0.358268 0.875
vt 0.391732 0.875
vt 0.392088 0.916667
vt 0.358268 0.791667
vt 0.391732 0.791667
vt 0.389634 0.593977
vt 0.391665 0.657095
vt 0.358156 0.657095
vt 0.36034 0.593977
vt 0.889647 0.595355
vt 0.891755 0.666667
vt 0.858245 0.666667
vt 0.860353 0.595355
vt 0.0588173 0.593226
vt -0.0588659 0.625811
vt 1 0.365208
vt 0.913927 0.374189
mtllib bottom.mtl
usemtl Default
g Default
f 9/1/1 10/2/2 1/3/3 26/4/4
f 29/5/5 9/1/1 26/4/4 8/6/6
f 8/6/6 28/7/7 27/8/8 29/5/5
f 30/9/9 23/10/10 24/11/11 7/12/12
f 7/12/12 25/13/13 15/14/14 30/9/9
f 25/13/13 4/15/15 16/16/16 15/14/14
f 6/17/17 21/18/18 20/19/19 31/20/20
f 13/21/21 14/22/22 3/23/23 22/24/24
f 31/20/20 13/21/21 22/24/24 6/17/17
f 5/25/25 17/26/26 11/27/27 32/28/28
f 17/26/26 2/29/29 12/30/30 11/27/27
f 32/28/28 18/31/31 19/32/32 5/25/25
f 87/33/33 91/34/34 92/35/34 88/36/33
f 73/37/35 89/34/36 90/35/36 74/38/35
f 71/39/37 65/40/38 66/41/38 72/42/37
f 74/43/35 76/44/39 75/45/39 73/46/35
f 81/33/40 83/34/41 84/35/41 82/36/40
f 83/47/41 69/48/42 70/49/42 84/50/41
f 59/39/43 53/40/44 54/41/44 60/42/43
f 63/39/45 61/48/46 62/49/46 64/42/45
f 69/37/42 71/51/37 72/52/37 70/38/42
f 61/37/46 79/34/47 80/35/47 62/38/46
f 89/47/36 85/53/48 86/54/48 90/50/36
f 79/47/47 77/53/49 78/54/49 80/50/47
f 76/44/39 68/55/50 67/56/50 75/45/39
f 91/47/34 57/48/51 58/49/51 92/50/34
f 57/37/51 59/51/43 60/52/43 58/38/51
f 55/57/52 63/51/45 64/52/45 56/58/52
f 10/59/2 53/60/53 59/61/54 1/62/3
f 2/63/29 63/64/55 55/65/56 12/66/30
f 14/22/22 65/67/57 71/68/58 3/23/23
f 4/15/15 75/45/59 67/56/60 16/16/16
f 63/64/55 2/63/29 17/69/26 61/70/61
f 61/70/61 17/69/26 5/71/25 79/72/62
f 19/73/32 77/74/63 79/72/62 5/71/25
f 81/75/64 21/76/18 6/77/17 83/78/65
f 22/79/24 69/80/66 83/78/65 6/77/17
f 3/23/23 71/68/58 69/80/66 22/79/24
f 24/81/11 85/82/67 89/83/68 7/84/12
f 75/45/59 4/15/15 25/85/13 73/46/69
f 73/46/69 25/85/13 7/84/12 89/83/68
f 26/86/4 57/87/70 91/88/71 8/89/6
f 1/90/3 59/91/54 57/87/70 26/86/4
f 87/92/72 28/93/7 8/89/6 91/88/71
f 132/94/73 129/95/74 130/96/75 131/97/76
f 100/98/77 98/99/78 97/100/78 99/101/77
f 122/94/79 120/102/80 119/103/80 121/97/81
f 112/94/82 110/95/83 109/96/84 111/97/85
f 102/94/86 100/102/77 99/103/77 101/97/87
f 124/104/88 122/105/79 121/106/81 123/107/89
f 114/98/90 112/105/91 111/106/92 113/101/93
f 94/98/94 132/105/95 131/106/96 93/101/97
f 104/104/98 102/105/86 101/106/87 103/107/99
f 126/108/100 124/95/88 123/96/89 125/109/101
f 116/110/102 114/102/90 113/103/93 115/111/103
f 106/108/104 104/95/98 103/96/99 105/109/105
f 96/110/106 94/102/94 93/103/97 95/111/107
f 129/104/74 128/112/108 127/113/109 130/107/75
f 120/98/80 118/99/110 117/100/110 119/101/80
f 110/104/83 108/112/111 107/113/112 109/107/84
f 33/114/113 34/115/114 131/97/115 130/96/75
f 34/114/114 35/115/116 93/101/116 131/106/114
f 35/114/116 36/115/117 95/111/117 93/103/116
f 37/114/118 38/115/119 99/101/119 97/100/118
f 38/114/119 39/115/120 101/97/120 99/103/119
f 39/114/120 40/115/121 103/107/99 101/106/122
f 40/114/121 41/115/123 105/109/105 103/96/99
f 42/114/124 43/115/125 109/107/84 107/113/112
f 43/114/125 44/115/126 111/97/127 109/96/84
f 44/114/126 45/115/128 113/101/128 111/106/126
f 45/114/128 46/115/129 115/111/129 113/103/128
f 47/114/130 48/115/131 119/101/131 117/100/130
f 48/114/131 49/115/132 121/97/132 119/103/131
f 49/114/132 50/115/133 123/107/89 121/106/134
f 50/114/133 51/115/135 125/109/101 123/96/89
f 52/114/136 33/115/113 130/107/75 127/113/109
f 96/116/106 88/36/137 92/35/138 94/117/94
f 100/118/139 90/50/139 86/54/140 98/119/140
f 102/120/141 74/38/141 90/35/139 100/117/139
f 104/121/98 76/42/142 74/49/141 102/122/143
f 106/123/104 68/58/144 76/52/142 104/124/98
f 110/121/83 72/42/145 66/41/146 108/125/111
f 112/120/91 70/38/147 72/52/145 110/124/83
f 114/118/90 84/50/148 70/49/147 112/122/149
f 116/116/102 82/36/150 84/35/148 114/117/90
f 120/118/151 80/50/151 78/54/152 118/119/152
f 122/120/153 62/38/153 80/35/151 120/117/151
f 124/121/88 64/42/154 62/49/153 122/122/155
f 126/123/100 56/58/156 64/52/154 124/124/88
f 129/121/74 60/42/157 54/41/158 128/125/108
f 132/120/95 58/38/159 60/52/157 129/124/74
f 94/118/94 92/50/138 58/49/159 132/122/160
f 145/126/161 134/127/162 133/128/163 146/129/164
f 160/130/165 157/131/165 158/132/166 159/133/166
f 156/134/167 153/131/167 154/132/168 155/135/168
f 136/136/169 137/137/170 138/138/171 135/139/172
f 159/140/173 148/141/173 147/142/174 160/143/174
f 155/140/175 152/141/175 151/142/176 156/143/176
f 157/131/177 144/144/177 143/145/178 158/132/178
f 140/146/179 133/147/163 134/148/162 139/149/180
f 148/141/181 145/150/181 146/151/182 147/142/182
f 149/152/183 136/153/169 135/154/172 150/155/184
f 150/156/185 151/157/185 152/158/186 149/159/186
f 153/131/187 142/144/187 141/145/188 154/132/188
f 135/139/172 138/138/171 27/8/8 28/7/7
f 137/137/170 136/136/169 24/11/11 23/10/10
f 133/147/163 140/146/179 20/19/19 21/18/18
f 139/149/180 134/148/162 19/32/32 18/31/31
f 145/160/181 148/158/181 78/36/49 77/33/49
f 87/53/33 88/54/33 151/142/185 150/151/185
f 81/53/40 82/54/40 147/142/182 146/151/182
f 149/159/186 152/158/186 86/36/48 85/33/48
f 145/126/161 77/74/63 19/73/32 134/127/162
f 133/128/163 21/76/18 81/75/64 146/129/164
f 149/152/183 85/82/67 24/81/11 136/153/169
f 135/154/172 28/93/7 87/92/72 150/155/184
f 116/99/102 115/100/103 157/161/165 160/162/165
f 96/99/106 95/100/107 153/161/167 156/162/167
f 159/133/166 158/132/166 117/111/110 118/110/110
f 155/135/168 154/132/168 97/111/78 98/110/78
f 142/163/187 153/161/187 95/100/117 36/114/117
f 37/115/118 97/111/118 154/132/188 141/145/188
f 144/164/177 157/161/177 115/100/129 46/114/129
f 47/115/130 117/111/130 158/132/178 143/145/178
f 151/142/176 88/54/137 96/119/106 156/143/176
f 86/36/140 152/158/175 155/165/175 98/116/140
f 147/142/174 82/54/150 116/119/102 160/143/174
f 78/36/152 148/158/173 159/166/173 118/116/152
f 186/167/189 187/168/189 188/169/190 185/170/190
f 198/171/191 199/172/192 200/173/193 197/174/194
f 169/175/195 161/176/196 162/177/197 170/178/198
f 193/179/199 180/180/200 179/181/201 194/182/202
f 189/179/203 178/180/204 177/181/205 190/182/206
f 184/183/207 181/184/207 182/185/208 183/186/208
f 191/187/209 188/183/210 187/186/211 192/188/212
f 167/189/213 175/190/214 176/191/215 168/192/216
f 192/193/212 189/179/203 190/182/206 191/194/209
f 196/193/217 193/179/199 194/182/202 195/194/218
f 165/195/219 171/196/220 172/197/221 166/198/222
f 174/199/223 167/189/213 168/192/216 173/200/224
f 185/201/225 164/202/226 163/203/227 186/204/228
f 181/205/229 162/206/197 161/207/196 182/208/230
f 170/178/198 165/195/219 166/198/222 169/175/195
f 195/187/218 184/183/231 183/186/232 196/188/217
f 199/172/192 172/197/221 171/196/220 200/173/193
f 197/174/194 174/199/223 173/200/224 198/171/191
f 175/190/214 163/203/227 164/202/226 176/191/215
f 170/178/198 9/1/1 29/5/5 165/195/219
f 162/177/197 10/2/2 9/1/1 170/178/198
f 27/8/8 171/196/220 165/195/219 29/5/5
f 174/199/223 23/10/10 30/9/9 167/189/213
f 16/16/16 163/203/227 175/190/214 15/14/14
f 15/14/14 175/190/214 167/189/213 30/9/9
f 20/19/19 173/200/224 168/192/216 31/20/20
f 176/191/215 13/21/21 31/20/20 168/192/216
f 164/202/226 14/22/22 13/21/21 176/191/215
f 12/30/30 161/176/196 169/175/195 11/27/27
f 11/27/27 169/175/195 166/198/222 32/28/28
f 172/197/221 18/31/31 32/28/28 166/198/222
f 67/40/50 68/41/50 187/186/189 186/185/189
f 181/170/207 184/169/207 54/58/44 53/57/44
f 55/40/52 56/41/52 183/186/208 182/185/208
f 185/170/190 188/169/190 66/58/38 65/57/38
f 181/205/229 53/60/53 10/59/2 162/206/197
f 55/65/56 182/208/230 161/207/196 12/66/30
f 185/201/225 65/67/57 14/22/22 164/202/226
f 67/56/60 186/204/228 163/203/227 16/16/16
f 126/112/100 125/113/101 193/209/199 196/210/217
f 106/112/104 105/113/105 189/209/203 192/210/212
f 195/194/218 194/182/202 127/109/109 128/108/108
f 191/194/209 190/182/206 107/109/112 108/108/111
f 178/211/204 189/209/203 105/113/105 41/114/123
f 42/115/124 107/109/112 190/182/206 177/181/205
f 180/211/200 193/209/199 125/113/101 51/114/135
f 52/115/136 127/109/109 194/182/202 179/181/201
f 187/186/211 68/41/144 106/125/104 192/188/212
f 66/58/146 188/169/210 191/212/209 108/123/111
f 183/186/232 56/41/156 126/125/100 196/188/217
f 54/58/158 184/169/231 195/212/218 128/123/108
f 199/172/192 198/171/191 140/146/179 139/149/180
f 138/138/171 137/137/170 197/174/194 200/173/193
f 200/173/193 171/196/220 27/8/8 138/138/171
f 137/137/170 23/10/10 174/199/223 197/174/194
f 198/171/191 173/200/224 20/19/19 140/146/179
f 139/149/180 18/31/31 172/197/221 199/172/192
