# OBJ written from /Users/Stritar/Dropbox/DS/Projects/2016/VR/Heart/Exports/HiFi/bottom.obj
# Units	meters

o Mesh
v -15.9932 -25.6674 -8.76937
v -15.9932 -25.6674 8.2277
v 15.9932 -25.6674 8.2277
v 15.9932 -25.6674 -8.76937
v 0 -46.6294 -0.270834
v -17.7965 -30.6847 -0.270834
v 0 -37.6393 9.66483
v 17.7965 -30.6847 -0.270834
v 0 -37.6393 -10.2065
v -8.44926 -32.4167 9.23436
v 8.44926 -32.4167 9.23436
v 8.44926 -32.4167 -9.77603
v -8.44926 -32.4167 -9.77603
v -8.84017 -40.7372 -0.270834
v 8.84017 -40.7372 -0.270834
v -21.3403 -19.1681 -6.30035
v -12.7955 -34.6664 -5.09359
v -17.0643 -28.8992 -5.35049
v -21.3403 -19.1681 5.75868
v -22.5652 -20.168 -0.270834
v -14.168 -20.3109 -13.0299
v -18.3224 -18.4539 -10.9975
v -12.7955 -34.6664 4.55192
v -17.0643 -28.8992 4.80883
v -14.168 -20.3109 12.4883
v -18.3224 -18.4539 10.4558
v 21.3403 -19.1681 5.75868
v 12.7955 -34.6664 4.55192
v 17.0643 -28.8992 4.80883
v 21.3403 -19.1681 -6.30035
v 22.5652 -20.168 -0.270834
v 14.168 -20.3109 12.4883
v 18.3224 -18.4539 10.4558
v 12.7955 -34.6664 -5.09359
v 17.0643 -28.8992 -5.35049
v 14.168 -20.3109 -13.0299
v 18.3224 -18.4539 -10.9975
v -12.6739 -28.9349 8.94738
v -4.72267 -26.5959 13.8884
v -9.44534 -23.4534 13.1883
v -4.26517 -42.237 4.73106
v -4.22463 -35.8984 9.52134
v 4.72267 -26.5959 13.8884
v 0 -28.1671 14.2384
v 4.26517 -42.237 4.73106
v 4.22463 -35.8984 9.52134
v 9.44534 -23.4534 13.1883
v 12.6739 -28.9349 8.94738
v 4.72267 -26.5959 -14.4301
v 4.26517 -42.237 -5.27273
v 4.22463 -35.8984 -10.063
v -4.72267 -26.5959 -14.4301
v 0 -28.1671 -14.7801
v 9.44534 -23.4534 -13.73
v 12.6739 -28.9349 -9.48905
v -12.6739 -28.9349 -9.48905
v -9.44534 -23.4534 -13.73
v -4.26517 -42.237 -5.27273
v -4.22463 -35.8984 -10.063
v -13.2603 -36.8091 -0.270834
v -8.53034 -38.4517 -5.18316
v 0 -44.1297 -5.31752
v -4.42009 -44.6654 -0.270834
v 4.42009 -44.6654 -0.270834
v 8.53034 -38.4517 -5.18316
v 13.2603 -36.8091 -0.270834
v 0 -44.1297 4.77585
v 8.53034 -38.4517 4.64149
v -8.53034 -38.4517 4.64149
vn -0.616664 -0.428615 -0.660314
vn -0.746383 -0.47375 -0.467412
vn -0.794057 -0.416014 -0.443177
vn -0.621766 -0.40417 -0.670861
vn -0.859263 -0.511533 -1.43716e-05
vn -0.907975 -0.419022 -0.00160066
vn -0.755476 -0.464466 0.46209
vn -0.813073 -0.392305 0.430127
vn -0.627133 -0.418561 0.656895
vn -0.636586 -0.389113 0.665845
vn 0.616664 -0.428615 0.660314
vn 0.746383 -0.47375 0.467412
vn 0.794057 -0.416014 0.443177
vn 0.621766 -0.40417 0.670861
vn 0.859263 -0.511533 1.43716e-05
vn 0.907975 -0.419022 0.00160066
vn 0.755476 -0.464466 -0.46209
vn 0.813073 -0.392305 -0.430127
vn 0.627133 -0.418561 -0.656895
vn 0.636586 -0.389113 -0.665845
vn -0.468556 -0.404104 0.785592
vn -0.508903 -0.455003 0.730746
vn -0.392524 -0.407375 0.824603
vn -0.43923 -0.469184 0.766122
vn -0.339724 -0.489989 0.802807
vn -0.299875 -0.418177 0.85744
vn 0.000347372 -0.519866 0.854248
vn 0.00083093 -0.434156 0.900837
vn 0.301393 -0.418079 0.856955
vn 0.340306 -0.489959 0.802578
vn 0.392524 -0.407375 0.824603
vn 0.43923 -0.469184 0.766122
vn 0.510772 -0.45494 0.72948
vn 0.472923 -0.403884 0.783085
vn 0.43923 -0.469184 -0.766122
vn 0.339724 -0.489989 -0.802807
vn 0.299875 -0.418177 -0.85744
vn 0.392524 -0.407375 -0.824603
vn -0.000347368 -0.519866 -0.854248
vn -0.000830831 -0.434156 -0.900837
vn 0.468556 -0.404104 -0.785592
vn 0.508903 -0.455003 -0.730746
vn -0.43923 -0.469184 -0.766122
vn -0.510772 -0.45494 -0.72948
vn -0.472923 -0.403884 -0.783085
vn -0.392524 -0.407375 -0.824603
vn -0.301393 -0.418079 -0.856955
vn -0.340306 -0.489959 -0.802578
vn -0.620991 -0.694958 -0.362497
vn -0.693077 -0.632955 -0.344981
vn -0.630518 -0.578384 -0.517609
vn -0.562905 -0.623515 -0.542555
vn -0.752422 -0.64631 -0.127064
vn -0.449866 -0.679067 -0.580076
vn -0.132333 -0.707259 -0.694458
vn -0.327304 -0.723565 -0.607722
vn -0.372741 -0.830176 -0.414575
vn -0.5032 -0.769946 -0.392394
vn 0.620991 -0.694957 -0.362497
vn 0.499415 -0.772006 -0.39318
vn 0.448063 -0.680019 -0.580357
vn 0.562906 -0.623515 -0.542555
vn 0.369436 -0.831405 -0.41507
vn 0.325732 -0.724122 -0.607903
vn 0.13132 -0.707482 -0.694424
vn 0.629538 -0.579379 -0.517689
vn 0.753396 -0.644846 -0.128716
vn 0.69071 -0.635178 -0.345643
vn 0.449866 -0.679067 0.580076
vn 0.562905 -0.623515 0.542555
vn 0.132333 -0.707259 0.694458
vn 0.327304 -0.723565 0.607722
vn 0.372741 -0.830176 0.414575
vn 0.5032 -0.769946 0.392394
vn 0.620991 -0.694958 0.362497
vn 0.693077 -0.632955 0.344981
vn 0.630518 -0.578384 0.517609
vn 0.752422 -0.64631 0.127064
vn -0.629538 -0.579379 0.517689
vn -0.562906 -0.623515 0.542555
vn -0.753396 -0.644846 0.128716
vn -0.69071 -0.635178 0.345643
vn -0.620991 -0.694957 0.362497
vn -0.499415 -0.772006 0.39318
vn -0.448063 -0.680019 0.580357
vn -0.369436 -0.831405 0.41507
vn -0.325732 -0.724122 0.607903
vn -0.13132 -0.707482 0.694424
vt 1 0.666667
vt 0.9375 0.666667
vt 0.9375 0.583333
vt 1 0.583333
vt 0.875 0.666667
vt 0.875 0.583333
vt 0.8125 0.666667
vt 0.8125 0.583333
vt 0.75 0.666667
vt 0.757812 0.583333
vt 0.5 0.666667
vt 0.4375 0.65625
vt 0.4375 0.583333
vt 0.492188 0.583333
vt 0.374878 0.657405
vt 0.375 0.583333
vt 0.3125 0.65625
vt 0.3125 0.583333
vt 0.25 0.666667
vt 0.257812 0.583333
vt 0.71875 0.583333
vt 0.71875 0.666667
vt 0.6875 0.583333
vt 0.6875 0.666667
vt 0.65625 0.666667
vt 0.65625 0.583333
vt 0.625 0.666667
vt 0.625 0.583333
vt 0.59375 0.583333
vt 0.59375 0.666667
vt 0.5625 0.583333
vt 0.5625 0.666667
vt 0.53125 0.666667
vt 0.53125 0.583333
vt 0.1875 0.666667
vt 0.15625 0.666667
vt 0.15625 0.583333
vt 0.1875 0.583333
vt 0.125 0.666667
vt 0.125 0.583333
vt 0.21875 0.583333
vt 0.21875 0.666667
vt 0.0625 0.666667
vt 0.03125 0.666667
vt 0.03125 0.583333
vt 0.0625 0.583333
vt 0 0.666667
vt 0 0.583333
vt 0.09375 0.583333
vt 0.09375 0.666667
vt 0.375 0.916667
vt 0.375 0.958333
vt 0.3125 0.958333
vt 0.3125 0.916667
vt 0.375 1
vt 0.3125 1
vt 0.25 1
vt 0.25 0.958333
vt 0.25 0.916667
vt 0.25 0.875
vt 0.3125 0.875
vt 0.25 0.833333
vt 0.3125 0.833333
vt 0.375 0.833333
vt 0.375 0.875
vt 0.374989 0.749132
vt 0.375 0.791667
vt 0.3125 0.791667
vt 0.3125 0.75
vt 0.25 0.791667
vt 0.25 0.75
vt 0.25 0.708333
vt 0.3125 0.708333
vt 0.375 0.708333
vt 0.5 0.75
vt 0.5 0.791667
vt 0.4375 0.791667
vt 0.4375 0.75
vt 0.5 0.833333
vt 0.4375 0.833333
vt 0.4375 0.708333
vt 0.5 0.708333
vt 0.5 0.916667
vt 0.5 0.958333
vt 0.4375 0.958333
vt 0.4375 0.916667
vt 0.5 1
vt 0.4375 1
vt 0.4375 0.875
vt 0.5 0.875
mtllib bottom.mtl
usemtl bottom
g Default
f 1/1/1 18/2/2 16/3/3 22/4/4
f 18/2/2 6/5/5 20/6/6 16/3/3
f 6/5/5 24/7/7 19/8/8 20/6/6
f 24/7/7 2/9/9 26/10/10 19/8/8
f 3/11/11 29/12/12 27/13/13 33/14/14
f 29/12/12 8/15/15 31/16/16 27/13/13
f 8/15/15 35/17/17 30/18/18 31/16/16
f 35/17/17 4/19/19 37/20/20 30/18/18
f 25/21/21 26/10/10 2/9/9 38/22/22
f 40/23/23 25/21/21 38/22/22 10/24/24
f 10/24/24 42/25/25 39/26/26 40/23/23
f 42/25/25 7/27/27 44/28/28 39/26/26
f 43/29/29 44/28/28 7/27/27 46/30/30
f 47/31/31 43/29/29 46/30/30 11/32/32
f 11/32/32 48/33/33 32/34/34 47/31/31
f 48/33/33 3/11/11 33/14/14 32/34/34
f 12/35/35 51/36/36 49/37/37 54/38/38
f 51/36/36 9/39/39 53/40/40 49/37/37
f 36/41/41 37/20/20 4/19/19 55/42/42
f 54/38/38 36/41/41 55/42/42 12/35/35
f 13/43/43 56/44/44 21/45/45 57/46/46
f 56/44/44 1/47/1 22/48/4 21/45/45
f 52/49/47 53/40/40 9/39/39 59/50/48
f 57/46/46 52/49/47 59/50/48 13/43/43
f 14/51/49 60/52/50 17/53/51 61/54/52
f 60/52/53 6/55/5 18/56/2 17/53/51
f 17/53/51 18/56/2 1/57/1 56/58/44
f 61/54/52 17/53/51 56/58/44 13/59/43
f 13/59/43 59/60/48 58/61/54 61/54/52
f 59/60/48 9/62/39 62/63/55 58/61/54
f 58/61/54 62/63/56 5/64/57 63/65/58
f 61/54/52 58/61/54 63/65/58 14/51/49
f 15/66/59 64/67/60 50/68/61 65/69/62
f 64/67/60 5/64/63 62/63/64 50/68/61
f 50/68/61 62/63/65 9/62/39 51/70/36
f 65/69/62 50/68/61 51/70/36 12/71/35
f 12/71/35 55/72/42 34/73/66 65/69/62
f 55/72/42 4/19/19 35/17/17 34/73/66
f 34/73/66 35/17/17 8/15/15 66/74/67
f 65/69/62 34/73/66 66/74/68 15/66/59
f 11/75/32 46/76/30 45/77/69 68/78/70
f 46/76/30 7/79/27 67/80/71 45/77/69
f 45/77/69 67/80/72 5/64/73 64/67/74
f 68/78/70 45/77/69 64/67/74 15/66/75
f 15/66/75 66/74/76 28/81/77 68/78/70
f 66/74/78 8/15/15 29/12/12 28/81/77
f 28/81/77 29/12/12 3/11/11 48/82/33
f 68/78/70 28/81/77 48/82/33 11/75/32
f 10/83/24 38/84/22 23/85/79 69/86/80
f 38/84/22 2/87/9 24/88/7 23/85/79
f 23/85/79 24/88/7 6/55/5 60/52/81
f 69/86/80 23/85/79 60/52/82 14/51/83
f 14/51/83 63/65/84 41/89/85 69/86/80
f 63/65/84 5/64/86 67/80/87 41/89/85
f 41/89/85 67/80/88 7/79/27 42/90/25
f 69/86/80 41/89/85 42/90/25 10/83/24
