# OBJ written from /Users/Stritar/Dropbox/DS/Projects/2016/VR/Heart/Exports/HiFi/middle.obj
# Units	meters

o Mesh
v -39.5051 1.91532 -0.270834
v 0 -9.38017 26.3936
v 39.5051 1.91532 -0.270834
v 0 -9.38017 -26.9353
v -31.3164 1.41269 18.1829
v -31.3164 1.41269 -18.7246
v 31.3164 1.41269 18.1829
v 31.3164 1.41269 -18.7246
v -16.0425 -4.36814 23.7922
v 16.0425 -4.36814 23.7922
v 16.0425 -4.36814 -24.3339
v -16.0425 -4.36814 -24.3339
v -26.8176 -21.947 -7.84789
v -26.8176 -21.947 7.30622
v -28.3568 -22.8413 -0.270834
v -37.0317 2.0484 -10.5681
v -17.8044 -22.9691 -16.3047
v -23.0251 -21.3082 -13.7506
v -17.8044 -22.9691 15.763
v -23.0251 -21.3082 13.209
v -37.0317 2.0484 10.0264
v 26.8176 -21.947 7.30622
v 26.8176 -21.947 -7.84789
v 28.3568 -22.8413 -0.270834
v 37.0317 2.0484 10.0264
v 17.8044 -22.9691 15.763
v 23.0251 -21.3082 13.209
v 17.8044 -22.9691 -16.3047
v 23.0251 -21.3082 -13.7506
v 37.0317 2.0484 -10.5681
v -24.0637 -1.02678 22.0579
v -5.93479 -28.5905 17.5225
v -11.8696 -25.7798 16.6428
v 5.93479 -28.5905 17.5225
v 0 -29.9959 17.9624
v -8.02125 -7.70949 25.5265
v 8.02125 -7.70949 25.5265
v 11.8696 -25.7798 16.6428
v 24.0637 -1.02678 22.0579
v 5.93479 -28.5905 -18.0642
v -5.93479 -28.5905 -18.0642
v 0 -29.9959 -18.504
v 8.02125 -7.70949 -26.0681
v 11.8696 -25.7798 -17.1844
v 24.0637 -1.02678 -22.5996
v -24.0637 -1.02678 -22.5996
v -11.8696 -25.7798 -17.1844
v -8.02125 -7.70949 -26.0681
v -22.969 -23.3754 -0.270834
v -21.7222 -22.651 5.86658
v -18.6503 -22.1335 10.6478
v -14.4216 -23.4788 12.7166
v -9.61437 -25.7555 13.4292
v -4.80718 -28.0322 14.1418
v 0 -29.1706 14.4981
v 4.80718 -28.0322 14.1418
v 9.61437 -25.7555 13.4292
v 14.4216 -23.4788 12.7166
v 18.6503 -22.1335 10.6478
v 21.7222 -22.651 5.86658
v 22.969 -23.3754 -0.270834
v 21.7222 -22.651 -6.40825
v 18.6503 -22.1335 -11.1895
v 14.4216 -23.4788 -13.2583
v 9.61437 -25.7555 -13.9708
v 4.80718 -28.0322 -14.6834
v 0 -29.1706 -15.0397
v -4.80718 -28.0322 -14.6834
v -9.61437 -25.7555 -13.9708
v -14.4216 -23.4788 -13.2583
v -18.6503 -22.1335 -11.1895
v -21.7222 -22.651 -6.40825
v 0 -20.9706 14.4981
v 4.80718 -19.8322 14.1418
v 9.61437 -17.5555 13.4292
v 14.4216 -15.2788 12.7166
v 18.6503 -13.9335 10.6478
v 21.7222 -14.451 5.86658
v 22.969 -15.1754 -0.270834
v 21.7222 -14.451 -6.40825
v 18.6503 -13.9335 -11.1895
v 14.4216 -15.2788 -13.2583
v 9.61437 -17.5555 -13.9708
v 4.80718 -19.8322 -14.6834
v 0 -20.9706 -15.0397
v -4.80718 -19.8322 -14.6834
v -9.61437 -17.5555 -13.9708
v -14.4216 -15.2788 -13.2583
v -18.6503 -13.9335 -11.1895
v -21.7222 -14.451 -6.40825
v -22.969 -15.1754 -0.270834
v -21.7222 -14.451 5.86658
v -18.6503 -13.9335 10.6478
v -14.4216 -15.2788 12.7166
v -9.61437 -17.5555 13.4292
v -4.80718 -19.8322 14.1418
vn -0.83172 -0.40237 -0.382544
vn -0.91105 -0.412295 -4.18073e-05
vn -0.63806 -0.385567 -0.666496
vn -0.834224 -0.396557 0.38316
vn -0.653463 -0.381449 0.653822
vn 0.83172 -0.40237 0.382544
vn 0.91105 -0.412295 4.18073e-05
vn 0.63806 -0.385567 0.666496
vn 0.834224 -0.396557 -0.38316
vn 0.653463 -0.381449 -0.653822
vn -0.31808 -0.35546 0.878905
vn -0.437001 -0.365704 0.821761
vn -0.227611 -0.361596 0.904125
vn 0.0103408 -0.37244 0.927999
vn 0.31808 -0.35546 0.878905
vn 0.257028 -0.363386 0.895482
vn 0.402334 -0.363221 0.840356
vn 0.227611 -0.361596 -0.904125
vn -0.0103408 -0.37244 -0.927999
vn 0.318079 -0.35546 -0.878905
vn 0.437001 -0.365704 -0.821761
vn -0.402334 -0.363221 -0.840356
vn -0.31808 -0.35546 -0.878905
vn -0.257028 -0.363386 -0.895482
vn -0.0986369 -0.995124 0
vn -0.0935947 -0.984243 0.150018
vn -0.171581 -0.98487 0.0242931
vn -0.315759 -0.928532 -0.195254
vn -0.378573 -0.884593 -0.272356
vn -0.294843 -0.922093 -0.250622
vn -7.61799e-09 -0.972775 -0.231753
vn 0.294843 -0.922094 -0.250622
vn 0.378573 -0.884593 -0.272356
vn 0.315759 -0.928532 -0.195254
vn 0.171581 -0.98487 0.0242933
vn 0.0935947 -0.984243 0.150018
vn 0.0986369 -0.995124 0
vn 0.0935947 -0.984243 -0.150018
vn 0.171581 -0.98487 -0.0242931
vn 0.315759 -0.928532 0.195254
vn 0.378573 -0.884593 0.272356
vn 0.294843 -0.922093 0.250622
vn 7.61799e-09 -0.972775 0.231753
vn -0.294843 -0.922093 0.250622
vn -0.378573 -0.884593 0.272356
vn -0.315759 -0.928532 0.195254
vn -0.171581 -0.98487 -0.0242933
vn -0.0935947 -0.984243 -0.150018
vn 0 0 -1
vn -0.110347 0 -0.993893
vn -0.146632 0 -0.989191
vn -0.296546 0 -0.955018
vn -0.664892 0 -0.746939
vn -0.926517 0 -0.376252
vn -1 0 0
vn -0.926517 0 0.376252
vn -0.664892 0 0.746939
vn -0.296547 0 0.955018
vn -0.146632 0 0.989191
vn -0.110347 0 0.993893
vn 0 0 1
vn 0.110347 0 0.993893
vn 0.146632 0 0.989191
vn 0.296547 0 0.955018
vn 0.664892 0 0.746939
vn 0.926517 0 0.376252
vn 1 0 0
vn 0.926517 0 -0.376252
vn 0.664892 0 -0.746939
vn 0.296546 0 -0.955018
vn 0.146632 0 -0.989191
vn 0.110347 0 -0.993893
vt 0.9375 0.583333
vt 0.875 0.583333
vt 0.875 0.510417
vt 0.9375 0.510417
vt 1 0.583333
vt 1 0.5
vt 0.8125 0.583333
vt 0.757812 0.583333
vt 0.757812 0.511393
vt 0.8125 0.510417
vt 0.4375 0.583333
vt 0.375 0.583333
vt 0.375 0.510417
vt 0.4375 0.510417
vt 0.492188 0.583333
vt 0.492188 0.511393
vt 0.3125 0.583333
vt 0.257812 0.583333
vt 0.257811 0.511249
vt 0.3125 0.510417
vt 0.688232 0.512461
vt 0.71875 0.510417
vt 0.71875 0.583333
vt 0.6875 0.583333
vt 0.65625 0.583333
vt 0.625 0.583333
vt 0.625 0.510417
vt 0.65625 0.510417
vt 0.561634 0.512496
vt 0.59375 0.510417
vt 0.59375 0.583333
vt 0.5625 0.583333
vt 0.53125 0.583333
vt 0.53125 0.510417
vt 0.15625 0.583333
vt 0.125 0.583333
vt 0.125 0.510417
vt 0.15625 0.510417
vt 0.1875 0.583333
vt 0.188365 0.512469
vt 0.21875 0.510417
vt 0.21875 0.583333
vt 0.03125 0.583333
vt 0 0.583333
vt 0 0.5
vt 0.03125 0.510417
vt 0.0625 0.583333
vt 0.0625 0.511409
vt 0.09375 0.510417
vt 0.09375 0.583333
vt 0 0
vt 1 0
vt 1 1
vt 0 1
mtllib middle.mtl
usemtl middle
g Default
f 13/1/1 15/2/2 1/3/2 16/4/1
f 18/5/3 13/1/1 16/4/1 6/6/3
f 14/7/4 20/8/5 5/9/5 21/10/4
f 15/2/2 14/7/4 21/10/4 1/3/2
f 22/11/6 24/12/7 3/13/7 25/14/6
f 27/15/8 22/11/6 25/14/6 7/16/8
f 23/17/9 29/18/10 8/19/10 30/20/9
f 24/12/7 23/17/9 30/20/9 3/13/7
f 9/21/11 31/22/12 19/23/12 33/24/11
f 31/22/12 5/9/5 20/8/5 19/23/12
f 32/25/13 35/26/14 2/27/14 36/28/13
f 33/24/11 32/25/13 36/28/13 9/21/11
f 10/29/15 37/30/16 34/31/16 38/32/15
f 37/30/16 2/27/14 35/26/14 34/31/16
f 26/33/17 27/15/8 7/16/8 39/34/17
f 38/32/15 26/33/17 39/34/17 10/29/15
f 40/35/18 42/36/19 4/37/19 43/38/18
f 44/39/20 40/35/18 43/38/18 11/40/20
f 11/40/20 45/41/21 28/42/21 44/39/20
f 45/41/21 8/19/10 29/18/10 28/42/21
f 17/43/22 18/44/3 6/45/3 46/46/22
f 47/47/23 17/43/22 46/46/22 12/48/23
f 12/48/23 48/49/24 41/50/24 47/47/23
f 48/49/24 4/37/19 42/36/19 41/50/24
f 15/51/25 49/52/25 50/53/26 14/54/26
f 14/51/26 50/52/26 51/53/27 20/54/27
f 20/51/27 51/52/27 52/53/28 19/54/28
f 19/51/28 52/52/28 53/53/29 33/54/29
f 33/51/29 53/52/29 54/53/30 32/54/30
f 32/51/30 54/52/30 55/53/31 35/54/31
f 35/51/31 55/52/31 56/53/32 34/54/32
f 34/51/32 56/52/32 57/53/33 38/54/33
f 38/51/33 57/52/33 58/53/34 26/54/34
f 26/51/34 58/52/34 59/53/35 27/54/35
f 27/51/35 59/52/35 60/53/36 22/54/36
f 22/51/36 60/52/36 61/53/37 24/54/37
f 24/51/37 61/52/37 62/53/38 23/54/38
f 23/51/38 62/52/38 63/53/39 29/54/39
f 29/51/39 63/52/39 64/53/40 28/54/40
f 28/51/40 64/52/40 65/53/41 44/54/41
f 44/51/41 65/52/41 66/53/42 40/54/42
f 40/51/42 66/52/42 67/53/43 42/54/43
f 42/51/43 67/52/43 68/53/44 41/54/44
f 41/51/44 68/52/44 69/53/45 47/54/45
f 47/51/45 69/52/45 70/53/46 17/54/46
f 17/51/46 70/52/46 71/53/47 18/54/47
f 18/51/47 71/52/47 72/53/48 13/54/48
f 13/51/48 72/52/48 49/53/25 15/54/25
f 55/51/49 73/52/49 74/53/50 56/54/50
f 56/51/50 74/52/50 75/53/51 57/54/51
f 57/51/51 75/52/51 76/53/52 58/54/52
f 58/51/52 76/52/52 77/53/53 59/54/53
f 59/51/53 77/52/53 78/53/54 60/54/54
f 60/51/54 78/52/54 79/53/55 61/54/55
f 61/51/55 79/52/55 80/53/56 62/54/56
f 62/51/56 80/52/56 81/53/57 63/54/57
f 63/51/57 81/52/57 82/53/58 64/54/58
f 64/51/58 82/52/58 83/53/59 65/54/59
f 65/51/59 83/52/59 84/53/60 66/54/60
f 66/51/60 84/52/60 85/53/61 67/54/61
f 67/51/61 85/52/61 86/53/62 68/54/62
f 68/51/62 86/52/62 87/53/63 69/54/63
f 69/51/63 87/52/63 88/53/64 70/54/64
f 70/51/64 88/52/64 89/53/65 71/54/65
f 71/51/65 89/52/65 90/53/66 72/54/66
f 72/51/66 90/52/66 91/53/67 49/54/67
f 49/51/67 91/52/67 92/53/68 50/54/68
f 50/51/68 92/52/68 93/53/69 51/54/69
f 51/51/69 93/52/69 94/53/70 52/54/70
f 52/51/70 94/52/70 95/53/71 53/54/71
f 53/51/71 95/52/71 96/53/72 54/54/72
f 54/51/72 96/52/72 73/53/49 55/54/49
