# OBJ written from /Users/Stritar/Dropbox/DS/Projects/2016/VR/Heart/Exports/Lowfi/Top.obj
# Units	meters

o Top
v -1.48781 -1.56625 -1.48781
v 1.48781 -1.56625 -1.48781
v 1.48781 -1.56625 1.48781
v -1.48781 -1.56625 1.48781
v -2.60366 1.56457 -2.60366
v 2.60366 1.56457 -2.60366
v 2.60366 1.56457 2.60366
v -2.60366 1.56457 2.60366
vn 0 -1 0
vn 0 -0.335724 -0.94196
vn 0.94196 -0.335724 0
vn 0 -0.335724 0.94196
vn -0.94196 -0.335724 0
vn 0 1 0
vt 0.25 0
vt 0.5 0
vt 0.5 0.333333
vt 0.25 0.333333
vt 1 0.666667
vt 0.75 0.666667
vt 0.75 0.333333
vt 1 0.333333
vt 0.5 0.666667
vt 0.25 0.666667
vt 0 0.666667
vt 0 0.333333
vt 0.25 1
vt 0.5 1
mtllib Top.mtl
usemtl Top
g Default
f 1/1/1 2/2/1 3/3/1 4/4/1
f 5/5/2 6/6/2 2/7/2 1/8/2
f 6/6/3 7/9/3 3/3/3 2/7/3
f 7/9/4 8/10/4 4/4/4 3/3/4
f 8/10/5 5/11/5 1/12/5 4/4/5
f 5/13/6 8/10/6 7/9/6 6/14/6
