# OBJ written from /Users/Stritar/Dropbox/DS/Projects/2016/VR/Heart/Exports/HiFi/top.obj
# Units	meters

o Mesh
v -28.3241 38.3102 -15.7148
v -28.3241 38.3102 15.1731
v 28.3241 38.3102 15.1731
v 28.3241 38.3102 -15.7148
v 0 30.6875 -0.270834
v -33.2708 44.375 -0.270834
v 0 23.4609 23.5638
v 33.2708 44.375 -0.270834
v 0 23.4609 -24.1054
v -45.3333 29.0625 -0.270834
v -36.3333 24.9688 18.7066
v -36.3333 24.9688 -19.2482
v 0 7.30208 30.2247
v 36.3333 24.9688 18.7066
v 45.3333 29.0625 -0.270834
v 36.3333 24.9688 -19.2482
v 0 7.30208 -30.7663
v -16.8333 43.1875 -0.270834
v -14.7083 35.2031 -20.7294
v -14.7083 35.2031 20.1877
v 14.7083 35.2031 20.1877
v 16.8333 43.1875 -0.270834
v 14.7083 35.2031 -20.7294
v 18.6667 15.849 26.1147
v -18.6667 15.849 26.1147
v -18.6667 15.849 -26.6564
v 18.6667 15.849 -26.6564
v -43.3333 14.8125 -11.502
v -43.3333 14.8125 10.9604
v 43.3333 14.8125 10.9604
v 43.3333 14.8125 -11.502
v -38 36.9792 9.40357
v -24.75 30.5417 21.7868
v -32.1875 33.6198 17.3366
v -23.5 43.7292 9.88395
v -31.0417 42.2083 9.13446
v -38 36.9792 -9.94524
v -40.5 38.7292 -0.270834
v -42.6667 27.8958 10.182
v -46.1667 15.3958 -0.270834
v -28.25 9.16667 24.6424
v -36.7292 12.8177 19.9965
v -23.5 43.7292 -10.4256
v -31.0417 42.2083 -9.67613
v -24.75 30.5417 -22.3285
v -32.1875 33.6198 -17.8782
v -42.6667 27.8958 -10.7236
v -28.25 9.16667 -25.1841
v -36.7292 12.8177 -20.5381
v 38 36.9792 -9.94524
v 24.75 30.5417 -22.3285
v 32.1875 33.6198 -17.8782
v 23.5 43.7292 -10.4256
v 31.0417 42.2083 -9.67613
v 38 36.9792 9.40357
v 40.5 38.7292 -0.270834
v 42.6667 27.8958 -10.7236
v 46.1667 15.3958 -0.270834
v 28.25 9.16667 -25.1841
v 36.7292 12.8177 -20.5381
v 23.5 43.7292 9.88395
v 31.0417 42.2083 9.13446
v 24.75 30.5417 21.7868
v 32.1875 33.6198 17.3366
v 42.6667 27.8958 10.182
v 28.25 9.16667 24.6424
v 36.7292 12.8177 19.9965
v -22.0625 38.1823 -18.4787
v -25.25 45.9792 -0.270834
v -7.83333 33.5625 -12.9432
v -15.6667 41.0208 -11.6844
v -7.83333 33.5625 12.4015
v -8.41667 35.6458 -0.270834
v 7.83333 33.5625 -12.9432
v 0 28.6458 -13.5726
v -8.25 19.9167 -27.7461
v -7.35417 28.0677 -22.9801
v -22.0625 38.1823 17.9371
v -15.6667 41.0208 11.1427
v -8.25 19.9167 27.2045
v -7.35417 28.0677 22.4384
v 7.83333 33.5625 12.4015
v 0 28.6458 13.0309
v 8.41667 35.6458 -0.270834
v 8.25 19.9167 27.2045
v 7.35417 28.0677 22.4384
v 15.6667 41.0208 11.1427
v 22.0625 38.1823 17.9371
v 25.25 45.9792 -0.270834
v 8.25 19.9167 -27.7461
v 7.35417 28.0677 -22.9801
v 15.6667 41.0208 -11.6844
v 22.0625 38.1823 -18.4787
v -9.41667 0.208333 29.5441
v 9.41667 0.208333 29.5441
v 9.41667 0.208333 -30.0858
v -9.41667 0.208333 -30.0858
v 0 16.0729 28.5589
v 9.33333 10.25 28.8547
v 16.5 26.4167 24.4956
v 28 20.8542 23.3747
v 0 -2.03125 30.7695
v 18.8333 4.6875 27.0933
v -28 20.8542 23.3747
v -16.5 26.4167 24.4956
v -9.33333 10.25 28.8547
v -18.8333 4.6875 27.0933
v -28 20.8542 -23.9164
v -16.5 26.4167 -25.0373
v 0 16.0729 -29.1005
v -9.33333 10.25 -29.3963
v -18.8333 4.6875 -27.6349
v 0 -2.03125 -31.3112
v 9.33333 10.25 -29.3963
v 16.5 26.4167 -25.0373
v 28 20.8542 -23.9164
v 18.8333 4.6875 -27.6349
v 9.58076 10.4022 -14.6415
v 4.79038 8.40672 -15.6773
v 0 7.40898 -16.1951
v -4.79038 8.40672 -15.6773
v -9.58076 10.4022 -14.6415
v -14.3711 12.3977 -13.6058
v -18.7025 13.8546 -11.2916
v -22.1158 14.2343 -6.42046
v -23.5929 14.1548 -0.270834
v -22.1158 14.2343 5.87879
v -18.7025 13.8546 10.7499
v -14.3711 12.3977 13.0641
v -9.58076 10.4022 14.0999
v -4.79038 8.40672 15.1356
v 0 7.40898 15.6535
v 4.79038 8.40672 15.1356
v 9.58076 10.4022 14.0999
v 14.3711 12.3977 13.0641
v 18.7025 13.8546 10.7499
v 22.1158 14.2343 5.87879
v 23.5929 14.1548 -0.270834
v 22.1158 14.2343 -6.42046
v 18.7025 13.8546 -11.2916
v 14.3711 12.3977 -13.6058
v -43.7014 2.14952 -0.270834
v -41.4653 1.25435 -0.270834
v 0 -10.2238 29.3359
v 0 -10.5707 27.696
v 43.7014 2.14952 -0.270834
v 41.4653 1.25435 -0.270834
v 0 -10.2238 -29.8776
v 0 -10.5707 -28.2376
v -32.8015 0.790463 19.0581
v -34.7143 1.60126 19.9583
v -34.7143 1.60126 -20.5
v -32.8015 0.790463 -19.5997
v 34.7143 1.60126 19.9583
v 32.8015 0.790463 19.0581
v 32.8015 0.790463 -19.5997
v 34.7143 1.60126 -20.5
v -17.8196 -4.71893 26.2882
v -16.7816 -5.21751 24.9009
v 17.8196 -4.71893 26.2882
v 16.7816 -5.21751 24.9009
v 17.8196 -4.71893 -26.8299
v 16.7816 -5.21751 -25.4425
v -17.8196 -4.71893 -26.8299
v -16.7816 -5.21751 -25.4425
v -38.8355 1.41987 -11.0696
v -40.9929 2.29499 -11.5467
v -38.8355 1.41987 10.528
v -40.9929 2.29499 11.005
v 38.8355 1.41987 10.528
v 40.9929 2.29499 11.005
v 38.8355 1.41987 -11.0696
v 40.9929 2.29499 -11.5467
v -26.7049 -1.06308 24.2765
v -25.1782 -1.72974 23.092
v -8.40354 -8.77332 26.756
v -8.91857 -8.38567 28.3157
v 8.91857 -8.38567 28.3157
v 8.40354 -8.77332 26.756
v 25.1782 -1.72974 23.092
v 26.7049 -1.06308 24.2765
v 8.40354 -8.77332 -27.2976
v 8.91857 -8.38567 -28.8574
v 26.7049 -1.06308 -24.8182
v 25.1782 -1.72974 -23.6337
v -25.1782 -1.72974 -23.6337
v -26.7049 -1.06308 -24.8182
v -8.91857 -8.38567 -28.8574
v -8.40354 -8.77332 -27.2976
vn -0.591844 0.225781 0.773786
vn -0.473641 0.476196 0.740879
vn -0.654969 0.595815 0.464779
vn -0.848696 0.262679 0.459036
vn -0.340279 0.661303 0.668497
vn -0.368732 0.816756 0.443786
vn -0.415493 0.909595 -0.00140759
vn -0.707742 0.700251 0.0935364
vn -0.764831 0.644231 -0.000772584
vn -0.963436 0.26794 -0.000269456
vn -0.998171 -0.0604612 -0.000124819
vn -0.90395 -0.0494875 0.424765
vn -0.659352 -0.0160649 0.751663
vn -0.809181 0.578665 -0.101846
vn -0.669308 0.577969 -0.466881
vn -0.851171 0.255103 -0.458727
vn -0.388639 0.806532 -0.445495
vn -0.331388 0.654617 -0.679454
vn -0.455241 0.467408 -0.757816
vn -0.5832 0.222557 -0.781247
vn -0.654927 -0.0112556 -0.755608
vn -0.903703 -0.0439754 -0.425896
vn 0.591844 0.225781 -0.773786
vn 0.473641 0.476196 -0.740879
vn 0.654969 0.595815 -0.464779
vn 0.848696 0.262679 -0.459036
vn 0.340279 0.661303 -0.668497
vn 0.368732 0.816756 -0.443786
vn 0.415493 0.909595 0.00140759
vn 0.707742 0.700251 -0.0935364
vn 0.764831 0.644231 0.000772584
vn 0.963436 0.26794 0.000269456
vn 0.998171 -0.0604612 0.000124819
vn 0.90395 -0.0494875 -0.424765
vn 0.659352 -0.0160649 -0.751663
vn 0.809181 0.578665 0.101846
vn 0.669308 0.577969 0.466881
vn 0.851171 0.255103 0.458727
vn 0.388639 0.806532 0.445495
vn 0.331388 0.654617 0.679454
vn 0.455241 0.467408 0.757816
vn 0.5832 0.222557 0.781247
vn 0.654927 -0.0112556 0.755608
vn 0.903703 -0.0439754 0.425896
vn 0.227559 0.647637 -0.727175
vn -0.105711 0.67244 -0.732564
vn 0.00706115 0.919919 -0.392044
vn 0.456687 0.839829 -0.29347
vn 0.0549922 0.998486 -0.00117976
vn 0.50501 0.863112 -0.0015519
vn 0.599074 0.800692 -0.00175882
vn 0.567939 0.784072 -0.250354
vn 0.516281 0.856418 -0.00124206
vn 0.488308 0.831047 -0.2663
vn 0.332439 0.667662 -0.666117
vn 0.433219 0.690295 -0.579495
vn 0.113104 0.942986 0.313025
vn 0.461153 0.837247 0.293862
vn 0.0290068 0.920655 0.389297
vn -0.0691831 0.884954 0.460512
vn -0.114286 0.678261 0.725879
vn 0.198008 0.656125 0.728213
vn 0.505846 0.759367 0.409244
vn 0.563248 0.786131 0.254459
vn 0.386461 0.707583 0.591586
vn 0.277275 0.682885 0.67586
vn 0.48492 0.832197 0.26889
vn -0.50501 0.863112 0.0015519
vn -0.599074 0.800692 0.00175882
vn -0.567939 0.784072 0.250354
vn -0.456687 0.839829 0.29347
vn -0.516281 0.856418 0.00124206
vn -0.488308 0.831047 0.2663
vn -0.332439 0.667662 0.666117
vn -0.433219 0.690295 0.579495
vn -0.402499 0.788725 0.464659
vn -0.227559 0.647637 0.727175
vn 0.105711 0.67244 0.732564
vn -0.00706115 0.919919 0.392044
vn -0.0549922 0.998486 0.00117976
vn -0.396915 0.790521 -0.466406
vn -0.505846 0.759367 -0.409244
vn -0.563248 0.786131 -0.254459
vn -0.461153 0.837247 -0.293862
vn -0.386461 0.707583 -0.591586
vn -0.277275 0.682885 -0.67586
vn -0.48492 0.832197 -0.26889
vn -0.113104 0.942986 -0.313025
vn -0.0290068 0.920655 -0.389297
vn 0.0691831 0.884954 -0.460512
vn 0.114286 0.678261 -0.725879
vn -0.198008 0.656125 -0.728213
vn -0.0834535 0.591109 0.802263
vn -0.149585 0.449833 0.880497
vn -0.0119935 0.32144 0.946854
vn 0.0753557 0.313908 0.946458
vn -0.363505 0.635817 0.680882
vn -0.192709 0.626007 0.755631
vn -0.0233044 0.339966 0.940149
vn 0.000486486 0.12371 0.992318
vn 0.152152 0.129746 0.979804
vn 0.200152 0.136743 0.970175
vn 0.303688 0.163753 0.938594
vn 0.22739 0.359114 0.905169
vn 0.211593 -0.0416056 0.976472
vn 0.25338 -0.0119107 0.967293
vn 0.00791903 -0.0514946 0.998642
vn 0.353998 0.007707 0.935214
vn -0.267051 0.366146 0.891415
vn -0.110358 0.319578 0.941111
vn -0.329483 0.167591 0.929168
vn -0.210352 0.138236 0.967803
vn -0.146747 0.129963 0.980599
vn -0.0324816 0.327804 0.944187
vn 0.126253 0.633874 0.763062
vn 0.200834 0.607928 0.768173
vn 0.0670308 0.464333 0.88312
vn -0.373599 0.00572525 0.927573
vn -0.254487 -0.013107 0.966987
vn -0.189019 -0.041572 0.981093
vn -0.200152 0.136743 -0.970175
vn -0.303688 0.163753 -0.938594
vn -0.22739 0.359114 -0.905169
vn -0.0753557 0.313908 -0.946458
vn 0.149585 0.449833 -0.880497
vn 0.0119935 0.32144 -0.946854
vn 0.363505 0.635817 -0.680882
vn 0.192709 0.626007 -0.755631
vn 0.0233044 0.339966 -0.940149
vn -0.000486486 0.12371 -0.992318
vn -0.152152 0.129746 -0.979804
vn -0.353998 0.007707 -0.935214
vn -0.25338 -0.0119107 -0.967293
vn -0.211593 -0.0416056 -0.976472
vn -0.00791903 -0.0514946 -0.998642
vn 0.210352 0.138236 -0.967803
vn 0.146747 0.129963 -0.980599
vn 0.0324816 0.327804 -0.944187
vn 0.110358 0.319578 -0.941111
vn -0.126253 0.633874 -0.763062
vn -0.200834 0.607928 -0.768173
vn -0.0670308 0.464333 -0.88312
vn -0.0564145 0.597241 -0.800076
vn 0.267051 0.366146 -0.891415
vn 0.329483 0.167591 -0.929168
vn 0.189019 -0.041572 -0.981093
vn 0.254487 -0.013107 -0.966987
vn 0.373599 0.00572525 -0.927573
vn 0.310476 -0.938747 -0.149528
vn 0.393007 -0.917013 -0.0680637
vn 0.337091 -0.934524 -0.11417
vn 0.339535 -0.932129 -0.125904
vn -0.369344 -0.927528 0.0572401
vn -0.337091 -0.934524 0.11417
vn 0.370195 -0.927401 0.0537016
vn 0.386664 -0.921674 0.0317365
vn 0.369344 -0.927528 -0.0572401
vn 0.304668 -0.946724 0.104363
vn -0.00126662 -0.981943 0.189172
vn -0.339535 -0.932129 0.125904
vn -0.364455 -0.931219 -0.0016782
vn -0.347315 -0.929361 -0.125141
vn -0.370195 -0.927401 -0.0537016
vn 0.35459 -0.925453 0.133425
vn 0.347315 -0.929361 0.125141
vn -0.304668 -0.946724 -0.104363
vn 0.00126662 -0.981943 -0.189172
vn -0.310476 -0.938747 0.149528
vn -0.35459 -0.925453 -0.133425
vn -0.393007 -0.917013 0.0680637
vn -0.386664 -0.921674 -0.0317365
vn 0.364455 -0.931219 0.0016782
vn -0.983119 -0.182968 -6.12765e-08
vn -0.900129 -0.166867 0.402396
vn -0.677867 -0.125298 0.724429
vn -0.672336 -0.123259 -0.729912
vn -0.90025 -0.165831 -0.402554
vn 0.983119 -0.182968 6.12765e-08
vn 0.900129 -0.166867 -0.402396
vn 0.677867 -0.125298 -0.724429
vn 0.672336 -0.123259 0.729912
vn 0.90025 -0.165831 0.402554
vn 0.0102305 -0.172364 0.98498
vn 0.242181 -0.161547 0.956687
vn 0.28265 -0.112284 0.952629
vn 0.375639 -0.0828105 0.923059
vn -0.400395 -0.0864944 0.912251
vn -0.28215 -0.114567 0.952505
vn -0.213051 -0.161478 0.963605
vn -0.375639 -0.0828105 -0.923059
vn -0.28265 -0.112284 -0.952629
vn -0.0102305 -0.172364 -0.98498
vn -0.242181 -0.161547 -0.956687
vn 0.213051 -0.161478 -0.963605
vn 0.28215 -0.114567 -0.952505
vn 0.400395 -0.0864944 -0.912251
vn 0.050151 -0.552299 0.832136
vn 0.0381177 -0.554343 0.831415
vn 9.31639e-09 -0.556492 0.830853
vn -0.0381177 -0.554343 0.831415
vn -0.050151 -0.552299 0.832136
vn 0.061952 -0.608791 0.790908
vn 0.338513 -0.737204 0.584756
vn 0.5382 -0.799257 0.267448
vn 0.585269 -0.810839 -7.51337e-09
vn 0.5382 -0.799257 -0.267448
vn 0.338513 -0.737204 -0.584756
vn 0.061952 -0.608791 -0.790908
vn -0.050151 -0.552299 -0.832136
vn -0.0381177 -0.554343 -0.831415
vn -9.31639e-09 -0.556492 -0.830853
vn 0.0381177 -0.554343 -0.831415
vn 0.050151 -0.552299 -0.832136
vn -0.061952 -0.608791 -0.790908
vn -0.338513 -0.737204 -0.584756
vn -0.5382 -0.799257 -0.267448
vn -0.585269 -0.810839 7.51337e-09
vn -0.5382 -0.799257 0.267448
vn -0.338513 -0.737204 0.584756
vn -0.061952 -0.608791 0.790908
vt 0.758556 0.418006
vt 0.757812 0.375
vt 0.8125 0.375
vt 0.8125 0.416667
vt 0.75 0.333333
vt 0.8125 0.333333
vt 0.875 0.333333
vt 0.875 0.375
vt 0.875122 0.417821
vt 0.875 0.458333
vt 0.8125 0.458333
vt 0.757812 0.458333
vt 0.9375 0.375
vt 0.9375 0.416667
vt 0.9375 0.333333
vt 1 0.333333
vt 1 0.375
vt 1 0.416667
vt 1 0.458333
vt 0.9375 0.458333
vt 0.25847 0.41802
vt 0.257812 0.375
vt 0.3125 0.375
vt 0.3125 0.416667
vt 0.25 0.333333
vt 0.3125 0.333333
vt 0.375 0.333333
vt 0.375 0.375
vt 0.374199 0.418112
vt 0.375 0.458333
vt 0.3125 0.458333
vt 0.257812 0.458333
vt 0.4375 0.375
vt 0.4375 0.416667
vt 0.4375 0.333333
vt 0.5 0.333333
vt 0.492188 0.375
vt 0.491455 0.417898
vt 0.492188 0.458333
vt 0.4375 0.458333
vt 0.25 0.0833333
vt 0.25 0.0416667
vt 0.3125 0.0416667
vt 0.3125 0.0833333
vt 0.25 0
vt 0.3125 0
vt 0.375 0
vt 0.375 0.0416667
vt 0.375 0.0833333
vt 0.375 0.125
vt 0.3125 0.125
vt 0.375 0.166667
vt 0.3125 0.166667
vt 0.25 0.166667
vt 0.25 0.125
vt 0.4375 0.0416667
vt 0.4375 0.0833333
vt 0.4375 0
vt 0.5 0
vt 0.5 0.0416667
vt 0.5 0.0833333
vt 0.5 0.125
vt 0.4375 0.125
vt 0.5 0.166667
vt 0.4375 0.166667
vt 0.375 0.25
vt 0.375 0.208333
vt 0.4375 0.208333
vt 0.4375 0.25
vt 0.5 0.208333
vt 0.5 0.25
vt 0.5 0.291667
vt 0.4375 0.291667
vt 0.375 0.291667
vt 0.25 0.25
vt 0.25 0.208333
vt 0.3125 0.208333
vt 0.3125 0.25
vt 0.3125 0.291667
vt 0.25 0.291667
vt 0.5625 0.333333
vt 0.59375 0.333333
vt 0.59375 0.375
vt 0.5625 0.375
vt 0.625 0.333333
vt 0.625 0.375
vt 0.625 0.417643
vt 0.59375 0.416667
vt 0.561496 0.418386
vt 0.53125 0.416667
vt 0.53125 0.375
vt 0.53125 0.333333
vt 0.59375 0.458333
vt 0.5625 0.458333
vt 0.625 0.458333
vt 0.53125 0.458333
vt 0.6875 0.333333
vt 0.71875 0.333333
vt 0.71875 0.375
vt 0.6875 0.375
vt 0.71875 0.416667
vt 0.687691 0.418176
vt 0.65625 0.416667
vt 0.65625 0.375
vt 0.65625 0.333333
vt 0.71875 0.458333
vt 0.6875 0.458333
vt 0.65625 0.458333
vt 0.0625 0.416921
vt 0.03125 0.416667
vt 0.03125 0.375
vt 0.0625 0.375
vt 0 0.416667
vt 0 0.375
vt 0 0.333333
vt 0.03125 0.333333
vt 0.0625 0.333333
vt 0.09375 0.333333
vt 0.09375 0.375
vt 0.125 0.333333
vt 0.125 0.375
vt 0.125 0.417643
vt 0.09375 0.416667
vt 0.03125 0.458333
vt 0 0.458333
vt 0.0625 0.458333
vt 0.09375 0.458333
vt 0.125 0.458333
vt 0.188497 0.418301
vt 0.15625 0.416667
vt 0.15625 0.375
vt 0.1875 0.375
vt 0.15625 0.333333
vt 0.1875 0.333333
vt 0.21875 0.333333
vt 0.21875 0.375
vt 0.21875 0.416667
vt 0.15625 0.458333
vt 0.1875 0.458333
vt 0.21875 0.458333
vt -0.0965528 1
vt -0.0997347 0
vt 0.0997347 0
vt 0.0965528 1
vt -0.097025 1
vt -0.0944484 0
vt 0.0944484 0
vt 0.097025 1
vt -0.0992544 1
vt -0.097025 0
vt 0.097025 0
vt 0.0992544 1
vt -0.0941816 0
vt 0.0941816 0
vt -0.0944484 1
vt -0.0926236 0
vt 0.0926236 0
vt 0.0944484 1
vt -0.0997347 1
vt -0.0965528 0
vt 0.0965528 0
vt 0.0997347 1
vt -0.0992544 0
vt 0.0992544 0
vt -0.0941816 1
vt 0.0941816 1
vt -0.0926236 1
vt 0.0926236 1
vt 0.875 0.502964
vt 0.8125 0.502596
vt 0.757812 0.502645
vt 1 0.49313
vt 0.9375 0.502596
vt 0.375 0.502964
vt 0.3125 0.502596
vt 0.257811 0.502524
vt 0.492188 0.502645
vt 0.4375 0.502596
vt 0.625 0.499327
vt 0.59375 0.49971
vt 0.5618 0.50212
vt 0.53125 0.501118
vt 0.71875 0.501118
vt 0.688092 0.502092
vt 0.65625 0.49971
vt 0.03125 0.501118
vt 0.0625 0.501241
vt 0 0.49313
vt 0.125 0.499327
vt 0.09375 0.49971
vt 0.15625 0.49971
vt 0.188199 0.502098
vt 0.21875 0.501118
vt 1 0
vt 1 1
mtllib top.mtl
usemtl top
g Default
f 11/1/1 34/2/2 32/3/3 39/4/4
f 34/2/2 2/5/5 36/6/6 32/3/3
f 32/3/3 36/6/6 6/7/7 38/8/8
f 39/4/4 32/3/3 38/8/9 10/9/10
f 10/9/10 40/10/11 29/11/12 39/4/4
f 39/4/4 29/11/12 42/12/13 11/1/1
f 10/9/10 38/8/14 37/13/15 47/14/16
f 38/8/9 6/7/7 44/15/17 37/13/15
f 37/13/15 44/15/17 1/16/18 46/17/19
f 47/14/16 37/13/15 46/17/19 12/18/20
f 12/18/20 49/19/21 28/20/22 47/14/16
f 47/14/16 28/20/22 40/10/11 10/9/10
f 16/21/23 52/22/24 50/23/25 57/24/26
f 52/22/24 4/25/27 54/26/28 50/23/25
f 50/23/25 54/26/28 8/27/29 56/28/30
f 57/24/26 50/23/25 56/28/31 15/29/32
f 15/29/32 58/30/33 31/31/34 57/24/26
f 57/24/26 31/31/34 60/32/35 16/21/23
f 15/29/32 56/28/36 55/33/37 65/34/38
f 56/28/31 8/27/29 62/35/39 55/33/37
f 55/33/37 62/35/39 3/36/40 64/37/41
f 65/34/38 55/33/37 64/37/41 14/38/42
f 14/38/42 67/39/43 30/40/44 65/34/38
f 65/34/38 30/40/44 58/30/33 15/29/32
f 19/41/45 68/42/46 43/43/47 71/44/48
f 68/42/46 1/45/18 44/46/17 43/43/47
f 43/43/47 44/46/17 6/47/7 69/48/49
f 71/44/48 43/43/47 69/48/49 18/49/50
f 18/49/50 73/50/51 70/51/52 71/44/48
f 73/50/51 5/52/53 75/53/54 70/51/52
f 70/51/52 75/53/54 9/54/55 77/55/56
f 71/44/48 70/51/52 77/55/56 19/41/45
f 18/49/50 69/48/49 35/56/57 79/57/58
f 69/48/49 6/47/7 36/58/6 35/56/59
f 35/56/60 36/58/6 2/59/5 78/60/61
f 79/57/58 35/56/59 78/60/61 20/61/62
f 20/61/62 81/62/63 72/63/64 79/57/58
f 81/62/65 7/64/66 83/65/67 72/63/64
f 72/63/64 83/65/67 5/52/53 73/50/51
f 79/57/58 72/63/64 73/50/51 18/49/50
f 22/66/68 84/67/69 82/68/70 87/69/71
f 84/67/69 5/52/72 83/65/73 82/68/70
f 82/68/70 83/65/73 7/64/74 86/70/75
f 87/69/71 82/68/70 86/70/75 21/71/76
f 21/71/77 88/72/78 61/73/79 87/69/71
f 88/72/78 3/36/40 62/35/39 61/73/79
f 61/73/79 62/35/39 8/27/29 89/74/80
f 87/69/71 61/73/79 89/74/80 22/66/68
f 23/75/81 91/76/82 74/77/83 92/78/84
f 91/76/85 9/54/86 75/53/87 74/77/83
f 74/77/83 75/53/87 5/52/72 84/67/69
f 92/78/84 74/77/83 84/67/69 22/66/68
f 22/66/68 89/74/80 53/79/88 92/78/84
f 89/74/80 8/27/29 54/26/28 53/79/89
f 53/79/90 54/26/28 4/25/27 93/80/91
f 92/78/84 53/79/89 93/80/91 23/75/92
f 21/81/93 86/82/94 85/83/95 100/84/96
f 86/82/97 7/85/98 98/86/99 85/83/95
f 85/83/95 98/86/99 13/87/100 99/88/101
f 100/84/96 85/83/95 99/88/101 24/89/102
f 24/89/102 101/90/103 63/91/104 100/84/96
f 101/90/103 14/38/42 64/37/41 63/91/104
f 63/91/104 64/37/41 3/36/40 88/92/78
f 100/84/96 63/91/104 88/92/78 21/81/93
f 24/89/102 99/88/101 95/93/105 103/94/106
f 99/88/101 13/87/100 102/95/107 95/93/105
f 66/96/108 67/39/43 14/38/42 101/90/103
f 103/94/106 66/96/108 101/90/103 24/89/102
f 20/97/62 78/98/61 33/99/109 105/100/110
f 78/98/61 2/5/5 34/2/2 33/99/109
f 33/99/109 34/2/2 11/1/1 104/101/111
f 105/100/110 33/99/109 104/101/111 25/102/112
f 25/102/112 106/103/113 80/104/114 105/100/110
f 106/103/113 13/87/100 98/86/99 80/104/114
f 80/104/114 98/86/99 7/85/115 81/105/116
f 105/100/110 80/104/114 81/105/117 20/97/62
f 25/102/112 104/101/111 41/106/118 107/107/119
f 104/101/111 11/1/1 42/12/13 41/106/118
f 94/108/120 102/95/107 13/87/100 106/103/113
f 107/107/119 94/108/120 106/103/113 25/102/112
f 26/109/121 108/110/122 45/111/123 109/112/124
f 108/110/122 12/113/20 46/114/19 45/111/123
f 45/111/123 46/114/19 1/115/18 68/116/46
f 109/112/124 45/111/123 68/116/46 19/117/45
f 19/117/45 77/118/125 76/119/126 109/112/124
f 77/118/127 9/120/128 110/121/129 76/119/126
f 76/119/126 110/121/129 17/122/130 111/123/131
f 109/112/124 76/119/126 111/123/131 26/109/121
f 48/124/132 49/125/21 12/113/20 108/110/122
f 112/126/133 48/124/132 108/110/122 26/109/121
f 26/109/121 111/123/131 97/127/134 112/126/133
f 111/123/131 17/122/130 113/128/135 97/127/134
f 27/129/136 114/130/137 90/131/138 115/132/139
f 114/130/137 17/122/130 110/121/129 90/131/138
f 90/131/138 110/121/129 9/120/140 91/133/141
f 115/132/139 90/131/138 91/133/142 23/134/143
f 23/134/143 93/135/91 51/136/144 115/132/139
f 93/135/91 4/25/27 52/22/24 51/136/144
f 51/136/144 52/22/24 16/21/23 116/137/145
f 115/132/139 51/136/144 116/137/145 27/129/136
f 96/138/146 113/128/135 17/122/130 114/130/137
f 117/139/147 96/138/146 114/130/137 27/129/136
f 27/129/136 116/137/145 59/140/148 117/139/147
f 116/137/145 16/21/23 60/32/35 59/140/148
f 183/141/149 162/142/150 163/143/150 182/144/149
f 157/145/151 173/146/152 172/147/152 156/148/151
f 174/149/153 151/150/154 150/151/154 175/152/153
f 181/149/155 160/142/156 161/143/156 180/152/155
f 184/149/157 157/150/151 156/151/151 185/152/157
f 178/141/158 144/153/159 145/154/159 179/144/158
f 169/155/160 142/156/161 143/157/161 168/158/160
f 160/159/156 178/160/158 179/161/158 161/162/156
f 152/145/162 187/163/163 186/164/163 153/148/162
f 171/155/164 154/150/165 155/151/165 170/158/164
f 188/141/166 148/153/167 149/154/167 189/144/166
f 144/165/159 177/160/168 176/161/168 145/166/159
f 142/167/161 167/146/169 166/147/169 143/168/161
f 177/141/168 158/142/170 159/143/170 176/144/168
f 154/145/165 181/163/155 180/164/155 155/148/165
f 164/159/171 188/160/166 189/161/166 165/162/171
f 173/155/152 146/156/172 147/157/172 172/158/152
f 151/145/154 169/146/160 168/147/160 150/148/154
f 158/159/170 174/163/153 175/164/153 159/162/170
f 148/165/167 183/160/149 182/161/149 149/166/167
f 167/155/169 152/150/162 153/151/162 166/158/169
f 187/149/163 164/142/171 165/143/171 186/152/163
f 146/167/172 171/146/164 170/147/164 147/168/172
f 162/159/150 184/163/157 185/164/157 163/162/150
f 142/169/173 169/170/174 29/11/12 40/10/11
f 169/170/174 151/171/175 42/12/13 29/11/12
f 152/172/176 167/173/177 28/20/22 49/19/21
f 167/173/177 142/169/173 40/10/11 28/20/22
f 146/174/178 173/175/179 31/31/34 58/30/33
f 173/175/179 157/176/180 60/32/35 31/31/34
f 154/177/181 171/178/182 30/40/44 67/39/43
f 171/178/182 146/174/178 58/30/33 30/40/44
f 102/95/107 144/179/183 178/180/184 95/93/105
f 95/93/105 178/180/184 160/181/185 103/94/106
f 181/182/186 66/96/108 103/94/106 160/181/185
f 154/177/181 67/39/43 66/96/108 181/182/186
f 42/12/13 151/171/175 174/183/187 41/106/118
f 41/106/118 174/183/187 158/184/188 107/107/119
f 177/185/189 94/108/120 107/107/119 158/184/188
f 144/179/183 102/95/107 94/108/120 177/185/189
f 187/186/190 48/124/132 112/126/133 164/187/191
f 152/188/176 49/125/21 48/124/132 187/186/190
f 113/128/135 148/189/192 188/190/193 97/127/134
f 97/127/134 188/190/193 164/187/191 112/126/133
f 183/191/194 96/138/146 117/139/147 162/192/195
f 148/189/192 113/128/135 96/138/146 183/191/194
f 60/32/35 157/176/180 184/193/196 59/140/148
f 59/140/148 184/193/196 162/192/195 117/139/147
f 118/194/197 119/195/198 182/144/198 163/143/197
f 119/194/198 120/195/199 149/166/199 182/161/198
f 120/194/199 121/195/200 189/144/200 149/154/199
f 121/194/200 122/195/201 165/162/201 189/161/200
f 122/194/201 123/195/202 186/152/202 165/143/201
f 123/194/202 124/195/203 153/148/203 186/164/202
f 124/194/203 125/195/204 166/158/204 153/151/203
f 125/194/204 126/195/205 143/168/205 166/147/204
f 126/194/205 127/195/206 168/158/206 143/157/205
f 127/194/206 128/195/207 150/148/207 168/147/206
f 128/194/207 129/195/208 175/152/208 150/151/207
f 129/194/208 130/195/209 159/162/209 175/164/208
f 130/194/209 131/195/210 176/144/210 159/143/209
f 131/194/210 132/195/211 145/166/211 176/161/210
f 132/194/211 133/195/212 179/144/212 145/154/211
f 133/194/212 134/195/213 161/162/213 179/161/212
f 134/194/213 135/195/214 180/152/214 161/143/213
f 135/194/214 136/195/215 155/148/215 180/164/214
f 136/194/215 137/195/216 170/158/216 155/151/215
f 137/194/216 138/195/217 147/168/217 170/147/216
f 138/194/217 139/195/218 172/158/218 147/157/217
f 139/194/218 140/195/219 156/148/219 172/147/218
f 140/194/219 141/195/220 185/152/220 156/151/219
f 141/194/220 118/195/197 163/162/197 185/164/220
