# OBJ written from /Users/denisstritar/Dropbox/1. Personal Projects/1.2 Years/2019/denisstritar.com/Modo/export/concept.obj
# Units	meters

o Sand
v -1.58097 -0.0575188 -2.57115
v 2.30877 0.0586934 -1.48974
v 1.9978 -0.0594641 1.98254
v -2.01788 0.00477415 1.9864
v -2.05403 0.0283655 -0.325767
v 0.00275706 0.0536959 1.98219
v 1.89733 -0.0411136 0.205031
v 0.350692 0.022776 -2.04196
v -0.0687604 0.0427091 -0.0467972
v -1.88169 0.0590294 -1.47802
v -1.06818 -0.00946423 -0.166509
v 0.0744452 0.0961862 -1.04138
v -0.590059 0.0153884 -2.29542
v -0.923355 0.0413193 -1.25595
v -2.12618 -0.0348301 0.829835
v -0.981681 0.00407477 1.9882
v -0.116425 0.0346035 0.954193
v -1.11065 0.00901169 0.913147
v 0.988772 0.0373784 2.00612
v 1.90377 0.00738119 1.09998
v 0.922727 -0.0456436 0.0925013
v 0.895169 -0.0396037 1.04794
v 2.03231 -0.00835121 -0.645906
v 1.31542 0.0116246 -1.7701
v 1.0725 -0.0368413 -0.856861
v -1.73543 0.0497104 -2.00643
v -1.49321 0.173263 -1.37467
v -0.781118 -0.039135 -1.79513
v -1.20382 0.01973 -2.38517
v -1.37357 0.171055 -1.88177
v -1.97641 0.0559309 -0.909016
v -1.63538 0.273785 -0.288285
v -1.01019 -0.0255651 -0.709522
v -1.55671 0.216435 -0.857291
v -0.60147 0.0275855 -0.179455
v -0.0297998 0.31155 -0.557047
v -0.455214 0.0711133 -1.14323
v -0.534336 0.260516 -0.682916
v 0.208526 0.103131 -1.53932
v -0.188605 0.0998681 -2.10153
v -0.324815 0.134197 -1.64681
v -2.0948 0.0218462 0.249029
v -1.64046 0.226465 0.795677
v -1.11009 0.00212648 0.353122
v -1.64683 0.190345 0.252682
v -2.08659 -0.00425743 1.40885
v -1.52094 0.109921 1.89078
v -1.05625 -0.0369575 1.44583
v -1.58769 0.0757378 1.3285
v -0.52311 0.0736153 1.9014
v -0.069566 0.0204041 1.4782
v -0.626894 0.0607962 0.846584
v -0.591993 0.102225 1.35816
v -0.319439 0.0545185 0.451309
v -0.631008 0.0654492 0.36181
v 0.398185 0.108949 0.930286
v 0.891873 -0.0344537 0.579998
v 0.430684 0.231212 -0.0305683
v 0.411197 0.155187 0.460965
v 0.481618 0.0436952 1.88678
v 0.942375 0.0558148 1.53416
v 0.429022 0.108674 1.41145
v 1.46536 0.0713329 1.88974
v 1.94393 0.00755268 1.54737
v 1.40575 0.123042 1.00785
v 1.42637 0.116094 1.45957
v 1.8621 0.058025 0.657322
v 1.45815 0.18455 0.133201
v 1.43295 0.225372 0.5672
v 0.597411 0.191554 -0.937222
v 1.15723 -0.0492596 -1.33041
v 0.891865 0.000732043 -1.85114
v 0.72989 0.155411 -1.39075
v 0.968081 -0.0136484 -0.374052
v 0.502118 0.254945 -0.477282
v 1.96879 -0.00335617 -0.226155
v 1.63418 0.180561 -0.728556
v 1.5585 0.205668 -0.326727
v 2.1572 0.00511949 -1.08769
v 1.90439 0.0206771 -1.54912
v 1.77797 0.0890561 -1.16538
v -0.598494 -0.111627 -0.290382
v 0.0160346 -0.335297 0.298453
v -0.157123 0.395669 0.756825
v -0.771651 0.619339 0.16799
v 0.00712274 0.324331 -0.756825
v 0.621651 0.100661 -0.16799
v 0.448494 0.831627 0.290382
v -0.166035 1.0553 -0.298453
vn 0.0701851 0.996811 -0.0379737
vn -0.0150125 0.999755 0.016254
vn 0.0141871 0.999698 0.0200707
vn 0.155143 0.987879 0.0049825
vn -0.140613 0.985231 -0.0977135
vn -0.0454189 0.983347 -0.175974
vn -0.105763 0.993841 -0.0330813
vn 0.0439683 0.99383 -0.101824
vn 0.097312 0.990989 0.0920397
vn 0.0164203 0.998294 -0.0560313
vn -0.0119775 0.999923 0.00322539
vn 0.025397 0.99656 -0.0788857
vn -0.0557308 0.998132 -0.0250411
vn -0.0146132 0.999616 -0.0235261
vn -0.0313691 0.999492 0.00559999
vn -0.0250034 0.99925 0.0295565
vn 0.0348393 0.999392 0.0012998
vn 0.0405186 0.994274 0.0988857
vn -0.0543246 0.998521 -0.00205237
vn -0.0283904 0.998722 0.0418048
vn 0.0683138 0.997508 0.0176513
vn -0.0617009 0.996384 0.0584055
vn 0.307974 0.949912 0.0530946
vn 0.214535 0.976375 0.0258033
vn 0.16626 0.981128 0.0987233
vn 0.151227 0.982321 0.11034
vn 0.0628897 0.998019 0.00196985
vn 0.109983 0.99254 0.0526129
vn -0.0216261 0.992733 -0.118381
vn 0.377934 0.925333 0.0303973
vn 0.0287826 0.996679 -0.0761743
vn 0.110277 0.993511 0.0278401
vn -0.088537 0.994914 -0.048043
vn 0.102316 0.994624 0.0159762
vn -0.0763129 0.994006 -0.078287
vn 0.120101 0.985049 -0.123506
vn -0.0548153 0.996384 0.0649239
vn 0.0418322 0.998029 0.0467881
vn -0.174228 0.97016 0.168625
vn -0.138095 0.981824 0.130201
vn 0.0799002 0.995979 0.0405254
vn 0.02293 0.996983 -0.0741525
vn -0.0388529 0.999195 0.01004
vn 0.432183 0.901432 -0.0252418
vn 0.217152 0.971058 -0.0994522
vn 0.081264 0.995115 -0.0560597
vn 0.0583576 0.996741 -0.0556919
vn -0.10655 0.990065 0.0917571
vn -0.0953199 0.972871 -0.210799
vn -0.192599 0.956795 -0.217827
vn 0.0144855 0.98749 -0.157016
vn 0.0287817 0.992753 -0.116677
vn -0.24602 0.96322 -0.108082
vn -0.392058 0.919932 -0.00395091
vn -0.0227814 0.999442 0.0244457
vn -0.457819 0.888641 0.0268076
vn -0.0485714 0.998718 0.0142467
vn 0.0602673 0.995543 0.0725393
vn 0.0807824 0.995879 0.0412197
vn 0.123655 0.984733 -0.122516
vn 0.181462 0.979653 -0.0857419
vn 0.131886 0.991182 0.0128225
vn -0.688201 -0.495407 0.530048
vn -0.688201 -0.495407 0.530048
vn -0.688201 -0.495408 0.530048
vn -0.274653 0.95916 -0.0676574
vn -0.366038 0.926971 -0.0821022
vn -0.11327 0.991449 0.0647936
vn -0.0214925 0.996574 -0.0798667
vn -0.472356 0.8811 0.0232917
vn -0.242709 0.968245 0.0599572
vn 0.163099 0.986317 -0.0240465
vn -0.0245026 0.999697 -0.00242031
vn -0.0852684 0.996093 0.0229992
vn -0.0462749 0.996561 0.0687446
vn 0.0819651 0.996625 0.00445479
vn -0.0789372 0.996873 0.00364692
vn -0.698328 0.25417 -0.669131
vn -0.698328 0.254171 -0.669131
vn -0.698328 0.254171 -0.669131
vn -0.0596454 0.998218 -0.0018224
vn 0.0610607 0.993882 0.0920314
vn 0.19677 -0.830644 -0.520877
vn 0.205612 0.976623 0.0626976
vn 0.433158 0.894178 0.113226
vn -0.19677 0.830644 0.520877
vn -0.19677 0.830644 0.520877
vn -0.19677 0.830644 0.520877
vn -0.205317 0.978653 0.00912117
vn -0.0281855 0.999584 0.00612605
vn 0.688201 0.495408 -0.530048
vn 0.688201 0.495408 -0.530048
vn 0.216606 0.968563 0.122343
vn 0.698328 -0.254171 0.669131
vn 0.698328 -0.254171 0.669131
vt 0.31505 0.13835
vt 0.403401 0.13835
vt 0.31505 0.2267
vt 0.403401 0.2267
vt 0.2267 0.31505
vt 0.2267 0.403401
vt 0.13835 0.31505
vt 0.13835 0.403401
vt 0.668451 0.13835
vt 0.756801 0.13835
vt 0.668451 0.2267
vt 0.756801 0.2267
vt 0.491751 0.31505
vt 0.580101 0.31505
vt 0.491751 0.403401
vt 0.580101 0.403401
vt 0.668451 0.491751
vt 0.756801 0.491751
vt 0.668451 0.580101
vt 0.756801 0.580101
vt 0.491751 0.668451
vt 0.580101 0.668451
vt 0.491751 0.756801
vt 0.580101 0.756801
vt 0.31505 0.491751
vt 0.403401 0.491751
vt 0.31505 0.580101
vt 0.403401 0.580101
vt 0.2267 0.668451
vt 0.2267 0.756801
vt 0.13835 0.668451
vt 0.13835 0.756801
vt 0.2267 0.13835
vt 0.2267 0.2267
vt 0.05 0.31505
vt 0.05 0.403401
vt 0.580101 0.13835
vt 0.580101 0.2267
vt 0.403401 0.31505
vt 0.403401 0.403401
vt 0.580101 0.491751
vt 0.580101 0.580101
vt 0.403401 0.668451
vt 0.403401 0.756801
vt 0.2267 0.491751
vt 0.2267 0.580101
vt 0.05 0.668451
vt 0.05 0.756801
vt 0.05 0.05
vt 0.13835 0.05
vt 0.05 0.13835
vt 0.13835 0.13835
vt 0.31505 0.31505
vt 0.491751 0.05
vt 0.491751 0.13835
vt 0.403401 0.05
vt 0.668451 0.31505
vt 0.491751 0.491751
vt 0.668451 0.668451
vt 0.05 0.491751
vt 0.13835 0.491751
vt 0.31505 0.668451
vt 0.794504 0.395272
vt 0.794504 0.239775
vt 0.95 0.395272
vt 0.95 0.239775
vt 0.2267 0.05
vt 0.31505 0.05
vt 0.05 0.2267
vt 0.13835 0.2267
vt 0.580101 0.05
vt 0.668451 0.05
vt 0.491751 0.2267
vt 0.668451 0.403401
vt 0.491751 0.580101
vt 0.31505 0.403401
vt 0.13835 0.580101
vt 0.05 0.580101
vt 0.95 0.05
vt 0.95 0.205496
vt 0.794504 0.05
vt 0.794504 0.205496
vt 0.756801 0.31505
vt 0.756801 0.668451
vt 0.429551 0.95
vt 0.429551 0.794504
vt 0.585047 0.95
vt 0.585047 0.794504
vt 0.668451 0.756801
vt 0.31505 0.756801
vt 0.205496 0.794504
vt 0.205496 0.95
vt 0.05 0.794504
vt 0.05 0.95
vt 0.756801 0.05
vt 0.756801 0.403401
vt 0.395272 0.794504
vt 0.395272 0.95
vt 0.239775 0.794504
vt 0.239775 0.95
vt 0.756801 0.756801
vt 0.774823 0.794504
vt 0.774823 0.95
vt 0.619326 0.794504
vt 0.619326 0.95
mtllib concept.mtl
usemtl Concept
g Default
f 34/1/1 32/2/2 33/3/3
f 11/4/4 33/3/3 32/2/2
f 37/5/5 12/6/6 41/7/7
f 39/8/8 41/7/7 12/6/6
f 49/9/9 47/10/10 48/11/11
f 16/12/12 48/11/11 47/10/10
f 55/13/13 52/14/14 54/15/15
f 17/16/16 54/15/15 52/14/14
f 62/17/17 60/18/18 61/19/19
f 19/20/20 61/19/19 60/18/18
f 69/21/21 65/22/22 67/23/23
f 20/24/24 67/23/23 65/22/22
f 75/25/25 58/26/26 74/27/27
f 21/28/28 74/27/27 58/26/26
f 77/29/29 23/30/30 81/31/31
f 79/32/32 81/31/31 23/30/30
f 27/33/33 34/1/1 14/34/34
f 33/3/3 14/34/34 34/1/1
f 41/7/7 39/8/8 40/35/35
f 8/36/36 40/35/35 39/8/8
f 43/37/37 49/9/9 18/38/38
f 48/11/11 18/38/38 49/9/9
f 35/39/39 55/13/13 9/40/40
f 54/15/15 9/40/40 55/13/13
f 56/41/41 62/17/17 22/42/42
f 61/19/19 22/42/42 62/17/17
f 68/43/43 69/21/21 7/44/44
f 67/23/23 7/44/44 69/21/21
f 75/25/25 74/27/27 70/45/45
f 25/46/46 70/45/45 74/27/27
f 81/31/31 79/32/32 80/47/47
f 2/48/48 80/47/47 79/32/32
f 1/49/49 26/50/50 29/51/51
f 30/52/52 29/51/51 26/50/50
f 14/34/34 33/3/3 37/5/5
f 38/53/53 37/5/5 33/3/3
f 42/54/54 45/55/55 5/56/56
f 32/2/2 5/56/56 45/55/55
f 48/11/11 53/57/57 18/38/38
f 52/14/14 18/38/38 53/57/57
f 54/15/15 59/58/58 9/40/40
f 58/26/26 9/40/40 59/58/58
f 22/42/42 61/19/19 65/22/22
f 66/59/59 65/22/22 61/19/19
f 8/36/36 39/8/8 72/60/60
f 73/61/61 72/60/60 39/8/8
f 25/46/46 74/27/27 77/29/29
f 78/62/62 77/29/29 74/27/27
f 82/63/63 83/64/64 85/65/64
f 84/66/65 85/65/64 83/64/64
f 10/67/66 31/68/67 27/33/33
f 34/1/1 27/33/33 31/68/67
f 13/69/68 28/70/69 40/35/35
f 41/7/7 40/35/35 28/70/69
f 15/71/70 46/72/71 43/37/37
f 49/9/9 43/37/37 46/72/71
f 44/73/72 55/13/13 11/4/4
f 35/39/39 11/4/4 55/13/13
f 17/16/16 51/74/73 56/41/41
f 62/17/17 56/41/41 51/74/73
f 21/28/28 57/75/74 68/43/43
f 69/21/21 68/43/43 57/75/74
f 12/6/6 36/76/75 70/45/45
f 75/25/25 70/45/45 36/76/75
f 71/77/76 81/31/31 24/78/77
f 80/47/47 24/78/77 81/31/31
f 89/79/78 86/80/79 85/81/79
f 82/82/80 85/81/79 86/80/79
f 26/50/50 10/67/66 30/52/52
f 27/33/33 30/52/52 10/67/66
f 11/4/4 35/39/39 33/3/3
f 38/53/53 33/3/3 35/39/39
f 15/71/70 43/37/37 42/54/54
f 45/55/55 42/54/54 43/37/37
f 16/12/12 50/83/81 48/11/11
f 53/57/57 48/11/11 50/83/81
f 54/15/15 17/16/16 59/58/58
f 56/41/41 59/58/58 17/16/16
f 19/20/20 63/84/82 61/19/19
f 66/59/59 61/19/19 63/84/82
f 39/8/8 12/6/6 73/61/61
f 70/45/45 73/61/61 12/6/6
f 21/28/28 68/43/43 74/27/27
f 78/62/62 74/27/27 68/43/43
f 83/85/83 82/86/83 87/87/83
f 86/88/83 87/87/83 82/86/83
f 30/52/52 28/70/69 29/51/51
f 13/69/68 29/51/51 28/70/69
f 37/5/5 38/53/53 12/6/6
f 36/76/75 12/6/6 38/53/53
f 32/2/2 45/55/55 11/4/4
f 44/73/72 11/4/4 45/55/55
f 52/14/14 53/57/57 17/16/16
f 51/74/73 17/16/16 53/57/57
f 58/26/26 59/58/58 21/28/28
f 57/75/74 21/28/28 59/58/58
f 65/22/22 66/59/59 20/24/24
f 64/89/84 20/24/24 66/59/59
f 73/61/61 71/77/76 72/60/60
f 24/78/77 72/60/60 71/77/76
f 76/90/85 23/30/30 78/62/62
f 77/29/29 78/62/62 23/30/30
f 88/91/86 89/92/87 84/93/87
f 85/94/88 84/93/87 89/92/87
f 5/56/56 32/2/2 31/68/67
f 34/1/1 31/68/67 32/2/2
f 28/70/69 14/34/34 41/7/7
f 37/5/5 41/7/7 14/34/34
f 4/95/89 47/10/10 46/72/71
f 49/9/9 46/72/71 47/10/10
f 44/73/72 18/38/38 55/13/13
f 52/14/14 55/13/13 18/38/38
f 51/74/73 6/96/90 62/17/17
f 60/18/18 62/17/17 6/96/90
f 22/42/42 65/22/22 57/75/74
f 69/21/21 57/75/74 65/22/22
f 36/76/75 9/40/40 75/25/25
f 58/26/26 75/25/25 9/40/40
f 71/77/76 25/46/46 81/31/31
f 77/29/29 81/31/31 25/46/46
f 89/97/91 88/98/91 86/99/91
f 87/100/92 86/99/91 88/98/91
f 27/33/33 14/34/34 30/52/52
f 28/70/69 30/52/52 14/34/34
f 38/53/53 35/39/39 36/76/75
f 9/40/40 36/76/75 35/39/39
f 45/55/55 43/37/37 44/73/72
f 18/38/38 44/73/72 43/37/37
f 53/57/57 50/83/81 51/74/73
f 6/96/90 51/74/73 50/83/81
f 59/58/58 56/41/41 57/75/74
f 22/42/42 57/75/74 56/41/41
f 66/59/59 63/84/82 64/89/84
f 3/101/93 64/89/84 63/84/82
f 70/45/45 25/46/46 73/61/61
f 71/77/76 73/61/61 25/46/46
f 78/62/62 68/43/43 76/90/85
f 7/44/44 76/90/85 68/43/43
f 87/102/94 88/103/95 83/104/95
f 84/105/95 83/104/95 88/103/95
