<svg width="61" height="24" viewBox="0 0 61 24" fill="none" xmlns="http://www.w3.org/2000/svg">
<rect width="61" height="24" rx="12" fill="#82DDCA"/>
<path d="M16.672 16V7.6H19.672C20.544 7.6 21.204 7.8 21.652 8.2C22.1 8.6 22.324 9.116 22.324 9.748C22.324 10.236 22.196 10.632 21.94 10.936C21.684 11.24 21.388 11.46 21.052 11.596V11.68C21.452 11.824 21.796 12.06 22.084 12.388C22.372 12.708 22.516 13.132 22.516 13.66C22.516 14.092 22.408 14.488 22.192 14.848C21.984 15.2 21.676 15.48 21.268 15.688C20.86 15.896 20.36 16 19.768 16H16.672ZM17.944 11.104H19.516C20.004 11.104 20.376 11.008 20.632 10.816C20.888 10.616 21.016 10.316 21.016 9.916C21.016 9.124 20.508 8.728 19.492 8.728H17.944V11.104ZM17.944 14.824H19.6C20.12 14.824 20.52 14.712 20.8 14.488C21.08 14.264 21.22 13.936 21.22 13.504C21.22 13.08 21.072 12.756 20.776 12.532C20.48 12.3 20.08 12.184 19.576 12.184H17.944V14.824ZM26.8673 16.144C26.2913 16.144 25.7833 16.016 25.3433 15.76C24.9033 15.496 24.5593 15.132 24.3113 14.668C24.0633 14.204 23.9393 13.664 23.9393 13.048C23.9393 12.424 24.0593 11.876 24.2993 11.404C24.5473 10.932 24.8913 10.564 25.3313 10.3C25.7793 10.036 26.2953 9.904 26.8793 9.904C27.4553 9.904 27.9513 10.036 28.3673 10.3C28.7833 10.556 29.1033 10.9 29.3273 11.332C29.5593 11.764 29.6753 12.24 29.6753 12.76C29.6753 12.84 29.6753 12.928 29.6753 13.024C29.6753 13.112 29.6713 13.212 29.6633 13.324H25.1873C25.2273 13.876 25.4073 14.296 25.7273 14.584C26.0473 14.864 26.4233 15.004 26.8553 15.004C27.2313 15.004 27.5273 14.928 27.7433 14.776C27.9673 14.616 28.1313 14.4 28.2353 14.128H29.5193C29.3753 14.696 29.0753 15.176 28.6193 15.568C28.1633 15.952 27.5793 16.144 26.8673 16.144ZM26.8673 11.008C26.4753 11.008 26.1273 11.128 25.8233 11.368C25.5193 11.6 25.3233 11.928 25.2353 12.352H28.4033C28.3713 11.952 28.2153 11.628 27.9353 11.38C27.6553 11.132 27.2993 11.008 26.8673 11.008ZM34.6386 16C34.0546 16 33.5906 15.86 33.2466 15.58C32.9026 15.292 32.7306 14.784 32.7306 14.056V11.128H31.2306V10.048H32.1186C32.5266 10.048 32.7666 9.848 32.8386 9.448L33.0186 8.488H34.0026V10.048H36.3546V11.128H34.0026V14.032C34.0026 14.344 34.0706 14.564 34.2066 14.692C34.3506 14.812 34.5946 14.872 34.9386 14.872H36.3306V16H34.6386ZM40.6459 16.144C40.1739 16.144 39.7779 16.064 39.4579 15.904C39.1379 15.736 38.8979 15.516 38.7379 15.244C38.5779 14.964 38.4979 14.66 38.4979 14.332C38.4979 13.748 38.7099 13.292 39.1339 12.964C39.5659 12.636 40.1739 12.472 40.9579 12.472H42.4939V12.34C42.4939 11.444 42.0779 10.996 41.2459 10.996C40.9019 10.996 40.6099 11.072 40.3699 11.224C40.1379 11.368 39.9819 11.604 39.9019 11.932H38.6299C38.6939 11.308 38.9619 10.816 39.4339 10.456C39.9139 10.088 40.5179 9.904 41.2459 9.904C42.1259 9.904 42.7659 10.12 43.1659 10.552C43.5659 10.984 43.7659 11.58 43.7659 12.34V16H42.6859L42.5779 15.124H42.4939C42.3179 15.404 42.0979 15.644 41.8339 15.844C41.5699 16.044 41.1739 16.144 40.6459 16.144ZM40.8859 15.076C41.4059 15.076 41.7939 14.92 42.0499 14.608C42.3139 14.288 42.4579 13.884 42.4819 13.396H41.0899C40.6339 13.396 40.3099 13.472 40.1179 13.624C39.9339 13.768 39.8419 13.972 39.8419 14.236C39.8419 14.5 39.9339 14.708 40.1179 14.86C40.3099 15.004 40.5659 15.076 40.8859 15.076Z" fill="#007158"/>
</svg>
