<svg width="204" height="40" viewBox="0 0 204 40" fill="none" xmlns="http://www.w3.org/2000/svg">
<mask id="mask0_21_445" style="mask-type:alpha" maskUnits="userSpaceOnUse" x="0" y="0" width="36" height="40">
<path fill-rule="evenodd" clip-rule="evenodd" d="M1.29017 9.00499C0.491908 9.46501 4.11902e-08 10.3162 4.48689e-08 11.2376L1.14654e-07 28.7155C1.18324e-07 29.6348 0.489723 30.4844 1.28516 30.9452L16.3171 39.6529C17.1154 40.1154 18.1 40.1157 18.8987 39.6538L34.1432 30.8375C34.9396 30.377 35.43 29.5268 35.43 28.6069L35.43 11.395C35.43 10.4751 34.9396 9.62495 34.1432 9.16441L18.8953 0.346154C18.0985 -0.11468 17.1163 -0.115431 16.3188 0.344184L1.29017 9.00499ZM8.5905 13.8149L16.7501 9.11418C17.2809 8.8084 17.9344 8.8084 18.4651 9.11418L20.3969 10.2271C20.9701 10.5573 20.9705 11.3844 20.3975 11.7152L12.669 16.1767C12.1375 16.4836 11.81 17.0507 11.81 17.6645L11.81 19.5741C11.81 20.2381 12.5313 20.651 13.1039 20.3147L24.4797 13.6335C25.0104 13.3218 25.6674 13.3179 26.2019 13.6233L26.7269 13.9233C27.2621 14.2292 27.5925 14.7984 27.5925 15.4148L27.5925 15.785C27.5925 16.4004 27.2632 16.9689 26.7294 17.2751L15.0622 23.968C14.4823 24.3007 14.488 25.1392 15.0725 25.4639L16.7672 26.4055C17.2894 26.6956 17.9248 26.6936 18.4451 26.4002L26.4191 21.9041C26.9916 21.5813 27.6998 21.995 27.6998 22.6523L27.6998 24.8044C27.6998 25.4195 27.371 25.9876 26.8377 26.294L18.4645 31.1042C17.934 31.409 17.2815 31.4086 16.7513 31.1032L8.5905 26.4017C8.05821 26.0951 7.73018 25.5275 7.73018 24.9132L7.73018 15.3035C7.73018 14.6892 8.05821 14.1216 8.5905 13.8149Z" fill="black"/>
</mask>
<g mask="url(#mask0_21_445)">
<rect width="21.6842" height="21.1201" transform="matrix(3.78113e-05 1 0.866002 0.50004 -0.00585938 8.55273)" fill="#2E3137"/>
<rect width="21.6906" height="22.6225" transform="matrix(0.866002 -0.500041 3.76266e-05 -1 17.5098 42.6763)" fill="#3F434B"/>
<rect width="21.7656" height="20.9467" transform="matrix(-0.86604 -0.499975 -0.86604 0.499975 36.3857 9.61475)" fill="#474C55"/>
</g>
<path d="M48.5459 10.4028H61.1639V13.8661H52.5729V18.081H59.5531V21.3832H52.5729V25.7323H61.4592V29.1956H48.5459V10.4028Z" fill="#353B42"/>
<path d="M83.8035 16.7118C84.7163 17.7052 85.1995 19.3428 85.1995 21.6248V29.2224H81.4141V21.4906C81.4141 19.3965 80.6087 18.3495 79.0247 18.3495C78.1925 18.3495 77.5213 18.6448 77.0381 19.2354C76.528 19.8261 76.2864 20.6315 76.2864 21.6516V29.2224H72.501V21.4906C72.501 19.3965 71.6956 18.3495 70.0848 18.3495C69.2525 18.3495 68.5814 18.6716 68.0981 19.2623C67.6149 19.8529 67.3732 20.6583 67.3732 21.6785V29.2224H63.5879V15.3963H66.89L67.239 17.1145C67.6954 16.5239 68.2592 16.0675 68.9035 15.7453C69.5478 15.4232 70.3532 15.2621 71.3197 15.2353C73.2795 15.2353 74.6487 16.0138 75.4273 17.5709C75.9105 16.8192 76.5817 16.2554 77.3871 15.8527C78.1925 15.45 79.1321 15.2353 80.1792 15.2353C81.6557 15.2353 82.8638 15.7453 83.8035 16.7118Z" fill="#353B42"/>
<path d="M98.8257 16.0943C99.7922 16.6581 100.544 17.4635 101.081 18.5374C101.618 19.6113 101.913 20.8462 101.913 22.2691C101.913 23.6651 101.618 24.9001 101.081 25.974C100.544 27.0478 99.7922 27.8801 98.8257 28.4707C97.8592 29.0613 96.7585 29.3567 95.5504 29.3567C94.5839 29.3567 93.7248 29.1956 93.0268 28.8197C92.3019 28.4439 91.7113 27.9606 91.2549 27.3163L90.8791 29.1956H87.5769V10.4028H91.3623V17.1414C92.4093 15.8796 93.8054 15.2353 95.5236 15.2353C96.7585 15.2353 97.8592 15.5306 98.8257 16.0943ZM97.1344 25.1686C97.7518 24.4437 98.074 23.4772 98.074 22.296C98.074 21.1147 97.7518 20.1751 97.1344 19.4233C96.49 18.6985 95.6846 18.3226 94.6645 18.3226C93.6443 18.3226 92.812 18.6985 92.2214 19.4233C91.6039 20.1482 91.3086 21.0878 91.3086 22.2691C91.3086 23.4772 91.6039 24.4437 92.2214 25.1686C92.812 25.9203 93.6443 26.2693 94.6645 26.2693C95.6846 26.2693 96.49 25.9203 97.1344 25.1686Z" fill="#353B42"/>
<path d="M104.337 18.5911C104.928 17.5172 105.734 16.7118 106.781 16.1212C107.828 15.5306 109.036 15.2353 110.432 15.2353C111.828 15.2353 113.036 15.5306 114.11 16.0675C115.184 16.6044 116.016 17.383 116.606 18.3763C117.197 19.3697 117.519 20.5241 117.546 21.8664C117.546 22.3496 117.492 22.7792 117.439 23.1551H107.425V23.2624C107.505 24.2826 107.828 25.0612 108.391 25.625C108.928 26.2156 109.707 26.484 110.673 26.484C111.425 26.484 112.069 26.323 112.579 26.0008C113.09 25.6786 113.439 25.1686 113.6 24.5242H117.331C117.17 25.437 116.821 26.2693 116.284 26.9941C115.721 27.7458 114.996 28.3096 114.083 28.7392C113.17 29.1687 112.123 29.3567 110.942 29.3567C109.385 29.3567 108.069 29.0882 106.942 28.4976C105.814 27.9338 104.955 27.1284 104.364 26.0545C103.774 24.9806 103.478 23.7457 103.478 22.3228C103.478 20.8999 103.747 19.665 104.337 18.5911ZM113.761 20.6851C113.626 19.8529 113.277 19.2086 112.714 18.7522C112.15 18.2958 111.452 18.0542 110.593 18.0542C109.761 18.0542 109.063 18.2958 108.499 18.779C107.935 19.2623 107.613 19.8797 107.505 20.6851H113.761Z" fill="#353B42"/>
<path d="M133.414 10.4028V29.1956H130.112L129.736 27.2895C128.662 28.6855 127.239 29.3567 125.441 29.3567C124.206 29.3567 123.132 29.0882 122.165 28.4976C121.199 27.9069 120.42 27.0747 119.883 26.0008C119.346 24.9269 119.078 23.692 119.078 22.2691C119.078 20.8731 119.346 19.665 119.883 18.5911C120.42 17.5172 121.199 16.7118 122.165 16.1212C123.132 15.5306 124.232 15.2353 125.467 15.2353C127.239 15.2353 128.635 15.8796 129.629 17.1145V10.4028H133.414ZM128.77 25.1954C129.36 24.4705 129.682 23.5041 129.682 22.3228C129.682 21.1415 129.36 20.1751 128.77 19.4233C128.152 18.6985 127.347 18.3226 126.326 18.3226C125.306 18.3226 124.474 18.6985 123.857 19.4233C123.239 20.1751 122.944 21.1147 122.944 22.296C122.944 23.4772 123.239 24.4437 123.857 25.1686C124.474 25.9203 125.306 26.2693 126.326 26.2693C127.347 26.2693 128.152 25.9203 128.77 25.1954Z" fill="#353B42"/>
<path d="M149.852 10.4028V29.1956H146.55L146.174 27.2895C145.101 28.6855 143.678 29.3567 141.879 29.3567C140.644 29.3567 139.57 29.0882 138.604 28.4976C137.637 27.9069 136.859 27.0747 136.322 26.0008C135.785 24.9269 135.516 23.692 135.516 22.2691C135.516 20.8731 135.785 19.665 136.322 18.5911C136.859 17.5172 137.637 16.7118 138.604 16.1212C139.57 15.5306 140.671 15.2353 141.906 15.2353C143.678 15.2353 145.074 15.8796 146.067 17.1145V10.4028H149.852ZM145.208 25.1954C145.799 24.4705 146.121 23.5041 146.121 22.3228C146.121 21.1415 145.799 20.1751 145.208 19.4233C144.59 18.6985 143.785 18.3226 142.765 18.3226C141.745 18.3226 140.912 18.6985 140.295 19.4233C139.677 20.1751 139.382 21.1147 139.382 22.296C139.382 23.4772 139.677 24.4437 140.295 25.1686C140.912 25.9203 141.745 26.2693 142.765 26.2693C143.785 26.2693 144.59 25.9203 145.208 25.1954Z" fill="#353B42"/>
<path d="M166.076 26.0008V29.1956H164.143C162.398 29.1956 161.539 28.4439 161.593 26.9404C161.083 27.7458 160.465 28.3365 159.74 28.7392C158.988 29.1687 158.103 29.3567 157.082 29.3567C155.525 29.3567 154.29 29.0076 153.351 28.3096C152.411 27.6116 151.955 26.5914 151.955 25.3028C151.955 23.8531 152.492 22.7255 153.565 21.9201C154.639 21.1147 156.223 20.712 158.29 20.712H161.029V20.0408C161.029 19.4233 160.787 18.9401 160.331 18.5643C159.848 18.1884 159.23 18.0005 158.452 18.0005C157.754 18.0005 157.163 18.1616 156.733 18.4569C156.277 18.779 156.008 19.1817 155.928 19.6918H152.277C152.384 18.2958 153.028 17.1951 154.156 16.4165C155.284 15.638 156.76 15.2353 158.639 15.2353C160.572 15.2353 162.076 15.6648 163.15 16.5239C164.224 17.383 164.761 18.6448 164.761 20.2556V25.1149C164.761 25.4639 164.814 25.7055 164.975 25.8129C165.11 25.9471 165.324 26.0008 165.646 26.0008H166.076ZM161.029 23.2356H158.264C157.458 23.2356 156.841 23.3967 156.411 23.7188C155.982 24.041 155.767 24.4705 155.767 25.0343C155.767 25.5176 155.928 25.9203 156.304 26.1887C156.68 26.484 157.163 26.6183 157.807 26.6183C158.774 26.6183 159.552 26.3498 160.143 25.786C160.707 25.2223 161.002 24.4705 161.029 23.5041V23.2356Z" fill="#353B42"/>
<path d="M178.789 16.0943C179.756 16.6581 180.507 17.4635 181.044 18.5374C181.581 19.6113 181.877 20.8462 181.877 22.2691C181.877 23.6651 181.581 24.9001 181.044 25.974C180.507 27.0478 179.756 27.8801 178.789 28.4707C177.823 29.0613 176.722 29.3567 175.514 29.3567C174.547 29.3567 173.688 29.1956 172.99 28.8197C172.265 28.4439 171.675 27.9606 171.218 27.3163L170.843 29.1956H167.54V10.4028H171.326V17.1414C172.373 15.8796 173.769 15.2353 175.487 15.2353C176.722 15.2353 177.823 15.5306 178.789 16.0943ZM177.098 25.1686C177.715 24.4437 178.038 23.4772 178.038 22.296C178.038 21.1147 177.715 20.1751 177.098 19.4233C176.454 18.6985 175.648 18.3226 174.628 18.3226C173.608 18.3226 172.776 18.6985 172.185 19.4233C171.567 20.1482 171.272 21.0878 171.272 22.2691C171.272 23.4772 171.567 24.4437 172.185 25.1686C172.776 25.9203 173.608 26.2693 174.628 26.2693C175.648 26.2693 176.454 25.9203 177.098 25.1686Z" fill="#353B42"/>
<path d="M183.979 10.4028H187.764V29.1956H183.979V10.4028Z" fill="#353B42"/>
<path d="M190.724 18.5911C191.315 17.5172 192.12 16.7118 193.167 16.1212C194.214 15.5306 195.422 15.2353 196.819 15.2353C198.215 15.2353 199.423 15.5306 200.497 16.0675C201.57 16.6044 202.403 17.383 202.993 18.3763C203.584 19.3697 203.906 20.5241 203.933 21.8664C203.933 22.3496 203.879 22.7792 203.826 23.1551H193.812V23.2624C193.892 24.2826 194.214 25.0612 194.778 25.625C195.315 26.2156 196.094 26.484 197.06 26.484C197.812 26.484 198.456 26.323 198.966 26.0008C199.476 25.6786 199.825 25.1686 199.986 24.5242H203.718C203.557 25.437 203.208 26.2693 202.671 26.9941C202.107 27.7458 201.382 28.3096 200.47 28.7392C199.557 29.1687 198.51 29.3567 197.329 29.3567C195.771 29.3567 194.456 29.0882 193.328 28.4976C192.201 27.9338 191.342 27.1284 190.751 26.0545C190.161 24.9806 189.865 23.7457 189.865 22.3228C189.865 20.8999 190.134 19.665 190.724 18.5911ZM200.148 20.6851C200.013 19.8529 199.664 19.2086 199.1 18.7522C198.537 18.2958 197.839 18.0542 196.98 18.0542C196.147 18.0542 195.449 18.2958 194.886 18.779C194.322 19.2623 194 19.8797 193.892 20.6851H200.148Z" fill="#353B42"/>
</svg>
