<svg width="128" height="128" viewBox="0 0 128 128" fill="none" xmlns="http://www.w3.org/2000/svg">
<path d="M104.261 15.2409C109.196 20.1784 113.056 25.9805 115.663 32.3597C116.432 34.2416 116.201 36.3606 115.038 38.0487L114.728 38.4613L114.38 38.8429L102.103 51.122L102.655 52.0536C113.733 71.2081 111.407 95.3787 96.5589 111.678L95.7659 112.528L94.9498 113.364C75.2027 133.117 42.9236 132.837 22.8521 112.759C17.9163 107.822 14.0568 102.019 11.4499 95.6403C10.6017 93.5646 10.974 91.2149 12.388 89.533L12.7326 89.1571L25.0068 76.8718L24.4573 75.9464C13.3792 56.7919 15.7059 32.6213 30.5538 16.3224L31.3468 15.4719L32.1629 14.6364C51.91 -5.11711 84.1891 -4.83708 104.261 15.2409ZM93.3272 59.904L56.3618 96.8801C54.6675 98.5749 52.1152 99.0772 49.8805 98.1634C43.9589 95.7419 38.5347 92.2401 33.8381 87.799L32.7673 86.7575L32.4845 86.4687L24.2078 94.7481L24.6607 95.5871C26.2207 98.3692 28.1176 100.963 30.323 103.324L31.2869 104.321C46.655 119.695 71.3375 119.912 86.4166 104.828C98.0454 93.1952 100.763 75.5347 93.7781 60.8179L93.3272 59.904ZM76.3399 42.599L40.9204 78.0332L41.2022 78.3199C43.4956 80.6141 46.0288 82.6044 48.742 84.253L49.9157 84.9385L50.7701 85.3978L86.1896 49.9637L85.9227 49.6921L85.2696 49.0528C82.8291 46.7161 80.1327 44.7149 77.244 43.0875L76.3399 42.599ZM40.6961 23.1723C29.0674 34.8048 26.3495 52.4653 33.3347 67.1821L33.7828 68.0929L70.751 31.1199C72.3242 29.5462 74.6373 29.0007 76.7489 29.6624L77.2322 29.8366C83.1538 32.2581 88.578 35.7599 93.2746 40.201L94.3454 41.2425L94.6255 41.5282L102.902 33.2488L102.423 32.3615C101.258 30.2905 99.9066 28.3249 98.3876 26.491L97.4561 25.4067L96.4648 24.332L95.8258 23.6785C80.4577 8.30542 55.7752 8.08823 40.6961 23.1723Z" fill="#FF4F4F"/>
</svg>
