<svg width="32" height="32" viewBox="0 0 32 32" fill="none" xmlns="http://www.w3.org/2000/svg">
<path fill-rule="evenodd" clip-rule="evenodd" d="M3.03213 7.20399C2.39353 7.57201 2 8.253 2 8.99007L2 22.9724C2 23.7078 2.39178 24.3875 3.02813 24.7562L15.0537 31.7223C15.6923 32.0923 16.48 32.0926 17.1189 31.7231L29.3146 24.67C29.9517 24.3016 30.344 23.6215 30.344 22.8855L30.344 9.11603C30.344 8.38009 29.9517 7.69996 29.3146 7.33153L17.1163 0.276923C16.4788 -0.0917439 15.6931 -0.0923448 15.055 0.275347L3.03213 7.20399ZM8.8724 11.052L15.4001 7.29135C15.8247 7.04672 16.3475 7.04672 16.7721 7.29135L18.3175 8.18165C18.7761 8.44585 18.7764 9.10755 18.318 9.37216L12.1352 12.9414C11.71 13.1869 11.448 13.6406 11.448 14.1316L11.448 15.6593C11.448 16.1905 12.025 16.5208 12.4831 16.2518L21.5837 10.9068C22.0084 10.6575 22.534 10.6543 22.9615 10.8987L23.3815 11.1387C23.8097 11.3833 24.074 11.8387 24.074 12.3319L24.074 12.628C24.074 13.1203 23.8106 13.5751 23.3835 13.8201L14.0498 19.1744C13.5858 19.4406 13.5904 20.1114 14.058 20.3711L15.4138 21.1244C15.8315 21.3565 16.3398 21.3549 16.7561 21.1201L23.1353 17.5233C23.5933 17.265 24.1599 17.596 24.1599 18.1219L24.1599 19.8436C24.1599 20.3356 23.8968 20.7901 23.4702 21.0352L16.7716 24.8834C16.3472 25.1272 15.8252 25.1269 15.4011 24.8825L8.8724 21.1214C8.44657 20.8761 8.18415 20.422 8.18415 19.9306L8.18415 12.2428C8.18415 11.7513 8.44657 11.2973 8.8724 11.052Z" fill="url(#paint0_linear_2088_254)"/>
<path fill-rule="evenodd" clip-rule="evenodd" d="M3.03213 7.20399C2.39353 7.57201 2 8.253 2 8.99007L2 22.9724C2 23.7078 2.39178 24.3875 3.02813 24.7562L15.0537 31.7223C15.6923 32.0923 16.48 32.0926 17.1189 31.7231L29.3146 24.67C29.9517 24.3016 30.344 23.6215 30.344 22.8855L30.344 9.11603C30.344 8.38009 29.9517 7.69996 29.3146 7.33153L17.1163 0.276923C16.4788 -0.0917439 15.6931 -0.0923448 15.055 0.275347L3.03213 7.20399ZM8.8724 11.052L15.4001 7.29135C15.8247 7.04672 16.3475 7.04672 16.7721 7.29135L18.3175 8.18165C18.7761 8.44585 18.7764 9.10755 18.318 9.37216L12.1352 12.9414C11.71 13.1869 11.448 13.6406 11.448 14.1316L11.448 15.6593C11.448 16.1905 12.025 16.5208 12.4831 16.2518L21.5837 10.9068C22.0084 10.6575 22.534 10.6543 22.9615 10.8987L23.3815 11.1387C23.8097 11.3833 24.074 11.8387 24.074 12.3319L24.074 12.628C24.074 13.1203 23.8106 13.5751 23.3835 13.8201L14.0498 19.1744C13.5858 19.4406 13.5904 20.1114 14.058 20.3711L15.4138 21.1244C15.8315 21.3565 16.3398 21.3549 16.7561 21.1201L23.1353 17.5233C23.5933 17.265 24.1599 17.596 24.1599 18.1219L24.1599 19.8436C24.1599 20.3356 23.8968 20.7901 23.4702 21.0352L16.7716 24.8834C16.3472 25.1272 15.8252 25.1269 15.4011 24.8825L8.8724 21.1214C8.44657 20.8761 8.18415 20.422 8.18415 19.9306L8.18415 12.2428C8.18415 11.7513 8.44657 11.2973 8.8724 11.052Z" fill="black" fill-opacity="0.8" style="mix-blend-mode:overlay"/>
<defs>
<linearGradient id="paint0_linear_2088_254" x1="2" y1="15.8881" x2="49.2" y2="-7.75999" gradientUnits="userSpaceOnUse">
<stop stop-color="#C7C2FF"/>
<stop offset="1" stop-color="#FFCFE1"/>
</linearGradient>
</defs>
</svg>
