<?xml version="1.0" encoding="UTF-8" standalone="no"?>
<svg width="40px" height="40px" viewBox="0 0 40 40" version="1.1" xmlns="http://www.w3.org/2000/svg" xmlns:xlink="http://www.w3.org/1999/xlink">
    <!-- Generator: Sketch 3.8.3 (29802) - http://www.bohemiancoding.com/sketch -->
    <title>Angel_Normal</title>
    <desc>Created with Sketch.</desc>
    <defs>
        <polygon id="path-1" points="0.00835820896 39.9916667 27.8948259 39.9916667 27.8948259 0.0654166667 0.00835820896 0.0654166667"></polygon>
    </defs>
    <g id="Page-1" stroke="none" stroke-width="1" fill="none" fill-rule="evenodd">
        <g id="Angel_Normal">
            <g id="AngelList_Black_Victory_Hand" transform="translate(6.000000, 0.000000)">
                <mask id="mask-2" fill="white">
                    <use xlink:href="#path-1"></use>
                </mask>
                <g id="Clip-2"></g>
            </g>
            <circle id="Oval-37-Copy-3" fill="#404040" cx="20" cy="20" r="20"></circle>
            <path d="M24.810592,17.785792 C25.603241,15.6191028 26.2218632,13.8303928 26.6656496,12.419662 C27.1094359,11.0089313 27.3313741,10.1428343 27.3313741,9.82146149 C27.3313741,9.47621631 27.2573947,9.2083755 27.1094359,9.01784863 C26.9612974,8.82759304 26.7571575,8.73219397 26.4970162,8.73219397 C26.165682,8.73219397 25.8283253,9.00898692 25.4852156,9.56248239 C25.1417464,10.1160683 24.7633099,11.0062185 24.3490974,12.2322096 L22.5739519,17.3928925 L24.810592,17.785792 L24.810592,17.785792 Z M22.4496342,22.589384 C21.9407676,22.5656021 21.4583285,22.5120701 21.0029464,22.4286976 C20.5472946,22.3455964 20.1124073,22.226325 19.6981947,22.0716067 C19.887323,22.4527509 20.0559565,22.8334429 20.204095,23.2144062 C20.3520537,23.5956408 20.4731354,23.970636 20.5680591,24.3393919 C20.8520213,23.9823009 21.1509051,23.6581249 21.4645309,23.3662309 C21.7778871,23.0745177 22.1062548,22.815629 22.4496342,22.589384 L22.4496342,22.589384 Z M20.4437414,17.1786742 L18.52657,11.6071874 C18.0295688,10.1904886 17.64493,9.26516282 17.3728333,8.83039624 C17.1002871,8.39581051 16.8047292,8.17860807 16.4851707,8.17860807 C16.236715,8.17860807 16.0352718,8.27409757 15.88165,8.46426274 C15.7277585,8.6547896 15.6509026,8.91069423 15.6509026,9.23215745 C15.6509026,9.77977526 15.8577393,10.7322287 16.2722215,12.0893371 C16.6863442,13.4464454 17.3076631,15.2262033 18.1360883,17.4286107 C18.2071013,17.2976743 18.3074184,17.2054401 18.4378486,17.1518177 C18.5680092,17.0982857 18.7455417,17.0715197 18.9703563,17.0715197 C19.0413693,17.0715197 19.1833953,17.0776687 19.3964344,17.0893336 C19.6093835,17.1012698 19.958336,17.1312911 20.4437414,17.1786742 L20.4437414,17.1786742 Z M18.7041025,25.803745 C18.905276,25.803745 19.0884716,25.7116917 19.2544083,25.5269521 C19.4200754,25.3423933 19.5029539,25.1430047 19.5029539,24.9286959 C19.5029539,24.7027222 19.3401633,24.1759927 19.0147619,23.3483266 C18.6890909,22.5209318 18.2839572,21.7084572 17.7988214,20.9108125 C17.4437564,20.3155403 17.0946241,19.8662152 16.7515144,19.5625659 C16.4080451,19.2590069 16.0828235,19.1071822 15.7751305,19.1071822 C15.5265849,19.1071822 15.251432,19.2652463 14.9496717,19.5804701 C14.6479113,19.8959653 14.4969862,20.1905721 14.4969862,20.464381 C14.4969862,20.7501261 14.6449449,21.1787437 14.9407726,21.7501435 C15.2364204,22.3215432 15.6331044,22.9287515 16.1301955,23.5715876 C16.6509276,24.274195 17.1419961,24.8215415 17.6035806,25.214441 C18.0650753,25.6072501 18.4316462,25.803745 18.7041025,25.803745 L18.7041025,25.803745 Z M13.3786661,25.3751274 C13.5443332,25.5777713 13.7751704,25.8751813 14.070998,26.2679904 C14.8520512,27.3513802 15.5736872,27.8930299 16.236715,27.8930299 C16.46126,27.8930299 16.6627032,27.8215936 16.8402357,27.6787211 C17.0176783,27.5358486 17.1064896,27.3870983 17.1064896,27.2322896 C17.1064896,27.0537894 16.9881046,26.7563794 16.7515144,26.3394266 C16.5144748,25.9227452 16.1893431,25.452803 15.7751305,24.9286959 C15.3017703,24.321578 14.9080526,23.8781306 14.5946965,23.5983536 C14.2810707,23.3188478 14.029379,23.1786881 13.8402507,23.1786881 C13.4257684,23.1786881 13.044096,23.401949 12.6952333,23.8483805 C12.3461909,24.294812 12.1716248,24.8215415 12.1716248,25.4286594 C12.1716248,25.9170484 12.2928862,26.4616821 12.535499,27.0626511 C12.7778421,27.6638009 13.1301206,28.2680251 13.5917052,28.875143 C14.2899698,29.8156603 15.1565083,30.5386135 16.1923094,31.0446355 C17.227751,31.5510192 18.3727684,31.8034876 19.6271817,31.8034876 C21.9349247,31.8034876 23.8668381,30.9374811 25.4230118,29.2055584 C26.9790057,27.4733644 27.7573622,25.3037815 27.7573622,22.6965384 C27.7573622,21.899165 27.697945,21.2652811 27.5798297,20.7947964 C27.4615346,20.3244925 27.2662938,19.9822314 26.9940173,19.7679225 C26.508612,19.3634486 25.5651277,19.0001182 24.1626657,18.678655 C22.7603835,18.3572822 21.2958076,18.1965054 19.7692077,18.1965054 C19.3432196,18.1965054 19.0413693,18.2679417 18.8639267,18.4108142 C18.6863942,18.5536868 18.597583,18.7977456 18.597583,19.1429004 C18.597583,19.9527526 19.0473021,20.5388013 19.9467402,20.9018603 C20.8459088,21.2652811 22.3014957,21.4465845 24.3135909,21.4465845 L25.0414292,21.4465845 C25.2070963,21.4465845 25.3402232,21.5090687 25.44081,21.6340369 C25.5411271,21.7590052 25.6094434,21.946548 25.6449499,22.196575 C25.4435067,22.3870114 25.0295638,22.6045755 24.4023122,22.8483631 C23.7748808,23.0923316 23.2955879,23.3334064 22.9645235,23.5715876 C22.2543934,24.0956043 21.6834128,24.7174615 21.2514919,25.4376115 C20.8192115,26.1581232 20.6035656,26.8394805 20.6035656,27.4823166 C20.6035656,27.8752161 20.6949836,28.3484136 20.8787186,28.901909 C21.0620939,29.4555853 21.1537816,29.7977561 21.1537816,29.9287828 L21.1537816,30.0537511 L21.1182751,30.2144375 C20.5973632,30.1787194 20.1863867,29.8724476 19.8846263,29.2948085 C19.582866,28.7174407 19.4319409,27.9466523 19.4319409,26.9822627 L19.4319409,26.8215763 C19.3370172,26.9049487 19.2455093,26.9644488 19.1567879,27.0001669 C19.0680666,27.0358851 18.9703563,27.0537894 18.8639267,27.0537894 C18.7573173,27.0537894 18.6567305,27.0448372 18.5620765,27.0269329 C18.4671527,27.0091191 18.3607231,26.9822627 18.2426078,26.9465445 C18.2781143,27.0777522 18.3047217,27.2055236 18.32243,27.3304919 C18.3402282,27.4555506 18.3490374,27.5537528 18.3490374,27.6251891 C18.3490374,28.0656525 18.1775275,28.443903 17.8343279,28.7591269 C17.4908587,29.074622 17.0825788,29.2323244 16.6093985,29.2323244 C15.8639417,29.2323244 15.1065295,28.8662813 14.3372519,28.1341047 C13.5677945,27.4019282 13.1834253,26.6849431 13.1834253,25.9823357 C13.1834253,25.8513993 13.1982571,25.7352928 13.2278309,25.634016 C13.257135,25.533101 13.3076531,25.4465637 13.3786661,25.3751274 L13.3786661,25.3751274 Z M26.0887363,18.089351 C27.1538415,18.2919949 27.905321,18.7441232 28.3431746,19.4465497 C28.7807586,20.1491571 29,21.2563289 29,22.7679747 C29,25.7680269 28.1035282,28.2233549 26.3105845,30.1341395 C24.5177308,32.0446529 22.2248196,33 19.4319409,33 C18.3313291,33 17.2633474,32.800521 16.2278159,32.4017438 C15.1920148,32.0029667 14.3017454,31.4463967 13.5561987,30.7321244 C12.7041324,29.9465967 12.0650154,29.1162178 11.6390272,28.2412591 C11.2129491,27.36621 11,26.4706343 11,25.5537181 C11,24.5299187 11.2189718,23.7385133 11.6567355,23.1786881 C12.0944093,22.6191341 12.7866514,22.238442 13.7337312,22.0358886 C13.5561987,21.6191167 13.4257684,21.2679938 13.3431596,20.9822487 C13.260371,20.6965037 13.2189318,20.4763172 13.2189318,20.3215989 C13.2189318,19.7858268 13.4999276,19.2383899 14.0620989,18.678655 C14.6240006,18.119101 15.1538116,17.839324 15.6509026,17.839324 C15.8639417,17.839324 16.0884866,17.8780262 16.3254363,17.9554306 C16.5621164,18.0331062 16.8340333,18.1607873 17.1419961,18.3393779 C16.2305126,15.744071 15.5680242,13.7411426 15.1538116,12.3304119 C14.7393293,10.9196811 14.5325826,9.94642975 14.5325826,9.41074813 C14.5325826,8.67269388 14.721621,8.08655475 15.1005968,7.65178817 C15.4793029,7.21720244 15.9941022,7 16.644905,7 C17.7571125,7 19.165687,9.49999826 20.8698195,14.5000852 C21.1654673,15.3572301 21.3905516,16.0178799 21.5443532,16.4822157 C21.6745137,16.1134599 21.8577093,15.5893527 22.094659,14.9107986 C23.7987915,9.95836594 25.2660641,7.48214963 26.4970162,7.48214963 C27.1006267,7.48214963 27.5826163,7.6875063 27.9437939,8.09821966 C28.3047017,8.50893301 28.4852006,9.05980614 28.4852006,9.75002521 C28.4852006,10.2740419 28.2869934,11.2321922 27.8904892,12.6250187 C27.4938051,14.0179356 26.8934305,15.8392893 26.0887363,18.089351 L26.0887363,18.089351 Z" id="Fill-1" fill="#F4F4F4"></path>
        </g>
    </g>
</svg>